<?xml version="1.0" encoding="utf-8"?>
<!-- Generator: Adobe Illustrator 17.1.0, SVG Export Plug-In . SVG Version: 6.00 Build 0)  -->
<!DOCTYPE svg PUBLIC "-//W3C//DTD SVG 1.1//EN" "http://www.w3.org/Graphics/SVG/1.1/DTD/svg11.dtd">
<svg version="1.1" id="Layer_2" xmlns="http://www.w3.org/2000/svg" xmlns:xlink="http://www.w3.org/1999/xlink" x="0px" y="0px"
	 viewBox="0 0 300 300" enable-background="new 0 0 300 300" xml:space="preserve">
<g>
	<defs>
		<filter id="Adobe_OpacityMaskFilter" filterUnits="userSpaceOnUse" x="48.6" y="45.8" width="240.8" height="240.8">
			<feColorMatrix  type="matrix" values="1 0 0 0 0  0 1 0 0 0  0 0 1 0 0  0 0 0 1 0"/>
		</filter>
	</defs>
	<mask maskUnits="userSpaceOnUse" x="48.6" y="45.8" width="240.8" height="240.8" id="SVGID_1_">
		<g filter="url(#Adobe_OpacityMaskFilter)">
			
				<radialGradient id="SVGID_2_" cx="-41.034" cy="1040.7208" r="11.8056" gradientTransform="matrix(10.368 0 0 -10.368 594.4402 10956.4404)" gradientUnits="userSpaceOnUse">
				<stop  offset="0" style="stop-color:#FFFFFF"/>
				<stop  offset="8.943853e-02" style="stop-color:#F2F2F2"/>
				<stop  offset="0.2569" style="stop-color:#CECECE"/>
				<stop  offset="0.4843" style="stop-color:#949494"/>
				<stop  offset="0.7596" style="stop-color:#464646"/>
				<stop  offset="0.9862" style="stop-color:#000000"/>
			</radialGradient>
			<path fill="url(#SVGID_2_)" d="M291.4,166.2c0,67.6-54.8,122.4-122.4,122.4S46.6,233.8,46.6,166.2S101.4,43.8,169,43.8
				S291.4,98.6,291.4,166.2z"/>
		</g>
	</mask>
	<circle mask="url(#SVGID_1_)" cx="169" cy="166.2" r="120.4"/>
	<path fill="#BD7D00" d="M263,159.2l-55.6-104c-4.8-9-16-12.4-25-7.6L58.4,114c-9,4.8-12.4,16-7.6,25l55.6,104c4.8,9,16,12.4,25,7.6
		l124-66.4C264.4,179.6,267.8,168.2,263,159.2z"/>
	
		<linearGradient id="SVGID_3_" gradientUnits="userSpaceOnUse" x1="614.8532" y1="-606.9332" x2="614.8532" y2="-635.0405" gradientTransform="matrix(4.8844 9.1456 9.1456 -4.8844 2798.5752 -8488.8594)">
		<stop  offset="0" style="stop-color:#FFE385"/>
		<stop  offset="0.3136" style="stop-color:#FFD86B"/>
		<stop  offset="0.9811" style="stop-color:#FEBB29"/>
		<stop  offset="1" style="stop-color:#FEBA27"/>
	</linearGradient>
	<path fill="url(#SVGID_3_)" d="M130.4,248.6c-8,4.2-18,1.4-22.4-6.8L52.6,138c-4.2-8-1.4-18,6.8-22.4l124-66c8-4.2,18-1.4,22.6,6.8
		L261.4,160c4.2,8,1.4,18-6.8,22.4L130.4,248.6z"/>
	
		<linearGradient id="SVGID_4_" gradientUnits="userSpaceOnUse" x1="620.2996" y1="-624.6358" x2="620.2996" y2="-626.5252" gradientTransform="matrix(4.8844 9.1456 9.1456 -4.8844 2798.5752 -8488.8594)">
		<stop  offset="0" style="stop-color:#EBB02E"/>
		<stop  offset="0.5143" style="stop-color:#F5C248"/>
		<stop  offset="1" style="stop-color:#FFD564"/>
	</linearGradient>
	<path fill="url(#SVGID_4_)" d="M118,233.6c-2.6-4.8-8.4-6.6-13-3.8c-1,0.4-1.8,1.2-2.6,2l5.6,10.4c1.2,2.2,2.8,3.8,4.6,5.4
		c0.4-0.2,1-0.4,1.4-0.6C118.8,244.2,120.4,238.2,118,233.6z"/>
	<circle fill="#FF7D40" cx="183.6" cy="176.8" r="69.4"/>
	<circle fill="#F82100" cx="183.6" cy="176.8" r="68.4"/>
	
		<radialGradient id="SVGID_5_" cx="-39.6258" cy="1039.6985" r="6.4236" gradientTransform="matrix(10.368 0 0 -10.368 594.4402 10956.4404)" gradientUnits="userSpaceOnUse">
		<stop  offset="0" style="stop-color:#FC9F77"/>
		<stop  offset="0.1263" style="stop-color:#FCB68F"/>
		<stop  offset="0.254" style="stop-color:#FCAE86"/>
		<stop  offset="0.4604" style="stop-color:#FB996E"/>
		<stop  offset="0.4847" style="stop-color:#FB966B"/>
		<stop  offset="0.6121" style="stop-color:#FC7950"/>
		<stop  offset="0.7251" style="stop-color:#FD673E"/>
		<stop  offset="0.8063" style="stop-color:#FD6138"/>
		<stop  offset="0.8662" style="stop-color:#FD6A41"/>
		<stop  offset="0.9644" style="stop-color:#FE815A"/>
		<stop  offset="0.9954" style="stop-color:#FE8A63"/>
	</radialGradient>
	<circle fill="url(#SVGID_5_)" cx="183.6" cy="176.8" r="66.6"/>
	<path fill="#FF8D69" d="M200.6,121.8c-4.8-1-9.2-1-9.6,2.2s-2,16.2-3.2,28.4c0.4,3.8,2.8,5.8,3.8,2.2c1.4-4.2,4-11.4,5.4-7.6
		c1.2,3.8,3.6,6.4,6.8,6.2c3.2-0.2,2.4,1.4,2.6,3.6s0.2,4,1.4,6.2c1.2,1.8,2.8,3,4.6,4c2,1.4,3.6,1.6,2,4c-1.8,2.6-0.8,6,2,9
		c2.6,3-5,1.8-9.2,0.6c-3.4-1-3.2,2-0.2,4.2c11,5,23.4,10.2,26.6,11.6s5.4-3.2,6.8-8.2c0.8-3.6,1.2-7.4,1.2-11.4
		C241,151,223.8,129.2,200.6,121.8z M225.4,209.6c-2.8-2-13.6-10.2-23.6-17.2c-3.4-1.2-5.8-0.2-3.2,2.4c3.2,3.2,8,9.2,4,8.4
		c-3.8-0.8-7.4,0-8.6,2.8c-1.4,2.8-2.4,1.4-4.4,0.4s-3.8-1.8-6-2c-2.2,0.2-4,1-6,2s-3.2,2.6-4.4-0.4c-1.4-2.8-4.8-3.4-8.6-2.8
		c-3.8,0.8,1-5,4-8.4c2.6-2.6,0-3.6-3.4-2.4c-9.8,7-20.8,15-23.4,17s-0.4,5.6,2.8,9.2c10.2,9.6,24,15.6,39.2,15.6
		c14.8,0,28.4-5.6,38.6-15C225.4,215.8,228,211.8,225.4,209.6z M160.2,180.6c-4.2,1-11.8,2.4-9.2-0.6c2.6-3,3.6-6.4,2-9s0-2.8,2-4
		c1.8-1.2,3.4-2.4,4.6-4c1-2,1-4,1.4-6.2c0.2-2.2-0.6-3.8,2.6-3.6c3.2,0.2,5.4-2.4,6.8-6.2c1.2-3.8,4,3.2,5.4,7.6
		c1,3.4,3.2,1.6,3.8-2.2c-1-12-2.8-25-3.2-28.4c-0.4-3.2-4.8-3.2-9.6-2.2c-23.4,7.4-40.4,29.2-40.4,55c0,4.2,0.4,8.6,1.4,12.6
		c1.4,4.6,3.4,8.4,6.6,7.2c3.2-1.4,15.6-6.6,26.8-11.6C163.4,182.4,163.8,179.6,160.2,180.6z"/>
	
		<radialGradient id="SVGID_6_" cx="-39.6354" cy="1039.6086" r="5.3036" gradientTransform="matrix(10.368 0 0 -10.368 594.4402 10956.4404)" gradientUnits="userSpaceOnUse">
		<stop  offset="0.2795" style="stop-color:#BA0000"/>
		<stop  offset="0.4586" style="stop-color:#BE0300"/>
		<stop  offset="0.6496" style="stop-color:#CB0C00"/>
		<stop  offset="0.8454" style="stop-color:#E01A00"/>
		<stop  offset="0.866" style="stop-color:#E31C00"/>
		<stop  offset="0.9427" style="stop-color:#EC2A0C"/>
		<stop  offset="0.9977" style="stop-color:#F43717"/>
	</radialGradient>
	<path fill="url(#SVGID_6_)" d="M199.8,123.8c-4.4-1-8.8-1-9.2,2c-0.4,3.2-2,15.8-3,27.2c0.4,3.8,2.8,5.6,3.6,2.2
		c1.2-4,3.8-11,5-7.4s3.4,6.2,6.6,6c3-0.2,2.2,1.4,2.4,3.4c0.2,2,0.2,4,1.2,6c1.2,1.8,2.8,3,4.4,4c1.8,1.2,3.4,1.4,2,3.8
		c-1.6,2.4-0.8,5.8,1.8,8.6c2.6,2.8-4.8,1.6-9,0.6c-3.2-0.8-3.2,1.8-0.2,4C216,189,228,194,231,195.4c3.2,1.4,5.2-3.2,6.6-8
		c0.8-3.4,1-7.2,1-11C239,152,222.4,130.8,199.8,123.8z M223.8,208.6c-2.6-2-13.2-9.8-22.6-16.6c-3.2-1.2-5.6-0.2-3.2,2.4
		c3,3.2,7.6,9,3.8,8s-7.2,0-8.4,2.8c-1.4,2.8-2.4,1.4-4.2,0.4c-1.8-0.8-3.6-1.8-5.6-2c-2.2,0.2-3.8,1-5.6,2c-2,1-3.2,2.4-4.2-0.4
		c-1.4-2.8-4.6-3.4-8.4-2.8c-3.8,0.8,0.8-5,3.8-8c2.4-2.6,0-3.4-3.4-2.2c-9.6,6.8-20,14.6-22.6,16.4s-0.4,5.4,2.6,8.8
		c9.8,9.2,23.2,15,37.8,15c14.4,0,27.4-5.4,37.2-14.4C224,214.4,226.4,210.6,223.8,208.6z M161,180.4c-4,1-11.4,2.2-9-0.6
		c2.6-2.8,3.4-6.2,1.8-8.6c-1.8-2.4,0-2.6,2-3.8c1.6-1.2,3.2-2.2,4.4-4c1-2,1-3.8,1.2-6s-0.6-3.8,2.4-3.4c3,0.2,5.4-2.2,6.6-6
		c1.2-3.6,3.8,3.2,5,7.4c1,3.4,3.2,1.6,3.6-2.2c-1-11.4-2.6-24.2-3-27.4c-0.4-3.2-4.6-3.2-9.2-2c-22.6,7-39,28.2-39,53
		c0,4,0.4,8.2,1.4,12c1.4,4.4,3.4,8,6.2,6.8c3.2-1.4,15.2-6.4,25.8-11.2C164,182.2,164.2,179.6,161,180.4z"/>
	<path fill="#E86900" d="M190.4,209.4c-1,0.2-3.4,5.2-3.2,7.8c0.4,2.6,2.6,4.2,5,3.8c2.4-0.4,4-2.8,3.6-5.2
		C195.6,213.4,192,209.2,190.4,209.4z M157.6,206.4c-1.6,2-1.6,4.8,0.4,6.2c1.8,1.6,4.6,1.4,6.2-0.6s2.2-7.6,1.4-8.4
		C164.2,202.8,159.2,204.4,157.6,206.4z M176.4,209.4c-1.6-0.2-5,3.8-5.4,6.4s1.2,4.8,3.6,5.2c2.4,0.4,4.6-1.4,5-3.8
		C180,214.8,177.4,209.6,176.4,209.4z M201.4,203.8c-0.8,0.8-0.4,6.4,1.4,8.4c1.6,2,4.4,2.2,6.2,0.6c1.8-1.6,2-4.4,0.4-6.2
		C207.8,204.4,202.6,202.8,201.4,203.8z M146.2,160.2c-2.4-1-5,0.2-5.8,2.6c-0.8,2.2,0.4,4.8,2.8,5.6c2.4,1,7.8-0.2,8.2-1.6
		C151.6,165.6,148.6,161,146.2,160.2z M155.6,146.4c-2-1.6-4.8-1.4-6.2,0.6c-1.6,2-1,4.8,0.8,6.2c2,1.6,7.8,2,8.4,1
		C159.2,153.2,157.4,148,155.6,146.4z M164.6,136.6c-2.2,0.8-3.4,3.4-2.6,5.8s5.6,5.6,6.6,5.2c1.4-0.4,2.6-5.8,1.6-8.2
		C169.6,137,166.8,135.8,164.6,136.6z M143.2,176c-2.6,0.4-4,2.8-3.6,5.2c0.4,2.4,2.8,3.8,5.4,3.4s6.4-4,6.2-5.6
		C150.8,178,145.6,175.6,143.2,176z M223.6,168.2c2.4-1,3.4-3.4,2.8-5.6c-0.8-2.2-3.4-3.4-5.8-2.6c-2.4,1-5.6,5.6-5,6.6
		C216,168.2,221.2,169.2,223.6,168.2z M204.6,142.4c0.8-2.4-0.2-5-2.6-5.8c-2.2-0.8-4.8,0.4-5.6,2.8s0.2,7.8,1.6,8.2
		C199.2,148,203.8,144.8,204.6,142.4z M223.6,176c-2.6-0.4-7.6,2-7.8,3c-0.4,1.6,3.6,5.2,6.2,5.6s4.8-1,5.4-3.4
		C227.8,179,226.2,176.6,223.6,176z M217.6,147c-1.6-2-4.4-2.2-6.2-0.6c-2,1.6-3.8,6.6-2.8,7.8c0.8,0.8,6.2,0.6,8.4-1
		C218.8,151.8,219,149,217.6,147z"/>
	<path fill="#FFB500" d="M201,137.4c-0.2-0.2-0.4-0.2-0.8-0.2c-1,0-2,0.8-2.2,1.6c-0.4,1.2,0,3.6,0.4,5c1.4-0.8,3.2-2.4,3.8-3.4
		C202.6,139.2,202,137.8,201,137.4z M202.8,204.6c0,1.6,0.4,4,1.2,5c0.4,0.6,1.2,1,2,1c0.4,0,1-0.2,1.4-0.4c0.4-0.4,0.8-1,0.8-1.6
		s-0.2-1.4-0.6-1.8C206.6,205.8,204.2,204.8,202.8,204.6z M190.4,210.8c-0.8,1.4-1.8,3.8-1.6,4.8c0.2,1.4,1.4,2.2,2.6,2
		c0.6-0.2,1-0.4,1.4-1c0.4-0.4,0.4-1.2,0.4-2C193.2,213.8,191.6,211.8,190.4,210.8z M213.8,146.4c-0.6,0-1.2,0.2-1.6,0.6
		c-1,0.8-2,3.2-2.2,4.4c0.2,0,0.2,0,0.4,0c2,0,4-0.4,4.6-1c0.4-0.4,0.8-1,1-1.6s-0.2-1.2-0.4-1.6S214.4,146.4,213.8,146.4z
		 M224.4,178c-0.4-0.4-1-0.8-1.6-1c0,0-0.2,0-0.4,0c-1.4,0-3.4,0.8-4.6,1.4c0.8,1,2.8,2.8,4,3c1.4,0.2,2.6-0.6,2.8-1.6
		C224.8,179,224.8,178.4,224.4,178z M222.4,165c0.6-0.2,1-0.8,1.4-1.4c0.2-0.6,0.2-1.2,0.2-1.6c-0.4-0.8-1.2-1.4-2.2-1.4
		c-0.4,0-0.6,0-1,0.2c-1,0.4-2.8,2.6-3.4,3.8c0.8,0.2,2.2,0.6,3.4,0.6C221.8,165.4,222.4,165.2,222.4,165z M153.6,147
		c-0.4-0.4-1-0.6-1.6-0.6c-0.8,0-1.4,0.2-1.6,0.8c-0.4,0.4-0.4,1-0.4,1.6c0.2,0.6,0.4,1.2,1,1.6s2.6,1,4.6,1c0.2,0,0.2,0,0.4,0
		C155.6,150.2,154.6,147.8,153.6,147z M145,161c-0.4-0.2-0.6-0.2-1-0.2c-1,0-1.8,0.6-2.2,1.4c-0.2,0.6-0.2,1.2,0.2,1.6
		c0.2,0.6,0.8,1,1.4,1.4c0.2,0,0.6,0.2,1.6,0.2l0,0c1.4,0,2.8-0.4,3.4-0.6C147.6,163.4,146,161.4,145,161z M172.6,215
		c-0.2,0.8,0,1.4,0.4,2c0.4,0.4,0.8,0.8,1.4,1c1.2,0.2,2.4-0.8,2.6-2s-0.8-3.4-1.6-4.8C174.4,211.8,172.8,213.8,172.6,215z
		 M165.6,137.4c-0.2,0-0.4,0-0.8,0.2c-1.2,0.4-1.8,1.8-1.4,3.2c0.4,1,2.6,2.8,3.8,3.4c0.4-1.4,0.8-3.8,0.4-5
		C167.4,138,166.4,137.4,165.6,137.4z M158,208.4c0,0.6,0.2,1.2,0.8,1.6c0.4,0.4,1,0.4,1.4,0.4c0.8,0,1.4-0.4,2-1
		c0.8-0.8,1.2-3.4,1.2-5c-1.6,0.2-3.8,1.2-4.6,2.2C158.2,207.2,158,207.8,158,208.4z M143,177c-0.8,0.2-1.2,0.4-1.6,1
		c-0.4,0.4-0.4,1-0.4,1.6c0.2,1,1.2,1.8,2.2,1.8l0,0c0.2,0,0.4,0,0.4,0c1.2-0.2,3.2-2,4-3C146.4,177.8,144.4,177,143,177
		C143.2,176.8,143,177,143,177z"/>
	
		<linearGradient id="SVGID_7_" gradientUnits="userSpaceOnUse" x1="-43.8723" y1="1052.7207" x2="-38.2497" y2="1039.7928" gradientTransform="matrix(10.368 0 0 -10.368 594.4402 10956.4404)">
		<stop  offset="0" style="stop-color:#B8E245"/>
		<stop  offset="0.1466" style="stop-color:#B1DE41"/>
		<stop  offset="0.3587" style="stop-color:#9ED136"/>
		<stop  offset="0.6106" style="stop-color:#7EBE24"/>
		<stop  offset="0.8909" style="stop-color:#53A20B"/>
		<stop  offset="1" style="stop-color:#409600"/>
	</linearGradient>
	<path fill="url(#SVGID_7_)" d="M247.4,158.2c3,2,8.4-6.6,9.8-12.6c1.6-6-4.2-0.2-4-10.2s4.8-15.4,7.8-12.8s3.4-13-3-16.2
		c-6.6-3.4-6.8-13.6-4.2-18.2c2.6-4.8-2.2-3.2-8.2-6.2c-6-2.8-3.4-10.8,0.4-15.2c2-2.2,0-8.2-10.2-18.6c-8.6-8.6-16-11.6-18-9.8
		c-4.4,3.8-12.2,6.2-15.2,0.4c-2.8-6-1.4-10.6-6.2-8.2c-4.8,2.6-14.8,2.2-18.2-4.2s-18.8-6-16.2-3c2.6,3-2.8,7.6-12.8,7.8
		s-4-5.6-10.2-4s-14.8,7-12.6,9.8c2,3,9.2,4,6.8,8.4c-2.2,4.4-8.4,7.8-11.2,4c-3.2-3.4-8.6-3.4-9,1.4c-0.4,4.8-0.4,10.2-5.6,13
		c-5.2,2.6-13,9.2-12,14.2s5.4-1,5.6,10.2c0.4,11-6,4.4-6.6,7.8c-0.8,3.4-1.2,12.8,3.4,15.8c4.6,3.2,5.8,8,1.6,7.8s-4.4,8.4-0.2,10
		c4.2,1.8,3.8,10.4,0.6,10.4c-3.2-0.2-4-2-5.6,1.6c-1.4,3.6-0.8,7.4,1,9.4s-3.6,3.2-3.6,3.2s-0.8,6.8,13.2,20.8c1,1,3.8,3.8,4.8,4.8
		c14.2,14.2,21,13.4,21,13.4s1.2-5.6,3.2-3.6s5.6,2.6,9.4,1s1.8-2.4,1.6-5.6c-0.2-3.2,8.6-3.6,10.4,0.6s10.2,4,10-0.2
		s4.8-3.2,7.8,1.6s12.2,4,15.8,3.4c3.4-0.8-3.4-7,7.8-6.6c11,0.4,5.2,4.8,10.2,5.6s11.6-6.8,14.2-12s8-5.4,13-5.6
		c4.8-0.4,4.8-6,1.4-9c-3.4-3.2-0.2-9,4-11.2C243.4,149,244.6,156.4,247.4,158.2z"/>
	<g>
		<circle fill="#A65073" cx="119.2" cy="116.2" r="75.6"/>
		
			<radialGradient id="SVGID_8_" cx="-45.8372" cy="1045.5433" r="7.2891" gradientTransform="matrix(10.368 0 0 -10.368 594.4402 10956.4404)" gradientUnits="userSpaceOnUse">
			<stop  offset="0.9058" style="stop-color:#FFEDF5"/>
			<stop  offset="0.929" style="stop-color:#FDE9F1"/>
			<stop  offset="0.9541" style="stop-color:#F8DCE7"/>
			<stop  offset="0.9799" style="stop-color:#F0C6D5"/>
			<stop  offset="1" style="stop-color:#E8B0C3"/>
		</radialGradient>
		<circle fill="url(#SVGID_8_)" cx="119.2" cy="116.2" r="74.4"/>
		<circle fill="#A65073" cx="119.2" cy="116.2" r="65.8"/>
		<g>
			<circle fill="#E380B5" cx="119.2" cy="116.2" r="77"/>
			
				<radialGradient id="SVGID_9_" cx="-45.8372" cy="1045.5433" r="7.2891" gradientTransform="matrix(10.368 0 0 -10.368 594.4402 10956.4404)" gradientUnits="userSpaceOnUse">
				<stop  offset="0.8185" style="stop-color:#FFEDF5"/>
				<stop  offset="0.8526" style="stop-color:#FDE9F1"/>
				<stop  offset="0.8894" style="stop-color:#F9DCE7"/>
				<stop  offset="0.9274" style="stop-color:#F0C6D5"/>
				<stop  offset="0.964" style="stop-color:#E6AABE"/>
			</radialGradient>
			<circle fill="url(#SVGID_9_)" cx="119.2" cy="116.2" r="74.4"/>
			
				<radialGradient id="SVGID_10_" cx="-45.8372" cy="1045.5433" r="6.3104" gradientTransform="matrix(10.368 0 0 -10.368 594.4402 10956.4404)" gradientUnits="userSpaceOnUse">
				<stop  offset="0.8323" style="stop-color:#FFEDF5"/>
				<stop  offset="0.8736" style="stop-color:#FDE9F1"/>
				<stop  offset="0.9182" style="stop-color:#F8DCE7"/>
				<stop  offset="0.9642" style="stop-color:#F0C6D5"/>
				<stop  offset="1" style="stop-color:#E8B0C3"/>
			</radialGradient>
			<circle fill="url(#SVGID_10_)" cx="119.2" cy="116.2" r="64.4"/>
			<path fill="#DE94B3" d="M169,166c-0.4,0.4-0.4,1.4,0,1.8s1.4,0.4,1.8,0s0.4-1.4,0-1.8C170.4,165.4,169.6,165.4,169,166z
				 M119.2,43c-0.8,0-1.2,0.6-1.2,1.2s0.6,1.2,1.2,1.2c0.8,0,1.2-0.6,1.2-1.2S119.8,43,119.2,43z M119.2,186.6
				c-0.8,0-1.2,0.6-1.2,1.2c0,0.8,0.6,1.2,1.2,1.2c0.8,0,1.2-0.6,1.2-1.2S119.8,186.6,119.2,186.6z M67.4,166
				c-0.4,0.4-0.4,1.4,0,1.8s1.4,0.4,1.8,0c0.4-0.4,0.4-1.4,0-1.8C68.8,165.4,67.8,165.4,67.4,166z M67.4,64.4
				c-0.4,0.4-0.4,1.4,0,1.8c0.4,0.4,1.4,0.4,1.8,0c0.4-0.4,0.4-1.4,0-1.8C68.8,63.8,67.8,63.8,67.4,64.4z M169,64.4
				c-0.4,0.4-0.4,1.4,0,1.8s1.4,0.4,1.8,0s0.4-1.4,0-1.8C170.4,63.8,169.6,63.8,169,64.4z M47.4,114.8c-0.8,0-1.2,0.6-1.2,1.2
				c0,0.8,0.6,1.2,1.2,1.2c0.8,0,1.2-0.6,1.2-1.2S47.8,114.8,47.4,114.8z M190.8,114.8c-0.8,0-1.2,0.6-1.2,1.2
				c0,0.8,0.6,1.2,1.2,1.2c0.8,0,1.2-0.6,1.2-1.2C192.2,115.4,191.6,114.8,190.8,114.8z M53.8,142.8c-0.6,0.2-1,1-0.6,1.6
				c0.2,0.6,1,1,1.6,0.6c0.6-0.2,1-1,0.6-1.6C55,142.8,54.4,142.4,53.8,142.8z M54.6,90.4c0.2-0.6,0-1.4-0.8-1.6
				c-0.6-0.2-1.4,0-1.6,0.8s0,1.4,0.8,1.6C53.8,91.2,54.4,91,54.6,90.4z M185,141c-0.6-0.2-1.4,0-1.6,0.8c-0.2,0.6,0,1.4,0.8,1.6
				c0.6,0.2,1.4,0,1.6-0.8C186,142,185.6,141.4,185,141z M146.4,179.8c-0.6,0.2-1,1-0.6,1.6c0.2,0.6,1,1,1.6,0.6
				c0.6-0.2,1-1,0.6-1.6C147.8,179.8,147,179.6,146.4,179.8z M92.4,50.8c-0.2-0.6-1-1-1.6-0.6c-0.6,0.2-1,1-0.6,1.6
				c0.2,0.6,1,1,1.6,0.6C92.4,52,92.8,51.4,92.4,50.8z M184.4,89.2c0.6-0.2,1-1,0.6-1.6c-0.2-0.6-1-1-1.6-0.6c-0.6,0.2-1,1-0.6,1.6
				S183.8,89.6,184.4,89.2z M93.4,180.4c-0.6-0.2-1.4,0-1.6,0.8c-0.2,0.6,0,1.4,0.8,1.6c0.6,0.2,1.4,0,1.6-0.8
				C94.2,181.4,94,180.8,93.4,180.4z M146.4,51c0.2-0.6,0-1.4-0.8-1.6c-0.6-0.2-1.4,0-1.6,0.8c-0.2,0.6,0,1.4,0.8,1.6
				C145.4,51.8,146.2,51.6,146.4,51z"/>
		</g>
	</g>
	<g>
		<path fill="#A64A30" d="M214.8,145c-1.6-2.2-1.6-5.4-0.4-8.6c1.4-3.6,0.2-7.4-3.2-10.2c-1.6-1.4-1.2-4-1.2-4.8
			c1.6-7.8-2.6-11.6-5-13.2c-2.6-1.6-3.8-4-3.4-8c0.2-2.2-0.6-4.4-2.4-6.6c-1.6-1.8-3.4-3-5.4-3c-2-0.2-3.4-2.2-3.8-3.8
			c-0.4-2.6-2.4-5.2-6.8-5.4c-0.8,0-1.2-0.8-2.2-2.4c-1-1.8-2.2-4.2-5.2-6c-3.4-2.2-6.6-2.2-9-2.2c-0.4,0-0.6,0-0.8,0
			c-0.6,0-1.2,0-1.6-0.2c-0.8-0.4-1-0.8-1.6-1.4c-0.8-1-1.4-2-3.4-3c-0.8-0.4-1.8-0.6-2.6-0.6c-1,0-1.8,0.2-2.6,0.4
			c-0.8,0.2-1.2,0.4-1.6,0.2s-0.8-0.6-1.4-1c-1.4-1.4-3.2-3.2-7.2-3.4c-3-0.2-4.4,0.4-5.6,1c-1,0.4-1.8,0.8-3.2,1
			c-0.6,0-1-0.2-1.6-0.8c-0.8-0.6-2-1.4-3.6-1.4c-0.6,0-1.4,0.2-2,0.4c-0.2,0-0.4,0.2-0.8,0.2c-0.4,0.2-1,0.4-1.6,0.4
			c-0.2,0-0.2,0-0.4,0c-2.4-1.4-4.2-2-6-2c-2.8,0-4.8,1.4-6.6,2.8c-2.6,2.2-5.4,2.6-8.6,1.4c-0.8-0.2-1.6-0.4-2.6-0.4
			c-4,0-7.8,2.8-8.6,5.4c-0.6,1.8-3,3-4.6,2.8c-0.2,0-0.4,0-0.6,0c-3,0-5.4,2-6.6,5.4c-0.2,0.8-1,1-2.8,1.4c-2,0.4-4.8,1-7.2,3.4
			c-3.2,3-3.8,6-4.2,8c-0.2,1-0.4,2-0.8,2.4c-0.4,0.6-1,0.8-1.8,1c-1,0.4-2.4,1-3.6,2.6c-1.6,2-1.6,3.4-1.4,4.8c0,0.8,0,1.2-0.2,1.6
			c-0.2,0.4-0.8,0.6-1.4,1c-1.6,1-3.8,2.2-5.2,6c-1,2.6-0.6,4.2-0.2,5.6c0.2,1,0.4,2,0,3.2s-1,1.6-1.6,2.2l0.2,0.2
			c-2.6,2-3.4,5.6-2.2,9c1,2.6,0.4,6.2-1.6,8.8c-2.4,3.4-3,9.6-1.4,14.6c0.6,1.8,1.4,3.2,2.2,4.8c1.6,3,3.4,6,3,12.8
			c-0.4,6,1.4,10,5.6,12.6c2.6,1.6,3.8,4,3.4,8c-0.2,2.2,0.6,4.4,2.4,6.6c1.6,1.8,3.4,3,5.4,3c2,0.2,3.4,2.2,3.8,3.8
			c0.4,2.6,2.4,5.2,6.8,5.4c0.8,0,1.2,0.8,2.2,2.4c1,1.8,2.2,4.2,5.2,6c3.4,2.2,6.6,2.2,9,2.2c0.4,0,0.6,0,0.8,0
			c0.6,0,1.2,0,1.6,0.2c0.8,0.4,1,0.8,1.6,1.4c0.8,1,1.4,2,3.4,3c0.8,0.4,1.8,0.6,2.6,0.6c1,0,1.8-0.2,2.6-0.4
			c0.8-0.2,1.2-0.4,1.6-0.2c0.4,0.2,0.8,0.6,1.4,1c1.4,1.4,3.2,3.2,7.2,3.4c3,0.2,4.4-0.4,5.6-1c1-0.4,1.8-0.8,3.2-1
			c0.6,0,1,0.2,1.6,0.8c0.8,0.6,2,1.4,3.6,1.4c0.6,0,1.4-0.2,2-0.4c0.2,0,0.4-0.2,0.8-0.2c0.4-0.2,1-0.4,1.6-0.4
			c0.2,0,0.2,0,0.4,0.2c2.4,1.4,4.2,2,6,2c2.8,0,4.8-1.4,6.6-2.8c2.6-2.2,5.4-2.6,8.6-1.4c0.8,0.2,1.6,0.4,2.6,0.4
			c4,0,7.8-2.8,8.6-5.4c0.6-1.8,3-3,4.6-2.8c0.2,0,0.4,0,0.6,0c3,0,5.4-2,6.6-5.4c0.2-0.8,1-1,2.8-1.4c2-0.4,4.8-1,7.2-3.4
			c3.2-3,3.8-6,4.2-8c0.2-1,0.4-2,0.8-2.4c0.4-0.6,1-0.8,1.8-1c1-0.4,2.4-1,3.6-2.6c1.6-2,1.6-3.4,1.4-4.8c0-0.8,0-1.2,0.2-1.6
			s0.8-0.6,1.4-1c1.6-1,3.8-2.2,5.2-6c1-2.8,0.6-4.4,0.4-5.6c-0.2-1-0.4-2,0-3.2c0.2-0.6,0.4-1,1-1.6c0.2-0.2,0.4-0.4,0.8-0.8
			c2.6-2.6,2.6-6.2,2-9.2c-0.4-2.4,1-4,2.2-5.4c0.2-0.2,0.4-0.4,0.6-0.8C216.8,153,217,148.4,214.8,145z"/>
		<g>
			<path fill="#78290F" d="M212.8,145.8c-2-2.8-2-6.6-0.6-9.8c1.4-3.2,0-6.4-2.6-8.6c-2-1.6-2-4.4-1.6-6c1.4-6.2-1.4-9.8-4.4-11.6
				c-3.2-2-4.4-4.8-4-9.2c0.4-4-3.6-7.8-6.2-8s-4.8-2.8-5-4.8c-0.4-2.2-2.2-4-5.6-4.2c-3.2-0.2-2.8-5.4-7.8-8.6c-5-3.2-9-1.2-11-2.2
				c-2.2-1-2-3-4.8-4.2c-3.2-1.4-4.6,0.8-6.6,0s-3-4-8-4.4c-4.4-0.4-4.8,1.8-8.6,2c-2.6,0.2-3.2-2.8-7-1.8c-0.8,0.2-2.4,1-3.4,0.4
				c-4.8-2.8-7.4-2-11,0.8c-2.8,2.2-5.8,3.2-9.8,1.6c-3.8-1.4-8.6,1.6-9.2,4c-0.8,2.6-3.8,3.8-6,3.6s-4.4,1-5.6,4.2s-6,1.2-10.2,5.4
				c-4.4,4-3.4,8.4-5,10.2c-1.6,2-3.2,1-5.4,3.6s-0.4,4.8-1.6,6.2c-1.4,1.6-4.6,1.8-6.2,6.6c-1.6,4.2,1,5.2-0.2,9
				c-0.6,1.6-1.6,2.4-2.4,3c-1.8,1.4-2.8,4.2-1.6,7.4c1.2,3.2,0.2,7.2-1.6,9.8c-2,2.8-2.8,8.4-1.4,13.2c1.6,5.2,5.8,7.4,5,17.8
				c-0.4,6.4,1.8,9.6,4.8,11.2c3.2,2,4.4,4.8,4,9.2c-0.4,4,3.6,7.8,6.2,8s4.8,2.8,5,4.8c0.4,2.2,2.2,4,5.6,4.2
				c3.2,0.2,2.8,5.4,7.8,8.6s9,1.2,11,2.2c2.2,1,2,3,4.8,4.2c3.2,1.4,4.6-0.8,6.6,0s3,4,8,4.4c4.4,0.4,4.8-1.8,8.6-2
				c2.6-0.2,3.2,2.8,7,1.8c0.8-0.2,2.4-1,3.4-0.4c4.8,2.8,7.4,2,11-0.8c2.8-2.2,5.8-3.2,9.8-1.6c3.8,1.4,8.6-1.6,9.2-4
				c0.8-2.6,3.8-3.8,6-3.6c2.2,0.2,4.4-1,5.6-4.2c1-3.2,6-1.2,10.2-5.4c4.4-4,3.4-8.4,5-10.2c1.6-2,3.2-1,5.4-3.6
				c2.2-2.6,0.4-4.8,1.6-6.2c1.4-1.6,4.6-1.8,6.2-6.6c1.6-4.2-0.6-5,0.2-9c0.4-1.4,1.4-2,2.2-3c2.2-2,2-5.2,1.6-7.8
				c-0.4-3.2,1.6-5.4,2.8-7.2C214.6,152.6,214.8,148.6,212.8,145.8z"/>
			
				<radialGradient id="SVGID_11_" cx="-44.7298" cy="1042.6594" r="7.6589" gradientTransform="matrix(10.368 0 0 -10.368 594.4402 10956.4404)" gradientUnits="userSpaceOnUse">
				<stop  offset="0" style="stop-color:#A44A23"/>
				<stop  offset="0.528" style="stop-color:#9C4524"/>
				<stop  offset="1" style="stop-color:#913D26"/>
			</radialGradient>
			<path fill="url(#SVGID_11_)" d="M208.8,145.8c-2-2.8-1.8-6.2-0.6-9.4c1.2-3.2,0-6.2-2.6-8.4c-1.8-1.6-1.8-4-1.6-5.6
				c1.2-6-1.4-9.4-4-11c-2.8-1.8-4.2-4.6-3.8-8.6c0.4-4-3.4-7.4-6-7.6c-2.6-0.2-4.4-2.6-4.8-4.6c-0.4-2.2-2.2-3.8-5.4-4
				c-3.2-0.2-2.6-5.2-7.4-8.2s-8.6-1-10.6-2.2c-2.2-1-1.8-2.8-4.6-4c-2.8-1.4-4.4,0.8-6.2,0c-1.8-0.8-2.8-3.8-7.6-4.2
				c-4.2-0.4-4.4,1.8-8.2,2c-2.6,0.2-2.8-2.8-6.6-1.6c-0.8,0.2-2.2,1-3.2,0.4c-4.6-2.6-7.2-2-10.4,0.8c-2.6,2.2-5.6,2.8-9.4,1.6
				s-8,1.6-8.8,3.8s-3.4,3.8-5.6,3.4s-4.2,1-5.4,4c-1,3.2-5.6,1.2-9.8,5c-4,3.8-3.2,8-4.8,9.8s-3.2,1-5,3.4c-2,2.6-0.4,4.4-1.6,6
				s-4.4,1.8-6,6.2c-1.4,4,1,5-0.2,8.4c-0.6,1.6-1.4,2.2-2.2,2.8c-1.8,1.4-2.8,4-1.6,7c1,3,0.2,6.8-1.6,9.6c-2,2.8-2.6,8-1.2,12.6
				c1.6,5,5.6,7.2,4.8,16.8c-0.4,6.2,1.8,9,4.6,10.8c2.8,1.6,4.2,4.6,3.8,8.6s3.4,7.4,6,7.6s4.4,2.6,4.8,4.6c0.4,2,2.2,3.8,5.4,4
				s2.6,5.2,7.4,8.2c4.8,3,8.6,1,10.6,2.2c2.2,1,1.8,2.8,4.6,4c2.8,1.4,4.4-0.8,6.2,0s2.8,3.8,7.6,4.2c4.2,0.4,4.4-1.8,8.2-2
				c2.6-0.2,2.8,2.8,6.6,1.6c0.8-0.2,2.2-1,3.2-0.4c4.6,2.6,7.2,2,10.4-0.8c2.6-2.2,5.6-2.8,9.4-1.6c3.8,1.4,8-1.6,8.8-3.8
				c0.8-2.4,3.4-3.8,5.6-3.4c2.2,0.2,4.2-1,5.4-4c1-3,5.6-1.2,9.8-5c4-3.8,3.2-8,4.8-9.8c1.6-1.8,3.2-1,5-3.4c2-2.6,0.4-4.4,1.6-6
				s4.4-1.6,6-6.2c1.4-4-0.4-4.8,0.2-8.4c0.2-1.4,1.2-2,2-2.8c2-2,2-5,1.6-7.4c-0.4-3.2,1.6-5.2,2.8-6.8
				C210.4,152.2,210.6,148.6,208.8,145.8z"/>
			
				<linearGradient id="SVGID_12_" gradientUnits="userSpaceOnUse" x1="-49.2911" y1="1052.5746" x2="-44.3385" y2="1041.8734" gradientTransform="matrix(10.368 0 0 -10.368 594.4402 10956.4404)">
				<stop  offset="0" style="stop-color:#D68047"/>
				<stop  offset="0.2845" style="stop-color:#D07842"/>
				<stop  offset="0.7158" style="stop-color:#BE6333"/>
				<stop  offset="0.9983" style="stop-color:#B05226"/>
			</linearGradient>
			<path fill="url(#SVGID_12_)" d="M196,112.2c-2.8-1.6-3.8-4.4-3.6-8.2c0.4-3.8-3.2-7-5.6-7.2c-2.2-0.2-4.2-2.4-4.6-4.4
				s-2-3.6-5-3.8c-3.2-0.2-2.4-4.8-7-7.8c-4.6-2.8-8-1-9.8-2c-2-1-1.6-2.6-4.4-3.8c-2.8-1.4-4,0.8-5.8,0c-1.6-0.8-2.6-3.6-7.2-3.8
				c-4-0.4-4.2,1.6-7.8,1.8c-2.2,0.2-2.8-2.6-6.2-1.6c-0.8,0.2-2.2,1-3.2,0.4c-4.4-2.6-6.6-1.8-9.8,0.8c-2.6,2-5.2,2.8-8.8,1.4
				c-3.4-1.4-7.6,1.4-8.4,3.6c-0.8,2.2-3.4,3.4-5.4,3.2s-4,1-5,3.8s-5.4,1-9.2,4.8c-3.8,3.6-3.2,7.4-4.4,9.2c-1.4,1.6-3,1-4.8,3.2
				c-2,2.2-0.4,4.2-1.4,5.6c-1.2,1.4-4,1.6-5.6,5.8c-1.4,3.8,0.8,4.6-0.2,8c-0.4,1.6-1.4,2.2-2.2,2.8c-1.6,1.4-2.6,3.8-1.6,6.6
				c1,2.8,0.2,6.4-1.6,9s-2.6,7.6-1,11.8c1.4,4.8,5.2,6.6,4.6,16c-0.4,5,1.2,7.8,3.4,9.6c8,2.8,25.6-9.6,52.6-24.2
				c30.6-16.8,64.2-24.2,74-27.2c7.4-2.4,8.2-7,7-11.6C197.4,113.2,196.8,112.6,196,112.2z"/>
		</g>
		<path fill="#DE9252" d="M186.2,96c-2.2-0.2-4.2-2.4-4.6-4.4s-2-3.6-5-3.8c-3.2-0.2-2.4-5-7-7.8s-8-1-10-2s-1.6-2.6-4.4-3.8
			c-2.8-1.4-4,0.8-6,0c-1.6-0.8-2.6-3.6-7.2-4c-4-0.4-4.2,1.6-7.8,1.8c-2.2,0.2-2.8-2.6-6.2-1.6c-0.8,0.2-2.2,1-3.2,0.4
			c-4.4-2.6-6.8-1.8-9.8,0.8c-2.6,2-5.2,2.8-9,1.6c-3.4-1.4-7.6,1.4-8.4,3.6c-0.8,2.2-3.4,3.4-5.4,3.2s-4,1-5,3.8s-5.4,1-9.2,4.8
			s-3.2,7.6-4.4,9.2c-1.4,1.6-3,1-4.8,3.2c-2,2.4-0.4,4.2-1.6,5.6s-4,1.6-5.6,6c-1.4,3.8,1,4.6-0.2,8c-0.4,1.6-1.4,2.2-2.2,2.8
			c-1.6,1.4-2.6,3.8-1.6,6.6c1,2.8,0.2,6.4-1.6,9s-2.6,7.6-1.2,12c0.2,1,0.6,1.6,1,2.6c-1-4-0.2-8.6,1.4-10.8c1.8-2.6,2.6-6.2,1.6-9
			s-0.2-5.4,1.6-6.6c0.8-0.6,1.6-1.2,2.2-2.8c1.2-3.2-1-4,0.2-8c1.4-4.2,4.4-4.4,5.6-6c1.2-1.4-0.4-3.2,1.6-5.6s3.4-1.6,4.8-3.2
			c1.4-1.6,0.6-5.4,4.4-9.2s8.4-2,9.2-4.8c1-2.8,3-4,5-3.8s4.8-1.2,5.4-3.2c0.8-2.2,4.8-5,8.4-3.6c3.4,1.4,6.4,0.6,9-1.6
			c3.2-2.6,5.6-3.2,9.8-0.8c1,0.6,2.4-0.2,3.2-0.4c3.4-1,4,1.6,6.2,1.6c3.4-0.2,3.6-2.2,7.8-1.8c4.4,0.4,5.4,3.2,7.2,4
			c1.6,0.8,3.2-1.4,6,0s2.4,3,4.4,3.8c2,1,5.4-0.8,10,2s4,7.6,7,7.8c3.2,0.2,4.8,2,5,3.8c0.4,2,2.2,4.2,4.6,4.4
			c1.4,0.2,3.2,1.2,4.4,2.8C191.6,98.8,188.4,96,186.2,96z"/>
	</g>
	<circle fill="#BF5400" cx="156.2" cy="129.8" r="95.4"/>
	
		<radialGradient id="SVGID_13_" cx="-43.2424" cy="1045.7633" r="10.72" gradientTransform="matrix(10.368 0 0 -10.368 594.4402 10956.4404)" gradientUnits="userSpaceOnUse">
		<stop  offset="2.709790e-02" style="stop-color:#FFDC7D"/>
		<stop  offset="0.1828" style="stop-color:#FDD676"/>
		<stop  offset="0.403" style="stop-color:#F8C464"/>
		<stop  offset="0.6583" style="stop-color:#EFA846"/>
		<stop  offset="0.7528" style="stop-color:#E89D3C"/>
		<stop  offset="0.9191" style="stop-color:#D57F20"/>
		<stop  offset="0.9695" style="stop-color:#CF7516"/>
	</radialGradient>
	<circle fill="url(#SVGID_13_)" cx="156.2" cy="129.8" r="93.6"/>
	<path opacity="0.5" fill="#FFFFFF" enable-background="new    " d="M155.8,94.6c-2.4,0-3.8,2.2-3.8,4.4c0,1.6,1.4,3.8,2.6,5.4
		c0.8,0.8-0.2,1.4,1.2,1.4c1,0,0.4-0.8,1-1.4c1.4-1.4,2.8-3.6,2.8-5.4C159.6,96.8,158,94.6,155.8,94.6z M135.6,90
		c2,0.6,4.4,0.8,6-0.2c2-1.2,3.2-3.4,2-5.6c-1.2-2-3.6-2.4-5.8-1.2c-1.4,0.8-2.6,3.2-3.2,5c-0.4,1-1.4,0.6-0.8,1.8
		C134.4,90.6,134.8,89.8,135.6,90z M164.4,81.6c0.8,0.6,0.4,1.4,1.6,1c1-0.2,0.2-1,0.6-1.6c1-1.8,1.8-4.2,1.4-5.8
		c-0.6-2.2-2.6-3.8-5-3.2c-2.2,0.6-3.2,3.2-2.6,5.4C160.8,78.4,162.8,80.4,164.4,81.6z M178,99c2,0.6,4.4,0.8,6-0.2
		c2-1.2,3.2-3.4,2-5.6c-1.2-2-3.6-2.4-5.8-1.2c-1.4,0.8-2.6,3.2-3.2,5c-0.4,1-1.4,0.6-0.8,1.8C176.8,99.8,177.2,98.8,178,99z
		 M201.4,73c0.2-2.2-1.4-3.6-3.4-3.8c-1.4-0.2-3.4,0.8-5,1.8c-0.8,0.4-1.4-0.2-1.4,1c-0.2,1,0.8,0.4,1.2,1c1,1.4,2.8,2.8,4.4,3.2
		C199,76.2,201,75.2,201.4,73z M215.4,84.2c-1-0.2-0.4,0.8-1,1.2c-1.4,1-3,2.8-3.2,4.4c-0.2,2.2,0.8,4,3,4.4s3.6-1.4,3.8-3.4
		c0.2-1.4-0.8-3.4-1.8-5C215.8,84.8,216.6,84.4,215.4,84.2z M228.2,120.6c-1.2-0.6-3.6-0.4-5.4-0.2c-1,0.2-1-0.6-1.6,0.4
		c-0.4,0.8,0.4,0.8,0.8,1.4c0.6,1.6,1.8,3.6,3.2,4.4c2,1,4,0.6,5-1.4C230.8,123.4,229.8,121.6,228.2,120.6z M220.8,154.4
		c-1,1-1.4,3.4-1.4,5c-0.2,1-1,1-0.2,1.6s0.8-0.2,1.6-0.4c1.8-0.2,4-0.8,5-1.8c1.4-1.6,1.6-3.8,0.2-5.4
		C224.4,152.4,222.2,152.8,220.8,154.4z M210.6,165.6c-0.8-0.6-0.2-1.4-1.4-1c-1,0.2-0.2,0.8-0.8,1.4c-1,1.4-2,3.4-1.6,5
		c0.4,2.2,2,3.6,4,3.4c2.2-0.4,3.2-2.4,2.8-4.4C213.6,168.6,211.8,166.8,210.6,165.6z M189.4,195.2c-1.4-0.4-3.6,0.2-5.2,1
		c-1,0.4-1.2-0.4-1.6,0.6c-0.2,1,0.6,0.6,1,1.4c0.8,1.6,2.4,3.2,3.8,3.8c2,0.6,4.2-0.2,4.8-2.2C192.8,197.6,191.4,195.8,189.4,195.2
		z M150.8,201.2c-1-0.2-0.6,0.8-1.2,1c-1.4,1-3.2,2.8-3.2,4c-0.4,2.2,0.6,4,2.8,4.6c2.2,0.4,3.6-1.2,4-3.2c0.2-1.4-0.8-3.6-1.4-5
		C151,201.8,151.8,201.2,150.8,201.2z M136,198c-1.4-0.4-3.6,0.2-5.2,0.8c-1,0.4-1.2-0.4-1.6,0.6s0.6,0.6,1,1.4
		c0.8,1.6,2.2,3.4,3.6,3.8c2,0.8,4.2,0,4.8-2C139.2,200.6,138,198.8,136,198z M106.2,180.6c-1-0.2-0.6,0.8-1.2,1
		c-1.4,1-3.2,2.8-3.2,4c-0.4,2.2,0.6,4,2.6,4.6c2.2,0.4,3.6-1.2,4-3.2c0.2-1.4-0.6-3.6-1.4-5C106.6,181.2,107.4,180.8,106.2,180.6z
		 M90.2,156.2c-1-1.6-2.6-3.2-4-3.4c-2-0.4-4,0.4-4.6,2.6c-0.4,2,1,3.8,3.2,4c1.4,0.2,3.6-0.6,5-1.4c0.8-0.4,1.2,0.4,1.6-0.8
		C91.6,156.6,90.6,156.8,90.2,156.2z M87,138.4c0.8-1,1-3.4,1-5.2c0-1,0.8-1-0.2-1.6C87,131,87,132,86.2,132c-1.8,0.2-3.8,1-4.8,2.2
		c-1.4,1.6-1.4,4,0.4,5.4C83.6,140.8,85.8,140.2,87,138.4z M95.4,89c-0.8-0.6-0.8,0.4-1.6,0.4c-1.8,0.2-3.8,1-4.8,2.2
		c-1.4,1.6-1.4,4,0.4,5.4c1.6,1.4,3.8,0.6,5-1.2c0.8-1,1-3.4,1-5.2C95.6,89.8,96.4,89.8,95.4,89z M124,75.2c1.6-1.4,1.6-3.4,0.2-5.2
		c-0.8-1-3.2-2-4.8-2.4c-1-0.2-0.8-1-1.6-0.4s0.2,0.8,0,1.6c-0.2,1.8,0,4,1,5.4C120,75.8,122.2,76.4,124,75.2z M155,63.2
		c1.4-0.4,3-2.2,4-3.4c0.6-0.8,1.4-0.2,1-1.4c-0.2-1-0.8-0.2-1.4-0.6c-1.6-1-3.8-1.6-5.2-1.4c-2,0.4-3.4,2.2-3.2,4.4
		C150.8,63,152.8,63.6,155,63.2z M142.8,121.4c1.2,1,3.8,1.4,5.8,1.6c1,0,1,1,2,0.2c0.8-0.8-0.4-1-0.4-1.8c-0.2-2-0.8-4.4-2.2-5.6
		c-1.8-1.6-4.4-2-6-0.2C140.4,117.2,141,119.8,142.8,121.4z M114.6,155.6c-2.4,0.2-3.8,2.2-3.6,4.6c0,1.6,1.6,3.8,2.8,5.2
		c0.8,0.8,0,1.4,1.4,1.4c1,0,0.4-0.8,1-1.4c1.4-1.4,2.8-3.6,2.6-5.4C118.6,157.6,117,155.6,114.6,155.6z M211.4,146.4
		c0.8-0.8-0.4-1-0.4-1.8c-0.2-2-0.8-4.4-2.2-5.6c-1.8-1.6-4.4-2-6-0.2s-1,4.2,0.8,5.8c1.2,1,3.8,1.4,5.8,1.6
		C210.6,146.4,210.6,147.4,211.4,146.4z M127.4,110.4c1,0,1,1,2,0.2c0.8-0.8-0.4-1-0.4-1.8c-0.2-2-0.8-4.4-2.2-5.6
		c-1.8-1.6-4.4-2-6-0.2s-1,4.2,0.8,5.8C122.8,109.8,125.4,110.2,127.4,110.4z M107.2,126.4c0.8-0.8-0.4-1-0.4-1.8
		c-0.2-2-0.8-4.4-2.2-5.6c-1.8-1.6-4.4-2-6-0.2s-1,4.2,0.8,5.8c1.2,1,3.8,1.4,5.8,1.6C106.4,126.4,106.4,127.4,107.2,126.4z
		 M131.2,132c0.8-0.8,1.4-0.2,1.2-1.4c-0.2-1-1-0.2-1.6-0.8c-1.6-1-4-2-5.8-1.6c-2.4,0.4-4,2.4-3.6,4.8c0.4,2.2,2.8,3.2,5,2.8
		C128,135.6,130,133.4,131.2,132z M133.8,152.2c-2.4,0.4-4,2.4-3.6,4.8s2.8,3.2,5,2.8c1.4-0.4,3.4-2.2,4.8-3.6
		c0.8-0.8,1.4-0.2,1.2-1.4c-0.2-1-1-0.2-1.6-0.8C138,152.8,135.4,151.8,133.8,152.2z M140.6,174.4c-1.6-1-4-2-5.8-1.6
		c-2.4,0.4-4,2.4-3.6,4.8s2.8,3.2,5,2.8c1.4-0.4,3.4-2.2,4.8-3.6c0.8-0.8,1.4-0.2,1.2-1.4C142.2,174,141.2,174.8,140.6,174.4z
		 M161.4,178c-1,0-0.4,0.8-1,1.4c-1.4,1.4-2.8,3.6-2.8,5.4c0,2.4,1.6,4.4,3.8,4.4s3.8-2.2,3.8-4.4c0-1.6-1.6-3.8-2.8-5.4
		C162,178.6,162.6,178,161.4,178z M159.2,133.6c1.4-0.4,3.2-2.6,4.2-4c0.6-1,1.4-0.4,1-1.6c-0.4-1-1-0.2-1.6-0.6c-1.8-1-4.2-1.6-6-1
		c-2.2,0.8-3.8,2.8-3.2,5C154.6,133.4,157,134.4,159.2,133.6z M162,148c1.4-2,1-4.6-1-6s-4.4-0.2-5.6,1.8c-0.8,1.4-0.8,4-0.6,6
		c0.2,1-0.8,1.2,0.2,2c1,0.6,0.8-0.4,1.6-0.8C158.6,150.4,161,149.2,162,148z M180.2,142c-1.8-1-4.2-1.6-6-1c-2.2,0.8-3.8,2.8-3.2,5
		c0.8,2.2,3.2,3.2,5.4,2.4c1.4-0.4,3.2-2.6,4.2-4c0.6-1,1.4-0.4,1-1.6C181.6,141.6,181,142.4,180.2,142z M148.2,139.2
		c-0.2-2.4-2-4.2-4.4-4s-3.4,2.6-3.2,4.8c0.2,1.6,2,3.6,3.2,5c0.8,0.8,0.2,1.4,1.4,1.4c1-0.2,0.4-1,0.8-1.6
		C147.2,143.2,148.4,141,148.2,139.2z M164.4,159.8c-2-1.4-4.2-0.8-5.8,1.2c-1,1.2-1.2,3.8-1.2,5.8c0,1-1,1,0.2,2
		c0.8,0.8,1-0.4,1.6-0.4c2-0.2,4.4-1.2,5.4-2.6C166.4,163.8,166.4,161.4,164.4,159.8z M164.4,112.4c-1.4,0.4-3.2,2.8-4,4.4
		c-0.6,1-1.4,0.4-1,1.6c0.4,1,1,0.2,1.8,0.4c1.8,0.8,4.4,1.4,6,0.8c2.2-0.8,3.6-3,2.8-5.2C169.4,112.4,166.8,111.6,164.4,112.4z
		 M184.6,131.6c1-0.2,0.4-1,0.8-1.6c1.2-1.6,2.2-4,2-5.6c-0.4-2.4-2.2-4-4.6-3.8c-2.4,0.4-3.4,2.8-3,5c0.2,1.6,2.2,3.4,3.4,4.8
		C184,131,183.6,131.8,184.6,131.6z M205.6,110.4c0.4-2.4-0.6-4.8-3-5c-2.4-0.4-4,1.4-4.6,3.6c-0.2,1.6,0.8,4,1.6,5.6
		c0.4,1-0.4,1.4,1,1.6c1,0.2,0.6-0.8,1.4-1.2C203.6,114,205.4,112.2,205.6,110.4z M188.4,165.6c-1.4,0.4-3.2,2.8-4,4.4
		c-0.6,1-1.4,0.4-1,1.6c0.4,1,1,0.2,1.6,0.4c1.8,0.8,4.4,1.4,6,0.8c2.2-0.8,3.6-3,2.8-5.2C193,165.4,190.6,164.8,188.4,165.6z"/>
</g>
</svg>
