<?xml version="1.0" encoding="utf-8"?>
<!-- Generator: Adobe Illustrator 17.1.0, SVG Export Plug-In . SVG Version: 6.00 Build 0)  -->
<!DOCTYPE svg PUBLIC "-//W3C//DTD SVG 1.1//EN" "http://www.w3.org/Graphics/SVG/1.1/DTD/svg11.dtd">
<svg version="1.1" id="Layer_1" xmlns="http://www.w3.org/2000/svg" xmlns:xlink="http://www.w3.org/1999/xlink" x="0px" y="0px"
	 viewBox="0 0 300 300" enable-background="new 0 0 300 300" xml:space="preserve">
<g>
	<defs>
		<filter id="Adobe_OpacityMaskFilter" filterUnits="userSpaceOnUse" x="37.2" y="30.5" width="252.2" height="252.2">
			<feColorMatrix  type="matrix" values="1 0 0 0 0  0 1 0 0 0  0 0 1 0 0  0 0 0 1 0"/>
		</filter>
	</defs>
	<mask maskUnits="userSpaceOnUse" x="37.2" y="30.5" width="252.2" height="252.2" id="SVGID_1_">
		<g filter="url(#Adobe_OpacityMaskFilter)">
			
				<radialGradient id="SVGID_2_" cx="-33.5359" cy="1033.7809" r="24.7251" gradientTransform="matrix(5.184 0 0 -5.184 337 5515.7202)" gradientUnits="userSpaceOnUse">
				<stop  offset="0" style="stop-color:#FFFFFF"/>
				<stop  offset="8.943853e-02" style="stop-color:#F2F2F2"/>
				<stop  offset="0.2569" style="stop-color:#CECECE"/>
				<stop  offset="0.4843" style="stop-color:#949494"/>
				<stop  offset="0.7596" style="stop-color:#464646"/>
				<stop  offset="0.9862" style="stop-color:#000000"/>
			</radialGradient>
			<path fill="url(#SVGID_2_)" d="M291.3,156.6c0,70.8-57.4,128.2-128.2,128.2S35,227.4,35,156.6S92.4,28.4,163.2,28.4
				C234,28.3,291.3,85.6,291.3,156.6z"/>
		</g>
	</mask>
	<circle mask="url(#SVGID_1_)" cx="163.3" cy="156.6" r="126.1"/>
	<g>
		<path fill="#C9508A" d="M101.4,72.9c-32.5,0-58.8,26.4-58.8,58.8c0,32.5,26.4,58.8,58.8,58.8c32.5,0,58.8-26.4,58.8-58.8
			C160.3,99.3,133.9,72.9,101.4,72.9z M101.4,182.5c-28,0-50.5-22.7-50.5-50.5c0-28,22.7-50.6,50.5-50.6c28,0,50.6,22.7,50.6,50.6
			C152,159.8,129.3,182.5,101.4,182.5z"/>
		<path fill="#FFFFFF" d="M101.4,79.6c-28.9,0-52.2,23.4-52.2,52.2c0,28.9,23.4,52.2,52.2,52.2c28.9,0,52.2-23.4,52.2-52.2
			S130.2,79.6,101.4,79.6z M101.4,178.4C75.7,178.4,55,157.6,55,132c0-25.7,20.8-46.4,46.4-46.4s46.4,20.8,46.4,46.4
			C147.9,157.5,127,178.4,101.4,178.4z"/>
		
			<radialGradient id="SVGID_3_" cx="-45.4475" cy="1038.5841" r="11.2173" gradientTransform="matrix(5.184 0 0 -5.184 337 5515.7202)" gradientUnits="userSpaceOnUse">
			<stop  offset="0.8185" style="stop-color:#FFEDF5"/>
			<stop  offset="0.8579" style="stop-color:#FDE7F0"/>
			<stop  offset="0.9113" style="stop-color:#F6D6E2"/>
			<stop  offset="0.9724" style="stop-color:#ECB9CB"/>
			<stop  offset="1" style="stop-color:#E6AABE"/>
		</radialGradient>
		<path fill="url(#SVGID_3_)" d="M101.4,74.5c-31.6,0-57.2,25.7-57.2,57.2c0,31.6,25.7,57.2,57.2,57.2s57.2-25.7,57.2-57.2
			C158.5,100.2,133,74.5,101.4,74.5z M101.4,180.2c-26.8,0-48.5-21.7-48.5-48.5c-0.1-26.7,21.7-48.5,48.5-48.5s48.5,21.7,48.5,48.5
			C149.8,158.5,128.1,180.2,101.4,180.2z"/>
		<path fill="#DE94B3" d="M138.9,169.3c-0.4,0.4-0.4,1,0,1.3s1,0.4,1.2,0c0.4-0.4,0.4-1,0-1.3C139.8,169,139.3,169,138.9,169.3z
			 M101.4,76.9c-0.5,0-0.8,0.4-0.8,0.8c0,0.5,0.4,0.8,0.8,0.8c0.5,0,0.8-0.4,0.8-0.8C102.2,77.2,102,76.9,101.4,76.9z M101.4,184.9
			c-0.5,0-0.8,0.4-0.8,0.8s0.4,0.8,0.8,0.8c0.5,0,0.8-0.4,0.8-0.8C102.3,185.2,102,184.9,101.4,184.9z M62.5,169.3
			c-0.4,0.4-0.4,1,0,1.3s1,0.4,1.3,0s0.4-1,0-1.3S62.8,169,62.5,169.3z M62.5,93c-0.4,0.4-0.4,1,0,1.3c0.4,0.4,1,0.4,1.3,0
			s0.4-1,0-1.3C63.4,92.7,62.8,92.6,62.5,93z M138.9,93c-0.4,0.4-0.4,1,0,1.3c0.4,0.4,1,0.4,1.2,0c0.4-0.4,0.4-1,0-1.3
			S139.3,92.6,138.9,93z M47.2,130.9c-0.5,0-0.8,0.4-0.8,0.8s0.4,0.8,0.8,0.8s0.8-0.4,0.8-0.8C48.2,131.2,47.8,130.9,47.2,130.9z
			 M155.5,130.9c-0.5,0-0.8,0.4-0.8,0.8s0.4,0.8,0.8,0.8s0.8-0.4,0.8-0.8S156,130.9,155.5,130.9z M52.2,152
			c-0.5,0.2-0.6,0.7-0.5,1.2c0.2,0.5,0.7,0.6,1.2,0.5c0.5-0.2,0.6-0.7,0.5-1.2C53.2,152,52.8,151.8,52.2,152z M52.9,112.4
			c0.2-0.5,0-1-0.5-1.1s-1,0-1.1,0.5c-0.2,0.5,0,1,0.5,1.1C52.2,113.2,52.8,112.9,52.9,112.4z M150.9,150.6c-0.5-0.1-1,0-1.1,0.5
			s0,1,0.5,1.1s1,0,1.1-0.5C151.8,151.4,151.5,150.8,150.9,150.6z M122,179.7c-0.5,0.2-0.6,0.7-0.5,1.2c0.2,0.5,0.7,0.6,1.2,0.5
			c0.5-0.2,0.6-0.7,0.5-1.2C123,179.7,122.5,179.6,122,179.7z M81.2,82.8c-0.2-0.5-0.7-0.6-1.2-0.5c-0.5,0.2-0.6,0.7-0.5,1.2
			c0.2,0.5,0.7,0.6,1.2,0.5C81.2,83.7,81.4,83.1,81.2,82.8z M150.4,111.7c0.5-0.2,0.6-0.7,0.5-1.2c-0.2-0.5-0.7-0.6-1.2-0.5
			c-0.5,0.2-0.6,0.7-0.5,1.2C149.5,111.7,150.1,111.8,150.4,111.7z M82,180.3c-0.5-0.1-1,0-1.1,0.5c-0.2,0.5,0,1,0.5,1.1
			s1,0,1.1-0.5C82.6,180.9,82.4,180.4,82,180.3z M121.9,82.9c0.1-0.5,0-1-0.5-1.1s-1,0-1.1,0.5s0,1,0.5,1.1
			C121.2,83.5,121.8,83.4,121.9,82.9z"/>
	</g>
	<g>
		<path fill="#C9508A" d="M120.3,39.8c-32.5,0-58.8,26.4-58.8,58.8c0,32.5,26.4,58.8,58.8,58.8s58.8-26.4,58.8-58.8
			C179.2,66.1,153,39.8,120.3,39.8z M120.3,149.2c-28,0-50.5-22.7-50.5-50.6S92.5,48,120.3,48c28,0,50.6,22.7,50.6,50.6
			C171.1,126.6,148.4,149.2,120.3,149.2z"/>
		<path fill="#FFFFFF" d="M120.3,46.5c-28.9,0-52.2,23.4-52.2,52.2c0,28.9,23.4,52.2,52.2,52.2c28.9,0,52.2-23.4,52.2-52.2
			C172.5,69.8,149.2,46.5,120.3,46.5z M120.3,145.2c-25.7,0-46.4-20.8-46.4-46.4s20.8-46.4,46.4-46.4s46.4,20.8,46.4,46.4
			S146,145.2,120.3,145.2z"/>
		
			<radialGradient id="SVGID_4_" cx="-41.8017" cy="1044.95" r="11.2247" gradientTransform="matrix(5.184 0 0 -5.184 337 5515.7202)" gradientUnits="userSpaceOnUse">
			<stop  offset="0.8185" style="stop-color:#FFEDF5"/>
			<stop  offset="0.8579" style="stop-color:#FDE7F0"/>
			<stop  offset="0.9113" style="stop-color:#F6D6E2"/>
			<stop  offset="0.9724" style="stop-color:#ECB9CB"/>
			<stop  offset="1" style="stop-color:#E6AABE"/>
		</radialGradient>
		<path fill="url(#SVGID_4_)" d="M120.3,41.5c-31.6,0-57.2,25.7-57.2,57.2c0,31.6,25.7,57.2,57.2,57.2s57.2-25.7,57.2-57.2
			S152,41.5,120.3,41.5z M120.3,147.1c-26.8,0-48.5-21.7-48.5-48.5s21.7-48.5,48.5-48.5s48.5,21.7,48.5,48.5
			C168.8,125.5,147.1,147.1,120.3,147.1z"/>
		<path fill="#DE94B3" d="M157.9,136.3c-0.4,0.4-0.4,1,0,1.3s1,0.4,1.3,0s0.4-1,0-1.3S158.2,135.9,157.9,136.3z M120.3,43.6
			c-0.5,0-0.8,0.4-0.8,0.8s0.4,0.8,0.8,0.8c0.5,0,0.8-0.4,0.8-0.8C121.3,44.1,120.8,43.6,120.3,43.6z M120.3,151.9
			c-0.5,0-0.8,0.4-0.8,0.8s0.4,0.8,0.8,0.8c0.5,0,0.8-0.4,0.8-0.8C121.3,152.2,120.8,151.9,120.3,151.9z M81.4,136.3
			c-0.4,0.4-0.4,1,0,1.3s1,0.4,1.3,0s0.4-1,0-1.3S81.8,135.9,81.4,136.3z M81.4,59.8c-0.4,0.4-0.4,1,0,1.3c0.4,0.4,1,0.4,1.3,0
			s0.4-1,0-1.3C82.4,59.4,81.8,59.4,81.4,59.8z M157.9,59.8c-0.4,0.4-0.4,1,0,1.3c0.4,0.4,1,0.4,1.3,0s0.4-1,0-1.3
			C158.8,59.4,158.2,59.4,157.9,59.8z M66.3,97.8c-0.5,0-0.8,0.4-0.8,0.8c0,0.5,0.4,0.8,0.8,0.8c0.4,0,0.8-0.4,0.8-0.8
			C67.2,98.2,66.8,97.8,66.3,97.8z M174.4,97.8c-0.5,0-0.8,0.4-0.8,0.8c0,0.5,0.4,0.8,0.8,0.8s0.8-0.4,0.8-0.8
			C175.4,98.2,174.9,97.8,174.4,97.8z M71.1,118.8c-0.5,0.2-0.6,0.7-0.5,1.2c0.2,0.5,0.7,0.6,1.2,0.5c0.5-0.2,0.6-0.7,0.5-1.2
			C72.2,118.8,71.7,118.6,71.1,118.8z M72,79.4c0.2-0.5,0-1-0.5-1.1s-1,0-1.1,0.5c-0.2,0.5,0,1,0.5,1.1C71.1,80,71.7,79.9,72,79.4z
			 M170,117.6c-0.5-0.1-1,0-1.1,0.5c-0.2,0.5,0,1,0.5,1.1s1,0,1.1-0.5C170.7,118.2,170.6,117.7,170,117.6z M141,146.6
			c-0.5,0.2-0.6,0.7-0.5,1.2c0.2,0.5,0.7,0.6,1.2,0.5c0.5-0.2,0.6-0.7,0.5-1.2C141.9,146.6,141.4,146.4,141,146.6z M100.3,49.5
			c-0.3-0.5-0.7-0.6-1.2-0.5c-0.5,0.2-0.6,0.7-0.5,1.2c0.2,0.5,0.7,0.6,1.2,0.5C100.2,50.5,100.4,50,100.3,49.5z M169.5,78.4
			c0.5-0.2,0.6-0.7,0.5-1.2c-0.2-0.5-0.7-0.6-1.2-0.5c-0.5,0.2-0.6,0.7-0.5,1.2C168.6,78.4,169,78.8,169.5,78.4z M101,147.1
			c-0.5-0.1-1,0-1.1,0.5s0,1,0.5,1.1s1,0,1.1-0.5C101.7,147.9,101.5,147.4,101,147.1z M141,49.6c0.1-0.5,0-1-0.5-1.1s-1,0-1.1,0.5
			s0,1,0.5,1.1C140.2,50.4,140.7,50.1,141,49.6z"/>
	</g>
	<circle fill="#FF7D40" cx="173.4" cy="199.4" r="59.3"/>
	<circle fill="#F82100" cx="173.4" cy="199.4" r="58.3"/>
	
		<radialGradient id="SVGID_5_" cx="-31.5586" cy="1025.5248" r="10.9761" gradientTransform="matrix(5.184 0 0 -5.184 337 5515.7202)" gradientUnits="userSpaceOnUse">
		<stop  offset="0" style="stop-color:#FC9F77"/>
		<stop  offset="0.1263" style="stop-color:#FCB68F"/>
		<stop  offset="0.254" style="stop-color:#FCAE86"/>
		<stop  offset="0.4604" style="stop-color:#FB996E"/>
		<stop  offset="0.4847" style="stop-color:#FB966B"/>
		<stop  offset="0.6121" style="stop-color:#FC7950"/>
		<stop  offset="0.7251" style="stop-color:#FD673E"/>
		<stop  offset="0.8063" style="stop-color:#FD6138"/>
		<stop  offset="0.8662" style="stop-color:#FD6A41"/>
		<stop  offset="0.9644" style="stop-color:#FE815A"/>
		<stop  offset="0.9954" style="stop-color:#FE8A63"/>
	</radialGradient>
	<circle fill="url(#SVGID_5_)" cx="173.4" cy="199.4" r="56.9"/>
	<path fill="#FF8D69" d="M188,152.6c-4-0.8-7.7-0.8-8,1.8c-0.4,2.9-1.7,13.9-2.6,24c0.4,3.4,2.4,4.9,3.2,1.8
		c1.1-3.6,3.5-9.7,4.4-6.5c1,3.2,3.1,5.4,5.6,5.2s2,1.2,2.2,3.1c0.1,1.7,0.2,3.6,1.1,5.2c1,1.6,2.5,2.6,4,3.6
		c1.6,1.1,3.1,1.2,1.6,3.5c-1.4,2.2-0.6,5,1.6,7.6c2.3,2.5-4.2,1.4-7.9,0.5c-3-0.7-2.8,1.6-0.2,3.6c9.4,4.3,19.9,8.8,22.7,10
		c2.8,1.1,4.6-2.8,5.9-7.1c0.6-3.1,1-6.5,1-9.7C222.4,177.4,207.9,159,188,152.6z M209.2,227.6c-2.4-1.7-11.6-8.6-20-14.6
		c-2.9-1-4.9-0.1-2.9,2.2c2.6,2.8,6.7,7.8,3.5,7.1c-3.4-0.7-6.4,0-7.4,2.4c-1.1,2.4-2.2,1.1-3.7,0.2c-1.6-0.7-3.2-1.4-5-1.6
		c-1.8,0.1-3.5,0.8-5,1.6c-1.7,0.8-2.8,2.2-3.7-0.2c-1.1-2.4-4.1-3.1-7.4-2.4s0.7-4.3,3.5-7.1c2.2-2.3,0-3.1-3-2
		c-8.4,6-17.8,12.8-20,14.6c-2.2,1.6-0.4,4.7,2.4,7.8c8.8,8.2,20.5,13.2,33.5,13.2c12.6,0,24.1-4.8,33-12.6
		C209.4,232.6,211.4,229.3,209.2,227.6z M153.6,202.6c-3.7,1-10.2,2-7.9-0.5s3.1-5.4,1.6-7.6c-1.4-2.2,0-2.4,1.6-3.5
		c1.4-1,3-2,4-3.6c0.8-1.6,1-3.5,1.1-5.2c0.1-1.8-0.5-3.4,2.2-3.1s4.7-2,5.6-5.2c1-3.1,3.5,2.9,4.4,6.5c0.8,3,2.9,1.4,3.2-1.8
		c-1-10.2-2.4-21.4-2.6-24.1c-0.4-2.8-4.1-2.8-8-1.8c-19.9,6.2-34.4,24.7-34.4,46.8c0,3.7,0.4,7.2,1.2,10.7c1.2,3.8,3.1,7.1,5.5,6.1
		c2.8-1.1,13.4-5.5,22.8-10C156.3,204.2,156.6,201.9,153.6,202.6z"/>
	
		<radialGradient id="SVGID_6_" cx="-31.5602" cy="1025.339" r="9.0772" gradientTransform="matrix(5.184 0 0 -5.184 337 5515.7202)" gradientUnits="userSpaceOnUse">
		<stop  offset="0.2795" style="stop-color:#BA0000"/>
		<stop  offset="0.4586" style="stop-color:#BE0300"/>
		<stop  offset="0.6496" style="stop-color:#CB0C00"/>
		<stop  offset="0.8454" style="stop-color:#E01A00"/>
		<stop  offset="0.866" style="stop-color:#E31C00"/>
		<stop  offset="0.9427" style="stop-color:#EC2A0C"/>
		<stop  offset="0.9977" style="stop-color:#F43717"/>
	</radialGradient>
	<path fill="url(#SVGID_6_)" d="M187.5,154.3c-3.8-0.8-7.4-0.8-7.8,1.7c-0.4,2.8-1.6,13.6-2.6,23.3c0.4,3.2,2.3,4.7,3.1,1.8
		c1-3.5,3.4-9.4,4.3-6.4c1,3.1,3,5.3,5.5,5s1.8,1.2,2,3c0.1,1.7,0.2,3.5,1,5c1,1.4,2.4,2.5,3.8,3.5c1.4,1.1,3,1.2,1.6,3.4
		s-0.6,4.9,1.4,7.3c2.2,2.5-4.1,1.4-7.6,0.5c-2.9-0.7-2.6,1.4-0.2,3.5c9,4.2,19.2,8.4,21.8,9.6c2.6,1.1,4.4-2.6,5.6-6.8
		c0.6-3,1-6.2,1-9.4C220.9,178.3,206.8,160.3,187.5,154.3z M207.9,226.6c-2.3-1.7-11.2-8.4-19.4-14.2c-2.8-1-4.7-0.1-2.8,2
		c2.6,2.6,6.5,7.6,3.4,6.8c-3.2-0.6-6.1,0-7.2,2.3s-2,1.1-3.6,0.2c-1.4-0.7-3.1-1.4-4.8-1.6c-1.7,0.1-3.4,0.8-4.8,1.6
		c-1.6,0.8-2.6,2-3.6-0.2c-1.1-2.3-4-3-7.2-2.3c-3.2,0.6,0.7-4.2,3.4-6.8c2.2-2.2,0-3-2.9-2c-8.2,5.6-17,12.4-19.3,14.2
		c-2.2,1.6-0.4,4.6,2.3,7.6c8.4,7.9,19.8,12.7,32.3,12.7c12.2,0,23.4-4.6,31.7-12.2C208,231.6,210.2,228.3,207.9,226.6z
		 M154.3,202.6c-3.6,0.8-9.8,1.8-7.6-0.5c2.2-2.5,3-5.3,1.4-7.3c-1.4-2.2,0-2.3,1.6-3.4c1.3-1,2.9-2,3.8-3.5c0.7-1.6,0.8-3.4,1-5
		c0.1-1.8-0.5-3.2,2-3s4.6-2,5.5-5c1-3.1,3.4,2.8,4.3,6.4c0.8,2.9,2.8,1.3,3.1-1.7c-0.8-9.8-2.3-20.5-2.6-23.3
		c-0.4-2.6-4-2.6-7.8-1.7c-19.2,6-33.2,24-33.2,45.2c0,3.6,0.4,7,1.1,10.3c1.2,3.7,3,6.8,5.3,5.9c2.6-1.1,12.8-5.4,22.1-9.7
		C156.9,204.1,157.2,201.9,154.3,202.6z"/>
	<path fill="#E86900" d="M179.5,227.5c-0.8,0.1-3.1,4.4-2.8,6.6s2.3,3.6,4.3,3.2c2-0.4,3.5-2.4,3.1-4.4
		C183.8,230.6,180.8,227.1,179.5,227.5z M151.3,224.8c-1.3,1.6-1.2,4.1,0.2,5.4c1.6,1.3,4,1.1,5.3-0.5s1.8-6.5,1.1-7.1
		C157,221.7,152.7,223,151.3,224.8z M167.5,227.5c-1.3-0.2-4.3,3.4-4.6,5.4c-0.4,2.2,1,4.1,3.1,4.4c2,0.4,4-1.1,4.3-3.2
		C170.6,231.9,168.3,227.6,167.5,227.5z M188.8,222.6c-0.7,0.6-0.2,5.4,1.1,7.1c1.3,1.6,3.8,1.8,5.3,0.5c1.6-1.3,1.7-3.7,0.2-5.4
		C194.2,223,189.9,221.7,188.8,222.6z M141.7,185.2c-2-0.7-4.2,0.2-4.9,2.2c-0.7,2,0.4,4.1,2.4,4.8s6.6-0.1,7.1-1.3
		C146.4,190,143.6,186.1,141.7,185.2z M149.6,173.6c-1.7-1.3-4.1-1.1-5.3,0.5s-1,4,0.7,5.3s6.6,1.6,7.1,0.8
		C152.8,179.4,151.3,175,149.6,173.6z M157.4,165.2c-2,0.7-3,3-2.3,4.9c0.7,2,4.7,4.7,5.5,4.4c1.2-0.5,2.3-4.9,1.4-7
		C161.5,165.6,159.4,164.5,157.4,165.2z M138.9,198.8c-2.2,0.4-3.5,2.4-3.1,4.4c0.4,2,2.5,3.4,4.6,2.9c2.2-0.4,5.4-3.6,5.2-4.8
		C145.5,200.4,141.1,198.4,138.9,198.8z M207.7,192.2c2-0.7,3.1-3,2.4-4.8c-0.7-2-3-2.9-4.9-2.2s-4.7,4.8-4.3,5.5
		C201.2,192.1,205.8,192.9,207.7,192.2z M191.6,170.2c0.7-2-0.2-4.2-2.3-4.9c-2-0.7-4.1,0.4-4.8,2.4s0.2,6.6,1.4,7
		C186.9,174.9,190.9,172.2,191.6,170.2z M207.8,198.8c-2.2-0.4-6.6,1.6-6.7,2.5c-0.2,1.2,3.1,4.4,5.2,4.8c2.2,0.4,4.2-0.8,4.6-2.9
		C211.2,201.2,210,199.3,207.8,198.8z M202.6,174.2c-1.2-1.6-3.7-1.8-5.3-0.5c-1.7,1.3-3.2,5.6-2.5,6.7c0.6,0.7,5.4,0.5,7.1-0.8
		C203.6,178.3,203.8,175.8,202.6,174.2z"/>
	<path fill="#FFB500" d="M188.4,165.9c-0.2-0.1-0.4-0.1-0.6-0.1c-0.8,0-1.6,0.6-1.8,1.3c-0.4,1,0,3.2,0.4,4.2c1.1-0.6,2.9-2.2,3.2-3
		S189.3,166.3,188.4,165.9z M189.9,223.2c0,1.2,0.4,3.5,1,4.2c0.4,0.5,1,0.7,1.6,0.7c0.2,0,0.7-0.1,1.1-0.4c0.4-0.4,0.6-0.7,0.6-1.2
		s-0.1-1.1-0.5-1.4C193.2,224.2,191.2,223.3,189.9,223.2z M179.6,228.6c-0.6,1.1-1.4,3.2-1.3,4.2c0.1,1.1,1.1,1.8,2.3,1.7
		c0.5-0.1,0.8-0.4,1.2-0.7c0.4-0.5,0.5-1,0.4-1.6C181.8,231,180.4,229.3,179.6,228.6z M199.3,173.5c-0.5,0-1,0.1-1.3,0.5
		c-0.8,0.6-1.7,2.8-2,3.8c0.1,0,0.2,0,0.4,0c1.7,0,3.5-0.5,4-0.8c0.5-0.4,0.7-0.8,0.8-1.3s0-1-0.4-1.3
		C200.4,173.7,199.9,173.5,199.3,173.5z M208.4,200.5c-0.4-0.5-0.7-0.7-1.3-0.8c0,0-0.1,0-0.2,0c-1.1,0-3,0.7-4,1.2
		c0.7,0.8,2.5,2.4,3.5,2.5c1.1,0.2,2.3-0.5,2.4-1.4C208.9,201.4,208.8,201,208.4,200.5z M206.7,189.6c0.5-0.2,1-0.6,1.2-1.1
		s0.2-1,0.1-1.4c-0.2-0.7-1-1.2-1.8-1.2c-0.2,0-0.5,0-0.7,0.1c-0.8,0.4-2.4,2.2-3,3.2c0.6,0.2,1.7,0.5,3,0.5
		C206.1,189.7,206.6,189.6,206.7,189.6z M148,174.1c-0.4-0.4-0.8-0.5-1.3-0.5c-0.6,0-1.1,0.2-1.4,0.6c-0.2,0.4-0.5,0.8-0.4,1.3
		s0.4,1,0.8,1.3c0.5,0.4,2.3,0.8,4,0.8c0.1,0,0.2,0,0.4,0C149.7,176.7,148.9,174.8,148,174.1z M140.7,186c-0.2-0.1-0.5-0.1-0.7-0.1
		c-0.8,0-1.6,0.5-1.8,1.2c-0.1,0.5-0.1,1,0.1,1.4c0.2,0.5,0.6,0.8,1.2,1.1c0.1,0,0.5,0.1,1.3,0.1l0,0c1.2,0,2.4-0.2,3-0.5
		C142.9,188,141.6,186.3,140.7,186z M164.2,232.2c-0.1,0.6,0,1.1,0.4,1.6c0.2,0.4,0.7,0.7,1.2,0.7c1,0.1,2-0.6,2.3-1.7
		c0.1-1-0.7-3.1-1.3-4.2C165.7,229.3,164.4,231,164.2,232.2z M158.2,165.8c-0.2,0-0.4,0-0.6,0.1c-1,0.4-1.4,1.4-1.1,2.6
		c0.4,0.8,2.2,2.4,3.2,3c0.4-1.1,0.7-3.2,0.4-4.2C159.8,166.3,159,165.8,158.2,165.8z M151.8,226.4c0,0.5,0.2,1,0.6,1.2
		c0.4,0.4,0.8,0.4,1.2,0.4c0.6,0,1.2-0.2,1.6-0.7c0.6-0.7,1-3,1-4.2c-1.3,0.2-3.4,1-4,1.7C152,225.3,151.8,225.9,151.8,226.4z
		 M138.9,199.6c-0.6,0.1-1,0.4-1.3,0.8c-0.2,0.4-0.4,0.8-0.4,1.3c0.1,0.8,1,1.4,2,1.4l0,0c0.1,0,0.2,0,0.5,0c1-0.2,2.8-1.6,3.5-2.5
		c-1-0.5-2.8-1.2-4-1.2C139,199.6,138.9,199.6,138.9,199.6z"/>
	
		<linearGradient id="SVGID_7_" gradientUnits="userSpaceOnUse" x1="-29.9846" y1="1017.5668" x2="-31.4972" y2="1025.129" gradientTransform="matrix(5.184 0 0 -5.184 337 5515.7202)">
		<stop  offset="8.806829e-02" style="stop-color:#FF5E38"/>
		<stop  offset="0.2901" style="stop-color:#D34328"/>
		<stop  offset="0.5916" style="stop-color:#971F13"/>
		<stop  offset="0.8138" style="stop-color:#710905"/>
		<stop  offset="0.9307" style="stop-color:#630000"/>
	</linearGradient>
	<path opacity="0.67" fill="url(#SVGID_7_)" enable-background="new    " d="M173.4,140.2c-32.8,0-59.3,26.5-59.3,59.3
		c0,9.2,2.2,18,6,25.8c4.8,2.8,15.1,5.2,41.9,3.1c37.2-3.1,63.7-7.8,70.3-24c0.1-1.6,0.2-3.2,0.2-4.8
		C232.6,166.8,206.1,140.2,173.4,140.2z"/>
	<path fill="#E2CBB3" d="M87.9,244c4.1-8.2-1.7-18.5,4.7-25.2c6.6-7.1,31.6-23.4,31.6-23.4L106,183.9l-11.5-18.1
		c0,0-16.4,25.1-23.4,31.6c-6.8,6.5-16.9,0.6-25.2,4.7c-8.4,4.1-15.4,15-6.7,25.9c4.9,7.4,11,5.3,16.4,6.4
		c0.4,5.4-1.8,11.3,6.4,16.4C73.4,259.5,83.4,253.3,87.9,244z"/>
	
		<radialGradient id="SVGID_8_" cx="1061.3835" cy="-1710.1833" r="19.2942" gradientTransform="matrix(3.6656 3.6656 3.6656 -3.6656 2547.9121 -10039.9932)" gradientUnits="userSpaceOnUse">
		<stop  offset="2.709790e-02" style="stop-color:#F6A96D"/>
		<stop  offset="0.1509" style="stop-color:#F4A566"/>
		<stop  offset="0.3261" style="stop-color:#F09954"/>
		<stop  offset="0.5308" style="stop-color:#E88636"/>
		<stop  offset="0.6431" style="stop-color:#E37922"/>
		<stop  offset="0.7386" style="stop-color:#D86E1F"/>
		<stop  offset="0.9065" style="stop-color:#BB5016"/>
		<stop  offset="1" style="stop-color:#A83D10"/>
	</radialGradient>
	<path fill="url(#SVGID_8_)" d="M240.3,50.7c-0.1-0.1-1-1-1.1-1.1c-32.9-32.9-86.5-32.3-119.9,1.1c-17.3,17.4-29,32.6-31.6,77.4
		c-1.1,18.6-2.9,33.7-6,46c-1.6,6.2,3.6,3.5,17.3,16.9c13.7,13.7,10.8,18.8,16.9,17.3c12.2-3.2,27.4-4.9,46-6
		c45-2.6,60.1-14.4,77.3-31.6C272.6,137.4,273.1,83.6,240.3,50.7z"/>
	<path fill="#FFF0DC" d="M84.6,193.4c-6.1,4.4-12.1,14.4-20.6,13.4c-11.2-1.3-19.8,0.2-21.6,6.2c-2.4,8.5,2.4,12,8.3,12.6
		c7.1,0.7,14.5,0.1,19-3.6c8-6.7,22.1-16.9,26-21.2C97.5,198.7,90.1,189.3,84.6,193.4z M71.6,228.7c-2.5,2.6-8.9,7-8.3,12
		s6.1,7.4,8.8,6.4c2.8-1,7.7-4.6,7.6-12.7C79.5,226,76,223.8,71.6,228.7z"/>
	
		<linearGradient id="SVGID_9_" gradientUnits="userSpaceOnUse" x1="-453.4239" y1="-1472.6134" x2="-453.4239" y2="-1476.4615" gradientTransform="matrix(5.184 0 0 -5.184 2524.0493 -7519.5889)">
		<stop  offset="0" style="stop-color:#8C290F"/>
		<stop  offset="0.1826" style="stop-color:#943011"/>
		<stop  offset="0.4602" style="stop-color:#A94315"/>
		<stop  offset="0.7966" style="stop-color:#CB631D"/>
		<stop  offset="1" style="stop-color:#E37922"/>
	</linearGradient>
	<path fill="url(#SVGID_9_)" d="M235.4,130.2c0,6.4-27.7,6.8-61.9,6.8s-61.9,0.2-61.9-6.8s27.7-6.8,61.9-6.8
		C207.6,123.4,235.4,122.8,235.4,130.2z"/>
	
		<linearGradient id="SVGID_10_" gradientUnits="userSpaceOnUse" x1="-451.5141" y1="-1461.543" x2="-451.5141" y2="-1465.3912" gradientTransform="matrix(5.184 0 0 -5.184 2524.0493 -7519.5889)">
		<stop  offset="0" style="stop-color:#8C290F"/>
		<stop  offset="0.1826" style="stop-color:#943011"/>
		<stop  offset="0.4602" style="stop-color:#A94315"/>
		<stop  offset="0.7966" style="stop-color:#CB631D"/>
		<stop  offset="1" style="stop-color:#E37922"/>
	</linearGradient>
	<path fill="url(#SVGID_10_)" d="M224.8,72.8c0,6.4-18.6,6.8-41.4,6.8c-22.9,0-41.4,0.2-41.4-6.8c0-7.1,18.6-6.8,41.4-6.8
		C206.2,66.1,224.8,65.5,224.8,72.8z"/>
	
		<linearGradient id="SVGID_11_" gradientUnits="userSpaceOnUse" x1="-453.4335" y1="-1467.0782" x2="-453.4335" y2="-1470.926" gradientTransform="matrix(5.184 0 0 -5.184 2524.0493 -7519.5889)">
		<stop  offset="0" style="stop-color:#8C290F"/>
		<stop  offset="0.1826" style="stop-color:#943011"/>
		<stop  offset="0.4602" style="stop-color:#A94315"/>
		<stop  offset="0.7966" style="stop-color:#CB631D"/>
		<stop  offset="1" style="stop-color:#E37922"/>
	</linearGradient>
	<path fill="url(#SVGID_11_)" d="M235.4,101.6c0,6.4-27.7,6.8-61.9,6.7c-34.2,0-62,0.2-62-6.7c0-7.1,27.7-6.7,62-6.8
		C207.6,94.8,235.4,94.2,235.4,101.6z"/>
	
		<linearGradient id="SVGID_12_" gradientUnits="userSpaceOnUse" x1="-456.1245" y1="-1478.1487" x2="-456.1245" y2="-1481.9966" gradientTransform="matrix(5.184 0 0 -5.184 2524.0493 -7519.5889)">
		<stop  offset="0" style="stop-color:#8C290F"/>
		<stop  offset="0.1826" style="stop-color:#943011"/>
		<stop  offset="0.4602" style="stop-color:#A94315"/>
		<stop  offset="0.7966" style="stop-color:#CB631D"/>
		<stop  offset="1" style="stop-color:#E37922"/>
	</linearGradient>
	<path fill="url(#SVGID_12_)" d="M199.8,159c0,6.4-18,6.8-40.3,6.8c-22.2,0-40.3,0.2-40.3-6.8s18-6.8,40.3-6.8
		S199.8,151.6,199.8,159z"/>
	
		<linearGradient id="SVGID_13_" gradientUnits="userSpaceOnUse" x1="-31.652" y1="1023.7693" x2="-35.0355" y2="1056.9275" gradientTransform="matrix(5.184 0 0 -5.184 337 5515.7202)">
		<stop  offset="0" style="stop-color:#FF9C35"/>
		<stop  offset="0.1826" style="stop-color:#FFA13D"/>
		<stop  offset="0.4602" style="stop-color:#FFAE52"/>
		<stop  offset="0.7966" style="stop-color:#FFC474"/>
		<stop  offset="1" style="stop-color:#FFD48C"/>
	</linearGradient>
	<path fill="url(#SVGID_13_)" d="M149.5,63.9c4.7-0.4,19.1-1.1,25.8-1.1h33.1c5,0,0.7-7.8-6.2-11.3c-7.1-3.5-21.8-7.9-38.5-3.5
		c-16.2,4.2-21.8,11.3-23.8,14.9C137.8,66.2,144.8,64.3,149.5,63.9z M222.8,84.1c-1.2-3.8-10.4-2.4-18.7-2
		c-13.4,0.6-39.2-0.2-47.3-0.4c-8.2-0.2-15-3-18.1-6.4c-2.4-2.6,0.7-10.1-6.2-5.9c-6.4,4-10.6,12.4-13.1,17.5
		c-2.6,5.2-1.2,6.2,3.6,5.5c4.8-0.7,17.8-1.2,36.7-1.2s49.8,0,56.5-0.6C222.8,90.3,224.1,87.9,222.8,84.1z M216.3,110.6
		c-3.4,0.6-31.6,0.4-45.4,0.4s-41-0.4-47.2-1s-8.9-2-9.8,1.2c-1.6,6-1.2,12.4,1.2,11.5c2.4-0.7,16.4-2.6,60.1-2.6s39.6,1.3,42.4-2.8
		C220.5,113.2,219.7,110,216.3,110.6z M195.9,140.1c-4.2,0.2-33.7-0.2-44.9,0s-26-1-30.1-1.7c-4-0.7-7.3-2-7.8,0.7
		c-0.4,2.6-0.4,12.8-1.2,15.7c-0.7,2.8,2.6,1.2,6-1.2s11.2-3.8,23.5-3.8s33.7-0.6,38.3-0.6s8.3-0.4,13.8-3.4
		S200.1,139.9,195.9,140.1z M141.4,169.2c-10-0.4-21.5-2-26.4-3.5c-4.8-1.3-3.7,2.4-6.5,6.5c-2.2,3.2-3.1,5.9,2.8,8.9
		c5.9,3.1,18.5-5.9,28.8-7.6C150.2,171.9,151.3,169.5,141.4,169.2z"/>
	<path fill="#FFCC4F" d="M169.8,110.5c-2.3,0-4.1,1.8-4.1,4.1c0,2.3,1.8,4.1,4.1,4.1s4.1-1.8,4.1-4.1
		C174,112.3,172.2,110.5,169.8,110.5z M186.1,92.4c0-2.3-1.8-4.1-4.1-4.1s-4.1,1.8-4.1,4.1s1.8,4.1,4.1,4.1S186.1,94.6,186.1,92.4z
		 M191.7,102.3c-2.3,0-4.1,1.8-4.1,4.1s1.8,4.1,4.1,4.1s4.1-1.8,4.1-4.1S194,102.3,191.7,102.3z M188.4,128.1
		c-2.3,0-4.1,1.8-4.1,4.1s1.8,4.1,4.1,4.1s4.1-1.8,4.1-4.1S190.6,128.1,188.4,128.1z M145.2,126c-2.3,0-4.1,1.8-4.1,4.1
		s1.8,4.1,4.1,4.1s4.1-1.8,4.1-4.1C149.2,127.6,147.3,126,145.2,126z M156.1,141.9c-2.3,0-4.1,1.8-4.1,4.1s1.8,4.1,4.1,4.1
		s4.1-1.8,4.1-4.1S158.2,141.9,156.1,141.9z M157,104.6c0-2.3-1.8-4.1-4.1-4.1s-4.1,1.8-4.1,4.1c0,2.3,1.8,4.1,4.1,4.1
		S157,106.9,157,104.6z M140.7,81.7c0-2.3-1.8-4.1-4.1-4.1c-2.3,0-4.1,1.8-4.1,4.1s1.8,4.1,4.1,4.1C138.9,85.8,140.7,84,140.7,81.7z
		 M161.1,72.1c-2.3,0-4.1,1.8-4.1,4.1c0,2.3,1.8,4.1,4.1,4.1s4.1-1.8,4.1-4.1C165.2,73.9,163.4,72.1,161.1,72.1z M171.7,54.2
		c-2.3,0-4.1,1.8-4.1,4.1s1.8,4.1,4.1,4.1s4.1-1.8,4.1-4.1C175.8,56.1,173.8,54.2,171.7,54.2z M207.2,66.4c0-2.3-1.8-4.1-4.1-4.1
		s-4.1,1.8-4.1,4.1s1.8,4.1,4.1,4.1C205.5,70.5,207.2,68.7,207.2,66.4z M207.8,104c2.3,0,4.1-1.8,4.1-4.1c0-2.3-1.8-4.1-4.1-4.1
		s-4.1,1.8-4.1,4.1C203.7,102.3,205.6,104,207.8,104z M212.8,129.2c0-2.3-1.8-4.1-4.1-4.1s-4.1,1.8-4.1,4.1c0,2.3,1.8,4.1,4.1,4.1
		S212.8,131.5,212.8,129.2z M210.9,157.5c-2.3,0-4.1,1.8-4.1,4.1s1.8,4.1,4.1,4.1s4.1-1.8,4.1-4.1S213.2,157.5,210.9,157.5z
		 M139.3,169.5c-2.3,0-4.1,1.8-4.1,4.1s1.8,4.1,4.1,4.1s4.1-1.8,4.1-4.1S141.6,169.5,139.3,169.5z M168.9,150.8
		c-2.3,0-4.1,1.8-4.1,4.1s1.8,4.1,4.1,4.1s4.1-1.8,4.1-4.1S171.2,150.8,168.9,150.8z M112.3,143c-2.3,0-4.1,1.8-4.1,4.1
		s1.8,4.1,4.1,4.1s4.1-1.8,4.1-4.1C116.4,144.9,114.7,143,112.3,143z M115.9,102.2c-2.3,0-4.1,1.8-4.1,4.1c0,2.3,1.8,4.1,4.1,4.1
		s4.1-1.8,4.1-4.1C120,103.9,118.2,102.2,115.9,102.2z M228.2,82.6c-2.3,0-4.1,1.8-4.1,4.1s1.8,4.1,4.1,4.1s4.1-1.8,4.1-4.1
		S230.4,82.6,228.2,82.6z M226,131.1c-2.3,0-4.1,1.8-4.1,4.1s1.8,4.1,4.1,4.1s4.1-1.8,4.1-4.1S228.4,131.1,226,131.1z"/>
	<path fill="#505E12" d="M173,84.9c5.5,0.1,13.9-8.2,14.4-11.8c0.4-2.6-7.1,0.7-7.4-2.5c-0.2-2.4-0.6-6.6-1.3-9
		c-0.4-1-0.8-1.1-1.6-0.4c-1.7,2-3.7,5.6-4.8,7.7c-1.6,2.8-7-3.5-7.8-0.7c-1.1,3.5,3.4,14.4,8.4,16.6C172.8,84.9,173,84.9,173,84.9z
		 M144.4,101.2c-2.2-1.4-2.6,6.6-5.5,5.4c-2.3-0.8-6.1-2.5-8.6-2.9c-1-0.1-1.3,0.2-1,1.2c1,2.5,3.4,5.9,4.7,7.8
		c1.7,2.6-6.2,4.6-4.2,6.6c2.6,2.6,14.4,3.6,18.6,0c0,0,0.1-0.1,0.1-0.2C151,114.6,147.4,103.4,144.4,101.2z M196.4,114
		c-2.5-0.8-6.7-1.2-9-1.4c-3.1-0.4,0.5-7.7-2.4-7.4c-3.6,0.4-12,8.6-12,14.3v0.2c2.2,5.2,12.8,9.6,16.4,8.5c2.5-0.7-3.4-6.2-0.6-7.8
		c2.2-1.1,5.9-3.1,7.8-4.8C197.6,114.8,197.5,114.3,196.4,114z M240.6,109.8l-0.1-0.1c-4.3-1.7-13.4,2.2-14.9,4.8
		c-1.1,2,5.6,1.6,5,4.2c-0.5,1.8-1.6,5.3-1.6,7.4c0,0.8,0.4,1.1,1.1,0.7c2-1,4.6-3.4,6.2-4.6c2.2-1.6,4.3,4.8,5.9,3
		C244,122.8,243.9,112.9,240.6,109.8z M175.2,161.1c0,0-0.2,0.1-0.1,0.1c-3.6,3.1-4.2,12.8-2.5,15.5c1.2,1.8,4.1-4.3,6.1-2.6
		c1.4,1.3,4,3.8,6,4.9c0.7,0.5,1.1,0.2,1.2-0.6c0-2.3-0.8-5.6-1.2-7.6c-0.5-2.6,6.4-1.6,5.3-3.8
		C188.5,164.1,179.6,159.7,175.2,161.1z M121.6,160.5c1-1.7,3-4.7,3.6-6.8c0.2-0.8,0-1.1-0.8-1c-2.2,0.4-5.3,2-7.2,2.8
		c-2.5,1-2.9-5.9-4.8-4.4c-2.5,1.8-5,11.4-2.8,15.4l0.1,0.1c3.7,2.9,13.6,1.4,15.6-0.7C126.9,164.2,120.3,162.8,121.6,160.5z"/>
	<path fill="#697812" d="M177.3,165.1c-1,1.3-1.6,4.2-1.7,6.7c0.7-0.5,1.6-0.7,2.6-0.7c1.1,0,2.3,0.4,3.1,1.2l0.1,0.1v-0.1
		c-0.5-2.3,0.4-4,2.8-5.2c-2-1-4.4-2-6.5-2C177.6,165.1,177.4,165.1,177.3,165.1z M182.5,76.4c-4.6-0.2-5.3-3.5-5.4-4.6
		c0-0.4-0.1-0.8-0.1-1.3c0-0.2,0-0.5-0.1-0.8c-0.1,0.2-0.2,0.5-0.4,0.7c-0.2,0.5-0.5,0.8-0.6,1.2c-0.8,1.6-2.5,2.5-4.2,2.5
		c-0.8,0-1.7-0.2-2.6-0.6c1,3.1,3.2,7.3,5.3,8.6C176.7,81.7,180.3,78.9,182.5,76.4z M238.9,113.5c-0.2,0-0.5,0-0.7,0
		c-1.8,0-4.2,0.7-6.1,1.6c2.2,1.3,2.9,3.1,2.3,5.3v0.1c0,0,0.1,0,0.1-0.1c0.8-0.7,1.8-1,3-1c1.1,0,2.2,0.4,3,1
		C240.3,117.9,240,114.9,238.9,113.5z M139.9,111.2L139.9,111.2c-0.6,0-1.2-0.1-1.7-0.4c-0.4-0.1-0.8-0.4-1.2-0.5
		c-0.2-0.1-0.5-0.2-0.7-0.2c0.1,0.2,0.4,0.5,0.5,0.7c0.2,0.4,0.5,0.7,0.7,1.1c2,3,0.2,5.4-1.4,7c1.1,0.2,2.5,0.4,4,0.4
		c3.1,0,5.2-0.6,6.2-1.2c0.7-2.4-0.1-7-1.3-10.1C143.7,109.8,142.3,111.2,139.9,111.2z M119.1,159.4L119.1,159.4
		C119.1,159.3,119.1,159.4,119.1,159.4c-0.6,0.2-1.2,0.4-2,0.4l0,0c-1.7,0-3-0.8-3.7-1.8c-0.6,2.4-1,5.3-0.5,7
		c0.7,0.4,2,0.6,3.8,0.6c1.1,0,2.3-0.1,3.1-0.2C118.3,163.4,118,161.4,119.1,159.4z M187.5,116.6c-3.6-0.4-4.3-3.4-4.4-5.5
		c-2.5,2.2-5.5,5.9-6,8.3c1.2,2,5.2,4.3,8.5,5.4c-0.7-2.3-1-5,2-6.8c0.4-0.2,0.7-0.4,1.2-0.6c0.2-0.1,0.5-0.2,0.7-0.4
		c-0.2,0-0.6-0.1-0.8-0.1C188.4,116.8,187.9,116.6,187.5,116.6z"/>
</g>
</svg>
