<?xml version="1.0" standalone="no"?>
<!DOCTYPE svg PUBLIC "-//W3C//DTD SVG 1.1//EN" "http://www.w3.org/Graphics/SVG/1.1/DTD/svg11.dtd" >
<svg xmlns="http://www.w3.org/2000/svg" xmlns:xlink="http://www.w3.org/1999/xlink" version="1.1">
<metadata>
Created by FontForge 20170731 at Thu Oct  8 22:21:32 2020
 By Aleksey,,,
Copyright (c) 2017 by Deni Anggara. All rights reserved.
</metadata>
<defs>
<font id="RilenoSans-Bold" horiz-adv-x="0" >
  <font-face 
    font-family="Rileno Sans Bold"
    font-weight="700"
    font-stretch="normal"
    units-per-em="2048"
    panose-1="2 0 8 0 0 0 0 0 0 0"
    ascent="1606"
    descent="-442"
    x-height="979"
    cap-height="1337"
    bbox="-1192 -690 3310 2136"
    underline-thickness="102"
    underline-position="-409"
    unicode-range="U+000D-FB02"
  />
<missing-glyph horiz-adv-x="1792" 
d="M508 758q-135 0 -229 94q-95 95 -95 231q0 133 95 228q94 94 229 94q136 0 227 -94q94 -94 94 -228q0 -137 -94 -231q-91 -94 -227 -94zM1284 758q-133 0 -227 94t-94 231q0 134 94 228t227 94q135 0 229 -94q95 -95 95 -228q0 -136 -95 -231q-94 -94 -229 -94zM1432 952
v164h-162v-74h73v-41q-21 -8 -45 -8q-44 0 -70 22.5t-26 63.5q0 43 29 67.5t80 24.5q47 0 88 -18v84q-41 14 -92 14q-89 0 -143 -46.5t-54 -125.5q0 -75 50 -120.5t132 -45.5q84 0 140 39zM377 918h139q80 0 127 43t47 120q0 76 -46.5 121t-127.5 45h-139v-329zM463 997v170
h41q94 0 94 -84q0 -86 -94 -86h-41zM508 -20q-135 0 -229 94q-95 95 -95 231q0 132 95 227t229 95q135 0 227 -95q94 -94 94 -227q0 -137 -94 -231q-91 -94 -227 -94zM1284 -20q-133 0 -227 94t-94 231q0 133 94 227q95 95 227 95q134 0 229 -95t95 -227q0 -136 -95 -231
q-94 -94 -229 -94zM377 139h86v103h18q29 0 45 -25l47 -78h101l-49 82q-18 27 -35 37q76 21 76 100q0 50 -32 80.5t-87 30.5h-170v-330zM1169 315h37v123h41v31h-119v-31h41v-123zM1266 315h32v41q0 56 -2 68l37 -82h29l37 78q0 -3 -1 -28.5t-1 -35.5v-41h30v154h-36
l-43 -98l-43 98h-39v-154zM463 315v72h67q45 0 45 -37q0 -35 -45 -35h-67z" />
    <glyph glyph-name="fi" unicode="fi" horiz-adv-x="1394" 
d="M1290 1245q0 -71 -52 -116.5t-142 -45.5q-92 0 -143.5 44.5t-51.5 117.5q0 69 52.5 112.5t142.5 43.5t142 -43.5t52 -112.5zM1245 979v-979h-297v729h-411v-729h-299v729h-207v250h207v65q0 355 385 355q92 0 165 -13v-237h-108q-141 0 -141 -117v-53h706z" />
    <glyph glyph-name="fl" unicode="fl" horiz-adv-x="1370" 
d="M954 1382h295v-1382h-295v729h-417v-729h-299v729h-207v250h207v65q0 355 385 355q92 0 165 -13v-237h-108q-141 0 -141 -117v-53h415v403z" />
    <glyph glyph-name="f_f" unicode="ff" horiz-adv-x="1581" 
d="M1288 979h273v-250h-275v-729h-295v729h-459v-729h-294v729h-207v250h207v65q0 355 385 355q92 0 165 -13v-237h-108q-145 0 -145 -117v-53h456v65q0 355 385 355q93 0 166 -13v-237h-108q-146 0 -146 -117v-53z" />
    <glyph glyph-name="f_f_i" unicode="ffi" horiz-adv-x="2148" 
d="M2042 1245q0 -73 -51.5 -117.5t-143.5 -44.5t-142 44t-50 118q0 69 51 112.5t141 43.5t142.5 -43.5t52.5 -112.5zM1999 979v-979h-297v729h-412v-729h-299v729h-454v-729h-299v729h-207v250h207v65q0 355 385 355q92 0 165 -13v-237h-108q-141 0 -141 -117v-53h452v65
q0 355 385 355q93 0 166 -13v-237h-108q-142 0 -142 -117v-53h707z" />
    <glyph glyph-name="f_f_l" unicode="ffl" horiz-adv-x="2121" 
d="M1708 1382h295v-1382h-295v729h-418v-729h-299v729h-454v-729h-299v729h-207v250h207v65q0 355 385 355q92 0 165 -13v-237h-108q-141 0 -141 -117v-53h452v65q0 355 385 355q93 0 166 -13v-237h-108q-142 0 -142 -117v-53h416v403z" />
    <glyph glyph-name="f_t" unicode="ft" horiz-adv-x="1583" 
d="M1311 979h241v-250h-241v-729h-295v729h-484v-729h-294v729h-207v250h207v65q0 355 385 355q92 0 165 -13v-237h-108q-145 0 -145 -117v-53h481v258l295 18v-276z" />
    <glyph glyph-name="t_f" unicode="tf" horiz-adv-x="1552" 
d="M1260 979h272v-250h-275v-729h-294v729h-398v-729h-295v729h-239v250h239v258l295 18v-276h398v65q0 355 385 355q92 0 165 -13v-237h-108q-145 0 -145 -117v-53z" />
    <glyph glyph-name="t_i" unicode="ti" horiz-adv-x="1394" 
d="M1288 1245q0 -71 -52 -116.5t-142 -45.5q-92 0 -142.5 44t-50.5 118q0 69 51.5 112.5t141.5 43.5t142 -43.5t52 -112.5zM1243 979v-979h-297v729h-381v-729h-295v729h-239v250h239v258l295 18v-276h678z" />
    <glyph glyph-name="t_t" unicode="tt" horiz-adv-x="1513" 
d="M1243 979h242v-250h-242v-729h-297v729h-381v-729h-295v729h-239v250h239v258l295 18v-276h381v258l297 18v-276z" />
    <glyph glyph-name=".notdef" horiz-adv-x="1792" 
d="M508 758q-135 0 -229 94q-95 95 -95 231q0 133 95 228q94 94 229 94q136 0 227 -94q94 -94 94 -228q0 -137 -94 -231q-91 -94 -227 -94zM1284 758q-133 0 -227 94t-94 231q0 134 94 228t227 94q135 0 229 -94q95 -95 95 -228q0 -136 -95 -231q-94 -94 -229 -94zM1432 952
v164h-162v-74h73v-41q-21 -8 -45 -8q-44 0 -70 22.5t-26 63.5q0 43 29 67.5t80 24.5q47 0 88 -18v84q-41 14 -92 14q-89 0 -143 -46.5t-54 -125.5q0 -75 50 -120.5t132 -45.5q84 0 140 39zM377 918h139q80 0 127 43t47 120q0 76 -46.5 121t-127.5 45h-139v-329zM463 997v170
h41q94 0 94 -84q0 -86 -94 -86h-41zM508 -20q-135 0 -229 94q-95 95 -95 231q0 132 95 227t229 95q135 0 227 -95q94 -94 94 -227q0 -137 -94 -231q-91 -94 -227 -94zM1284 -20q-133 0 -227 94t-94 231q0 133 94 227q95 95 227 95q134 0 229 -95t95 -227q0 -136 -95 -231
q-94 -94 -229 -94zM377 139h86v103h18q29 0 45 -25l47 -78h101l-49 82q-18 27 -35 37q76 21 76 100q0 50 -32 80.5t-87 30.5h-170v-330zM1169 315h37v123h41v31h-119v-31h41v-123zM1266 315h32v41q0 56 -2 68l37 -82h29l37 78q0 -3 -1 -28.5t-1 -35.5v-41h30v154h-36
l-43 -98l-43 98h-39v-154zM463 315v72h67q45 0 45 -37q0 -35 -45 -35h-67z" />
    <glyph glyph-name=".null" 
 />
    <glyph glyph-name="nonmarkingreturn" horiz-adv-x="682" 
 />
    <glyph glyph-name="CR.001" unicode="&#xd;" horiz-adv-x="344" 
 />
    <glyph glyph-name="space" unicode=" " horiz-adv-x="385" 
 />
    <glyph glyph-name="exclam" unicode="!" horiz-adv-x="546" 
d="M164 494l-58 843h336l-53 -843h-225zM274 -18q-85 0 -138.5 54t-53.5 140t53.5 140.5t138.5 54.5q82 0 136.5 -54.5t54.5 -140.5t-54.5 -140t-136.5 -54z" />
    <glyph glyph-name="quotedbl" unicode="&#x22;" horiz-adv-x="765" 
d="M262 678h-164l-51 678h268zM672 678h-168l-51 678h266z" />
    <glyph glyph-name="numbersign" unicode="#" horiz-adv-x="1179" 
d="M1110 707h-203l-24 -105h207l-50 -215h-209l-92 -387h-221l90 387l-178 -2l-90 -385h-225l90 385h-189l54 217h186l25 105h-189l51 215h189l108 462h224l-109 -462l180 2l109 460h225l-111 -460h203zM659 602l25 105h-178l-25 -105h178z" />
    <glyph glyph-name="dollar" unicode="$" horiz-adv-x="1191" 
d="M729 752q354 -46 354 -344q0 -184 -137.5 -288t-372.5 -104h-16l-29 -166h-155l51 177q-147 18 -240 67v271q181 -93 389 -93q213 0 213 117q0 88 -141 103l-133 18q-187 23 -284 111.5t-97 230.5q0 180 137 281q138 102 371 102h12l27 147h160l-47 -159q134 -18 227 -64
v-268q-163 88 -381 88q-205 0 -205 -107q0 -83 133 -98z" />
    <glyph glyph-name="percent" unicode="%" horiz-adv-x="1742" 
d="M428 674q-147 0 -248 94q-98 94 -98 248q0 152 98 246q104 96 248 96q145 0 246 -96q98 -94 98 -246q0 -155 -100 -248q-98 -94 -244 -94zM350 0l819 1337h199l-817 -1337h-201zM428 885q56 0 94.5 37.5t38.5 93.5t-38.5 93.5t-94.5 37.5q-57 0 -96 -37t-39 -94t39 -94
t96 -37zM1315 -23q-145 0 -248 95q-98 94 -98 247q0 152 98 246q105 97 248 97q144 0 246 -97q100 -93 100 -246q0 -154 -100 -247q-103 -95 -246 -95zM1448 319q0 57 -38.5 95.5t-94.5 38.5q-57 0 -96 -38.5t-39 -95.5q0 -55 39.5 -92t95.5 -37t94.5 37t38.5 92z" />
    <glyph glyph-name="ampersand" unicode="&#x26;" horiz-adv-x="1359" 
d="M43 334q0 53 23 129q18 46 59 98q7 10 22.5 26t33.5 33l18 17l39 31l30 24l35 27l-45 47l-16 14q-28 28 -46.5 51.5t-38.5 75t-20 109.5q0 152 117 246q116 94 305 94q183 0 294.5 -87.5t111.5 -228.5q0 -67 -31.5 -130.5t-71.5 -100.5q-35 -35 -74 -64q-6 -2 -12 -8
l-51 -41l176 -172l152 211h323l-284 -407l321 -328h-399l-117 119q-165 -139 -408 -139q-206 0 -326 96.5t-120 257.5zM440 1030q0 -55 66 -112l37 -31l39 31q82 55 82 114q0 39 -31.5 64.5t-81.5 25.5q-48 0 -79.5 -25.5t-31.5 -66.5zM369 369q0 -60 44.5 -95.5
t118.5 -35.5q110 0 179 69l-226 225q-116 -67 -116 -163z" />
    <glyph glyph-name="quotesingle" unicode="'" horiz-adv-x="360" 
d="M264 678h-168l-49 678h266z" />
    <glyph glyph-name="parenleft" unicode="(" horiz-adv-x="772" 
d="M139 618q0 288 119 535q120 249 324 406l180 -164q-322 -316 -322 -777q0 -225 85 -426t237 -350l-180 -166q-210 163 -328 416q-115 257 -115 526z" />
    <glyph glyph-name="parenright" unicode=")" horiz-adv-x="772" 
d="M635 618q0 -270 -117 -522q-113 -249 -323 -420l-185 166q155 151 240.5 349.5t85.5 426.5q0 218 -83.5 419.5t-242.5 357.5l185 164q197 -154 319 -410q121 -251 121 -531z" />
    <glyph glyph-name="asterisk" unicode="*" horiz-adv-x="825" 
d="M47 940v162l234 -23l-181 142l109 112l147 -172l-24 221h155l-22 -221l147 172l109 -112l-178 -142l229 23v-162l-229 23l178 -140l-109 -114l-147 172l22 -222h-155l24 222l-147 -172l-109 114l181 140z" />
    <glyph glyph-name="plus" unicode="+" horiz-adv-x="1169" 
d="M707 430v-346h-246v346h-346v250h346v348h246v-348h350v-250h-350z" />
    <glyph glyph-name="comma" unicode="," horiz-adv-x="614" 
d="M82 -250l141 248q-57 13 -92 62.5t-35 115.5q0 85 53.5 135.5t139.5 50.5q85 0 138.5 -51t53.5 -133q0 -88 -61 -170l-193 -258h-145z" />
    <glyph glyph-name="hyphen" unicode="-" horiz-adv-x="937" 
d="M88 430v250h764v-250h-764z" />
    <glyph glyph-name="period" unicode="." horiz-adv-x="636" 
d="M317 371q85 0 140 -54.5t55 -140.5q0 -85 -56 -139.5t-139 -54.5t-137.5 54.5t-54.5 139.5q0 86 54.5 140.5t137.5 54.5z" />
    <glyph glyph-name="slash" unicode="/" horiz-adv-x="804" 
d="M4 0l555 1337h242l-555 -1337h-242z" />
    <glyph glyph-name="zero" unicode="0" horiz-adv-x="1212" 
d="M98 670q0 330 131 508t375 178q246 0 379 -179t133 -507q0 -331 -133.5 -509.5t-378.5 -178.5q-244 0 -375 178t-131 510zM604 254q201 0 201 414q0 413 -201 413q-194 0 -194 -409q0 -418 194 -418z" />
    <glyph glyph-name="one" unicode="1" horiz-adv-x="1048" 
d="M125 836v292q281 6 401 209h240v-1337h-303v999q-52 -69 -146.5 -115.5t-191.5 -47.5z" />
    <glyph glyph-name="two" unicode="2" horiz-adv-x="1013" 
d="M696 473l-190 -197h420v-276h-850v201l377 415q105 114 131 164q28 58 28 115q0 91 -61.5 138.5t-173.5 47.5q-171 0 -314 -98v285q155 88 377 88q226 0 356 -116t130 -318q0 -123 -55 -224.5t-175 -224.5z" />
    <glyph glyph-name="three" unicode="3" horiz-adv-x="1101" 
d="M662 799q159 -19 253.5 -120.5t94.5 -256.5q0 -201 -154 -322q-148 -118 -407 -118q-204 0 -340 65v287q141 -72 311 -72q134 0 205 47.5t71 130.5q0 73 -52 114.5t-144 43.5q-86 0 -170 -41l-125 195l338 309h-434v276h837v-272z" />
    <glyph glyph-name="four" unicode="4" horiz-adv-x="1118" 
d="M926 504h141v-281h-141v-223h-301v223h-600v260l446 854h455v-833zM332 504h293v575z" />
    <glyph glyph-name="five" unicode="5" horiz-adv-x="1153" 
d="M623 905q193 0 319 -123q125 -119 125 -313q0 -218 -162 -352q-160 -133 -426 -133q-225 0 -366 75v275q154 -74 336 -74q146 0 226.5 53.5t80.5 147.5q0 82 -53.5 129t-149.5 47q-151 0 -246 -105l-211 48l103 757h784v-276h-532l-33 -199q76 43 205 43z" />
    <glyph glyph-name="six" unicode="6" horiz-adv-x="1179" 
d="M80 467q0 95 33 190q36 103 55 140l72 114l258 426h350l-324 -458l2 -5q57 23 123 23q195 0 314 -125q122 -122 122 -319q0 -208 -141 -340q-141 -129 -371 -129q-219 0 -358 133q-135 132 -135 350zM393 451q0 -82 53 -136.5t134 -54.5q85 0 139.5 54t54.5 139t-55 137
q-52 55 -137 55t-138 -53q-51 -51 -51 -141z" />
    <glyph glyph-name="seven" unicode="7" horiz-adv-x="1075" 
d="M1026 1337v-250q-19 -28 -63.5 -91t-61.5 -89q-50 -77 -119 -194q-77 -137 -112 -226q-45 -109 -77 -239.5t-36 -247.5h-315q12 514 442 1061h-367v-234h-258v510h967z" />
    <glyph glyph-name="eight" unicode="8" horiz-adv-x="1212" 
d="M883 739q106 -38 167.5 -131t61.5 -215q0 -191 -139 -301t-375 -110q-237 0 -373.5 111.5t-136.5 299.5q0 124 64 218.5t170 129.5q-172 79 -172 271q0 160 123 252t331 92t328.5 -93t120.5 -249q0 -94 -45 -167t-125 -108zM600 1092q-73 0 -112 -30.5t-39 -84.5
q0 -55 40.5 -86t110.5 -31q73 0 113.5 31.5t40.5 85.5q0 55 -42 85t-112 30zM600 258q93 0 148 44t55 118q0 75 -56 119.5t-147 44.5q-92 0 -146.5 -45t-54.5 -119q0 -75 55 -118.5t146 -43.5z" />
    <glyph glyph-name="nine" unicode="9" horiz-adv-x="1157" 
d="M1075 870q0 -142 -59 -266q-21 -52 -41 -82l-21 -35l-36 -61l-261 -426h-350l324 459l-2 4q-57 -23 -123 -23q-190 0 -313 123q-123 126 -123 322q0 209 141 338q140 131 371 131q220 0 356 -133q137 -131 137 -351zM762 887q0 84 -52.5 137t-134.5 53q-86 0 -140 -53.5
t-54 -138.5q0 -84 53 -140q55 -55 139 -55q83 0 136 53q53 56 53 144z" />
    <glyph glyph-name="colon" unicode=":" horiz-adv-x="649" 
d="M133 809q0 84 54 137t139 53q82 0 136 -53t54 -137q0 -87 -54 -142t-136 -55q-83 0 -138 55t-55 142zM326 33q-85 0 -139 55t-54 141t54 138.5t139 52.5q82 0 136 -53.5t54 -137.5q0 -86 -54 -141t-136 -55z" />
    <glyph glyph-name="semicolon" unicode=";" horiz-adv-x="606" 
d="M285 612q-85 0 -140 55t-55 142q0 84 55 137t140 53q82 0 136 -53t54 -137q0 -87 -54 -142t-136 -55zM86 -252l123 242q-56 19 -90.5 69t-34.5 117q0 86 54 140.5t136 54.5t137.5 -54.5t55.5 -138.5q0 -72 -59 -164l-175 -266h-147z" />
    <glyph glyph-name="less" unicode="&#x3c;" horiz-adv-x="1032" 
d="M868 -4q-302 208 -702 399v207q432 211 702 402v-283q-147 -93 -426 -221q279 -130 426 -221v-283z" />
    <glyph glyph-name="equal" unicode="=" horiz-adv-x="1013" 
d="M115 596v215h784v-215h-784zM115 199v219h784v-219h-784z" />
    <glyph glyph-name="greater" unicode="&#x3e;" horiz-adv-x="1032" 
d="M166 -4v283q130 85 424 221q-287 135 -424 221v283q270 -190 702 -402v-207q-424 -204 -702 -399z" />
    <glyph glyph-name="question" unicode="?" horiz-adv-x="948" 
d="M440 1356q206 0 327.5 -107t121.5 -288q0 -155 -95 -257.5t-253 -115.5v-168h-275v375q50 -13 101 -13q88 0 139 40t51 112q0 73 -50.5 112t-141.5 39q-162 0 -277 -106v285q148 92 352 92zM399 324q83 0 135 -46.5t52 -123.5t-52 -123.5t-135 -46.5q-81 0 -132.5 46.5
t-51.5 123.5t51.5 123.5t132.5 46.5z" />
    <glyph glyph-name="at" unicode="@" horiz-adv-x="1636" 
d="M1137 926l-35 -475q-9 -168 125 -168q106 0 176 110q72 116 72 287q0 259 -175 418q-172 159 -448 159q-315 0 -502 -190q-188 -188 -188 -498q0 -295 174 -475q176 -182 498 -182q252 0 458 96v-100q-192 -94 -456 -94q-350 0 -568 209q-215 209 -215 552q0 350 219 566
q221 215 576 215q327 0 532 -187t205 -491q0 -215 -100 -350q-102 -135 -260 -135q-89 0 -145 41.5t-64 101.5q-32 -63 -102.5 -102t-149.5 -39q-123 0 -205 91t-82 255q0 174 90 290q92 115 228 115q72 0 132.5 -32.5t92.5 -88.5l20 101h97zM780 289q106 0 168 84.5
t62 218.5q0 119 -52.5 190.5t-144.5 71.5q-106 0 -164.5 -85t-58.5 -224q0 -123 49 -189.5t141 -66.5z" />
    <glyph glyph-name="A" unicode="A" horiz-adv-x="1363" 
d="M1010 0l-86 248h-500l-90 -248h-328l488 1337h354l508 -1337h-346zM514 502h322l-158 452z" />
    <glyph glyph-name="B" unicode="B" horiz-adv-x="1284" 
d="M1030 692q207 -77 207 -315q0 -158 -113 -268q-112 -109 -333 -109h-664v1337h639q201 0 316.5 -99.5t115.5 -266.5q0 -194 -168 -279zM440 1094v-291h256q83 0 130.5 39t47.5 112q0 67 -47.5 103.5t-130.5 36.5h-256zM705 244q200 0 200 164q0 81 -53.5 119t-144.5 38
h-267v-321h265z" />
    <glyph glyph-name="C" unicode="C" horiz-adv-x="1323" 
d="M72 668q0 309 209 497q209 191 550 191q253 0 416 -82v-295q-172 88 -377 88q-219 0 -344 -106.5t-125 -290.5q0 -183 126 -289.5t343 -106.5q211 0 377 88v-299q-175 -81 -434 -81q-352 0 -547 186q-194 188 -194 500z" />
    <glyph glyph-name="D" unicode="D" horiz-adv-x="1435" 
d="M127 0v1337h545q331 0 516 -182q184 -181 184 -487q0 -317 -190 -492q-188 -176 -510 -176h-545zM440 289h195q196 0 300.5 101t104.5 280q0 181 -108.5 280t-296.5 99h-195v-760z" />
    <glyph glyph-name="E" unicode="E" horiz-adv-x="1163" 
d="M127 0v1337h958v-288h-645v-250h590v-267h-590v-243h645v-289h-958z" />
    <glyph glyph-name="F" unicode="F" horiz-adv-x="1167" 
d="M127 0v1337h958v-288h-645v-322h596v-268h-596v-459h-313z" />
    <glyph glyph-name="G" unicode="G" horiz-adv-x="1480" 
d="M707 797h659v-654q-233 -161 -565 -161q-330 0 -529 184q-200 185 -200 487q0 327 217 514q219 189 571 189q217 0 377 -62v-307q-153 78 -363 78q-220 0 -346.5 -110t-126.5 -296q0 -180 116 -282.5t308 -102.5q121 0 228 43v209h-346v271z" />
    <glyph glyph-name="H" unicode="H" horiz-adv-x="1415" 
d="M127 0v1337h313v-528h535v528h313v-1337h-313v547h-535v-547h-313z" />
    <glyph glyph-name="I" unicode="I" horiz-adv-x="569" 
d="M440 0h-313v1337h313v-1337z" />
    <glyph glyph-name="J" unicode="J" horiz-adv-x="1132" 
d="M37 455h309q0 -185 174 -185q81 0 125.5 47t44.5 129v891h316v-874q0 -231 -129 -356t-365 -125q-218 0 -346.5 126t-128.5 347z" />
    <glyph glyph-name="K" unicode="K" horiz-adv-x="1308" 
d="M948 0l-344 510l-164 -191v-319h-313v1337h313v-569l478 569h399l-488 -565l512 -772h-393z" />
    <glyph glyph-name="L" unicode="L" horiz-adv-x="1103" 
d="M127 0v1337h313v-1052h627v-285h-940z" />
    <glyph glyph-name="M" unicode="M" horiz-adv-x="1675" 
d="M1223 1337h323v-1337h-309v387q0 234 14 389l-270 -571h-309l-246 557q14 -158 14 -375v-387h-313v1337h336l368 -798z" />
    <glyph glyph-name="N" unicode="N" horiz-adv-x="1425" 
d="M983 1337h315v-1337h-315l-543 795v-795h-313v1337h315l541 -796v796z" />
    <glyph glyph-name="O" unicode="O" horiz-adv-x="1531" 
d="M260 170q-190 190 -190 500q0 308 190 495q195 189 506 189q312 0 504 -189q192 -186 192 -495q0 -311 -192 -500q-191 -188 -504 -188q-312 0 -506 188zM401 670q0 -182 101 -289q103 -109 264 -109t264 109q100 106 100 289q0 178 -100 284q-102 111 -264 111
t-264 -111q-101 -107 -101 -284z" />
    <glyph glyph-name="P" unicode="P" horiz-adv-x="1290" 
d="M737 1337q233 0 367.5 -123t134.5 -342q0 -220 -136.5 -343t-371.5 -123l-291 2v-408h-313v1337h610zM711 690q92 0 144 48t52 130q0 84 -52 129t-144 45h-271v-352h271z" />
    <glyph glyph-name="Q" unicode="Q" horiz-adv-x="1519" 
d="M1075 41q134 -6 240 -53l145 -66l-129 -280l-686 348q-263 34 -420 217q-155 183 -155 463q0 308 190 495q195 189 506 189q312 0 504 -189q192 -186 192 -495q0 -222 -101.5 -386.5t-285.5 -242.5zM401 670q0 -182 101 -289q103 -109 264 -109t264 109q100 106 100 289
q0 178 -100 284q-102 111 -264 111t-264 -111q-101 -107 -101 -284z" />
    <glyph glyph-name="R" unicode="R" horiz-adv-x="1349" 
d="M1094 342l209 -342h-359l-201 328q-38 63 -78.5 84.5t-119.5 21.5h-105v-434h-313v1337h666q217 0 346 -120q131 -119 131 -314q0 -148 -83.5 -257t-225.5 -146q60 -38 133 -158zM739 700q92 0 145.5 47t53.5 123q0 170 -197 170h-301v-340h299z" />
    <glyph glyph-name="S" unicode="S" horiz-adv-x="1200" 
d="M135 369q204 -103 438 -103q244 0 244 135q0 41 -26.5 69.5t-57.5 35.5l-76 14l-159 23q-211 26 -315.5 124.5t-104.5 256.5q0 198 153 315q156 117 414 117q239 0 428 -86v-299q-181 100 -430 100q-233 0 -233 -125q0 -89 149 -110l193 -27q395 -52 395 -389
q0 -207 -156 -324q-156 -114 -418 -114q-266 0 -438 88v299z" />
    <glyph glyph-name="T" unicode="T" horiz-adv-x="1171" 
d="M1151 1337v-286h-410v-1051h-313v1051h-408v286h1131z" />
    <glyph glyph-name="U" unicode="U" horiz-adv-x="1382" 
d="M115 526v811h313v-811q0 -118 70 -184t194 -66q125 0 194.5 64.5t69.5 185.5v811h314v-811q0 -258 -153.5 -401t-426.5 -143q-275 0 -425 142.5t-150 401.5z" />
    <glyph glyph-name="V" unicode="V" horiz-adv-x="1370" 
d="M1022 1337h356l-489 -1337h-387l-510 1337h364l334 -970z" />
    <glyph glyph-name="W" unicode="W" horiz-adv-x="1900" 
d="M1532 1337h354l-295 -1337h-420l-225 872l-213 -872h-418l-301 1337h342l179 -942l243 942h332l256 -944z" />
    <glyph glyph-name="X" unicode="X" horiz-adv-x="1257" 
d="M-35 0l430 662l-436 675h360l308 -477l305 477h366l-440 -675l442 -662h-366l-307 446l-295 -446h-367z" />
    <glyph glyph-name="Y" unicode="Y" horiz-adv-x="1300" 
d="M961 1337h362l-514 -870v-467h-313v461l-519 876h353l321 -571z" />
    <glyph glyph-name="Z" unicode="Z" horiz-adv-x="1089" 
d="M1036 1337v-256l-575 -796h563v-285h-969v254l576 797h-584v286h989z" />
    <glyph glyph-name="bracketleft" unicode="[" horiz-adv-x="757" 
d="M137 -313v1921h539v-265h-240v-1390h240v-266h-539z" />
    <glyph glyph-name="backslash" unicode="\" horiz-adv-x="804" 
d="M801 0h-242l-555 1337h242z" />
    <glyph glyph-name="bracketright" unicode="]" horiz-adv-x="757" 
d="M84 -313v266h238v1390h-238v265h539v-1921h-539z" />
    <glyph glyph-name="asciicircum" unicode="^" horiz-adv-x="940" 
d="M618 860l-147 240l-147 -240h-232l283 477h192l281 -477h-230z" />
    <glyph glyph-name="underscore" unicode="_" horiz-adv-x="798" 
d="M0 -238v238h799v-238h-799z" />
    <glyph glyph-name="grave" unicode="`" horiz-adv-x="1320" 
d="M866 1319l-571 338l117 201l559 -367z" />
    <glyph glyph-name="a" unicode="a" horiz-adv-x="1304" 
d="M928 979h258v-979h-297v115q-50 -62 -143 -97.5t-205 -35.5q-218 0 -351 139q-131 137 -131 368q0 230 142 369t372 139q222 0 336 -129zM889 485v19q0 106 -73.5 173.5t-190.5 67.5q-119 0 -192 -70.5t-73 -185.5q0 -114 72 -186q70 -70 191 -70q119 0 192 70
q74 71 74 182z" />
    <glyph glyph-name="b" unicode="b" horiz-adv-x="1304" 
d="M762 997q217 0 350 -139t133 -364q0 -233 -137 -373q-139 -139 -363 -139q-239 0 -348 139l-20 -121h-258v1382h297v-518q109 133 346 133zM416 496v-19q0 -106 74 -175t190 -69q117 0 190.5 72.5t73.5 188.5q0 115 -72.5 183t-191.5 68t-191.5 -68.5t-72.5 -180.5z" />
    <glyph glyph-name="c" unicode="c" horiz-adv-x="1026" 
d="M57 483q0 241 154 377q152 137 410 137q200 0 319 -67v-273q-124 80 -297 80q-134 0 -209.5 -67t-75.5 -183q0 -114 75.5 -179.5t201.5 -65.5q162 0 305 82v-275q-149 -67 -352 -67q-246 0 -388.5 135.5t-142.5 365.5z" />
    <glyph glyph-name="d" unicode="d" horiz-adv-x="1304" 
d="M889 1382h297v-1382h-258l-23 127q-115 -145 -358 -145q-223 0 -354 137q-134 140 -134 368q0 230 142 369q141 141 370 141q203 0 318 -106v491zM627 233q116 0 189 68.5t73 175.5v19q0 112 -72.5 180.5t-191.5 68.5t-192 -69.5t-73 -181.5q0 -116 74.5 -188.5
t192.5 -72.5z" />
    <glyph glyph-name="e" unicode="e" horiz-adv-x="1112" 
d="M1042 547q0 -76 -8 -133h-676q11 -82 89 -128t208 -46q205 0 355 84v-265q-160 -77 -394 -77q-265 0 -411 137q-148 139 -148 368q0 231 140 371q139 139 370 139q216 0 344 -125q131 -122 131 -325zM360 612h385q-6 60 -57.5 95.5t-130.5 35.5q-78 0 -131.5 -35.5
t-65.5 -95.5z" />
    <glyph glyph-name="f" unicode="f" horiz-adv-x="827" 
d="M238 0v729h-207v250h207v65q0 355 385 355q92 0 165 -13v-237h-108q-145 0 -145 -117v-53h272v-250h-275v-729h-294z" />
    <glyph glyph-name="g" unicode="g" horiz-adv-x="1280" 
d="M66 500q0 226 137 360q137 137 358 137q212 0 330 -112l14 94h256v-840q0 -255 -158 -390.5t-442 -135.5q-228 0 -383 70v274q177 -86 361 -86q150 0 238.5 59.5t88.5 161.5v55q-102 -129 -334 -129q-214 0 -342 134q-124 130 -124 348zM367 506q0 -104 69 -170t178 -66
t180.5 66t71.5 168v18q0 98 -71 160.5t-181 62.5q-109 0 -178 -66.5t-69 -172.5z" />
    <glyph glyph-name="h" unicode="h" horiz-adv-x="1167" 
d="M119 0v1382h297v-501q47 55 122 85.5t158 30.5q172 0 265.5 -97t93.5 -271v-629h-295v580q0 76 -39.5 119.5t-120.5 43.5q-90 0 -137 -53t-47 -143v-547h-297z" />
    <glyph glyph-name="i" unicode="i" horiz-adv-x="600" 
d="M299 1100q-193 0 -193 151q0 152 193 152q195 0 195 -152q0 -151 -195 -151zM152 0v979h297v-979h-297z" />
    <glyph glyph-name="j" unicode="j" horiz-adv-x="647" 
d="M154 1249q0 152 194 152q195 0 195 -152q0 -73 -51 -111t-144 -38t-143.5 38t-50.5 111zM84 -387q-87 0 -178 18v232h98q193 0 193 192v924h297v-934q0 -217 -106.5 -324.5t-303.5 -107.5z" />
    <glyph glyph-name="k" unicode="k" horiz-adv-x="1153" 
d="M1147 979l-408 -404l389 -575h-342l-254 373l-116 -115v-258h-297v1382h297v-766l358 363h373z" />
    <glyph glyph-name="l" unicode="l" horiz-adv-x="534" 
d="M119 0v1382h297v-1382h-297z" />
    <glyph glyph-name="m" unicode="m" horiz-adv-x="1683" 
d="M1229 997q160 0 251 -93.5t91 -260.5v-643h-295v598q0 145 -137 145q-69 0 -107.5 -44.5t-38.5 -123.5v-575h-299v582q0 161 -141 161q-65 0 -101 -43.5t-36 -119.5v-580h-297v979h260l16 -98q91 116 254 116q99 0 174.5 -41.5t104.5 -113.5q43 72 123 113.5t178 41.5z
" />
    <glyph glyph-name="n" unicode="n" horiz-adv-x="1169" 
d="M119 0v979h276l21 -98q101 116 280 116q172 0 265.5 -97.5t93.5 -270.5v-629h-295v580q0 76 -39.5 119.5t-120.5 43.5q-90 0 -137 -53t-47 -143v-547h-297z" />
    <glyph glyph-name="o" unicode="o" horiz-adv-x="1204" 
d="M600 997q244 0 395 -139q150 -138 150 -366t-150 -369q-151 -139 -395 -139q-242 0 -393 139q-150 141 -150 369t150 366q151 139 393 139zM358 489q0 -116 65 -180.5t177 -64.5q114 0 179 68t65 182q0 116 -64 179.5t-176 63.5q-115 0 -180.5 -67.5t-65.5 -180.5z" />
    <glyph glyph-name="p" unicode="p" horiz-adv-x="1302" 
d="M754 997q221 0 354 -139q135 -138 135 -364q0 -230 -141 -371q-138 -141 -371 -141q-201 0 -317 110v-461h-295v1348h258l20 -121q121 139 357 139zM680 233q117 0 189.5 70.5t72.5 185.5q0 113 -72 185q-71 71 -190 71q-120 0 -193 -67t-73 -174v-19q0 -113 72.5 -182.5
t193.5 -69.5z" />
    <glyph glyph-name="q" unicode="q" horiz-adv-x="1302" 
d="M928 979h258v-1348h-297v484q-50 -62 -143 -97.5t-205 -35.5q-218 0 -351 139q-131 137 -131 368q0 230 142 369t372 139q222 0 336 -129zM889 485v19q0 106 -73.5 173.5t-190.5 67.5q-119 0 -192 -70.5t-73 -185.5q0 -114 72 -186q70 -70 191 -70q119 0 192 70
q74 71 74 182z" />
    <glyph glyph-name="r" unicode="r" horiz-adv-x="751" 
d="M676 997q33 0 43 -2v-282h-51q-107 -6 -162.5 -47t-75.5 -113q-16 -66 -16 -150v-403h-295v979h262l22 -131q26 68 100.5 108.5t172.5 40.5z" />
    <glyph glyph-name="s" unicode="s" horiz-adv-x="956" 
d="M96 307q165 -76 379 -76q133 0 133 64q0 20 -13.5 32.5t-30 16.5t-46.5 8l-141 17q-316 37 -316 299q0 162 117 245.5t328 83.5q204 0 338 -57v-270q-152 73 -355 73q-129 0 -129 -59q6 -34 26 -44.5t65 -12.5l137 -15q321 -34 321 -301q0 -159 -121 -244t-337 -85
q-212 0 -355 61v264z" />
    <glyph glyph-name="t" unicode="t" horiz-adv-x="837" 
d="M270 0v729h-239v250h239v258l295 18v-276h242v-250h-242v-729h-295z" />
    <glyph glyph-name="u" unicode="u" horiz-adv-x="1169" 
d="M1051 979v-979h-277l-18 100q-97 -118 -295 -118q-164 0 -255 94t-91 256v647h295v-576q0 -73 39.5 -120t119.5 -47q88 0 137.5 51t49.5 133v559h295z" />
    <glyph glyph-name="v" unicode="v" horiz-adv-x="1075" 
d="M760 979h315l-368 -979h-336l-369 979h320l217 -688z" />
    <glyph glyph-name="w" unicode="w" horiz-adv-x="1470" 
d="M6 979h289l156 -666q64 316 143 666h276q135 -602 146 -670l155 670h293l-260 -979h-342l-129 578l-129 -578h-342z" />
    <glyph glyph-name="x" unicode="x" horiz-adv-x="1036" 
d="M-4 0l297 475l-309 504h327l209 -342l203 342h332l-312 -504l306 -475h-326l-203 311l-198 -311h-326z" />
    <glyph glyph-name="y" unicode="y" horiz-adv-x="1122" 
d="M788 979h334l-651 -1348h-330l248 519l-389 829h338l219 -500z" />
    <glyph glyph-name="z" unicode="z" horiz-adv-x="882" 
d="M403 252h433v-252h-801v223l414 506h-418v250h794v-217z" />
    <glyph glyph-name="braceleft" unicode="{" horiz-adv-x="813" 
d="M29 492v305q123 0 178 40t55 130v284q0 179 88.5 267t276.5 88q97 0 168 -15v-235h-111q-149 0 -149 -117v-303q0 -110 -52 -189.5t-137 -99.5v-6q87 -23 138 -101t51 -190v-301q0 -117 149 -117h111v-237q-77 -12 -168 -12q-187 0 -276 87.5t-89 266.5v285
q0 91 -55 130.5t-178 39.5z" />
    <glyph glyph-name="bar" unicode="|" horiz-adv-x="643" 
d="M197 -100v1482h249v-1482h-249z" />
    <glyph glyph-name="braceright" unicode="}" horiz-adv-x="813" 
d="M784 492q-125 0 -180 -39.5t-55 -130.5v-285q0 -180 -88 -267t-277 -87q-96 0 -166 12v237h109q149 0 149 117v301q0 114 52 192.5t139 98.5v6q-87 24 -139 101t-52 188v303q0 117 -149 117h-109v235q70 15 166 15q189 0 277 -87.5t88 -267.5v-284q0 -91 55.5 -130.5
t179.5 -39.5v-305z" />
    <glyph glyph-name="asciitilde" unicode="~" horiz-adv-x="1116" 
d="M162 408q-7 146 51.5 220t157.5 74q71 0 184 -49q116 -49 166 -49q46 0 72 24.5t26 61.5h133q10 -142 -52.5 -219.5t-162.5 -77.5q-86 0 -205 49q-119 52 -155 52q-41 0 -62.5 -27.5t-15.5 -58.5h-137z" />
    <glyph glyph-name="uni00A0" unicode="&#xa0;" horiz-adv-x="385" 
 />
    <glyph glyph-name="exclamdown" unicode="&#xa1;" horiz-adv-x="546" 
d="M274 1356q82 0 136.5 -54.5t54.5 -140.5q0 -85 -54 -138.5t-137 -53.5q-85 0 -138.5 53t-53.5 139t53.5 140.5t138.5 54.5zM162 844h227l55 -844h-338z" />
    <glyph glyph-name="cent" unicode="&#xa2;" horiz-adv-x="1046" 
d="M653 856q-134 0 -209 -67.5t-75 -184.5q0 -112 75.5 -178t200.5 -66q168 0 305 82v-274q-142 -68 -352 -68q-33 0 -41 2l-47 -247h-158l80 264q-173 41 -268.5 168.5t-95.5 314.5q0 235 147 373q150 138 399 141l48 260h155l-76 -268q128 -15 209 -61v-271
q-127 80 -297 80z" />
    <glyph glyph-name="sterling" unicode="&#xa3;" horiz-adv-x="1189" 
d="M608 268h494v-268h-963v266q128 0 186 24t58 85q0 66 -53 196h-191v203h109q-25 92 -25 164q0 200 137 309t369 109q57 0 116.5 -10t118.5 -26t64 -17v-273q-161 53 -295 53q-103 0 -163 -43.5t-60 -121.5q0 -63 37 -144h352v-203h-270q65 -209 -21 -303z" />
    <glyph glyph-name="currency" unicode="&#xa4;" horiz-adv-x="1095" 
d="M49 246l146 133q-85 113 -85 241t85 238l-144 133l135 144l133 -152q111 64 227 66.5t234 -62.5l131 148l136 -146l-138 -125q85 -116 85.5 -243.5t-85.5 -249.5l140 -127l-136 -142l-131 150q-107 -64 -226.5 -64t-233.5 68l-138 -154zM551 432q83 0 137.5 52.5
t54.5 136.5q0 79 -55 131.5t-137 52.5q-85 0 -140 -52.5t-55 -134.5t55 -134t140 -52z" />
    <glyph glyph-name="yen" unicode="&#xa5;" horiz-adv-x="1245" 
d="M1233 1337l-320 -624h177v-217h-306v-97h306v-211h-306v-188h-317v188h-307v211h307v97h-307v217h174l-320 624h353l258 -557l245 557h363z" />
    <glyph glyph-name="brokenbar" unicode="&#xa6;" horiz-adv-x="643" 
d="M197 707v675h249v-675h-249zM197 -115v660h249v-660h-249z" />
    <glyph glyph-name="section" unicode="&#xa7;" horiz-adv-x="1081" 
d="M557 -289q-200 0 -348 62v213q162 -72 330 -72q159 0 159 119q0 40 -20.5 66.5t-52.5 35.5q-40 15 -62 19q-21 6 -26 6l-119 30q-86 24 -164 72q-49 33 -78 90.5t-29 128.5q0 189 185 260q-207 74 -207 275q0 151 115 240.5t307 89.5q198 0 340 -60v-213q-162 70 -330 70
q-162 0 -162 -117q0 -65 56 -98q22 -13 53 -21q5 0 29 -6l24 -6l119 -29q98 -24 168 -75q48 -33 75 -89t27 -124q0 -93 -48.5 -162.5t-135.5 -100.5q207 -74 207 -274q0 -151 -117 -240q-116 -90 -295 -90zM549 422q72 0 110.5 29t38.5 79t-42 77.5t-111 27.5
q-72 0 -111 -29t-39 -78q0 -52 42 -79t112 -27z" />
    <glyph glyph-name="dieresis" unicode="&#xa8;" horiz-adv-x="1189" 
d="M365 1690q92 0 143 -46.5t51 -121.5q0 -76 -52 -124t-142 -48t-141.5 48t-51.5 124q0 75 51.5 121.5t141.5 46.5zM823 1690q92 0 143.5 -46.5t51.5 -121.5t-52.5 -123.5t-142.5 -48.5t-141 48t-51 124q0 75 51 121.5t141 46.5z" />
    <glyph glyph-name="copyright" unicode="&#xa9;" horiz-adv-x="1501" 
d="M1458 600q0 -302 -203 -496q-201 -192 -503 -192q-299 0 -504 190t-205 496q0 304 205 494q204 192 504 192t501 -192q205 -190 205 -492zM139 598q0 -264 174 -432q175 -166 439 -166q262 0 434 166q174 168 174 434q0 268 -174 430q-172 166 -434 166q-264 0 -439 -166
q-174 -162 -174 -432zM1090 508q-9 -126 -103 -205q-92 -80 -223 -80q-153 0 -254 107q-98 107 -98 268q0 156 96 266q98 107 256 107q133 0 226 -78.5t100 -204.5h-160q-7 66 -52.5 106t-113.5 40q-90 0 -143.5 -67t-53.5 -169q0 -104 53 -170t142 -66q69 0 115 38t53 108
h160z" />
    <glyph glyph-name="guillemotleft" unicode="&#xab;" horiz-adv-x="1140" 
d="M131 494q144 202 223 393h256q-69 -189 -207 -393q137 -203 207 -394h-256q-80 194 -223 394zM571 494q144 201 222 393h258q-77 -201 -205 -393q127 -190 205 -394h-258q-78 194 -222 394z" />
    <glyph glyph-name="logicalnot" unicode="&#xac;" horiz-adv-x="1122" 
d="M776 254v264h-661v244h893v-508h-232z" />
    <glyph glyph-name="registered" unicode="&#xae;" horiz-adv-x="1021" 
d="M508 1346q194 0 321 -121t127 -305q0 -185 -127 -306q-126 -120 -321 -120q-192 0 -318 120q-124 118 -124 306q0 185 124 303q126 123 318 123zM512 553q164 0 270 100q107 101 107 267q0 163 -107 264q-108 102 -274 102q-162 0 -270 -102q-105 -102 -105 -266
t107 -265q106 -100 272 -100zM604 870q22 -13 45 -51l80 -127h-121l-73 121q-21 37 -72 37h-43v-158h-101v469h220q83 0 129.5 -42.5t46.5 -112.5q0 -49 -29.5 -86.5t-81.5 -49.5zM530 936q78 0 78 68q0 65 -78 65h-110v-133h110z" />
    <glyph glyph-name="overscore" unicode="&#xaf;" horiz-adv-x="1230" 
d="M238 1380v232h755v-232h-755z" />
    <glyph glyph-name="degree" unicode="&#xb0;" horiz-adv-x="696" 
d="M651 1055q0 -130 -90 -217q-90 -84 -217 -84q-124 0 -213 86q-86 89 -86 215t83 209.5t216 83.5q134 0 221 -84q86 -83 86 -209zM453 1055q0 40 -31.5 67t-75.5 27q-42 0 -71 -26.5t-29 -67.5q0 -43 29 -72t71 -29q43 0 75 29.5t32 71.5z" />
    <glyph glyph-name="plusminus" unicode="&#xb1;" horiz-adv-x="1294" 
d="M766 592v-273h-238v273h-374v237h374v275h238v-275h377v-237h-377zM154 0v236h989v-236h-989z" />
    <glyph glyph-name="uni00B2" unicode="&#xb2;" horiz-adv-x="897" 
d="M457 735h329v-215h-661v154l309 327q64 67 88.5 107.5t24.5 89.5q0 131 -170 131q-141 0 -266 -76v217q153 66 309 66q169 0 264.5 -83t95.5 -226q0 -71 -30 -144t-66 -116q-24 -30 -84 -90z" />
    <glyph glyph-name="uni00B3" unicode="&#xb3;" horiz-adv-x="878" 
d="M516 1120q117 -14 186.5 -89.5t69.5 -192.5q0 -152 -115 -242t-307 -90q-147 0 -254 49v221q103 -53 234 -53q99 0 152 34t53 95q0 81 -88 106.5t-185 -20.5l-96 147l250 228h-320v211h629v-207z" />
    <glyph glyph-name="acute" unicode="&#xb4;" horiz-adv-x="1320" 
d="M455 1319l-103 172l559 367l115 -201z" />
    <glyph glyph-name="paragraph" unicode="&#xb6;" horiz-adv-x="1380" 
d="M1040 1130v-1409h-202v1409h-160v-1409h-199v854q-182 0 -291.5 104.5t-109.5 276.5q0 171 119 275q118 106 315 106h725v-207h-197z" />
    <glyph glyph-name="middot" unicode="&#xb7;" horiz-adv-x="671" 
d="M125 508q0 84 61.5 142.5t149.5 58.5t149.5 -58.5t61.5 -142.5q0 -86 -60.5 -144.5t-150.5 -58.5t-150.5 58.5t-60.5 144.5z" />
    <glyph glyph-name="cedilla" unicode="&#xb8;" horiz-adv-x="1163" 
d="M383 -436v155q84 -53 164 -38q80 12 80 83q0 49 -54 65t-120 -11v108l122 119h119v-45l-94 -88l2 -4q34 13 88 1t98 -52q48 -48 48 -119q0 -77 -47.5 -129.5t-117 -71.5t-148 -12.5t-140.5 39.5z" />
    <glyph glyph-name="uni00B9" unicode="&#xb9;" horiz-adv-x="710" 
d="M92 1143v225q210 3 305 156h185v-1004h-234v748q-41 -54 -112 -89t-144 -36z" />
    <glyph glyph-name="guillemotright" unicode="&#xbb;" horiz-adv-x="1140" 
d="M569 494q-143 -200 -223 -394h-256q69 194 205 394q-137 201 -205 393h256q79 -191 223 -393zM1010 494q-145 -204 -224 -394h-254q69 194 205 394q-137 201 -205 393h254q78 -188 224 -393z" />
    <glyph glyph-name="onequarter" unicode="&#xbc;" horiz-adv-x="1990" 
d="M1206 1448h236l-762 -1542h-238zM520 432h-215v666q-37 -48 -102.5 -79.5t-130.5 -31.5v209q194 3 276 141h172v-905zM1796 348h94v-201h-94v-147h-215v147h-403v185l292 571h326v-555zM1397 348h184v369z" />
    <glyph glyph-name="onehalf" unicode="&#xbd;" horiz-adv-x="2033" 
d="M1206 1448h236l-762 -1542h-238zM520 432h-215v666q-37 -48 -102.5 -79.5t-130.5 -31.5v209q194 3 276 141h172v-905zM1645 199h290v-199h-600v141l279 295q55 55 74.5 87.5t25.5 86.5q0 113 -151 113q-119 0 -240 -68v203q138 60 279 60q153 0 241 -76.5t88 -206.5
q0 -65 -29 -132.5t-61 -105.5q-32 -36 -74 -78z" />
    <glyph glyph-name="threequarters" unicode="&#xbe;" horiz-adv-x="2078" 
d="M1294 1448h236l-762 -1542h-238zM713 719q0 -136 -104.5 -217.5t-278.5 -81.5q-140 0 -230 43v205q89 -47 209 -47q180 0 180 110q0 47 -33 72.5t-89 25.5t-117 -28l-90 137l223 203h-283v196h570v-194l-185 -172q103 -13 165.5 -82.5t62.5 -169.5zM1884 348h94v-201h-94
v-147h-215v147h-403v185l293 571h325v-555zM1485 348h184v369z" />
    <glyph glyph-name="questiondown" unicode="&#xbf;" horiz-adv-x="948" 
d="M690 874q-51 -45 -133 -45t-133 45t-51 125q0 78 51 123q53 47 133 47t133 -47q51 -45 51 -123q0 -80 -51 -125zM594 70q164 0 274 104v-285q-145 -92 -350 -92q-207 0 -328 109q-120 108 -120 287q0 155 94.5 256t253.5 118v166h274v-375q-37 13 -100 13q-91 0 -141 -40
t-50 -112q0 -73 50.5 -111t142.5 -38z" />
    <glyph glyph-name="Agrave" unicode="&#xc0;" horiz-adv-x="1363" 
d="M776 1581l-104 -172l-572 338l117 201zM1010 0l-86 248h-500l-90 -248h-328l488 1337h354l508 -1337h-346zM514 502h322l-158 452z" />
    <glyph glyph-name="Aacute" unicode="&#xc1;" horiz-adv-x="1363" 
d="M1239 1747l-571 -338l-103 172l559 367zM1010 0l-86 248h-500l-90 -248h-328l488 1337h354l508 -1337h-346zM514 502h322l-158 452z" />
    <glyph glyph-name="Acircumflex" unicode="&#xc2;" horiz-adv-x="1363" 
d="M672 1741l-305 -336l-154 156l375 383h170l375 -383l-156 -156zM1010 0l-86 248h-500l-90 -248h-328l488 1337h354l508 -1337h-346zM514 502h322l-158 452z" />
    <glyph glyph-name="Atilde" unicode="&#xc3;" horiz-adv-x="1363" 
d="M551 1513q-71 0 -111 -75l-118 69q38 108 90.5 155.5t128.5 47.5q50 3 133 -35q84 -35 121 -35q78 0 108 80l127 -59q-59 -216 -225 -219q-51 0 -135 35q-79 36 -119 36zM1010 0l-86 248h-500l-90 -248h-328l488 1337h354l508 -1337h-346zM514 502h322l-158 452z" />
    <glyph glyph-name="Adieresis" unicode="&#xc4;" horiz-adv-x="1363" 
d="M440 1780q92 0 143.5 -46.5t51.5 -121.5t-52.5 -123.5t-142.5 -48.5t-141 48t-51 124q0 75 51 121.5t141 46.5zM899 1780q92 0 143.5 -46.5t51.5 -121.5t-52.5 -123.5t-142.5 -48.5t-141 48t-51 124q0 75 51 121.5t141 46.5zM1010 0l-86 248h-500l-90 -248h-328l488 1337
h354l508 -1337h-346zM514 502h322l-158 452z" />
    <glyph glyph-name="Aring" unicode="&#xc5;" horiz-adv-x="1386" 
d="M1010 0l-86 248h-500l-90 -248h-328l465 1276q-70 70 -70 172q0 106 74 176t184 70q111 0 185 -70t74 -176q0 -88 -54 -154l492 -1294h-346zM555 1448q-5 -63 50 -89t109.5 0t49.5 89q0 43 -30.5 72.5t-74.5 29.5t-74 -29.5t-30 -72.5zM514 502h322l-158 452z" />
    <glyph glyph-name="AE" unicode="&#xc6;" horiz-adv-x="1802" 
d="M1726 1051h-589v-252h413v-267h-413v-247h589v-285h-903v285h-403l-86 -285h-328l434 1337h1286v-286zM823 1051h-172l-155 -512h327v512z" />
    <glyph glyph-name="Ccedilla" unicode="&#xc7;" horiz-adv-x="1323" 
d="M870 1067q-219 0 -344 -106.5t-125 -290.5q0 -183 126 -289.5t343 -106.5q211 0 377 88v-299q-176 -78 -420 -81l-71 -68l2 -4q20 5 48.5 6.5t61.5 -11t60.5 -31.5t46 -54.5t18.5 -79.5q0 -77 -48 -129.5t-117.5 -71.5t-148.5 -12.5t-140 39.5v155q83 -53 163 -38
q80 12 80 84q0 49 -54 64.5t-120 -11.5v108l64 62q-285 38 -442.5 218t-157.5 460q0 309 209 497q209 191 550 191q253 0 416 -82v-295q-172 88 -377 88z" />
    <glyph glyph-name="Egrave" unicode="&#xc8;" horiz-adv-x="1163" 
d="M600 1409l-571 338l116 201l560 -367zM127 0v1337h958v-288h-645v-250h590v-267h-590v-243h645v-289h-958z" />
    <glyph glyph-name="Eacute" unicode="&#xc9;" horiz-adv-x="1163" 
d="M598 1409l-102 172l559 367l114 -201zM127 0v1337h958v-288h-645v-250h590v-267h-590v-243h645v-289h-958z" />
    <glyph glyph-name="Ecircumflex" unicode="&#xca;" horiz-adv-x="1163" 
d="M141 1561l375 383h170l375 -383l-156 -156l-305 336l-305 -336zM127 0v1337h958v-288h-645v-250h590v-267h-590v-243h645v-289h-958z" />
    <glyph glyph-name="Edieresis" unicode="&#xcb;" horiz-adv-x="1163" 
d="M371 1780q92 0 143 -46.5t51 -121.5q0 -76 -52 -124t-142 -48t-141.5 48t-51.5 124q0 75 51.5 121.5t141.5 46.5zM829 1780q92 0 143.5 -46.5t51.5 -121.5t-52.5 -123.5t-142.5 -48.5t-141 48t-51 124q0 75 51 121.5t141 46.5zM127 0v1337h958v-288h-645v-250h590v-267
h-590v-243h645v-289h-958z" />
    <glyph glyph-name="Igrave" unicode="&#xcc;" horiz-adv-x="569" 
d="M285 1409l-572 338l117 201l559 -367zM440 0h-313v1337h313v-1337z" />
    <glyph glyph-name="Iacute" unicode="&#xcd;" horiz-adv-x="569" 
d="M283 1409l-103 172l559 367l115 -201zM440 0h-313v1337h313v-1337z" />
    <glyph glyph-name="Icircumflex" unicode="&#xce;" horiz-adv-x="569" 
d="M-174 1561l375 383h170l374 -383l-155 -156l-305 336l-305 -336zM440 0h-313v1337h313v-1337z" />
    <glyph glyph-name="Idieresis" unicode="&#xcf;" horiz-adv-x="569" 
d="M55 1780q92 0 143.5 -46.5t51.5 -121.5t-52.5 -123.5t-142.5 -48.5t-141 48t-51 124q0 75 51 121.5t141 46.5zM514 1780q92 0 143.5 -46.5t51.5 -121.5t-52.5 -123.5t-142.5 -48.5t-141 48t-51 124q0 75 51 121.5t141 46.5zM440 0h-313v1337h313v-1337z" />
    <glyph glyph-name="Eth" unicode="&#xd0;" horiz-adv-x="1435" 
d="M672 1337q331 0 516 -182q184 -181 184 -487q0 -317 -190 -492q-188 -176 -510 -176h-545v553h-125v238h125v546h545zM635 289q196 0 300.5 101t104.5 280q0 181 -108.5 280t-296.5 99h-195v-258h240v-238h-240v-264h195z" />
    <glyph glyph-name="Ntilde" unicode="&#xd1;" horiz-adv-x="1425" 
d="M592 1513q-71 0 -111 -75l-119 69q38 108 90.5 155.5t129.5 47.5q50 3 133 -35q84 -35 121 -35q78 0 108 80l127 -59q-59 -216 -225 -219q-51 0 -135 35q-79 36 -119 36zM983 1337h315v-1337h-315l-543 795v-795h-313v1337h315l541 -796v796z" />
    <glyph glyph-name="Ograve" unicode="&#xd2;" horiz-adv-x="1531" 
d="M766 1409l-571 338l116 201l559 -367zM260 170q-190 190 -190 500q0 308 190 495q195 189 506 189q312 0 504 -189q192 -186 192 -495q0 -311 -192 -500q-191 -188 -504 -188q-312 0 -506 188zM401 670q0 -182 101 -289q103 -109 264 -109t264 109q100 106 100 289
q0 178 -100 284q-102 111 -264 111t-264 -111q-101 -107 -101 -284z" />
    <glyph glyph-name="Oacute" unicode="&#xd3;" horiz-adv-x="1531" 
d="M764 1409l-102 172l559 367l114 -201zM260 170q-190 190 -190 500q0 308 190 495q195 189 506 189q312 0 504 -189q192 -186 192 -495q0 -311 -192 -500q-191 -188 -504 -188q-312 0 -506 188zM401 670q0 -182 101 -289q103 -109 264 -109t264 109q100 106 100 289
q0 178 -100 284q-102 111 -264 111t-264 -111q-101 -107 -101 -284z" />
    <glyph glyph-name="Ocircumflex" unicode="&#xd4;" horiz-adv-x="1531" 
d="M307 1561l375 383h170l375 -383l-156 -156l-305 336l-305 -336zM260 170q-190 190 -190 500q0 308 190 495q195 189 506 189q312 0 504 -189q192 -186 192 -495q0 -311 -192 -500q-191 -188 -504 -188q-312 0 -506 188zM401 670q0 -182 101 -289q103 -109 264 -109
t264 109q100 106 100 289q0 178 -100 284q-102 111 -264 111t-264 -111q-101 -107 -101 -284z" />
    <glyph glyph-name="Otilde" unicode="&#xd5;" horiz-adv-x="1531" 
d="M899 1442q-51 0 -135 35q-79 36 -119 36q-70 0 -110 -75l-119 69q38 108 90.5 155.5t128.5 47.5q50 3 133 -35q84 -35 121 -35q78 0 108 80l127 -59q-59 -216 -225 -219zM260 170q-190 190 -190 500q0 308 190 495q195 189 506 189q312 0 504 -189q192 -186 192 -495
q0 -311 -192 -500q-191 -188 -504 -188q-312 0 -506 188zM401 670q0 -182 101 -289q103 -109 264 -109t264 109q100 106 100 289q0 178 -100 284q-102 111 -264 111t-264 -111q-101 -107 -101 -284z" />
    <glyph glyph-name="Odieresis" unicode="&#xd6;" horiz-adv-x="1531" 
d="M537 1780q92 0 143 -46.5t51 -121.5q0 -76 -52 -124t-142 -48t-141.5 48t-51.5 124q0 75 51.5 121.5t141.5 46.5zM995 1780q92 0 143.5 -46.5t51.5 -121.5t-52.5 -123.5t-142.5 -48.5t-141 48t-51 124q0 75 51 121.5t141 46.5zM260 170q-190 190 -190 500q0 308 190 495
q195 189 506 189q312 0 504 -189q192 -186 192 -495q0 -311 -192 -500q-191 -188 -504 -188q-312 0 -506 188zM401 670q0 -182 101 -289q103 -109 264 -109t264 109q100 106 100 289q0 178 -100 284q-102 111 -264 111t-264 -111q-101 -107 -101 -284z" />
    <glyph glyph-name="multiply" unicode="&#xd7;" horiz-adv-x="1404" 
d="M346 12l-178 187l356 348l-356 350l178 188l356 -348l355 348l180 -188l-356 -350l356 -348l-180 -187l-355 348z" />
    <glyph glyph-name="Oslash" unicode="&#xd8;" horiz-adv-x="1531" 
d="M260 1165q195 189 506 189q312 0 504 -189q192 -186 192 -495q0 -311 -192 -500q-191 -188 -504 -188q-312 0 -506 188q-190 190 -190 500q0 308 190 495zM766 1065q-162 0 -264 -111q-101 -107 -101 -284q0 -37 11 -105l587 420q-95 80 -233 80zM766 272q161 0 264 109
q100 106 100 289q0 42 -10 100l-585 -420q96 -78 231 -78z" />
    <glyph glyph-name="Ugrave" unicode="&#xd9;" horiz-adv-x="1382" 
d="M690 1409l-571 338l117 201l559 -367zM115 526v811h313v-811q0 -118 70 -184t194 -66q125 0 194.5 64.5t69.5 185.5v811h314v-811q0 -258 -153.5 -401t-426.5 -143q-275 0 -425 142.5t-150 401.5z" />
    <glyph glyph-name="Uacute" unicode="&#xda;" horiz-adv-x="1382" 
d="M686 1409l-102 172l559 367l114 -201zM115 526v811h313v-811q0 -118 70 -184t194 -66q125 0 194.5 64.5t69.5 185.5v811h314v-811q0 -258 -153.5 -401t-426.5 -143q-275 0 -425 142.5t-150 401.5z" />
    <glyph glyph-name="Ucircumflex" unicode="&#xdb;" horiz-adv-x="1382" 
d="M231 1561l375 383h170l375 -383l-156 -156l-305 336l-305 -336zM115 526v811h313v-811q0 -118 70 -184t194 -66q125 0 194.5 64.5t69.5 185.5v811h314v-811q0 -258 -153.5 -401t-426.5 -143q-275 0 -425 142.5t-150 401.5z" />
    <glyph glyph-name="Udieresis" unicode="&#xdc;" horiz-adv-x="1382" 
d="M461 1780q92 0 143 -46.5t51 -121.5q0 -76 -52 -124t-142 -48t-141.5 48t-51.5 124q0 75 51.5 121.5t141.5 46.5zM920 1780q92 0 143 -46.5t51 -121.5q0 -76 -52 -124t-142 -48t-141.5 48t-51.5 124q0 75 51.5 121.5t141.5 46.5zM115 526v811h313v-811q0 -118 70 -184
t194 -66q125 0 194.5 64.5t69.5 185.5v811h314v-811q0 -258 -153.5 -401t-426.5 -143q-275 0 -425 142.5t-150 401.5z" />
    <glyph glyph-name="Yacute" unicode="&#xdd;" horiz-adv-x="1300" 
d="M1221 1747l-572 -338l-102 172l559 367zM961 1337h362l-514 -870v-467h-313v461l-519 876h353l321 -571z" />
    <glyph glyph-name="Thorn" unicode="&#xde;" horiz-adv-x="1255" 
d="M690 1153q231 0 373 -127q141 -126 141 -336q0 -207 -141 -336q-138 -126 -371 -129h-250v-225h-315v1382h315v-229h248zM676 508q92 0 143 48.5t51 133.5q0 79 -53 124.5t-141 45.5h-234v-352h234z" />
    <glyph glyph-name="germandbls" unicode="&#xdf;" horiz-adv-x="1128" 
d="M1087 403q0 -188 -120 -305q-119 -116 -316 -116q-93 0 -157 24v279q44 -13 92 -13q84 0 135 49.5t51 129.5q0 82 -56 133t-147 51h-26v270h26q50 0 82.5 30t32.5 79q0 50 -34.5 79t-94.5 29q-129 0 -129 -135v-987h-307v938q0 233 127 348q130 115 327 115
q185 0 304 -101q120 -99 120 -256q0 -97 -51 -170t-137 -96q130 -26 204 -127t74 -248z" />
    <glyph glyph-name="agrave" unicode="&#xe0;" horiz-adv-x="1304" 
d="M694 1223l-104 -172l-572 338l117 200zM928 979h258v-979h-297v115q-50 -62 -143 -97.5t-205 -35.5q-218 0 -351 139q-131 137 -131 368q0 230 142 369t372 139q222 0 336 -129zM889 485v19q0 106 -73.5 173.5t-190.5 67.5q-119 0 -192 -70.5t-73 -185.5q0 -114 72 -186
q70 -70 191 -70q119 0 192 70q74 71 74 182z" />
    <glyph glyph-name="aacute" unicode="&#xe1;" horiz-adv-x="1304" 
d="M1159 1389l-571 -338l-105 172l559 366zM928 979h258v-979h-297v115q-50 -62 -143 -97.5t-205 -35.5q-218 0 -351 139q-131 137 -131 368q0 230 142 369t372 139q222 0 336 -129zM889 485v19q0 106 -73.5 173.5t-190.5 67.5q-119 0 -192 -70.5t-73 -185.5q0 -114 72 -186
q70 -70 191 -70q119 0 192 70q74 71 74 182z" />
    <glyph glyph-name="acircumflex" unicode="&#xe2;" horiz-adv-x="1304" 
d="M590 1380l-305 -336l-154 156l375 383h170l375 -383l-156 -156zM928 979h258v-979h-297v115q-50 -62 -143 -97.5t-205 -35.5q-218 0 -351 139q-131 137 -131 368q0 230 142 369t372 139q222 0 336 -129zM889 485v19q0 106 -73.5 173.5t-190.5 67.5q-119 0 -192 -70.5
t-73 -185.5q0 -114 72 -186q70 -70 191 -70q119 0 192 70q74 71 74 182z" />
    <glyph glyph-name="atilde" unicode="&#xe3;" horiz-adv-x="1304" 
d="M469 1155q-71 0 -111 -76l-118 70q38 108 90.5 155.5t128.5 47.5q50 3 133 -35q84 -35 121 -35q78 0 108 80l127 -59q-59 -217 -225 -220q-51 0 -135 35q-81 37 -119 37zM928 979h258v-979h-297v115q-50 -62 -143 -97.5t-205 -35.5q-218 0 -351 139q-131 137 -131 368
q0 230 142 369t372 139q222 0 336 -129zM889 485v19q0 106 -73.5 173.5t-190.5 67.5q-119 0 -192 -70.5t-73 -185.5q0 -114 72 -186q70 -70 191 -70q119 0 192 70q74 71 74 182z" />
    <glyph glyph-name="adieresis" unicode="&#xe4;" horiz-adv-x="1304" 
d="M360 1421q92 0 143.5 -46.5t51.5 -121.5t-52.5 -123.5t-142.5 -48.5t-141 48t-51 124q0 75 51 121.5t141 46.5zM817 1081q-90 0 -140 48t-50 124q0 75 50 121.5t140 46.5q92 0 143.5 -46.5t51.5 -121.5q0 -76 -52 -124t-143 -48zM928 979h258v-979h-297v115
q-50 -62 -143 -97.5t-205 -35.5q-218 0 -351 139q-131 137 -131 368q0 230 142 369t372 139q222 0 336 -129zM889 485v19q0 106 -73.5 173.5t-190.5 67.5q-119 0 -192 -70.5t-73 -185.5q0 -114 72 -186q70 -70 191 -70q119 0 192 70q74 71 74 182z" />
    <glyph glyph-name="aring" unicode="&#xe5;" horiz-adv-x="1304" 
d="M477 1286q0 105 74.5 175.5t185.5 70.5q110 0 184 -70t74 -176q0 -104 -74 -175t-184 -71t-185 71t-75 175zM633 1286q0 -43 30 -72.5t74 -29.5t73.5 29.5t29.5 72.5q6 63 -48.5 89t-109 0t-49.5 -89zM928 979h258v-979h-297v115q-50 -62 -143 -97.5t-205 -35.5
q-218 0 -351 139q-131 137 -131 368q0 230 142 369t372 139q222 0 336 -129zM889 485v19q0 106 -73.5 173.5t-190.5 67.5q-119 0 -192 -70.5t-73 -185.5q0 -114 72 -186q70 -70 191 -70q119 0 192 70q74 71 74 182z" />
    <glyph glyph-name="ae" unicode="&#xe6;" horiz-adv-x="1738" 
d="M1669 518q0 -42 -10 -110h-678q0 -80 79 -123t210 -43q169 0 346 71v-266q-157 -65 -375 -65q-146 0 -263 42.5t-169 112.5q-61 -72 -165 -113.5t-220 -41.5q-166 0 -265.5 85t-99.5 226q0 143 102.5 226t280.5 83h224v37q0 53 -40.5 84t-107.5 31q-60 0 -99.5 -25
t-47.5 -67h-295q21 158 145 245q128 90 303 90q220 0 328 -114q111 114 322 114q226 0 360 -131q135 -129 135 -348zM1370 608v4q0 66 -53 108t-139 42t-141 -42.5t-56 -111.5h389zM668 375v31h-187q-81 6 -113 -49q-26 -45 1 -90q35 -55 118 -48q84 0 132.5 43t48.5 113z
" />
    <glyph glyph-name="ccedilla" unicode="&#xe7;" horiz-adv-x="1026" 
d="M643 737q-134 0 -209.5 -67t-75.5 -183q0 -114 75.5 -179.5t201.5 -65.5q162 0 305 82v-275q-108 -51 -272 -63l-82 -78l2 -4q20 5 48.5 6.5t61.5 -11t60.5 -31.5t46 -54.5t18.5 -79.5q0 -77 -48 -129.5t-117.5 -71.5t-148.5 -12.5t-140 39.5v155q85 -54 163 -39
q80 12 80 84q0 49 -54 65t-120 -11v108l66 64q-210 23 -328.5 155t-118.5 342q0 241 154 377q152 137 410 137q200 0 319 -67v-273q-124 80 -297 80z" />
    <glyph glyph-name="egrave" unicode="&#xe8;" horiz-adv-x="1112" 
d="M678 1239l-105 -172l-571 338l117 201zM1042 547q0 -76 -8 -133h-676q11 -82 89 -128t208 -46q205 0 355 84v-265q-160 -77 -394 -77q-265 0 -411 137q-148 139 -148 368q0 231 140 371q139 139 370 139q216 0 344 -125q131 -122 131 -325zM360 612h385q-6 60 -57.5 95.5
t-130.5 35.5q-78 0 -131.5 -35.5t-65.5 -95.5z" />
    <glyph glyph-name="eacute" unicode="&#xe9;" horiz-adv-x="1112" 
d="M1143 1405l-572 -338l-104 172l559 367zM567 997q216 0 344 -125q131 -122 131 -325q0 -76 -8 -133h-676q11 -82 89 -128t208 -46q205 0 355 84v-265q-160 -77 -394 -77q-265 0 -411 137q-148 139 -148 368q0 231 140 371q139 139 370 139zM360 612h385q-6 60 -57.5 95.5
t-130.5 35.5q-78 0 -131.5 -35.5t-65.5 -95.5z" />
    <glyph glyph-name="ecircumflex" unicode="&#xea;" horiz-adv-x="1112" 
d="M573 1397l-305 -336l-153 156l374 382h170l375 -382l-155 -156zM1042 547q0 -76 -8 -133h-676q11 -82 89 -128t208 -46q205 0 355 84v-265q-160 -77 -394 -77q-265 0 -411 137q-148 139 -148 368q0 231 140 371q139 139 370 139q216 0 344 -125q131 -122 131 -325z
M360 612h385q-6 60 -57.5 95.5t-130.5 35.5q-78 0 -131.5 -35.5t-65.5 -95.5z" />
    <glyph glyph-name="edieresis" unicode="&#xeb;" horiz-adv-x="1112" 
d="M344 1438q92 0 143.5 -46.5t51.5 -121.5t-52.5 -123.5t-142.5 -48.5t-141 48t-51 124q0 75 51 121.5t141 46.5zM801 1098q-90 0 -140.5 48t-50.5 124q0 75 50.5 121.5t140.5 46.5q92 0 143 -46.5t51 -121.5q0 -76 -51.5 -124t-142.5 -48zM1042 547q0 -76 -8 -133h-676
q11 -82 89 -128t208 -46q205 0 355 84v-265q-160 -77 -394 -77q-265 0 -411 137q-148 139 -148 368q0 231 140 371q139 139 370 139q216 0 344 -125q131 -122 131 -325zM360 612h385q-6 60 -57.5 95.5t-130.5 35.5q-78 0 -131.5 -35.5t-65.5 -95.5z" />
    <glyph glyph-name="igrave" unicode="&#xec;" horiz-adv-x="620" 
d="M311 1051l-571 338l117 200l559 -366zM162 0v979h297v-979h-297z" />
    <glyph glyph-name="iacute" unicode="&#xed;" horiz-adv-x="620" 
d="M309 1051l-104 172l559 366l117 -200zM162 0v979h297v-979h-297z" />
    <glyph glyph-name="icircumflex" unicode="&#xee;" horiz-adv-x="620" 
d="M-147 1202l374 383h170l375 -383l-156 -155l-305 335l-305 -335zM162 0v979h297v-979h-297z" />
    <glyph glyph-name="idieresis" unicode="&#xef;" horiz-adv-x="620" 
d="M82 1421q92 0 143 -46.5t51 -121.5q0 -76 -52 -124t-142 -48t-141.5 48t-51.5 124q0 75 51.5 121.5t141.5 46.5zM539 1081q-90 0 -140.5 48t-50.5 124q0 75 50.5 121.5t140.5 46.5q92 0 143 -46.5t51 -121.5q0 -76 -51.5 -124t-142.5 -48zM162 0v979h297v-979h-297z" />
    <glyph glyph-name="eth" unicode="&#xf0;" horiz-adv-x="1179" 
d="M928 975q190 -278 190 -492q0 -223 -145 -362q-143 -137 -398 -137q-229 0 -374 127q-146 131 -146 333q0 203 142 336t360 133q66 0 105 -8l-105 131l-276 -102v221l141 51l-139 176h372l50 -71l251 92v-219l-135 -49zM815 457q0 95 -62 154t-167 59q-103 0 -165.5 -59
t-62.5 -156t62 -156q65 -59 166 -59t166 59q63 57 63 158z" />
    <glyph glyph-name="ntilde" unicode="&#xf1;" horiz-adv-x="1169" 
d="M715 1083q-51 0 -135 35q-81 37 -119 37q-71 0 -111 -76l-119 70q38 108 90.5 155.5t129.5 47.5q50 3 133 -35q84 -35 121 -35q78 0 108 80l127 -59q-59 -217 -225 -220zM119 0v979h276l21 -98q101 116 280 116q172 0 265.5 -97.5t93.5 -270.5v-629h-295v580
q0 76 -39.5 119.5t-120.5 43.5q-90 0 -137 -53t-47 -143v-547h-297z" />
    <glyph glyph-name="ograve" unicode="&#xf2;" horiz-adv-x="1204" 
d="M600 1051l-571 338l116 200l560 -366zM600 997q244 0 395 -139q150 -138 150 -366t-150 -369q-151 -139 -395 -139q-242 0 -393 139q-150 141 -150 369t150 366q151 139 393 139zM358 489q0 -116 65 -180.5t177 -64.5q114 0 179 68t65 182q0 116 -64 179.5t-176 63.5
q-115 0 -180.5 -67.5t-65.5 -180.5z" />
    <glyph glyph-name="oacute" unicode="&#xf3;" horiz-adv-x="1204" 
d="M596 1051l-102 172l559 366l114 -200zM600 997q244 0 395 -139q150 -138 150 -366t-150 -369q-151 -139 -395 -139q-242 0 -393 139q-150 141 -150 369t150 366q151 139 393 139zM358 489q0 -116 65 -180.5t177 -64.5q114 0 179 68t65 182q0 116 -64 179.5t-176 63.5
q-115 0 -180.5 -67.5t-65.5 -180.5z" />
    <glyph glyph-name="ocircumflex" unicode="&#xf4;" horiz-adv-x="1204" 
d="M141 1202l375 383h170l375 -383l-156 -155l-305 335l-305 -335zM600 997q244 0 395 -139q150 -138 150 -366t-150 -369q-151 -139 -395 -139q-242 0 -393 139q-150 141 -150 369t150 366q151 139 393 139zM358 489q0 -116 65 -180.5t177 -64.5q114 0 179 68t65 182
q0 116 -64 179.5t-176 63.5q-115 0 -180.5 -67.5t-65.5 -180.5z" />
    <glyph glyph-name="otilde" unicode="&#xf5;" horiz-adv-x="1204" 
d="M733 1083q-51 0 -135 35q-81 37 -119 37q-73 0 -110 -76l-119 70q38 108 90.5 155.5t128.5 47.5q50 3 133 -35q84 -35 121 -35q78 0 108 80l127 -59q-59 -217 -225 -220zM600 997q244 0 395 -139q150 -138 150 -366t-150 -369q-151 -139 -395 -139q-242 0 -393 139
q-150 141 -150 369t150 366q151 139 393 139zM358 489q0 -116 65 -180.5t177 -64.5q114 0 179 68t65 182q0 116 -64 179.5t-176 63.5q-115 0 -180.5 -67.5t-65.5 -180.5z" />
    <glyph glyph-name="odieresis" unicode="&#xf6;" horiz-adv-x="1204" 
d="M371 1421q92 0 143 -46.5t51 -121.5q0 -76 -52 -124t-142 -48t-141.5 48t-51.5 124q0 75 51.5 121.5t141.5 46.5zM829 1421q92 0 143.5 -46.5t51.5 -121.5t-52.5 -123.5t-142.5 -48.5t-141 48t-51 124q0 75 51 121.5t141 46.5zM600 997q244 0 395 -139q150 -138 150 -366
t-150 -369q-151 -139 -395 -139q-242 0 -393 139q-150 141 -150 369t150 366q151 139 393 139zM358 489q0 -116 65 -180.5t177 -64.5q114 0 179 68t65 182q0 116 -64 179.5t-176 63.5q-115 0 -180.5 -67.5t-65.5 -180.5z" />
    <glyph glyph-name="divide" unicode="&#xf7;" horiz-adv-x="1153" 
d="M389 989q0 85 53 138t138 53q82 0 136 -53.5t54 -137.5q0 -88 -52.5 -143t-137.5 -55t-138 55t-53 143zM115 457v250h925v-250h-925zM580 -20q-85 0 -138 55t-53 143q0 86 53 139.5t138 53.5q82 0 136 -53.5t54 -139.5q0 -87 -54 -142.5t-136 -55.5z" />
    <glyph glyph-name="oslash" unicode="&#xf8;" horiz-adv-x="1204" 
d="M600 997q244 0 395 -139q150 -138 150 -366t-150 -369q-151 -139 -395 -139q-242 0 -393 139q-150 141 -150 369t150 366q151 139 393 139zM604 737q-115 0 -180.5 -67.5t-65.5 -180.5q0 -3 4 -49l379 262q-59 35 -137 35zM600 244q114 0 179 68t65 182q0 35 -2 45
l-377 -263q54 -32 135 -32z" />
    <glyph glyph-name="ugrave" unicode="&#xf9;" horiz-adv-x="1169" 
d="M575 1051l-571 338l117 200l559 -366zM1051 979v-979h-277l-18 100q-97 -118 -295 -118q-164 0 -255 94t-91 256v647h295v-576q0 -73 39.5 -120t119.5 -47q88 0 137.5 51t49.5 133v559h295z" />
    <glyph glyph-name="uacute" unicode="&#xfa;" horiz-adv-x="1169" 
d="M571 1051l-102 172l559 366l115 -200zM1051 979v-979h-277l-18 100q-97 -118 -295 -118q-164 0 -255 94t-91 256v647h295v-576q0 -73 39.5 -120t119.5 -47q88 0 137.5 51t49.5 133v559h295z" />
    <glyph glyph-name="ucircumflex" unicode="&#xfb;" horiz-adv-x="1169" 
d="M117 1202l375 383h170l374 -383l-155 -155l-306 335l-305 -335zM1051 979v-979h-277l-18 100q-97 -118 -295 -118q-164 0 -255 94t-91 256v647h295v-576q0 -73 39.5 -120t119.5 -47q88 0 137.5 51t49.5 133v559h295z" />
    <glyph glyph-name="udieresis" unicode="&#xfc;" horiz-adv-x="1169" 
d="M344 1421q92 0 143.5 -46.5t51.5 -121.5t-52.5 -123.5t-142.5 -48.5t-141 48t-51 124q0 75 51 121.5t141 46.5zM803 1421q92 0 143 -46.5t51 -121.5q0 -76 -52 -124t-142 -48t-141.5 48t-51.5 124q0 75 51.5 121.5t141.5 46.5zM1051 979v-979h-277l-18 100
q-97 -118 -295 -118q-164 0 -255 94t-91 256v647h295v-576q0 -73 39.5 -120t119.5 -47q88 0 137.5 51t49.5 133v559h295z" />
    <glyph glyph-name="yacute" unicode="&#xfd;" horiz-adv-x="1122" 
d="M1120 1389l-571 -338l-105 172l560 366zM788 979h334l-651 -1348h-330l248 519l-389 829h338l219 -500z" />
    <glyph glyph-name="thorn" unicode="&#xfe;" horiz-adv-x="1304" 
d="M756 997q221 0 354 -139q135 -138 135 -364q0 -230 -141 -371q-138 -141 -371 -141q-203 0 -317 108v-459h-297v1751h297v-503q124 118 340 118zM682 233q117 0 189.5 70.5t72.5 185.5t-72.5 185.5t-191.5 70.5q-117 0 -190.5 -67.5t-73.5 -173.5v-19q0 -113 72.5 -182.5
t193.5 -69.5z" />
    <glyph glyph-name="ydieresis" unicode="&#xff;" horiz-adv-x="1122" 
d="M322 1421q92 0 143 -46.5t51 -121.5q0 -76 -52 -124t-142 -48t-141.5 48t-51.5 124q0 75 51.5 121.5t141.5 46.5zM778 1081q-90 0 -140 48t-50 124q0 75 50 121.5t140 46.5q92 0 143.5 -46.5t51.5 -121.5q0 -76 -52 -124t-143 -48zM788 979h334l-651 -1348h-330l248 519
l-389 829h338l219 -500z" />
    <glyph glyph-name="Amacron" unicode="&#x100;" horiz-adv-x="1363" 
d="M1049 1702v-232h-756v232h756zM1010 0l-86 248h-500l-90 -248h-328l488 1337h354l508 -1337h-346zM514 502h322l-158 452z" />
    <glyph glyph-name="amacron" unicode="&#x101;" horiz-adv-x="1304" 
d="M969 1343v-231h-756v231h756zM928 979h258v-979h-297v115q-50 -62 -143 -97.5t-205 -35.5q-218 0 -351 139q-131 137 -131 368q0 230 142 369t372 139q222 0 336 -129zM889 485v19q0 106 -73.5 173.5t-190.5 67.5q-119 0 -192 -70.5t-73 -185.5q0 -114 72 -186
q70 -70 191 -70q119 0 192 70q74 71 74 182z" />
    <glyph glyph-name="Abreve" unicode="&#x102;" horiz-adv-x="1363" 
d="M360 1735h179q-7 -83 62 -117.5t137.5 0t60.5 117.5h180q0 -136 -84.5 -222t-224.5 -86q-141 0 -225.5 86.5t-84.5 221.5zM1010 0l-86 248h-500l-90 -248h-328l488 1337h354l508 -1337h-346zM514 502h322l-158 452z" />
    <glyph glyph-name="abreve" unicode="&#x103;" horiz-adv-x="1304" 
d="M279 1376h180q-8 -83 60.5 -117.5t137 0t60.5 117.5h182q0 -135 -85 -221t-226 -86t-225 86t-84 221zM928 979h258v-979h-297v115q-50 -62 -143 -97.5t-205 -35.5q-218 0 -351 139q-131 137 -131 368q0 230 142 369t372 139q222 0 336 -129zM889 485v19
q0 106 -73.5 173.5t-190.5 67.5q-119 0 -192 -70.5t-73 -185.5q0 -114 72 -186q70 -70 191 -70q119 0 192 70q74 71 74 182z" />
    <glyph glyph-name="Aogonek" unicode="&#x104;" horiz-adv-x="1363" 
d="M1356 0q-66 -11 -105 -43.5t-39 -79.5q0 -72 80 -72q14 0 64 11v-158q-50 -16 -109 -16q-97 0 -153 49.5t-56 130.5q0 100 90 178h-118l-86 248h-500l-90 -248h-328l488 1337h354l477 -1257q4 0 16 1t15 1v-82zM514 502h322l-158 452z" />
    <glyph glyph-name="aogonek" unicode="&#x105;" horiz-adv-x="1304" 
d="M1188 0q-66 -11 -105 -43.5t-39 -79.5q0 -72 80 -72q18 0 64 11v-158q-50 -16 -109 -16q-97 0 -153 49.5t-56 130.5q0 99 91 178h-72v115q-50 -62 -143 -97.5t-205 -35.5q-218 0 -351 139q-131 137 -131 368q0 230 142 369t372 139q222 0 336 -129l19 111h258v-897h2v-82
zM889 485v19q0 106 -73.5 173.5t-190.5 67.5q-119 0 -192 -70.5t-73 -185.5q0 -114 72 -186q70 -70 191 -70q119 0 192 70q74 71 74 182z" />
    <glyph glyph-name="Cacute" unicode="&#x106;" horiz-adv-x="1323" 
d="M762 1427l-105 172l560 367l116 -201zM72 668q0 309 209 497q209 191 550 191q253 0 416 -82v-295q-172 88 -377 88q-219 0 -344 -106.5t-125 -290.5q0 -183 126 -289.5t343 -106.5q211 0 377 88v-299q-175 -81 -434 -81q-352 0 -547 186q-194 188 -194 500z" />
    <glyph glyph-name="cacute" unicode="&#x107;" horiz-adv-x="1026" 
d="M612 1051l-104 172l559 366l117 -200zM57 483q0 241 154 377q152 137 410 137q200 0 319 -67v-273q-124 80 -297 80q-134 0 -209.5 -67t-75.5 -183q0 -114 75.5 -179.5t201.5 -65.5q162 0 305 82v-275q-149 -67 -352 -67q-246 0 -388.5 135.5t-142.5 365.5z" />
    <glyph glyph-name="Cdotaccent" unicode="&#x10a;" horiz-adv-x="1323" 
d="M907 1507q-52 -49 -143 -49t-143 49t-52 123q0 75 52 121q53 47 143 47t143 -47q51 -45 51 -121q0 -75 -51 -123zM72 668q0 309 209 497q209 191 550 191q253 0 416 -82v-295q-172 88 -377 88q-219 0 -344 -106.5t-125 -290.5q0 -183 126 -289.5t343 -106.5q211 0 377 88
v-299q-175 -81 -434 -81q-352 0 -547 186q-194 188 -194 500z" />
    <glyph glyph-name="cdotaccent" unicode="&#x10b;" horiz-adv-x="1026" 
d="M758 1130q-52 -49 -144 -49q-91 0 -143 49q-51 48 -51 123q0 76 51 121q53 47 143 47q91 0 144 -47q51 -45 51 -121q0 -75 -51 -123zM57 483q0 241 154 377q152 137 410 137q200 0 319 -67v-273q-124 80 -297 80q-134 0 -209.5 -67t-75.5 -183q0 -114 75.5 -179.5
t201.5 -65.5q162 0 305 82v-275q-149 -67 -352 -67q-246 0 -388.5 135.5t-142.5 365.5z" />
    <glyph glyph-name="Ccaron" unicode="&#x10c;" horiz-adv-x="1323" 
d="M303 1845l156 158l305 -340l305 340l156 -158l-377 -381h-170zM72 668q0 309 209 497q209 191 550 191q253 0 416 -82v-295q-172 88 -377 88q-219 0 -344 -106.5t-125 -290.5q0 -183 126 -289.5t343 -106.5q211 0 377 88v-299q-175 -81 -434 -81q-352 0 -547 186
q-194 188 -194 500z" />
    <glyph glyph-name="ccaron" unicode="&#x10d;" horiz-adv-x="1026" 
d="M154 1468l155 158l305 -340l306 340l155 -158l-377 -381h-170zM57 483q0 241 154 377q152 137 410 137q200 0 319 -67v-273q-124 80 -297 80q-134 0 -209.5 -67t-75.5 -183q0 -114 75.5 -179.5t201.5 -65.5q162 0 305 82v-275q-149 -67 -352 -67q-246 0 -388.5 135.5
t-142.5 365.5z" />
    <glyph glyph-name="Dcaron" unicode="&#x10e;" horiz-adv-x="1435" 
d="M117 1827l153 158l305 -340l306 340l155 -158l-377 -381h-167zM127 0v1337h545q331 0 516 -182q184 -181 184 -487q0 -317 -190 -492q-188 -176 -510 -176h-545zM440 289h195q196 0 300.5 101t104.5 280q0 181 -108.5 280t-296.5 99h-195v-760z" />
    <glyph glyph-name="dcaron" unicode="&#x10f;" horiz-adv-x="1304" 
d="M1122 1491h-168l-374 381l153 158l305 -340l305 340l156 -158zM889 891v491h297v-1382h-258l-23 127q-115 -145 -358 -145q-223 0 -354 137q-134 140 -134 368q0 230 142 369q141 141 370 141q203 0 318 -106zM627 233q116 0 189 68.5t73 175.5v19q0 112 -72.5 180.5
t-191.5 68.5t-192 -69.5t-73 -181.5q0 -116 74.5 -188.5t192.5 -72.5z" />
    <glyph glyph-name="Dcroat" unicode="&#x110;" horiz-adv-x="1435" 
d="M672 1337q331 0 516 -182q184 -181 184 -487q0 -317 -190 -492q-188 -176 -510 -176h-545v553h-125v238h125v546h545zM635 289q196 0 300.5 101t104.5 280q0 181 -108.5 280t-296.5 99h-195v-258h240v-238h-240v-264h195z" />
    <glyph glyph-name="dslash" unicode="&#x111;" horiz-adv-x="1304" 
d="M1325 1266v-205h-139v-1061h-258l-23 127q-115 -145 -358 -145q-223 0 -354 137q-134 140 -134 368q0 230 142 369q141 141 370 141q203 0 318 -106v170h-246v205h246v116h297v-116h139zM627 233q116 0 189 68.5t73 175.5v19q0 112 -72.5 180.5t-191.5 68.5t-192 -69.5
t-73 -181.5q0 -116 74.5 -188.5t192.5 -72.5z" />
    <glyph glyph-name="Emacron" unicode="&#x112;" horiz-adv-x="1163" 
d="M223 1470v232h756v-232h-756zM127 0v1337h958v-288h-645v-250h590v-267h-590v-243h645v-289h-958z" />
    <glyph glyph-name="emacron" unicode="&#x113;" horiz-adv-x="1112" 
d="M952 1360v-232h-755v232h755zM1042 547q0 -76 -8 -133h-676q11 -82 89 -128t208 -46q205 0 355 84v-265q-160 -77 -394 -77q-265 0 -411 137q-148 139 -148 368q0 231 140 371q139 139 370 139q216 0 344 -125q131 -122 131 -325zM360 612h385q-6 60 -57.5 95.5
t-130.5 35.5q-78 0 -131.5 -35.5t-65.5 -95.5z" />
    <glyph glyph-name="Edotaccent" unicode="&#x116;" horiz-adv-x="1163" 
d="M743 1489q-52 -49 -143 -49t-143 49q-51 48 -51 123q0 76 51 121q53 47 143 47t143 -47q52 -46 52 -121q0 -74 -52 -123zM127 0v1337h958v-288h-645v-250h590v-267h-590v-243h645v-289h-958z" />
    <glyph glyph-name="edotaccent" unicode="&#x117;" horiz-adv-x="1112" 
d="M719 1147q-52 -49 -144 -49q-91 0 -143 49q-51 48 -51 123q0 76 51 121q53 47 143 47q91 0 144 -47q51 -45 51 -121q0 -75 -51 -123zM1042 547q0 -76 -8 -133h-676q11 -82 89 -128t208 -46q205 0 355 84v-265q-160 -77 -394 -77q-265 0 -411 137q-148 139 -148 368
q0 231 140 371q139 139 370 139q216 0 344 -125q131 -122 131 -325zM360 612h385q-6 60 -57.5 95.5t-130.5 35.5q-78 0 -131.5 -35.5t-65.5 -95.5z" />
    <glyph glyph-name="Eogonek" unicode="&#x118;" horiz-adv-x="1163" 
d="M1087 0q-66 -11 -104.5 -43.5t-38.5 -79.5q0 -72 80 -72q14 0 63 11v-158q-50 -16 -108 -16q-97 0 -153 49.5t-56 130.5q0 100 90 178h-733v1337h958v-288h-645v-250h590v-267h-590v-243h645v-207h2v-82z" />
    <glyph glyph-name="eogonek" unicode="&#x119;" horiz-adv-x="1112" 
d="M1042 547q0 -76 -8 -133h-676q11 -82 89 -128t208 -46q205 0 355 84v-265q-83 -44 -226 -65q-56 -12 -89 -44t-33 -75q0 -72 79 -72q18 0 64 11v-158q-50 -16 -109 -16q-97 0 -153 49.5t-56 130.5q0 93 74 164q-237 13 -370.5 148.5t-133.5 354.5q0 231 140 371
q139 139 370 139q216 0 344 -125q131 -122 131 -325zM360 612h385q-6 60 -57.5 95.5t-130.5 35.5q-78 0 -131.5 -35.5t-65.5 -95.5z" />
    <glyph glyph-name="Ecaron" unicode="&#x11a;" horiz-adv-x="1163" 
d="M141 1827l154 158l305 -340l305 340l156 -158l-377 -381h-168zM127 0v1337h958v-288h-645v-250h590v-267h-590v-243h645v-289h-958z" />
    <glyph glyph-name="ecaron" unicode="&#x11b;" horiz-adv-x="1112" 
d="M659 1104h-170l-374 381l155 157l305 -339l306 339l155 -157zM1042 547q0 -76 -8 -133h-676q11 -82 89 -128t208 -46q205 0 355 84v-265q-160 -77 -394 -77q-265 0 -411 137q-148 139 -148 368q0 231 140 371q139 139 370 139q216 0 344 -125q131 -122 131 -325zM360 612
h385q-6 60 -57.5 95.5t-130.5 35.5q-78 0 -131.5 -35.5t-65.5 -95.5z" />
    <glyph glyph-name="Gbreve" unicode="&#x11e;" horiz-adv-x="1480" 
d="M502 1739h180q-8 -83 60.5 -117.5t137.5 0t62 117.5h180q0 -136 -85 -221.5t-226 -85.5t-225 85t-84 222zM707 797h659v-654q-233 -161 -565 -161q-330 0 -529 184q-200 185 -200 487q0 327 217 514q219 189 571 189q217 0 377 -62v-307q-153 78 -363 78
q-220 0 -346.5 -110t-126.5 -296q0 -180 116 -282.5t308 -102.5q121 0 228 43v209h-346v271z" />
    <glyph glyph-name="gbreve" unicode="&#x11f;" horiz-adv-x="1280" 
d="M883 1376q0 -135 -85.5 -221t-226.5 -86t-225 86t-84 221h180q-8 -83 60.5 -117.5t137 0t60.5 117.5h183zM66 500q0 226 137 360q137 137 358 137q212 0 330 -112l14 94h256v-840q0 -255 -158 -390.5t-442 -135.5q-228 0 -383 70v274q177 -86 361 -86q150 0 238.5 59.5
t88.5 161.5v55q-102 -129 -334 -129q-214 0 -342 134q-124 130 -124 348zM367 506q0 -104 69 -170t178 -66t180.5 66t71.5 168v18q0 98 -71 160.5t-181 62.5q-109 0 -178 -66.5t-69 -172.5z" />
    <glyph glyph-name="Gdotaccent" unicode="&#x120;" horiz-adv-x="1480" 
d="M956 1491q-52 -49 -143 -49t-143 49q-50 49 -50 123t50 121q52 49 143 49t143 -49q52 -46 52 -121q0 -74 -52 -123zM707 797h659v-654q-233 -161 -565 -161q-330 0 -529 184q-200 185 -200 487q0 327 217 514q219 189 571 189q217 0 377 -62v-307q-153 78 -363 78
q-220 0 -346.5 -110t-126.5 -296q0 -180 116 -282.5t308 -102.5q121 0 228 43v209h-346v271z" />
    <glyph glyph-name="gdotaccent" unicode="&#x121;" horiz-adv-x="1280" 
d="M717 1130q-52 -49 -144 -49q-91 0 -143 49q-51 48 -51 123q0 76 51 121q53 47 143 47q91 0 144 -47q51 -45 51 -121q0 -75 -51 -123zM66 500q0 226 137 360q137 137 358 137q212 0 330 -112l14 94h256v-840q0 -255 -158 -390.5t-442 -135.5q-228 0 -383 70v274
q177 -86 361 -86q150 0 238.5 59.5t88.5 161.5v55q-102 -129 -334 -129q-214 0 -342 134q-124 130 -124 348zM367 506q0 -104 69 -170t178 -66t180.5 66t71.5 168v18q0 98 -71 160.5t-181 62.5q-109 0 -178 -66.5t-69 -172.5z" />
    <glyph glyph-name="uni0122" unicode="&#x122;" horiz-adv-x="1480" 
d="M707 797h659v-654q-233 -161 -565 -161q-330 0 -529 184q-200 185 -200 487q0 327 217 514q219 189 571 189q217 0 377 -62v-307q-153 78 -363 78q-220 0 -346.5 -110t-126.5 -296q0 -180 116 -282.5t308 -102.5q121 0 228 43v209h-346v271zM973 -279q0 -91 -111 -208
l-180 -203h-147l170 237q-60 13 -98 62t-38 112q0 84 57.5 138.5t143.5 54.5t144.5 -54.5t58.5 -138.5z" />
    <glyph glyph-name="uni0123" unicode="&#x123;" horiz-adv-x="1280" 
d="M760 1663l-123 -242q58 -17 92.5 -66t34.5 -116q0 -86 -55 -140.5t-140 -54.5q-82 0 -136 54.5t-54 140.5q0 71 61 162l176 262h144zM66 500q0 226 137 360q137 137 358 137q212 0 330 -112l14 94h256v-840q0 -255 -158 -390.5t-442 -135.5q-228 0 -383 70v274
q177 -86 361 -86q150 0 238.5 59.5t88.5 161.5v55q-102 -129 -334 -129q-214 0 -342 134q-124 130 -124 348zM367 506q0 -104 69 -170t178 -66t180.5 66t71.5 168v18q0 98 -71 160.5t-181 62.5q-109 0 -178 -66.5t-69 -172.5z" />
    <glyph glyph-name="Hbar" unicode="&#x126;" horiz-adv-x="1363" 
d="M1391 1163v-211h-136v-952h-313v547h-534v-547h-314v952h-92v211h92v174h314v-174h534v174h313v-174h136zM942 809v143h-534v-143h534z" />
    <glyph glyph-name="hbar" unicode="&#x127;" horiz-adv-x="1153" 
d="M1036 629v-629h-295v580q0 75 -39 119t-118 44q-90 0 -138.5 -53t-48.5 -143v-547h-295v1061h-114v203h114v118h295v-118h262v-203h-262v-180q104 116 281 116q178 0 266 -98q92 -95 92 -270z" />
    <glyph glyph-name="Imacron" unicode="&#x12a;" horiz-adv-x="569" 
d="M-94 1470v232h756v-232h-756zM440 0h-313v1337h313v-1337z" />
    <glyph glyph-name="imacron" unicode="&#x12b;" horiz-adv-x="620" 
d="M-66 1112v231h756v-231h-756zM162 0v979h297v-979h-297z" />
    <glyph glyph-name="Iogonek" unicode="&#x12e;" horiz-adv-x="569" 
d="M444 0q-66 -11 -104.5 -43.5t-38.5 -79.5q0 -72 80 -72q13 0 63 11v-158q-50 -16 -108 -16q-97 0 -153 49.5t-56 130.5q0 100 90 178h-90v1337h313v-1255h4v-82z" />
    <glyph glyph-name="iogonek" unicode="&#x12f;" horiz-adv-x="620" 
d="M455 1130q-52 -49 -144 -49q-91 0 -143 49q-51 48 -51 123q0 76 51 121q53 47 143 47q91 0 144 -47q51 -45 51 -121q0 -75 -51 -123zM459 979v-897h2v-82q-66 -11 -105 -43.5t-39 -79.5q0 -72 80 -72q15 0 64 11v-158q-50 -16 -109 -16q-97 0 -153 49.5t-56 130.5
q0 100 90 178h-71v979h297z" />
    <glyph glyph-name="Idot" unicode="&#x130;" horiz-adv-x="569" 
d="M428 1489q-52 -49 -143 -49q-92 0 -144 49q-51 48 -51 123q0 76 51 121q53 47 144 47q90 0 143 -47q51 -45 51 -121q0 -75 -51 -123zM440 0h-313v1337h313v-1337z" />
    <glyph glyph-name="dotlessi" unicode="&#x131;" horiz-adv-x="620" 
d="M162 0v979h297v-979h-297z" />
    <glyph glyph-name="uni0136" unicode="&#x136;" horiz-adv-x="1308" 
d="M829 772l512 -772h-393l-344 510l-164 -191v-319h-313v1337h313v-569l478 569h399zM885 -252q0 -92 -111 -209l-180 -203h-148l170 238q-60 13 -97.5 62t-37.5 112q0 84 57.5 138.5t143.5 54.5t144.5 -54.5t58.5 -138.5z" />
    <glyph glyph-name="uni0137" unicode="&#x137;" horiz-adv-x="1153" 
d="M1147 979l-408 -404l389 -575h-342l-254 373l-116 -115v-258h-297v1382h297v-766l358 363h373zM791 -252q0 -92 -111 -209l-180 -203h-148l170 238q-60 13 -97.5 62t-37.5 112q0 84 57.5 138.5t143.5 54.5t144.5 -54.5t58.5 -138.5z" />
    <glyph glyph-name="Lacute" unicode="&#x139;" horiz-adv-x="1103" 
d="M338 1409l-105 172l560 367l116 -201zM127 0v1337h313v-1052h627v-285h-940z" />
    <glyph glyph-name="lacute" unicode="&#x13a;" horiz-adv-x="534" 
d="M266 1454l-104 172l559 367l117 -201zM119 0v1382h297v-1382h-297z" />
    <glyph glyph-name="uni013B" unicode="&#x13b;" horiz-adv-x="1103" 
d="M127 0v1337h313v-1052h627v-285h-940zM338 -664l170 238q-60 13 -97.5 62t-37.5 112q0 84 57.5 138.5t142.5 54.5q86 0 144.5 -54.5t58.5 -138.5q0 -93 -110 -209l-181 -203h-147z" />
    <glyph glyph-name="uni013C" unicode="&#x13c;" horiz-adv-x="534" 
d="M119 0v1382h297v-1382h-297zM33 -690l170 237q-60 13 -97.5 62t-37.5 112q0 84 57.5 138.5t142.5 54.5q86 0 144.5 -54.5t58.5 -138.5q0 -91 -111 -208l-180 -203h-147z" />
    <glyph glyph-name="Lcaron" unicode="&#x13d;" horiz-adv-x="1103" 
d="M629 752l141 247q-57 13 -92 63t-35 116q0 85 53.5 135.5t139.5 50.5q85 0 137.5 -51t52.5 -133q0 -89 -59 -172l-193 -256h-145zM127 0v1337h313v-1052h627v-285h-940z" />
    <glyph glyph-name="lcaron" unicode="&#x13e;" horiz-adv-x="534" 
d="M-190 1872l153 158l305 -340l305 340l156 -158l-377 -381h-168zM119 0v1382h297v-1382h-297z" />
    <glyph glyph-name="Ldot" unicode="&#x13f;" horiz-adv-x="1103" 
d="M127 0v1337h313v-1052h627v-285h-940zM1010 752q0 -78 -55.5 -130.5t-137.5 -52.5t-136 52.5t-54 130.5t54 129t136 51q81 0 137 -52.5t56 -127.5z" />
    <glyph glyph-name="Lslash" unicode="&#x141;" horiz-adv-x="1052" 
d="M389 285h627v-285h-940v545l-90 -33v250l90 33v542h313v-432l182 64v-250l-182 -64v-370z" />
    <glyph glyph-name="lslash" unicode="&#x142;" horiz-adv-x="505" 
d="M526 958v-241l-131 -45v-672h-297v571l-116 -41v244l116 39v569h297v-469z" />
    <glyph glyph-name="Nacute" unicode="&#x143;" horiz-adv-x="1425" 
d="M1284 1747l-571 -338l-105 172l559 367zM983 1337h315v-1337h-315l-543 795v-795h-313v1337h315l541 -796v796z" />
    <glyph glyph-name="nacute" unicode="&#x144;" horiz-adv-x="1169" 
d="M580 1051l-105 172l559 366l117 -200zM119 0v979h276l21 -98q101 116 280 116q172 0 265.5 -97.5t93.5 -270.5v-629h-295v580q0 76 -39.5 119.5t-120.5 43.5q-90 0 -137 -53t-47 -143v-547h-297z" />
    <glyph glyph-name="uni0145" unicode="&#x145;" horiz-adv-x="1425" 
d="M983 1337h315v-1337h-315l-543 795v-795h-313v1337h315l541 -796v796zM915 -252q0 -93 -110 -209l-180 -203h-148l170 238q-60 13 -97.5 62t-37.5 112q0 84 57.5 138.5t143.5 54.5t144 -54.5t58 -138.5z" />
    <glyph glyph-name="uni0146" unicode="&#x146;" horiz-adv-x="1169" 
d="M119 0v979h276l21 -98q101 116 280 116q172 0 265.5 -97.5t93.5 -270.5v-629h-295v580q0 76 -39.5 119.5t-120.5 43.5q-90 0 -137 -53t-47 -143v-547h-297zM346 -664l170 238q-60 13 -97.5 62t-37.5 112q0 84 57.5 138.5t143.5 54.5t144 -54.5t58 -138.5q0 -93 -110 -209
l-180 -203h-148z" />
    <glyph glyph-name="Ncaron" unicode="&#x147;" horiz-adv-x="1425" 
d="M799 1446h-168l-375 381l154 158l305 -340l305 340l156 -158zM983 1337h315v-1337h-315l-543 795v-795h-313v1337h315l541 -796v796z" />
    <glyph glyph-name="ncaron" unicode="&#x148;" horiz-adv-x="1169" 
d="M123 1468l153 158l306 -340l305 340l155 -158l-376 -381h-168zM119 0v979h276l21 -98q101 116 280 116q172 0 265.5 -97.5t93.5 -270.5v-629h-295v580q0 76 -39.5 119.5t-120.5 43.5q-90 0 -137 -53t-47 -143v-547h-297z" />
    <glyph glyph-name="Eng" unicode="&#x14a;" horiz-adv-x="1441" 
d="M1298 281h15v-295q0 -171 -111.5 -272t-298.5 -101q-84 0 -178 18v242h98q153 0 174 127h-14l-543 795v-795h-313v1337h315l541 -796v796h315v-1056z" />
    <glyph glyph-name="eng" unicode="&#x14b;" horiz-adv-x="1177" 
d="M1055 188h4v-202q0 -170 -111.5 -271.5t-296.5 -101.5q-87 0 -178 18v232h96q176 0 191 155v562q0 76 -39.5 119.5t-120.5 43.5q-90 0 -137 -53t-47 -143v-547h-297v979h276l21 -98q101 116 280 116q172 0 265.5 -97.5t93.5 -270.5v-441z" />
    <glyph glyph-name="Omacron" unicode="&#x14c;" horiz-adv-x="1531" 
d="M387 1470v232h756v-232h-756zM260 170q-190 190 -190 500q0 308 190 495q195 189 506 189q312 0 504 -189q192 -186 192 -495q0 -311 -192 -500q-191 -188 -504 -188q-312 0 -506 188zM401 670q0 -182 101 -289q103 -109 264 -109t264 109q100 106 100 289
q0 178 -100 284q-102 111 -264 111t-264 -111q-101 -107 -101 -284z" />
    <glyph glyph-name="omacron" unicode="&#x14d;" horiz-adv-x="1204" 
d="M221 1112v231h756v-231h-756zM600 997q244 0 395 -139q150 -138 150 -366t-150 -369q-151 -139 -395 -139q-242 0 -393 139q-150 141 -150 369t150 366q151 139 393 139zM358 489q0 -116 65 -180.5t177 -64.5q114 0 179 68t65 182q0 116 -64 179.5t-176 63.5
q-115 0 -180.5 -67.5t-65.5 -180.5z" />
    <glyph glyph-name="Ohungarumlaut" unicode="&#x150;" horiz-adv-x="1531" 
d="M541 1411l-133 152l487 469l149 -174zM989 1411l-127 154l506 448l141 -180zM260 170q-190 190 -190 500q0 308 190 495q195 189 506 189q312 0 504 -189q192 -186 192 -495q0 -311 -192 -500q-191 -188 -504 -188q-312 0 -506 188zM401 670q0 -182 101 -289
q103 -109 264 -109t264 109q100 106 100 289q0 178 -100 284q-102 111 -264 111t-264 -111q-101 -107 -101 -284z" />
    <glyph glyph-name="ohungarumlaut" unicode="&#x151;" horiz-adv-x="1204" 
d="M375 1053l-133 151l487 469l150 -174zM823 1053l-127 153l506 449l141 -180zM600 997q244 0 395 -139q150 -138 150 -366t-150 -369q-151 -139 -395 -139q-242 0 -393 139q-150 141 -150 369t150 366q151 139 393 139zM358 489q0 -116 65 -180.5t177 -64.5q114 0 179 68
t65 182q0 116 -64 179.5t-176 63.5q-115 0 -180.5 -67.5t-65.5 -180.5z" />
    <glyph glyph-name="OE" unicode="&#x152;" horiz-adv-x="1794" 
d="M70 670q0 303 192 483q194 182 512 182l942 2v-286h-588v-252h517v-267h-517v-247h588v-285l-942 4q-321 3 -514 184q-190 181 -190 482zM403 670q0 -172 98 -278.5t257 -106.5h55v766h-55q-160 0 -258 -107q-97 -108 -97 -274z" />
    <glyph glyph-name="oe" unicode="&#x153;" horiz-adv-x="1921" 
d="M1862 547q0 -69 -9 -133h-675q10 -84 88 -129t209 -45q201 0 354 84v-265q-165 -77 -393 -77q-278 0 -428 153q-151 -151 -408 -151q-242 0 -393 139q-150 141 -150 369t150 366q151 139 393 139q257 0 406 -149q143 149 380 149q217 0 345 -125q131 -122 131 -325z
M1180 612h385q-6 60 -58 95.5t-131 35.5q-78 0 -131 -35.5t-65 -95.5zM600 244q114 0 179 68t65 182q0 116 -64 179.5t-176 63.5q-115 0 -180.5 -67.5t-65.5 -180.5q0 -116 65 -180.5t177 -64.5z" />
    <glyph glyph-name="Racute" unicode="&#x154;" horiz-adv-x="1349" 
d="M1229 1747l-572 -338l-104 172l559 367zM1094 342l209 -342h-359l-201 328q-38 63 -78.5 84.5t-119.5 21.5h-105v-434h-313v1337h666q217 0 346 -120q131 -119 131 -314q0 -148 -83.5 -257t-225.5 -146q60 -38 133 -158zM739 700q92 0 145.5 47t53.5 123q0 170 -197 170
h-301v-340h299z" />
    <glyph glyph-name="racute" unicode="&#x155;" horiz-adv-x="751" 
d="M868 1389l-571 -338l-104 172l559 366zM403 848q26 68 100.5 108.5t172.5 40.5q33 0 43 -2v-282h-51q-107 -6 -162.5 -47t-75.5 -113q-16 -66 -16 -150v-403h-295v979h262z" />
    <glyph glyph-name="uni0156" unicode="&#x156;" horiz-adv-x="1349" 
d="M1094 342l209 -342h-359l-201 328q-38 63 -78.5 84.5t-119.5 21.5h-105v-434h-313v1337h666q217 0 346 -120q131 -119 131 -314q0 -148 -83.5 -257t-225.5 -146q60 -38 133 -158zM739 700q92 0 145.5 47t53.5 123q0 170 -197 170h-301v-340h299zM862 -252
q0 -93 -110 -209l-181 -203h-147l170 238q-60 13 -97.5 62t-37.5 112q0 84 57.5 138.5t142.5 54.5q86 0 144.5 -54.5t58.5 -138.5z" />
    <glyph glyph-name="uni0157" unicode="&#x157;" horiz-adv-x="751" 
d="M676 997q33 0 43 -2v-282h-51q-107 -6 -162.5 -47t-75.5 -113q-16 -66 -16 -150v-403h-295v979h262l22 -131q26 68 100.5 108.5t172.5 40.5zM498 -272q0 -92 -111 -209l-180 -203h-148l170 238q-60 13 -97.5 62t-37.5 112q0 84 57.5 138t143.5 54t144.5 -54t58.5 -138z
" />
    <glyph glyph-name="Rcaron" unicode="&#x158;" horiz-adv-x="1349" 
d="M743 1446h-168l-374 381l153 158l305 -340l306 340l155 -158zM1094 342l209 -342h-359l-201 328q-38 63 -78.5 84.5t-119.5 21.5h-105v-434h-313v1337h666q217 0 346 -120q131 -119 131 -314q0 -148 -83.5 -257t-225.5 -146q60 -38 133 -158zM739 700q92 0 145.5 47
t53.5 123q0 170 -197 170h-301v-340h299z" />
    <glyph glyph-name="rcaron" unicode="&#x159;" horiz-adv-x="751" 
d="M383 1087h-168l-375 381l154 158l305 -340l305 340l156 -158zM403 848q26 68 100.5 108.5t172.5 40.5q33 0 43 -2v-282h-51q-107 -6 -162.5 -47t-75.5 -113q-16 -66 -16 -150v-403h-295v979h262z" />
    <glyph glyph-name="Sacute" unicode="&#x15a;" horiz-adv-x="1200" 
d="M629 1409l-105 172l559 367l117 -201zM135 369q204 -103 438 -103q244 0 244 135q0 41 -26.5 69.5t-57.5 35.5l-76 14l-159 23q-211 26 -315.5 124.5t-104.5 256.5q0 198 153 315q156 117 414 117q239 0 428 -86v-299q-181 100 -430 100q-233 0 -233 -125q0 -89 149 -110
l193 -27q395 -52 395 -389q0 -207 -156 -324q-156 -114 -418 -114q-266 0 -438 88v299z" />
    <glyph glyph-name="sacute" unicode="&#x15b;" horiz-adv-x="956" 
d="M489 1051l-104 172l559 366l117 -200zM96 307q165 -76 379 -76q133 0 133 64q0 20 -13.5 32.5t-30 16.5t-46.5 8l-141 17q-316 37 -316 299q0 162 117 245.5t328 83.5q204 0 338 -57v-270q-152 73 -355 73q-129 0 -129 -59q6 -34 26 -44.5t65 -12.5l137 -15
q321 -34 321 -301q0 -159 -121 -244t-337 -85q-212 0 -355 61v264z" />
    <glyph glyph-name="Scedilla" unicode="&#x15e;" horiz-adv-x="1200" 
d="M1147 420q0 -179 -119 -291.5t-330 -138.5l-82 -78l2 -4q20 5 48.5 6.5t61.5 -11t61 -31.5t46.5 -54.5t18.5 -79.5q0 -77 -48 -129.5t-118 -71.5t-149 -12.5t-140 39.5v155q84 -53 164 -38q80 12 80 83q0 49 -54 65t-120 -11v108l57 56q-236 9 -391 88v299
q204 -103 438 -103q244 0 244 135q0 41 -26.5 69.5t-57.5 35.5l-76 14l-159 23q-211 26 -315.5 124.5t-104.5 256.5q0 198 153 315q156 117 414 117q239 0 428 -86v-299q-181 100 -430 100q-233 0 -233 -125q0 -89 149 -110l193 -27q395 -52 395 -389z" />
    <glyph glyph-name="scedilla" unicode="&#x15f;" horiz-adv-x="956" 
d="M909 311q0 -144 -96.5 -225.5t-273.5 -99.5l-78 -74l2 -2q67 15 149 -25q84 -44 84 -147q0 -77 -47.5 -129.5t-116.5 -71t-147.5 -11.5t-140.5 40v155q80 -51 162 -38q79 9 79 81q0 49 -53.5 65t-120.5 -11v108l62 58q-161 12 -277 59v264q165 -76 379 -76q133 0 133 64
q0 20 -13.5 32.5t-30 16.5t-46.5 8l-141 17q-316 37 -316 299q0 162 117 245.5t328 83.5q204 0 338 -57v-270q-152 73 -355 73q-129 0 -129 -59q6 -34 26 -44.5t65 -12.5l137 -15q321 -34 321 -301z" />
    <glyph glyph-name="Scaron" unicode="&#x160;" horiz-adv-x="1200" 
d="M172 1827l156 158l305 -340l305 340l156 -158l-377 -381h-170zM135 369q204 -103 438 -103q244 0 244 135q0 41 -26.5 69.5t-57.5 35.5l-76 14l-159 23q-211 26 -315.5 124.5t-104.5 256.5q0 198 153 315q156 117 414 117q239 0 428 -86v-299q-181 100 -430 100
q-233 0 -233 -125q0 -89 149 -110l193 -27q395 -52 395 -389q0 -207 -156 -324q-156 -114 -418 -114q-266 0 -438 88v299z" />
    <glyph glyph-name="scaron" unicode="&#x161;" horiz-adv-x="956" 
d="M31 1468l155 158l306 -340l305 340l155 -158l-377 -381h-169zM96 307q165 -76 379 -76q133 0 133 64q0 20 -13.5 32.5t-30 16.5t-46.5 8l-141 17q-316 37 -316 299q0 162 117 245.5t328 83.5q204 0 338 -57v-270q-152 73 -355 73q-129 0 -129 -59q6 -34 26 -44.5
t65 -12.5l137 -15q321 -34 321 -301q0 -159 -121 -244t-337 -85q-212 0 -355 61v264z" />
    <glyph glyph-name="uni0162" unicode="&#x162;" horiz-adv-x="1171" 
d="M741 0h-67l-94 -88l2 -4q20 5 48.5 6.5t61.5 -11t60.5 -31.5t46 -54.5t18.5 -79.5q0 -77 -48 -129.5t-118 -71.5t-149 -12.5t-140 39.5v155q84 -53 164 -38q80 12 80 83q0 49 -54 65t-120 -11v108l76 74h-80v1051h-408v286h1131v-286h-410v-1051z" />
    <glyph glyph-name="uni0163" unicode="&#x163;" horiz-adv-x="837" 
d="M565 0h-12l-90 -84l2 -4q20 5 48.5 6.5t61.5 -11t60.5 -31.5t46 -54.5t18.5 -79.5q0 -77 -48 -129.5t-117.5 -71.5t-148.5 -12.5t-140 39.5v156q85 -54 164 -39q79 12 79 84q0 49 -54 64.5t-120 -11.5v108l72 70h-117v729h-239v250h239v258l295 18v-276h242v-250h-242
v-729z" />
    <glyph glyph-name="Tcaron" unicode="&#x164;" horiz-adv-x="1171" 
d="M670 1446h-168l-375 381l154 158l305 -340l305 340l156 -158zM1151 1337v-286h-410v-1051h-313v1051h-408v286h1131z" />
    <glyph glyph-name="tcaron" unicode="&#x165;" horiz-adv-x="837" 
d="M639 1374h190l-49 -317h-141v317zM270 0v729h-239v250h239v258l295 18v-276h242v-250h-242v-729h-295z" />
    <glyph glyph-name="Tbar" unicode="&#x166;" horiz-adv-x="1171" 
d="M1151 1051h-410v-277h303v-266h-303v-508h-313v508h-266v266h266v277h-408v286h1131v-286z" />
    <glyph glyph-name="tbar" unicode="&#x167;" horiz-adv-x="837" 
d="M809 590v-238h-244v-352h-295v352h-241v238h241v139h-239v250h239v258l295 18v-276h242v-250h-242v-139h244z" />
    <glyph glyph-name="Umacron" unicode="&#x16a;" horiz-adv-x="1382" 
d="M311 1470v232h756v-232h-756zM115 526v811h313v-811q0 -118 70 -184t194 -66q125 0 194.5 64.5t69.5 185.5v811h314v-811q0 -258 -153.5 -401t-426.5 -143q-275 0 -425 142.5t-150 401.5z" />
    <glyph glyph-name="umacron" unicode="&#x16b;" horiz-adv-x="1169" 
d="M197 1112v231h755v-231h-755zM1051 979v-979h-277l-18 100q-97 -118 -295 -118q-164 0 -255 94t-91 256v647h295v-576q0 -73 39.5 -120t119.5 -47q88 0 137.5 51t49.5 133v559h295z" />
    <glyph glyph-name="Uring" unicode="&#x16e;" horiz-adv-x="1382" 
d="M506 1409q-74 71 -74 176t74 176q76 70 186 70q112 0 185 -70t73 -176t-73 -176t-185 -70q-110 0 -186 70zM616 1657q-29 -29 -29 -72t29 -74q31 -29 76 -29t74 29q29 31 29 74t-29 72q-29 31 -74 31t-76 -31zM115 526v811h313v-811q0 -118 70 -184t194 -66
q125 0 194.5 64.5t69.5 185.5v811h314v-811q0 -258 -153.5 -401t-426.5 -143q-275 0 -425 142.5t-150 401.5z" />
    <glyph glyph-name="uring" unicode="&#x16f;" horiz-adv-x="1169" 
d="M391 1051q-74 71 -74 176t74 176q76 70 187 70t184 -70q74 -71 74 -176t-74 -176q-73 -70 -184 -70t-187 70zM502 1298q-29 -29 -29 -71.5t29 -73.5q31 -29 75.5 -29t73.5 29q29 31 29 73.5t-29 71.5q-29 31 -73.5 31t-75.5 -31zM1051 979v-979h-277l-18 100
q-97 -118 -295 -118q-164 0 -255 94t-91 256v647h295v-576q0 -73 39.5 -120t119.5 -47q88 0 137.5 51t49.5 133v559h295z" />
    <glyph glyph-name="Uhungarumlaut" unicode="&#x170;" horiz-adv-x="1382" 
d="M465 1411l-133 152l487 469l150 -174zM913 1411l-127 154l506 448l142 -180zM115 526v811h313v-811q0 -118 70 -184t194 -66q125 0 194.5 64.5t69.5 185.5v811h314v-811q0 -258 -153.5 -401t-426.5 -143q-275 0 -425 142.5t-150 401.5z" />
    <glyph glyph-name="uhungarumlaut" unicode="&#x171;" horiz-adv-x="1169" 
d="M350 1053l-133 151l488 469l149 -174zM799 1053l-127 153l506 449l141 -180zM1051 979v-979h-277l-18 100q-97 -118 -295 -118q-164 0 -255 94t-91 256v647h295v-576q0 -73 39.5 -120t119.5 -47q88 0 137.5 51t49.5 133v559h295z" />
    <glyph glyph-name="Uogonek" unicode="&#x172;" horiz-adv-x="1382" 
d="M956 1337h314v-811q0 -230 -121 -368.5t-344 -167.5q-109 -35 -109 -117q0 -72 80 -72q14 0 64 11v-158q-50 -16 -109 -16q-97 0 -153 49.5t-56 130.5q0 96 78 168q-233 23 -359 164t-126 376v811h313v-811q0 -118 70 -184t194 -66q125 0 194.5 64.5t69.5 185.5v811z" />
    <glyph glyph-name="uogonek" unicode="&#x173;" horiz-adv-x="1169" 
d="M1053 0q-66 -11 -105 -43.5t-39 -79.5q0 -72 80 -72q15 0 64 11v-158q-50 -16 -109 -16q-97 0 -153 49.5t-56 130.5q0 100 90 178h-51l-18 100q-97 -118 -295 -118q-164 0 -255 94t-91 256v647h295v-576q0 -73 39.5 -120t119.5 -47q88 0 137.5 51t49.5 133v559h295v-897
h2v-82z" />
    <glyph glyph-name="Wcircumflex" unicode="&#x174;" horiz-adv-x="1900" 
d="M948 1741l-305 -336l-154 156l375 383h170l375 -383l-156 -156zM1532 1337h354l-295 -1337h-420l-225 872l-213 -872h-418l-301 1337h342l179 -942l243 942h332l256 -944z" />
    <glyph glyph-name="wcircumflex" unicode="&#x175;" horiz-adv-x="1470" 
d="M276 1202l375 383h170l375 -383l-156 -155l-305 335l-305 -335zM6 979h289l156 -666q64 316 143 666h276q135 -602 146 -670l155 670h293l-260 -979h-342l-129 578l-129 -578h-342z" />
    <glyph glyph-name="Ycircumflex" unicode="&#x176;" horiz-adv-x="1300" 
d="M651 1741l-305 -336l-153 156l374 383h170l375 -383l-156 -156zM961 1337h362l-514 -870v-467h-313v461l-519 876h353l321 -571z" />
    <glyph glyph-name="ycircumflex" unicode="&#x177;" horiz-adv-x="1122" 
d="M551 1382l-305 -335l-154 155l375 383h170l375 -383l-156 -155zM788 979h334l-651 -1348h-330l248 519l-389 829h338l219 -500z" />
    <glyph glyph-name="Ydieresis" unicode="&#x178;" horiz-adv-x="1300" 
d="M422 1780q92 0 143 -46.5t51 -121.5q0 -76 -52 -124t-142 -48t-141.5 48t-51.5 124q0 75 51.5 121.5t141.5 46.5zM881 1780q92 0 143 -46.5t51 -121.5q0 -76 -52 -124t-142 -48t-141.5 48t-51.5 124q0 75 51.5 121.5t141.5 46.5zM961 1337h362l-514 -870v-467h-313v461
l-519 876h353l321 -571z" />
    <glyph glyph-name="Zacute" unicode="&#x179;" horiz-adv-x="1089" 
d="M1106 1747l-571 -338l-105 172l559 367zM47 1051v286h989v-256l-575 -796h563v-285h-969v254l576 797h-584z" />
    <glyph glyph-name="zacute" unicode="&#x17a;" horiz-adv-x="882" 
d="M997 1389l-571 -338l-104 172l559 366zM825 762l-422 -510h433v-252h-801v223l414 506h-418v250h794v-217z" />
    <glyph glyph-name="Zdotaccent" unicode="&#x17b;" horiz-adv-x="1089" 
d="M680 1489q-52 -49 -143 -49q-92 0 -144 49q-51 48 -51 123q0 76 51 121q53 47 144 47q90 0 143 -47q51 -45 51 -121q0 -75 -51 -123zM1036 1337v-256l-575 -796h563v-285h-969v254l576 797h-584v286h989z" />
    <glyph glyph-name="zdotaccent" unicode="&#x17c;" horiz-adv-x="882" 
d="M571 1130q-52 -49 -143 -49t-143 49t-52 123q0 75 52 121q53 47 143 47t143 -47q52 -46 52 -121q0 -74 -52 -123zM403 252h433v-252h-801v223l414 506h-418v250h794v-217z" />
    <glyph glyph-name="Zcaron" unicode="&#x17d;" horiz-adv-x="1089" 
d="M621 1446h-168l-375 381l153 158l306 -340l305 340l155 -158zM1036 1337v-256l-575 -796h563v-285h-969v254l576 797h-584v286h989z" />
    <glyph glyph-name="zcaron" unicode="&#x17e;" horiz-adv-x="882" 
d="M512 1087h-168l-375 381l154 158l305 -340l305 340l156 -158zM825 762l-422 -510h433v-252h-801v223l414 506h-418v250h794v-217z" />
    <glyph glyph-name="florin" unicode="&#x192;" horiz-adv-x="1171" 
d="M1055 1106q-97 -6 -151.5 -37.5t-82.5 -89.5q-6 -12 -10 -20.5t-7.5 -17.5t-5.5 -13.5t-4 -13t-3 -11.5t-3.5 -14.5t-3.5 -16.5l-12 -55h334v-248h-385l-66 -309q-48 -218 -160.5 -319t-289.5 -101q-127 0 -215 21v258q0 -10 106 -10q149 0 203 73q27 34 39 62t24 75
l62 250h-252v248h309l27 111q41 170 100 254q125 171 377 174q119 0 174 -19v-243q-58 12 -104 12z" />
    <glyph glyph-name="Aringacute" unicode="&#x1fa;" horiz-adv-x="1366" 
d="M1051 1917l-506 -201l-74 191l498 229zM1010 0l-86 248h-500l-90 -248h-328l471 1294q-53 71 -53 154q0 107 73 177.5t187 70.5q112 0 185 -71t73 -177q0 -102 -70 -172l484 -1276h-346zM684 1550q-64 4 -91 -49t0 -105.5t91 -47.5q44 0 74 28.5t30 71.5t-30 72.5
t-74 29.5zM514 502h322l-158 452z" />
    <glyph glyph-name="aringacute" unicode="&#x1fb;" horiz-adv-x="1318" 
d="M954 1552l-505 -200l-74 190l495 230zM928 979h258v-979h-297v115q-50 -62 -143 -97.5t-205 -35.5q-218 0 -351 139q-131 137 -131 368q0 169 81 293.5t225 180.5q-39 59 -39 137q0 105 72 175.5t184 70.5q115 0 187.5 -70t72.5 -176q0 -83 -47 -148q73 -38 114 -84z
M582 1202q-63 4 -89 -49t0 -106.5t89 -49.5q47 0 77.5 30t30.5 73t-30.5 72.5t-77.5 29.5zM889 485v19q0 106 -73.5 173.5t-190.5 67.5q-119 0 -192 -70.5t-73 -185.5q0 -114 72 -186q70 -70 191 -70q119 0 192 70q74 71 74 182z" />
    <glyph glyph-name="AEacute" unicode="&#x1fc;" horiz-adv-x="1802" 
d="M1571 1747l-572 -338l-104 172l559 367zM1726 1051h-589v-252h413v-267h-413v-247h589v-285h-903v285h-403l-86 -285h-328l434 1337h1286v-286zM823 1051h-172l-155 -512h327v512z" />
    <glyph glyph-name="aeacute" unicode="&#x1fd;" horiz-adv-x="1738" 
d="M1415 1389l-571 -338l-105 172l559 366zM1669 518q0 -42 -10 -110h-678q0 -80 79 -123t210 -43q169 0 346 71v-266q-157 -65 -375 -65q-146 0 -263 42.5t-169 112.5q-61 -72 -165 -113.5t-220 -41.5q-166 0 -265.5 85t-99.5 226q0 143 102.5 226t280.5 83h224v37
q0 53 -40.5 84t-107.5 31q-60 0 -99.5 -25t-47.5 -67h-295q21 158 145 245q128 90 303 90q220 0 328 -114q111 114 322 114q226 0 360 -131q135 -129 135 -348zM1370 608v4q0 66 -53 108t-139 42t-141 -42.5t-56 -111.5h389zM668 375v31h-187q-81 6 -113 -49q-26 -45 1 -90
q35 -55 118 -48q84 0 132.5 43t48.5 113z" />
    <glyph glyph-name="uni0218" unicode="&#x218;" horiz-adv-x="1200" 
d="M135 369q204 -103 438 -103q244 0 244 135q0 41 -26.5 69.5t-57.5 35.5l-76 14l-159 23q-211 26 -315.5 124.5t-104.5 256.5q0 198 153 315q156 117 414 117q239 0 428 -86v-299q-181 100 -430 100q-233 0 -233 -125q0 -89 149 -110l193 -27q395 -52 395 -389
q0 -207 -156 -324q-156 -114 -418 -114q-266 0 -438 88v299zM385 -664l170 238q-60 13 -97.5 62t-37.5 112q0 84 57.5 138.5t143.5 54.5t144 -54.5t58 -138.5q0 -93 -110 -209l-181 -203h-147z" />
    <glyph glyph-name="uni0219" unicode="&#x219;" horiz-adv-x="956" 
d="M96 307q165 -76 379 -76q133 0 133 64q0 20 -13.5 32.5t-30 16.5t-46.5 8l-141 17q-316 37 -316 299q0 162 117 245.5t328 83.5q204 0 338 -57v-270q-152 73 -355 73q-129 0 -129 -59q6 -34 26 -44.5t65 -12.5l137 -15q321 -34 321 -301q0 -159 -121 -244t-337 -85
q-212 0 -355 61v264zM227 -664l170 238q-60 13 -97.5 62t-37.5 112q0 84 57.5 138.5t143.5 54.5t144.5 -54.5t58.5 -138.5q0 -92 -111 -209l-180 -203h-148z" />
    <glyph glyph-name="uni021A" unicode="&#x21a;" horiz-adv-x="1171" 
d="M20 1337h1131v-286h-410v-1051h-313v1051h-408v286zM786 -252q0 -93 -110 -209l-180 -203h-148l170 238q-60 13 -97.5 62t-37.5 112q0 84 57.5 138.5t143.5 54.5t144 -54.5t58 -138.5z" />
    <glyph glyph-name="uni021B" unicode="&#x21b;" horiz-adv-x="870" 
d="M270 0v729h-239v250h239v258l295 18v-276h242v-250h-242v-729h-295zM231 -659l170 237q-60 13 -97.5 62t-37.5 112q0 84 57.5 138.5t143.5 54.5t144.5 -54.5t58.5 -138.5q0 -92 -111 -209l-180 -202h-148z" />
    <glyph glyph-name="circumflex" unicode="&#x2c6;" horiz-adv-x="1296" 
d="M188 1511l375 383h170l375 -383l-156 -155l-305 336l-305 -336z" />
    <glyph glyph-name="caron" unicode="&#x2c7;" horiz-adv-x="1298" 
d="M190 1737l154 157l305 -340l305 340l156 -157l-377 -381h-168z" />
    <glyph glyph-name="breve" unicode="&#x2d8;" horiz-adv-x="1056" 
d="M838 1645q0 -135 -84.5 -221.5t-225.5 -86.5q-140 0 -224.5 86t-84.5 222h178q-7 -83 62 -117.5t137.5 0t60.5 117.5h181z" />
    <glyph glyph-name="dotaccent" unicode="&#x2d9;" horiz-adv-x="1167" 
d="M584 1350q-91 0 -143 48t-52 124q0 75 51.5 121.5t143.5 46.5q91 0 142.5 -46.5t51.5 -121.5q0 -76 -52 -124t-142 -48z" />
    <glyph glyph-name="ring" unicode="&#x2da;" horiz-adv-x="1091" 
d="M360 1294q-73 70 -73 176q0 107 73 177q75 69 187 69t184 -69q74 -71 74 -177q0 -105 -74 -176q-72 -69 -184 -69t-187 69zM471 1542q-29 -29 -29 -71.5t29 -73.5q31 -29 76 -29t74 29q29 31 29 73.5t-29 71.5q-29 31 -74 31t-76 -31z" />
    <glyph glyph-name="ogonek" unicode="&#x2db;" horiz-adv-x="954" 
d="M295 -178q0 103 90 178q91 76 227 82v-82q-66 -11 -104.5 -43.5t-38.5 -79.5q0 -72 80 -72q13 0 63 11v-158q-50 -16 -108 -16q-97 0 -153 49.5t-56 130.5z" />
    <glyph glyph-name="tilde" unicode="&#x2dc;" horiz-adv-x="1138" 
d="M698 1352q-54 0 -135 34q-81 37 -119 37q-70 0 -110 -75l-119 69q38 108 90.5 155.5t128.5 47.5q50 3 133 -35q84 -35 121 -35q79 0 109 80l127 -59q-59 -216 -226 -219z" />
    <glyph glyph-name="hungarumlaut" unicode="&#x2dd;" horiz-adv-x="1480" 
d="M350 1317l-133 151l488 469l149 -174zM799 1317l-127 153l506 449l141 -180z" />
    <glyph glyph-name="gravecomb" unicode="&#x300;" 
d="M-47 1319l-571 338l116 201l559 -367z" />
    <glyph glyph-name="acutecomb" unicode="&#x301;" 
d="M-489 1319l-105 172l559 367l117 -201z" />
    <glyph glyph-name="uni0302" unicode="&#x302;" 
d="M-1192 1511l375 383h170l375 -383l-156 -155l-305 336l-305 -336z" />
    <glyph glyph-name="tildecomb" unicode="&#x303;" 
d="M-358 1352q-55 0 -136 34q-81 37 -118 37q-71 0 -111 -75l-119 69q38 108 90.5 155.5t128.5 47.5q52 3 136 -35q84 -35 118 -35q79 0 109 80l127 -59q-59 -216 -225 -219z" />
    <glyph glyph-name="uni0304" unicode="&#x304;" 
d="M-811 1380v232h756v-232h-756z" />
    <glyph glyph-name="uni0306" unicode="&#x306;" 
d="M190 1645q0 -135 -85 -221.5t-226 -86.5q-140 0 -224.5 86t-84.5 222h180q-8 -83 60.5 -117.5t137 0t60.5 117.5h182z" />
    <glyph glyph-name="uni0307" unicode="&#x307;" 
d="M209 1399q-52 -49 -143 -49q-92 0 -144 49q-51 48 -51 123t51 120q54 48 144 48q89 0 143 -48q51 -45 51 -120t-51 -123z" />
    <glyph glyph-name="uni0308" unicode="&#x308;" 
d="M-668 1690q92 0 143.5 -46.5t51.5 -121.5t-52.5 -123.5t-142.5 -48.5t-141 48t-51 124q0 75 51 121.5t141 46.5zM-211 1350q-90 0 -140 48t-50 124q0 75 50 121.5t140 46.5q92 0 143.5 -46.5t51.5 -121.5q0 -76 -52 -124t-143 -48z" />
    <glyph glyph-name="uni030A" unicode="&#x30a;" 
d="M-426 1294q-76 70 -76 176q0 107 76 177q72 69 184 69q113 0 185 -69q73 -70 73 -177q0 -106 -73 -176q-72 -69 -185 -69q-112 0 -184 69zM-315 1542q-31 -29 -31 -71.5t31 -73.5q29 -29 73.5 -29t73.5 29q29 31 29 73.5t-29 71.5q-29 31 -73.5 31t-73.5 -31z" />
    <glyph glyph-name="uni030B" unicode="&#x30b;" 
d="M-793 1317l-133 151l486 469l149 -174zM-346 1317l-127 153l508 449l139 -180z" />
    <glyph glyph-name="uni030C" unicode="&#x30c;" 
d="M-1034 1737l155 157l306 -340l305 340l155 -157l-376 -381h-170z" />
    <glyph glyph-name="uni0312" unicode="&#x312;" 
d="M-283 1931l-123 -241q58 -17 92.5 -66.5t34.5 -116.5q0 -86 -54.5 -140t-139.5 -54q-83 0 -137 54.5t-54 139.5q0 70 62 162l176 262h143z" />
    <glyph glyph-name="uni0326" unicode="&#x326;" 
d="M-610 -631l170 238q-60 13 -97.5 62t-37.5 112q0 84 57 138t143 54t144.5 -54t58.5 -138q0 -92 -111 -209l-180 -203h-147z" />
    <glyph glyph-name="uni0327" unicode="&#x327;" 
d="M-352 -436v155q84 -53 164 -38q79 12 79 83q0 49 -54 65t-120 -11v108l123 119h119v-45l-94 -88l2 -4q20 5 48.5 6.5t61.5 -11t60.5 -31.5t46 -54.5t18.5 -79.5q0 -77 -48 -129.5t-117.5 -71.5t-148.5 -12.5t-140 39.5z" />
    <glyph glyph-name="uni0328" unicode="&#x328;" 
d="M-160 -178q0 104 92 178q88 76 226 82v-82q-66 -11 -105 -43.5t-39 -79.5q0 -72 80 -72q18 0 64 11v-158q-50 -16 -109 -16q-97 0 -153 49.5t-56 130.5z" />
    <glyph glyph-name="uni0335" unicode="&#x335;" 
d="M-993 526v234h772v-234h-772z" />
    <glyph glyph-name="uni0336" unicode="&#x336;" 
 />
    <glyph glyph-name="uni0337" unicode="&#x337;" 
d="M-823 0l555 1337h241l-555 -1337h-241z" />
    <glyph glyph-name="uni0338" unicode="&#x338;" 
d="M-825 0l555 1337h241l-555 -1337h-241z" />
    <glyph glyph-name="Wgrave" unicode="&#x1e80;" horiz-adv-x="1900" 
d="M1053 1581l-105 -172l-571 338l117 201zM1532 1337h354l-295 -1337h-420l-225 872l-213 -872h-418l-301 1337h342l179 -942l243 942h332l256 -944z" />
    <glyph glyph-name="wgrave" unicode="&#x1e81;" horiz-adv-x="1470" 
d="M735 1051l-571 338l117 200l559 -366zM6 979h289l156 -666q64 316 143 666h276q135 -602 146 -670l155 670h293l-260 -979h-342l-129 578l-129 -578h-342z" />
    <glyph glyph-name="Wacute" unicode="&#x1e82;" horiz-adv-x="1900" 
d="M1518 1747l-572 -338l-102 172l559 367zM1532 1337h354l-295 -1337h-420l-225 872l-213 -872h-418l-301 1337h342l179 -942l243 942h332l256 -944z" />
    <glyph glyph-name="wacute" unicode="&#x1e83;" horiz-adv-x="1470" 
d="M731 1051l-102 172l559 366l115 -200zM6 979h289l156 -666q64 316 143 666h276q135 -602 146 -670l155 670h293l-260 -979h-342l-129 578l-129 -578h-342z" />
    <glyph glyph-name="Wdieresis" unicode="&#x1e84;" horiz-adv-x="1900" 
d="M719 1780q92 0 143 -46.5t51 -121.5q0 -76 -52 -124t-142 -48t-141.5 48t-51.5 124q0 75 51.5 121.5t141.5 46.5zM1178 1780q92 0 143 -46.5t51 -121.5q0 -76 -52 -124t-142 -48t-141.5 48t-51.5 124q0 75 51.5 121.5t141.5 46.5zM1532 1337h354l-295 -1337h-420
l-225 872l-213 -872h-418l-301 1337h342l179 -942l243 942h332l256 -944z" />
    <glyph glyph-name="wdieresis" unicode="&#x1e85;" horiz-adv-x="1470" 
d="M506 1421q92 0 143 -46.5t51 -121.5q0 -76 -52 -124t-142 -48t-141.5 48t-51.5 124q0 75 51.5 121.5t141.5 46.5zM965 1421q92 0 143 -46.5t51 -121.5q0 -76 -52 -124t-142 -48t-141.5 48t-51.5 124q0 75 51.5 121.5t141.5 46.5zM6 979h289l156 -666q64 316 143 666h276
q135 -602 146 -670l155 670h293l-260 -979h-342l-129 578l-129 -578h-342z" />
    <glyph glyph-name="Ygrave" unicode="&#x1ef2;" horiz-adv-x="1300" 
d="M756 1581l-105 -172l-571 338l117 201zM961 1337h362l-514 -870v-467h-313v461l-519 876h353l321 -571z" />
    <glyph glyph-name="ygrave" unicode="&#x1ef3;" horiz-adv-x="1122" 
d="M655 1223l-104 -172l-571 338l116 200zM788 979h334l-651 -1348h-330l248 519l-389 829h338l219 -500z" />
    <glyph glyph-name="endash" unicode="&#x2013;" horiz-adv-x="1374" 
d="M94 430v250h1186v-250h-1186z" />
    <glyph glyph-name="emdash" unicode="&#x2014;" horiz-adv-x="1681" 
d="M63 430v250h1555v-250h-1555z" />
    <glyph glyph-name="quoteleft" unicode="&#x2018;" horiz-adv-x="532" 
d="M453 1391l-144 -271q57 -19 91 -68.5t34 -115.5q0 -86 -53.5 -140.5t-138.5 -54.5q-82 0 -137.5 54.5t-55.5 138.5q0 72 62 164l194 293h148z" />
    <glyph glyph-name="quoteright" unicode="&#x2019;" horiz-adv-x="532" 
d="M80 756l145 268q-127 47 -127 186q0 86 54.5 139.5t140.5 53.5q83 0 136.5 -53.5t53.5 -139.5q0 -72 -63 -161l-193 -293h-147z" />
    <glyph glyph-name="quotesinglbase" unicode="&#x201a;" horiz-adv-x="528" 
d="M80 -250l139 248q-58 17 -92.5 65t-34.5 113q0 85 53.5 135.5t139.5 50.5q85 0 138.5 -51t53.5 -133q0 -88 -61 -170l-191 -258h-145z" />
    <glyph glyph-name="quotedblleft" unicode="&#x201c;" horiz-adv-x="991" 
d="M453 1389l-144 -269q56 -19 90.5 -68.5t34.5 -119.5q0 -82 -54 -135.5t-138 -53.5q-83 0 -138 53.5t-55 137.5q0 72 62 164l194 291h148zM909 1389l-141 -269q56 -19 90.5 -69.5t34.5 -118.5q0 -82 -54.5 -135.5t-138.5 -53.5q-85 0 -138.5 53t-53.5 138q0 70 61 164
l193 291h147z" />
    <glyph glyph-name="quotedblright" unicode="&#x201d;" horiz-adv-x="991" 
d="M80 756l145 268q-127 47 -127 186q0 86 54.5 139.5t140.5 53.5q83 0 136.5 -53.5t53.5 -139.5q0 -72 -63 -161l-193 -293h-147zM539 756l145 268q-127 47 -127 186q0 85 55 139t138 54t137.5 -54t54.5 -139q0 -72 -63 -161l-195 -293h-145z" />
    <glyph glyph-name="quotedblbase" unicode="&#x201e;" horiz-adv-x="991" 
d="M80 -250l141 248q-57 13 -92 62.5t-35 115.5q0 85 53.5 135.5t139.5 50.5q85 0 137.5 -51t52.5 -133q0 -90 -59 -170l-193 -258h-145zM545 -250l139 248q-57 13 -92 62.5t-35 115.5q0 85 53.5 135.5t139.5 50.5q85 0 138.5 -51t53.5 -133q0 -88 -61 -170l-193 -258h-143z
" />
    <glyph glyph-name="dagger" unicode="&#x2020;" horiz-adv-x="876" 
d="M537 944v-530h-197v530h-223v186h223v207h197v-207h223v-186h-223z" />
    <glyph glyph-name="daggerdbl" unicode="&#x2021;" horiz-adv-x="876" 
d="M760 944h-223v-141h223v-189h-223v-200h-197v200h-223v189h223v141h-223v186h223v207h197v-207h223v-186z" />
    <glyph glyph-name="bullet" unicode="&#x2022;" horiz-adv-x="806" 
d="M123 500q0 124 78 204t200 80q123 0 203 -80.5t80 -203.5q0 -124 -80 -204.5t-203 -80.5q-122 0 -200 79t-78 206z" />
    <glyph glyph-name="ellipsis" unicode="&#x2026;" horiz-adv-x="1662" 
d="M317 371q85 0 139 -54.5t54 -140.5q0 -85 -55 -139.5t-138 -54.5t-137.5 54.5t-54.5 139.5q0 86 54.5 140.5t137.5 54.5zM829 -18q-82 0 -136 54t-54 140q0 85 54.5 140t135.5 55q85 0 139 -54.5t54 -140.5t-54 -140t-139 -54zM1481 35q-55 -54 -137 -54t-138 54
q-53 56 -53 141q0 86 53 139q56 55 138 55t137 -55q55 -52 55 -139q0 -86 -55 -141z" />
    <glyph glyph-name="perthousand" unicode="&#x2030;" horiz-adv-x="2514" 
d="M428 674q-147 0 -248 94q-98 94 -98 248q0 152 98 246q104 96 248 96q145 0 246 -96q98 -94 98 -246q0 -155 -100 -248q-98 -94 -244 -94zM350 0l819 1337h199l-817 -1337h-201zM428 885q56 0 94.5 37.5t38.5 93.5t-38.5 93.5t-94.5 37.5q-57 0 -96 -37t-39 -94t39 -94
t96 -37zM1315 -23q-145 0 -248 95q-98 94 -98 247q0 152 98 246q105 97 248 97q144 0 246 -97q100 -93 100 -246q0 -154 -100 -247q-103 -95 -246 -95zM2089 -23q-145 0 -248 95q-98 94 -98 247q0 152 98 246q105 97 248 97q142 0 244 -97q100 -93 100 -246
q0 -154 -100 -247q-100 -95 -244 -95zM1448 319q0 57 -38.5 95.5t-94.5 38.5q-57 0 -96 -38.5t-39 -95.5q0 -55 39.5 -92t95.5 -37t94.5 37t38.5 92zM2089 190q55 0 94 37t39 92q0 57 -38.5 95.5t-94.5 38.5q-57 0 -96 -38.5t-39 -95.5q0 -55 39 -92t96 -37z" />
    <glyph glyph-name="guilsinglleft" unicode="&#x2039;" horiz-adv-x="649" 
d="M111 494q142 195 225 393h254q-68 -192 -205 -393q136 -200 205 -394h-254q-84 200 -225 394z" />
    <glyph glyph-name="guilsinglright" unicode="&#x203a;" horiz-adv-x="649" 
d="M537 494q-151 -213 -224 -394h-256q79 209 207 394q-129 186 -207 393h256q72 -179 224 -393z" />
    <glyph glyph-name="fraction" unicode="&#x2044;" horiz-adv-x="589" 
d="M-205 -94l764 1542h236l-762 -1542h-238z" />
    <glyph glyph-name="uni2070" unicode="&#x2070;" horiz-adv-x="978" 
d="M487 506q-186 0 -284.5 138t-98.5 382q0 249 102.5 379.5t285.5 130.5q186 0 283 -136t97 -378q0 -252 -101.5 -384t-283.5 -132zM487 719q75 0 107.5 74t32.5 221q0 173 -33 242t-102 69q-77 0 -109.5 -72.5t-32.5 -220.5q0 -174 32.5 -243.5t104.5 -69.5z" />
    <glyph glyph-name="uni2074" unicode="&#x2074;" horiz-adv-x="991" 
d="M795 903h104v-215h-104v-168h-230v168h-448v197l332 639h346v-621zM352 903h213v426z" />
    <glyph glyph-name="uni2075" unicode="&#x2075;" horiz-adv-x="950" 
d="M401 508q-177 0 -276 57v211q164 -87 315 -63q78 12 121 52.5t43 98.5q0 60 -41.5 96.5t-113.5 36.5q-115 0 -170 -82l-168 37l75 572h590v-211h-397l-23 -142q66 29 150 29q150 0 243 -91.5t93 -238.5q0 -166 -121 -264t-320 -98z" />
    <glyph glyph-name="uni2076" unicode="&#x2076;" horiz-adv-x="929" 
d="M88 872q0 157 109 334l200 318h269l-242 -344q41 14 98 14q138 0 227 -93t89 -241q0 -158 -107 -256q-107 -96 -274 -96t-267 100q-102 102 -102 264zM324 860q0 -60 38.5 -99.5t98.5 -39.5q61 0 101 39.5t40 101.5t-39 102t-102 40q-60 0 -98.5 -40.5t-38.5 -103.5z" />
    <glyph glyph-name="uni2077" unicode="&#x2077;" horiz-adv-x="874" 
d="M823 1524v-191q-56 -80 -118 -174q-42 -65 -105 -182q-120 -219 -129 -457h-242q12 387 332 793h-268v-172h-197v383h727z" />
    <glyph glyph-name="uni2078" unicode="&#x2078;" horiz-adv-x="970" 
d="M700 1075q78 -29 124 -99t46 -161q0 -142 -105.5 -225.5t-279.5 -83.5q-179 0 -282 84t-103 225q0 92 47 163.5t127 100.5q-127 59 -127 201q0 118 92 187t250 69q155 0 246.5 -70.5t91.5 -187.5q0 -144 -127 -203zM487 1335q-53 0 -82.5 -22.5t-29.5 -59.5
q0 -38 31.5 -62t82.5 -24q66 -5 94.5 41t0 90t-96.5 37zM635 836q0 55 -40 87.5t-106 32.5q-71 0 -111 -32t-40 -88q0 -54 41 -85.5t110 -31.5q68 0 107 32.5t39 84.5z" />
    <glyph glyph-name="uni2079" unicode="&#x2079;" horiz-adv-x="931" 
d="M842 1171q0 -153 -111 -335l-199 -316h-268l244 344l-4 2q-50 -16 -96 -16q-138 0 -227 93t-89 241q0 155 105 254q107 98 274 98q164 0 266 -102q105 -102 105 -263zM604 1186q0 60 -37.5 99.5t-97.5 39.5q-61 0 -102 -40.5t-41 -100.5q0 -63 39.5 -103.5t101.5 -40.5
q61 0 99 41t38 105z" />
    <glyph glyph-name="uni2080" unicode="&#x2080;" horiz-adv-x="978" 
d="M487 -143q-186 0 -284.5 138t-98.5 382q0 249 102.5 379.5t285.5 130.5q186 0 283 -136t97 -378q0 -252 -101.5 -384t-283.5 -132zM487 70q77 0 108.5 72t31.5 220q0 174 -32.5 244t-102.5 70q-77 0 -109.5 -73t-32.5 -222q0 -173 32.5 -242t104.5 -69z" />
    <glyph glyph-name="uni2081" unicode="&#x2081;" horiz-adv-x="710" 
d="M92 492v227q211 0 305 155h185v-1003h-234v747q-38 -54 -109.5 -89.5t-146.5 -36.5z" />
    <glyph glyph-name="uni2082" unicode="&#x2082;" horiz-adv-x="897" 
d="M455 84h331v-213h-661v152l309 329q43 45 61 68t35 57q17 39 17 72q0 131 -170 131q-135 0 -266 -76v217q153 66 309 66q167 0 263.5 -84.5t96.5 -227.5q0 -123 -67 -217q-43 -58 -54 -69l-59 -62z" />
    <glyph glyph-name="uni2083" unicode="&#x2083;" horiz-adv-x="878" 
d="M512 467q118 -10 189 -87.5t71 -193.5q0 -149 -115 -239t-307 -90q-156 0 -254 49v221q101 -55 234 -55q98 0 151.5 34.5t53.5 94.5q0 55 -39 84.5t-107 29.5q-69 0 -127 -30l-96 147l250 230h-320v212h629v-208z" />
    <glyph glyph-name="uni2084" unicode="&#x2084;" horiz-adv-x="991" 
d="M795 252h104v-215h-104v-166h-230v166h-448v196l332 641h346v-622zM352 252h213v426z" />
    <glyph glyph-name="uni2085" unicode="&#x2085;" horiz-adv-x="950" 
d="M401 -141q-177 0 -276 57v211q167 -87 313 -66q78 12 122 53t44 99q0 60 -41.5 96.5t-113.5 36.5q-114 0 -170 -80l-168 37l75 571h590v-212h-397l-23 -140q69 29 150 29q150 0 243 -91.5t93 -240.5q0 -166 -120.5 -263t-320.5 -97z" />
    <glyph glyph-name="uni2086" unicode="&#x2086;" horiz-adv-x="929" 
d="M197 557l200 317h269l-242 -344v-2q53 17 98 17q138 0 226 -94q90 -93 90 -240q0 -160 -107 -254q-107 -98 -274 -98t-267 100q-102 102 -102 262q0 159 109 336zM324 209q0 -60 38.5 -98.5t98.5 -38.5q61 0 101 39.5t40 99.5q0 62 -40 102.5t-101 40.5q-60 0 -98.5 -41
t-38.5 -104z" />
    <glyph glyph-name="uni2087" unicode="&#x2087;" horiz-adv-x="874" 
d="M823 874v-192q-84 -122 -118 -176q-32 -51 -105 -180q-120 -225 -129 -455h-242q12 381 330 791h-266v-175h-197v387h727z" />
    <glyph glyph-name="uni2088" unicode="&#x2088;" horiz-adv-x="970" 
d="M698 426q80 -29 126 -99.5t46 -162.5q0 -141 -105 -224t-280 -83q-179 0 -282 83.5t-103 223.5q0 96 48 166.5t128 97.5q-129 58 -129 203q0 118 93 187t249 69q155 0 246.5 -70.5t91.5 -189.5q0 -67 -34.5 -121t-94.5 -80zM487 684q-53 0 -82.5 -22.5t-29.5 -59.5
q0 -38 31.5 -61t82.5 -23q50 0 79.5 23t29.5 61t-30 60t-81 22zM489 70q68 0 107 31t39 83q0 55 -40 88t-106 33q-71 0 -111 -32.5t-40 -88.5q0 -53 41.5 -83.5t109.5 -30.5z" />
    <glyph glyph-name="uni2089" unicode="&#x2089;" horiz-adv-x="931" 
d="M842 520q0 -158 -111 -334l-199 -315h-268l244 344l-4 2q-43 -16 -96 -16q-138 0 -227 93t-89 241q0 152 105 251q107 101 274 101q163 0 266 -103q105 -102 105 -264zM604 537q0 60 -37.5 98.5t-97.5 38.5q-62 0 -102.5 -39.5t-40.5 -99.5q0 -63 39.5 -103.5
t101.5 -40.5t99.5 40t37.5 106z" />
    <glyph glyph-name="Euro" unicode="&#x20ac;" horiz-adv-x="1107" 
d="M866 1042q-289 0 -391 -182h422l-23 -125h-442q-7 -70 0 -135h420l-25 -125h-354q102 -188 395 -188q76 0 164 18v-237q-85 -28 -248 -25q-230 4 -393 119.5t-223 312.5h-135v125h112q-4 66 -4 74q0 47 2 61h-110v125h133q55 193 219 307q170 116 399 119q149 0 248 -24
v-236q-59 16 -166 16z" />
    <glyph glyph-name="uni2116" unicode="&#x2116;" horiz-adv-x="2627" 
d="M2447 895q0 -189 -133 -322q-132 -129 -340 -129q-206 0 -338 129q-133 133 -133 322q0 193 131 324t340 131t340 -131q133 -133 133 -324zM1008 545v792h309v-1337h-309l-506 786v-786h-307v1337h307zM1974 698q81 0 125.5 55.5t44.5 141.5q0 96 -44.5 147.5
t-123.5 51.5q-81 0 -125.5 -56.5t-44.5 -142.5q0 -92 46 -144.5t122 -52.5zM1647 -14v252h657v-252h-657z" />
    <glyph glyph-name="uni2117" unicode="&#x2117;" horiz-adv-x="1603" 
d="M805 1284q299 0 500 -192q202 -190 202 -492q0 -303 -202 -496q-201 -192 -502 -192q-299 0 -504 190q-203 194 -203 496q0 303 203 494q204 192 506 192zM803 0q260 0 432 166q174 168 174 434q0 265 -174 430q-172 166 -432 166q-261 0 -436 -166q-174 -165 -174 -432
q0 -264 174 -432q175 -166 436 -166zM553 229v729h334q121 0 192.5 -66t71.5 -177q0 -110 -73 -178t-191 -68h-178v-240h-156zM705 600h165q55 0 88 32t33 83q0 49 -33.5 78.5t-87.5 29.5h-165v-223z" />
    <glyph glyph-name="trademark" unicode="&#x2122;" horiz-adv-x="1589" 
d="M51 1219v118h580v-118h-225v-629h-130v629h-225zM1337 1337h152v-747h-129v211q0 52 8 315l-180 -399h-139l-179 407q11 -187 11 -323v-211h-129v747h157l213 -491z" />
    <glyph glyph-name="estimated" unicode="&#x212e;" horiz-adv-x="1419" 
d="M1311 346q-66 -168 -223.5 -265t-364.5 -97q-300 0 -477 186q-175 187 -172 494q3 297 176 485q176 188 473 188q279 0 453 -168q174 -165 174 -452v-99h-1090v-337q61 -109 183 -167.5t280 -58.5q182 0 319 85t193 229zM260 1028v-342h903v377q-153 205 -450 199
q-300 -6 -453 -234z" />
    <glyph glyph-name="oneeighth" unicode="&#x215b;" horiz-adv-x="2041" 
d="M1206 1448h236l-762 -1542h-238zM520 432h-215v666q-37 -48 -102.5 -79.5t-130.5 -31.5v209q194 3 276 141h172v-905zM1778 500q72 -26 114.5 -89t42.5 -143q0 -130 -96 -205t-258 -75q-163 0 -256.5 76t-93.5 204q0 82 43.5 146t116.5 90q-117 52 -117 180q0 106 86 170
t227 64q140 0 222.5 -64.5t82.5 -171.5q0 -62 -30 -110.5t-84 -71.5zM1585 729q-46 0 -72 -19.5t-26 -50.5q0 -35 27.5 -54t72.5 -19q59 -4 83 34.5t-1 76.5t-84 32zM1587 184q59 0 93 28t34 73q0 49 -35 76.5t-92 27.5q-62 0 -97.5 -28t-35.5 -76q0 -47 35.5 -74t97.5 -27z
" />
    <glyph glyph-name="threeeighths" unicode="&#x215c;" horiz-adv-x="2129" 
d="M1294 1448h236l-762 -1542h-238zM713 719q0 -136 -104.5 -217.5t-278.5 -81.5q-140 0 -230 43v205q89 -47 209 -47q180 0 180 110q0 47 -33 72.5t-89 25.5t-117 -28l-90 137l223 203h-283v196h570v-194l-185 -172q103 -13 165.5 -82.5t62.5 -169.5zM1866 500
q72 -26 114.5 -89t42.5 -143q0 -130 -96 -205t-258 -75q-163 0 -256.5 76t-93.5 204q0 82 43.5 146t116.5 90q-117 52 -117 180q0 106 86 170t227 64q140 0 222.5 -64.5t82.5 -171.5q0 -62 -30 -110.5t-84 -71.5zM1673 729q-46 0 -72 -19.5t-26 -50.5q0 -35 27.5 -54
t72.5 -19q59 -4 83 34.5t-1 76.5t-84 32zM1675 184q59 0 93 28t34 73q0 49 -35 76.5t-92 27.5q-62 0 -97.5 -28t-35.5 -76q0 -47 35.5 -74t97.5 -27z" />
    <glyph glyph-name="fiveeighths" unicode="&#x215d;" horiz-adv-x="2181" 
d="M1343 1448h236l-762 -1542h-237zM768 750q0 -148 -111.5 -238t-294.5 -90q-159 0 -245 51v195q143 -76 282 -58q68 7 108 44t40 89q0 50 -38 81.5t-99 31.5q-105 0 -152 -74l-156 37l68 518h537v-196h-359l-20 -113q71 23 139 23q131 0 216 -85.5t85 -215.5zM1917 500
q72 -26 115 -89.5t43 -142.5q0 -130 -96.5 -205t-258.5 -75q-163 0 -256.5 76t-93.5 204q0 82 43.5 146t116.5 90q-117 52 -117 180q0 106 86 170t227 64q140 0 223 -65t83 -171q0 -62 -30.5 -110.5t-84.5 -71.5zM1724 729q-46 0 -72 -19.5t-26 -50.5q0 -35 27.5 -54
t72.5 -19q59 -4 83 34.5t-1 76.5t-84 32zM1726 184q59 0 93 28t34 73q0 49 -35 76.5t-92 27.5q-62 0 -97.5 -28t-35.5 -76q0 -47 35.5 -74t97.5 -27z" />
    <glyph glyph-name="seveneighths" unicode="&#x215e;" horiz-adv-x="2043" 
d="M1208 1448h236l-762 -1542h-238zM221 432q3 336 293 709h-229v-156h-185v352h660v-176l-109 -164q-33 -51 -94 -161q-104 -195 -113 -404h-223zM1780 500q72 -26 114.5 -89t42.5 -143q0 -130 -96 -205t-258 -75q-163 0 -256.5 76t-93.5 204q0 82 43.5 146t116.5 90
q-117 52 -117 180q0 106 86 170t227 64q140 0 222.5 -64.5t82.5 -171.5q0 -62 -30 -110.5t-84 -71.5zM1587 729q-46 0 -72 -19.5t-26 -50.5q0 -35 27.5 -54t72.5 -19q59 -4 83 34.5t-1 76.5t-84 32zM1589 184q59 0 93 28t34 73q0 49 -35 76.5t-92 27.5q-62 0 -97.5 -28
t-35.5 -76q0 -47 35.5 -74t97.5 -27z" />
    <glyph glyph-name="uni2160" unicode="&#x2160;" horiz-adv-x="1009" 
d="M922 1090h-271v-842h271v-248h-832v248h275v842h-275v247h832v-247z" />
    <glyph glyph-name="uni2161" unicode="&#x2161;" horiz-adv-x="1605" 
d="M90 0v248h281v842h-281v247h1426v-247h-277v-842h277v-248h-1426zM657 248h295v842h-295v-842z" />
    <glyph glyph-name="uni2162" unicode="&#x2162;" horiz-adv-x="2166" 
d="M90 0v248h281v842h-281v247h1987v-247h-277v-842h277v-248h-1987zM657 248h285v842h-285v-842zM1229 248h284v842h-284v-842z" />
    <glyph glyph-name="uni2163" unicode="&#x2163;" horiz-adv-x="2160" 
d="M2073 0h-1983v248h268v839h-268v250h1983v-250h-222l-272 -839h494v-248zM647 248h432l-274 839h-158v-839zM1559 1087h-451l225 -735z" />
    <glyph glyph-name="uni2164" unicode="&#x2164;" horiz-adv-x="1650" 
d="M1561 1087h-215l-273 -839h483v-248h-1462v248h477l-272 839h-209v250h1471v-250zM1053 1087h-451l225 -735z" />
    <glyph glyph-name="uni2165" unicode="&#x2165;" horiz-adv-x="2152" 
d="M2062 0h-1972v248h485l-274 839h-211v250h1972v-250h-270v-839h270v-248zM1055 1087h-451l225 -735zM1077 248h428v839h-155z" />
    <glyph glyph-name="uni2166" unicode="&#x2166;" horiz-adv-x="2723" 
d="M2634 0h-2544v248h485l-274 839h-211v250h2544v-250h-277v-839h277v-248zM1055 1087h-451l225 -735zM1077 248h426v839h-155zM2068 1087h-276v-839h276v839z" />
    <glyph glyph-name="uni2167" unicode="&#x2167;" horiz-adv-x="3268" 
d="M90 0v248h483l-272 839h-211v250h3086v-250h-272v-839h274v-248h-3088zM827 352l222 735h-445zM1073 248h430v839h-162zM1790 248h270v839h-270v-839zM2347 248h270v839h-270v-839z" />
    <glyph glyph-name="uni2168" unicode="&#x2168;" horiz-adv-x="2107" 
d="M2017 0h-1927v248h268v839h-268v250h1925v-250h-211l-309 -428l301 -411h221v-248zM811 1087h-164v-839h170l303 414zM1309 854l157 233h-315zM1151 248h305l-151 215z" />
    <glyph glyph-name="uni2169" unicode="&#x2169;" horiz-adv-x="1595" 
d="M1503 1087h-211l-307 -430l299 -409h221v-248h-1415v248h217l303 414l-311 425h-209v250h1413v-250zM799 858l157 229h-315zM641 248h303l-151 215z" />
    <glyph glyph-name="uni216C" unicode="&#x216c;" horiz-adv-x="1343" 
d="M1253 0h-1163v248h240v839h-240v250h784v-250h-258v-839h367v360h270v-608z" />
    <glyph glyph-name="uni216D" unicode="&#x216d;" horiz-adv-x="1509" 
d="M762 -20q-299 0 -486 190q-186 192 -186 498t186 495q187 193 484 193q268 0 395 -154v135h264v-514h-278q-18 103 -109 191q-88 88 -241 88q-180 0 -295 -121q-113 -119 -113 -313q0 -195 113 -314q115 -121 295 -121q152 0 241 86q92 92 109 195h278v-514h-264v135
q-60 -72 -165 -113.5t-228 -41.5z" />
    <glyph glyph-name="uni216E" unicode="&#x216e;" horiz-adv-x="1523" 
d="M778 1337q299 0 477 -184q179 -182 179 -485q0 -305 -181 -486q-179 -182 -479 -182h-684v248h250v839h-250v250h688zM754 248q175 0 282 112.5t107 307.5q0 197 -107 308t-284 111h-123v-839h125z" />
    <glyph glyph-name="uni216F" unicode="&#x216f;" horiz-adv-x="2142" 
d="M90 0v248h238v839h-238v250h612l367 -907l354 907h631v-250h-237v-839h237v-248h-688v248h166v661l-356 -893h-215l-355 887v-655h158v-248h-674z" />
    <glyph glyph-name="arrowleft" unicode="&#x2190;" horiz-adv-x="1523" 
d="M1505 424h-1024q206 -150 320 -332l-178 -143q-226 304 -605 602q395 319 605 602l178 -141q-114 -185 -320 -332h1024v-256z" />
    <glyph glyph-name="arrowup" unicode="&#x2191;" horiz-adv-x="1359" 
d="M1298 774l-163 -174l-340 334v-1110l-234 -4v1116l-340 -336l-162 170l623 631z" />
    <glyph glyph-name="arrowright" unicode="&#x2192;" horiz-adv-x="1523" 
d="M18 424v256h1024q-207 152 -319 332l178 141q226 -300 604 -602q-376 -296 -604 -602l-178 143q112 180 319 332h-1024z" />
    <glyph glyph-name="arrowdown" unicode="&#x2193;" horiz-adv-x="1320" 
d="M535 1348h256v-942q149 204 329 319l142 -178q-304 -231 -600 -606q-295 370 -603 606l144 178q183 -118 332 -319v942z" />
    <glyph glyph-name="arrowboth" unicode="&#x2194;" horiz-adv-x="2281" 
d="M1610 1153q222 -294 604 -602q-385 -305 -604 -602l-178 143q115 183 319 332h-1221q203 -150 320 -332l-178 -143q-228 306 -604 602q392 317 604 602l178 -141q-111 -182 -320 -332h1221q-204 149 -319 332z" />
    <glyph glyph-name="uni2196" unicode="&#x2196;" horiz-adv-x="1241" 
d="M999 72l-704 708q41 -243 -6 -461l-228 27q54 374 -4 852q498 -53 856 -2l25 -225q-212 -49 -463 -8l707 -711z" />
    <glyph glyph-name="uni2197" unicode="&#x2197;" horiz-adv-x="1241" 
d="M240 72l-183 180l707 711q-244 -40 -461 8l25 225q379 -53 854 2q-58 -476 -2 -852l-228 -27q-48 223 -8 461z" />
    <glyph glyph-name="uni2198" unicode="&#x2198;" horiz-adv-x="1243" 
d="M57 1059l183 182l710 -704q-41 255 8 458l224 -24q-53 -373 2 -852q-484 55 -850 2l-27 225q220 48 459 8z" />
    <glyph glyph-name="uni2199" unicode="&#x2199;" horiz-adv-x="1241" 
d="M1184 1059l-709 -705q252 40 463 -8l-27 -225q-388 53 -854 -2q57 474 4 852l226 24q47 -221 6 -458l711 704z" />
    <glyph glyph-name="uni21A9" unicode="&#x21a9;" horiz-adv-x="2107" 
d="M1386 1477q266 0 435 -146q166 -144 166 -379q0 -238 -160 -389q-156 -147 -414 -147h-842v-293q-185 256 -481 424q294 167 481 428v-291h842q136 0 215.5 72.5t79.5 195.5q0 120 -85.5 191t-236.5 71v263z" />
    <glyph glyph-name="uni21AA" unicode="&#x21aa;" horiz-adv-x="2105" 
d="M1532 975q187 -264 481 -428q-295 -168 -481 -424v293h-842q-258 0 -414 147q-157 151 -157 389q0 235 166 379q169 146 434 146v-263q-151 0 -237.5 -71t-86.5 -191q0 -123 79.5 -195.5t215.5 -72.5h842v291z" />
    <glyph glyph-name="uni21B3" unicode="&#x21b3;" horiz-adv-x="1513" 
d="M963 942q203 -272 483 -428q-291 -165 -483 -426v293h-840v1063h258v-791h582v289z" />
    <glyph glyph-name="carriagereturn" unicode="&#x21b5;" horiz-adv-x="1513" 
d="M1133 1444h260v-1063h-844v-293q-190 263 -481 426q287 160 481 428v-289h586z" />
    <glyph glyph-name="uni21BA" unicode="&#x21ba;" horiz-adv-x="1800" 
d="M795 -29q-302 0 -514 191q-211 190 -211 508q0 314 209 499q208 187 520 187q248 0 385 -96l-97 -242q-135 72 -282 72q-192 0 -324 -117q-133 -115 -133 -305q0 -193 125 -306q124 -112 318 -112q189 0 311 98q123 99 123 268h-297q278 272 409 498q157 -251 416 -498
h-264q0 -285 -199 -466q-197 -179 -495 -179z" />
    <glyph glyph-name="uni21BB" unicode="&#x21bb;" horiz-adv-x="1800" 
d="M1006 -29q-301 0 -498 179q-197 182 -197 468h-266q267 249 416 496q150 -249 409 -496h-295q0 -165 121 -268q118 -100 314 -100q193 0 317 112q125 113 125 306q0 190 -133 305q-132 114 -322 114q-158 0 -286 -67l-97 240q59 42 163.5 69t223.5 27q310 0 521 -187
t211 -499q0 -318 -213 -510q-213 -189 -514 -189z" />
    <glyph glyph-name="emptyset" unicode="&#x2205;" horiz-adv-x="1138" 
d="M985 821q117 -129 117 -329q0 -226 -152 -369q-151 -139 -395 -139q-166 0 -299 71l-92 -96l-113 119l78 82q-115 133 -115 332q0 227 148 366q151 139 393 139q170 0 303 -71l96 100l113 -119zM315 489q0 -65 21 -112l328 342q-47 18 -103 18q-116 0 -181 -67t-65 -181z
M555 244q115 0 180.5 67t65.5 183q0 56 -21 112l-327 -344q47 -18 102 -18z" />
    <glyph glyph-name="product" unicode="&#x220f;" horiz-adv-x="1320" 
d="M1282 1337v-290h-217v-1047h-315v1047h-177v-1047h-317v1047h-217v290h1243z" />
    <glyph glyph-name="summation" unicode="&#x2211;" horiz-adv-x="1155" 
d="M1053 1337v-280h-592l352 -477l-360 -418h600v-289h-953v272l353 441l-353 475v276h953z" />
    <glyph glyph-name="minus" unicode="&#x2212;" horiz-adv-x="1042" 
d="M115 655h815v-247h-815v247z" />
    <glyph glyph-name="radical" unicode="&#x221a;" horiz-adv-x="1157" 
d="M1303 1602l-687 -1674h-272l-346 736h321l148 -361l526 1299h310z" />
    <glyph glyph-name="infinity" unicode="&#x221e;" horiz-adv-x="1701" 
d="M469 61q-178 0 -297 119q-117 120 -117 305q0 190 119 312q119 125 299 125q231 0 377 -224q155 224 381 224q181 0 297 -125q119 -122 119 -312q0 -187 -117 -307q-117 -117 -297 -117q-233 0 -383 215q-147 -215 -381 -215zM487 348q103 0 228 137q-120 144 -228 144
q-69 0 -112 -40.5t-43 -103.5q0 -60 43 -98.5t112 -38.5zM1214 348q67 0 109.5 38.5t42.5 98.5q0 63 -42.5 103.5t-109.5 40.5q-114 0 -225 -144q113 -137 225 -137z" />
    <glyph glyph-name="integral" unicode="&#x222b;" horiz-adv-x="892" 
d="M18 -301v254h109q97 0 130.5 28.5t33.5 104.5v956q0 186 95 272.5t296 86.5q28 0 178 -17v-251h-108q-97 0 -130.5 -29t-33.5 -105v-956q0 -188 -94.5 -273t-296.5 -85q-94 0 -179 14z" />
    <glyph glyph-name="approxequal" unicode="&#x2248;" horiz-adv-x="1019" 
d="M115 539q-10 143 50 219t159 76q69 0 184 -50q116 -49 166 -49q46 0 72 26t26 64h133q11 -144 -51.5 -221.5t-163.5 -77.5q-88 0 -207 49q-121 50 -153 50q-39 0 -62 -27.5t-18 -58.5h-135zM115 186q-10 145 49.5 220t159.5 75q71 0 184 -49q116 -49 166 -49
q46 0 72 24.5t26 61.5h133q11 -142 -51.5 -218.5t-163.5 -76.5q-88 0 -207 49t-155 49q-37 0 -60 -27t-18 -59h-135z" />
    <glyph glyph-name="notequal" unicode="&#x2260;" horiz-adv-x="1095" 
d="M983 596h-303l-96 -178h399v-219h-518l-103 -193h-194l102 193h-155v219h274l96 178h-370v215h485l94 176h195l-94 -176h188v-215z" />
    <glyph glyph-name="lessequal" unicode="&#x2264;" horiz-adv-x="1155" 
d="M989 313l-823 281v280l823 271v-281l-512 -129l512 -139v-283zM989 0h-823v283h823v-283z" />
    <glyph glyph-name="greaterequal" unicode="&#x2265;" horiz-adv-x="1153" 
d="M166 313v283l512 139l-512 129v281l821 -271v-280zM166 0v283h821v-283h-821z" />
    <glyph glyph-name="filledbox" unicode="&#x25a0;" horiz-adv-x="1740" 
d="M203 1337h1337v-1335h-1337v1335z" />
    <glyph glyph-name="uni25A1" unicode="&#x25a1;" horiz-adv-x="1712" 
d="M186 1337h1340v-1337h-1340v1337zM315 1204v-1071h1082v1071h-1082z" />
    <glyph glyph-name="triagup" unicode="&#x25b2;" horiz-adv-x="1562" 
d="M1563 0h-1563l780 1354z" />
    <glyph glyph-name="uni25B3" unicode="&#x25b3;" horiz-adv-x="1554" 
d="M0 0l774 1356l780 -1356h-1554zM162 98h1229l-617 1069z" />
    <glyph glyph-name="lozenge" unicode="&#x25ca;" horiz-adv-x="1179" 
d="M475 0l-401 664l401 673h217l412 -673l-412 -664h-217zM918 662l-328 552l-332 -552l332 -537z" />
    <glyph glyph-name="circle" unicode="&#x25cb;" horiz-adv-x="1523" 
d="M70 670q0 284 202 483q206 203 490 203q286 0 489 -203q205 -199 205 -483q0 -286 -205 -488q-203 -200 -489 -200q-287 0 -490 200q-202 202 -202 488zM1325 670q0 230 -166 389q-162 162 -397 162q-233 0 -395 -162q-164 -159 -164 -389q0 -227 164 -391
q162 -162 395 -162q232 0 397 162q166 163 166 391z" />
    <glyph glyph-name="uni25CF" unicode="&#x25cf;" horiz-adv-x="1744" 
d="M186 674q0 280 201 481q204 201 487 201t484 -201t201 -481q0 -286 -201 -490q-199 -202 -484 -202t-487 202q-201 204 -201 490z" />
    <glyph glyph-name="uni2602" unicode="&#x2602;" horiz-adv-x="1615" 
d="M844 1337q309 -9 497 -188q189 -180 189 -457h-80q0 80 -51 130t-133 50t-134.5 -50.5t-52.5 -129.5h-80q0 71 -41.5 119t-111.5 59v-632q0 -116 -70 -186t-186 -70q-118 0 -187 70t-69 186h65q0 -85 52.5 -137t138.5 -52q82 0 131 52t49 137v632q-72 -12 -115 -60.5
t-43 -117.5h-80q0 81 -51 130.5t-133 49.5t-134 -50.5t-52 -129.5h-80q0 281 188 457q188 179 502 188l10 133h54z" />
    <glyph glyph-name="uni261C" unicode="&#x261c;" horiz-adv-x="2164" 
d="M1976 940l52 -2v-690q-39 -2 -65 5t-39 18.5t-22 23t-20.5 19.5t-28.5 8q-2 0 -62 -18.5t-103 -18.5q-16 0 -111 6q-81 8 -182 8q-220 0 -336 -39q-21 -5 -81 -27.5t-83 -29.5q-42 -10 -76 -10q-62 0 -99 28.5t-42 73.5q-3 27 14 61l17 33q3 8 0.5 13.5t-10 13.5
t-11.5 14q-51 78 27 168q-60 -5 -131.5 -25.5t-96.5 -25.5q-156 -33 -208 -33q-117 0 -138 86q-21 77 58 92q153 28 241 58q51 11 226 63q164 52 194 64q8 2 59 31.5t93 37.5q63 11 168 8q128 -5 192 -10q128 -7 191 -14q47 -4 102.5 -10.5t87.5 -10.5t35 -4q63 -8 102 15
q41 23 86 20zM1847 487q0 287 8 347q-2 0 -10.5 1t-28.5 4t-40 5l-90 14l-99 12q-97 11 -104 11l-107 10q-75 8 -108 4q-25 -3 -109 0q9 -14 -12 -35q-59 -56 -96 -96q-41 -44 -84 -115q-47 -74 -84 -172q-7 -19 6.5 -24t21.5 12q72 153 215 346q17 23 45 8q17 -17 5 -33
q-6 -6 -24.5 -30t-50.5 -69.5t-63 -94.5q-47 -76 -63 -131q-18 -62 13 -85.5t104 -23.5q114 0 159 45q18 20 12.5 31.5t-30.5 9.5q-65 -3 -127 -32q-21 -8 -32.5 2t-7 25.5t23.5 21.5q63 19 94 32q53 20 57 23q36 21 55 80q8 27 16 37t25 10q8 1 14 -1.5t10 -8.5t6 -10.5
t5 -14.5t4 -14q30 -96 117.5 -157.5t200.5 -61.5q153 0 153 118zM1110 895q-38 3 -80 -33q-40 -37 -151 -174q-136 -170 -140 -182q-9 -31 0 -49t33.5 -13t42.5 35l43 86q43 87 103 168q63 88 149 162zM1925 434q0 191 2 201q4 24 4 192q0 19 -12 22.5t-18 -13.5
q-15 -40 -15 -207q0 -159 10 -201q4 -18 16.5 -16t12.5 22zM643 653q15 -15 64 4q44 17 100 58q55 38 78 61q12 14 4.5 27.5t-25.5 7.5l-200 -55l-240 -66q-29 -9 -109.5 -44t-121.5 -40q29 -57 153 -33q166 29 236 99q15 18 28 18q6 0 12.5 -7t12 -17t8.5 -13zM174 637
q9 -3 39 6q33 9 33 12q0 2 -18 0t-36 -7.5t-18 -10.5zM1462 352q23 -1 25.5 9.5t-17.5 21.5q-58 23 -88 23q-48 0 -71 -29q-3 -11 3 -17.5t23 -7.5h125zM809 248q25 0 42 7.5t17 18.5q0 14 -37 41q-38 27 -63 27q-38 0 -35 -35q3 -41 47 -55z" />
    <glyph glyph-name="uni261E" unicode="&#x261e;" horiz-adv-x="2177" 
d="M1974 692q76 -15 58 -90q-24 -88 -138 -88q-62 0 -211 33q-16 3 -56.5 15.5t-84.5 22.5t-84 13q78 -90 25 -170q-1 -2 -12 -15t-7 -24q0 -2 8 -18t16 -37.5t7 -36.5q-9 -104 -141 -104q-62 0 -160 36q-56 24 -80 31q-116 39 -336 39q-103 0 -184 -8q-91 -6 -109 -6
q-43 0 -104 18.5t-62 18.5q-20 0 -34.5 -12.5t-24 -27t-39 -25.5t-76.5 -9v690l50 2q45 3 86 -20q42 -23 104 -15q11 0 74 8l149 17q63 7 191 14q66 5 194 10q110 1 164.5 -8.5t93.5 -36.5q33 -20 62 -32q171 -62 420 -127q88 -30 241 -58zM1260 467q11 -21 23.5 -17.5
t6.5 27.5q-52 137 -114 217q-55 77 -150 166q-21 21 -12 35q-242 6 -697 -61q13 -101 9 -216v-35t-0.5 -35.5t-1 -30t-0.5 -21.5v-9q0 -118 155 -118q113 0 200.5 62.5t117.5 158.5q12 47 39 47q26 0 41 -47q19 -58 55 -82q4 -2 59 -23l96 -32q17 -6 20.5 -21t-8.5 -24
t-32 -2q-68 29 -127 32q-27 2 -32.5 -9.5t14.5 -31.5q45 -45 159 -45q73 0 104 24.5t13 84.5q-17 56 -65 129q-53 88 -89 135q-10 13 -22 28.5t-17 22.5t-8 10q-16 17 2 32q20 15 40 0q5 -3 8 -7q142 -196 213 -344zM1294 686q-129 158 -155 180q-37 32 -74 29
q153 -133 252 -336q40 -81 43 -84q17 -27 40 -32t32.5 12.5t-0.5 50.5q-3 17 -138 180zM276 430q12 45 9 199q0 164 -13 205q-6 18 -18 15t-12 -22q0 -180 2 -192q2 -10 2 -201q0 -13 6 -19t13 -2t11 17zM1825 573q122 -24 155 33q-40 4 -118 38.5t-109 43.5
q-139 40 -237 66q-202 55 -207 57q-19 6 -27 -7.5t6 -27.5q22 -25 76.5 -62.5t101.5 -56.5q47 -18 64 -4q1 1 12.5 19t20.5 18q10 0 28 -18q65 -64 234 -99zM1925 655q0 -3 33 -12t41 -6q0 5 -18.5 10.5t-37 7.5t-18.5 0zM836 352q28 0 28 15q-3 22 -45 34q-25 5 -28 5
q-28 0 -89 -23q-13 -7 -17 -14t2.5 -12t21.5 -5h127zM1364 248q59 0 74 47q9 39 -23 45l-10 2q-27 0 -64 -27q-36 -26 -36 -41q0 -11 17 -18.5t42 -7.5z" />
    <glyph glyph-name="uni262A" unicode="&#x262a;" horiz-adv-x="1540" 
d="M131 674q0 132 39 243.5t105 190t153.5 133.5t184 81t196.5 26q160 0 301 -66.5t227 -183.5q-312 118 -546 -15q-230 -131 -230 -409q0 -181 105 -307q107 -129 278 -160t393 43q-86 -117 -226.5 -183.5t-301.5 -66.5q-258 0 -463 166q-99 84 -157 217t-58 291zM1032 745
l74 220l72 -220h233l-186 -141l71 -223l-190 139l-191 -139l74 223l-190 141h233z" />
    <glyph glyph-name="uni262E" unicode="&#x262e;" horiz-adv-x="1527" 
d="M762 -16q-283 0 -486 200q-200 203 -200 488q0 281 200 481q203 203 486 203q284 0 485 -201q203 -200 203 -483q0 -285 -203 -488q-200 -200 -485 -200zM233 424l478 287v540q-225 -21 -377 -186q-154 -168 -154 -393q0 -130 53 -248zM1298 426q54 123 54 246
q0 223 -154 391q-148 165 -377 186v-538zM711 86v498l-420 -260q76 -99 186.5 -162.5t233.5 -75.5zM821 88q127 12 236 74.5t182 163.5l-418 258v-496z" />
    <glyph glyph-name="uni2639" unicode="&#x2639;" horiz-adv-x="1562" 
d="M84 672q0 282 205 481q206 203 491 203q297 0 498 -201t201 -483q0 -289 -201 -490q-198 -198 -498 -198q-297 0 -497 200q-199 199 -199 488zM780 80q255 0 424 172q168 171 168 420q0 242 -170 415t-422 173t-422 -173q-168 -171 -168 -415q0 -249 168 -420
q169 -172 422 -172zM391 836q0 43 32.5 74.5t76.5 31.5t76 -31.5t32 -74.5q0 -44 -32 -76.5t-76 -32.5t-76.5 32.5t-32.5 76.5zM1032 727q-44 0 -76 32.5t-32 76.5q0 43 32 74.5t76 31.5q43 0 75 -31.5t32 -74.5q0 -44 -32 -76.5t-75 -32.5zM342 369q56 126 174 202t264 76
q147 0 265 -76t174 -202l-89 -45q-43 104 -138 166.5t-212 62.5t-212 -62.5t-138 -166.5z" />
    <glyph glyph-name="smileface" unicode="&#x263a;" horiz-adv-x="1562" 
d="M84 672q0 282 205 481q206 203 491 203q297 0 498 -201t201 -483q0 -289 -201 -490q-198 -198 -498 -198q-297 0 -497 200q-199 199 -199 488zM780 80q255 0 424 172q168 171 168 420q0 242 -170 415t-422 173t-422 -173q-168 -171 -168 -415q0 -249 168 -420
q169 -172 422 -172zM391 836q0 43 32.5 74.5t76.5 31.5t76 -31.5t32 -74.5q0 -44 -32 -76.5t-76 -32.5t-76.5 32.5t-32.5 76.5zM1032 727q-44 0 -76 32.5t-32 76.5q0 43 32 74.5t76 31.5q43 0 75 -31.5t32 -74.5q0 -44 -32 -76.5t-75 -32.5zM1257 629q-15 -179 -149 -307
q-132 -123 -328 -123q-193 0 -325 123q-135 129 -150 307h103q15 -152 120 -244q109 -92 252 -92q147 0 254 94q108 94 123 242h100z" />
    <glyph glyph-name="invsmileface" unicode="&#x263b;" horiz-adv-x="1562" 
d="M84 672q0 282 205 481q206 203 491 203q297 0 498 -201t201 -483q0 -289 -201 -490q-198 -198 -498 -198q-297 0 -497 200q-199 199 -199 488zM608 836q0 43 -32 74.5t-76 31.5t-76.5 -31.5t-32.5 -74.5q0 -44 32.5 -76.5t76.5 -32.5t76 32.5t32 76.5zM1032 727
q43 0 75 32.5t32 76.5q0 43 -32 74.5t-75 31.5q-44 0 -76 -31.5t-32 -74.5q0 -44 32 -76.5t76 -32.5zM780 199q196 0 328 123q134 128 149 307h-100q-15 -148 -123 -242q-107 -94 -254 -94q-143 0 -252 92q-105 92 -120 244h-103q15 -178 150 -307q132 -123 325 -123z" />
    <glyph glyph-name="uni2671" unicode="&#x2671;" horiz-adv-x="1392" 
d="M696 -51q-62 98 -174 149l101 156v504h-185l-155 -103q-38 96 -150 174q98 76 150 177l155 -107h185v217l-107 158q102 45 180 149q71 -108 172 -149l-102 -158v-217h186l156 107q53 -108 149 -177q-109 -83 -149 -174l-156 103h-186v-504l106 -156q-103 -52 -176 -149z
M653 1178h84l39 67q-63 48 -80 80q-26 -33 -88 -80zM676 254h39v553h237v41h-237v268h-39v-268h-238v-41h238v-553zM307 748l68 38v86l-68 43q-45 -67 -76 -86q52 -46 76 -81zM1083 748q46 57 76 81q-47 41 -76 86l-67 -43v-86zM696 47q21 33 86 76l-45 72h-84l-41 -72
q66 -47 84 -76z" />
    <glyph glyph-name="uni267B" unicode="&#x267b;" horiz-adv-x="1669" 
d="M1194 842l-324 24q-18 1 -20.5 17t10.5 20l60 27l-82 174q-49 107 -95 156q-44 50 -135 77h412q127 0 174 -90l68 -131l67 31q18 7 26.5 -6t0.5 -27zM612 772l-303 207l170 270q27 43 92 43q76 0 131 -52.5t107 -162.5zM1260 420l-191 313l315 185l175 -259
q39 -57 23.5 -105.5t-62 -82t-118 -48t-142.5 -3.5zM522 541l-125 -197q-90 -146 -69 -252l-226 391q-42 69 11 140l73 112l-69 43q-14 8 -11.5 23.5t19.5 15.5l330 6l153 -291q7 -12 -3.5 -22t-22.5 -2zM1352 53q-35 -59 -107 -59h-145v-80q0 -14 -8.5 -19.5t-18.5 -2
t-16 11.5l-170 270l160 281q3 7 10.5 8.5t13.5 -3.5t6 -16v-65h242q171 0 266 92zM479 -2q-77 -3 -103 61.5t0 153t87 156.5h352v-371h-336z" />
    <glyph glyph-name="uni26A0" unicode="&#x26a0;" horiz-adv-x="1908" 
d="M100 0l854 1407l852 -1407h-1706zM350 133h1209l-605 1026zM907 502l-22 336h141l-22 -336h-97zM956 262q-50 -4 -70.5 38t0 84t70.5 38q47 4 66.5 -38t0 -84t-66.5 -38z" />
    <glyph glyph-name="uni2713" unicode="&#x2713;" horiz-adv-x="1585" 
d="M1425 1237l129 -242q-351 -164 -615.5 -398t-418.5 -515q-80 157 -215 289q-133 136 -276 200l153 220q240 -154 340 -328q128 236 369 442q246 208 534 332z" />
    <glyph glyph-name="uni2715" unicode="&#x2715;" horiz-adv-x="1374" 
d="M145 2l-96 98l543 555l-541 553l99 99l538 -553l539 553l96 -99l-543 -553l545 -555l-96 -98l-541 553z" />
    <glyph glyph-name="uni2776" unicode="&#x2776;" horiz-adv-x="1617" 
d="M811 -18q-294 0 -492 198q-196 199 -196 488q0 290 196 489q199 199 492 199q291 0 487 -199q197 -197 197 -489q0 -289 -199 -488q-195 -198 -485 -198zM764 305h174v739h-139q-71 -114 -226 -114v-172q119 3 191 90v-543z" />
    <glyph glyph-name="uni2777" unicode="&#x2777;" horiz-adv-x="1619" 
d="M813 -18q-292 0 -491 196q-199 199 -199 490q0 290 199 489t491 199q291 0 487 -199q197 -197 197 -489q0 -289 -199 -488q-195 -198 -485 -198zM598 305h489v162h-239l102 98l62 64q19 19 47 80q26 56 26 116q0 106 -73 169t-197 63q-108 0 -229 -47v-168q101 55 196 55
q125 0 125 -94q0 -22 -12 -47.5t-25 -40.5l-45 -51l-227 -242v-117z" />
    <glyph glyph-name="uni2778" unicode="&#x2778;" horiz-adv-x="1619" 
d="M813 -18q-292 0 -491 196q-199 199 -199 490q0 290 199 489t491 199q291 0 487 -199q197 -197 197 -489q0 -289 -199 -488q-195 -198 -485 -198zM776 293q142 0 228 67t86 179q0 84 -51 139.5t-136 66.5l152 140v159h-467v-163h229l-182 -164l76 -113q48 25 96 25
q98 -3 98 -80q0 -92 -147 -92q-96 0 -170 39v-166q70 -37 188 -37z" />
    <glyph glyph-name="uni2779" unicode="&#x2779;" horiz-adv-x="1619" 
d="M813 -18q-292 0 -491 196q-199 199 -199 490q0 290 199 489t491 199q291 0 487 -199q197 -197 197 -489q0 -289 -199 -488q-195 -198 -485 -198zM483 426h328v-121h176v121h78v166h-78v452h-264l-240 -469v-149zM662 592l149 295v-295h-149z" />
    <glyph glyph-name="uni277A" unicode="&#x277a;" horiz-adv-x="1617" 
d="M811 -18q-294 0 -492 198q-196 199 -196 488q0 290 199 489t489 199q291 0 487 -199q197 -197 197 -489q0 -289 -199 -488q-195 -198 -485 -198zM772 295q148 0 239 74.5t91 195.5q0 106 -69 175t-177 69q-64 0 -111 -18l15 90h293v163h-441l-55 -423l127 -29
q44 59 127 59q49 0 79 -25.5t30 -66.5q0 -93 -119 -108q-117 -12 -234 45v-158q76 -43 205 -43z" />
    <glyph glyph-name="uni277B" unicode="&#x277b;" horiz-adv-x="1619" 
d="M813 -18q-292 0 -491 196q-199 199 -199 490q0 290 199 489t491 199q291 0 487 -199q197 -197 197 -489q0 -289 -199 -488q-195 -198 -485 -198zM803 295q125 0 202.5 71.5t77.5 188.5q0 109 -65 178.5t-164 69.5q-38 0 -72 -12v2l176 251h-202l-148 -231
q-78 -119 -78 -248q0 -121 75.5 -195.5t197.5 -74.5zM805 457q-41 0 -69.5 28.5t-28.5 69.5q-5 61 47.5 87t105 0.5t47.5 -87.5q0 -41 -29.5 -69.5t-72.5 -28.5z" />
    <glyph glyph-name="uni277C" unicode="&#x277c;" horiz-adv-x="1619" 
d="M813 -18q-292 0 -491 196q-199 199 -199 490q0 290 199 489t491 199q291 0 487 -199q197 -197 197 -489q0 -289 -199 -488q-195 -198 -485 -198zM651 305h183q3 109 49 225q48 125 88 189q26 42 121 180v145h-539v-286h149v123h185q-233 -306 -236 -576z" />
    <glyph glyph-name="uni277D" unicode="&#x277d;" horiz-adv-x="1619" 
d="M813 -18q-292 0 -491 196q-199 199 -199 490q0 290 199 489t491 199q291 0 487 -199q197 -197 197 -489q0 -289 -199 -488q-195 -198 -485 -198zM1096 526q0 67 -34 119t-95 72q94 40 94 149q0 87 -66.5 139t-181.5 52q-117 0 -186.5 -51.5t-69.5 -139.5q0 -103 94 -149
q-59 -20 -94 -72t-35 -119q0 -104 76.5 -166.5t208.5 -62.5q134 0 211.5 60.5t77.5 168.5zM813 786q-84 0 -84 60q0 55 82 55q78 0 78 -55q0 -26 -22 -43t-54 -17zM813 457q-51 0 -81 23t-30 61t29 61t82 23q45 0 73.5 -23t28.5 -61q0 -37 -27.5 -60.5t-74.5 -23.5z" />
    <glyph glyph-name="uni277E" unicode="&#x277e;" horiz-adv-x="1619" 
d="M813 -18q-292 0 -491 196q-199 199 -199 490q0 290 199 489t491 199q291 0 487 -199q197 -197 197 -489q0 -289 -199 -488q-195 -198 -485 -198zM670 307h202l146 232q62 91 75.5 187.5t-15.5 169.5t-96 118.5t-157 42.5q-125 0 -202.5 -72.5t-77.5 -189.5
q0 -109 64 -176.5t167 -67.5q43 0 70 8l2 -2zM823 893q41 0 69 -27.5t28 -68.5q0 -42 -30 -71t-68 -29.5t-72 26.5q-29 34 -28.5 72t29.5 68t72 30z" />
    <glyph glyph-name="uni2780" unicode="&#x2780;" horiz-adv-x="1646" 
d="M1321 174q-192 -192 -496 -192q-302 0 -497 192q-197 194 -197 494q0 299 197 493q198 195 497 195q301 0 496 -195q197 -194 197 -493q0 -300 -197 -494zM825 1311q-277 0 -460 -183t-183 -460q0 -278 183 -461q180 -180 460 -180q279 0 459 180q182 182 182 461
q0 278 -182 460q-183 183 -459 183zM588 758v172q160 0 225 114h141v-739h-174v543q-75 -87 -192 -90z" />
    <glyph glyph-name="uni2781" unicode="&#x2781;" horiz-adv-x="1619" 
d="M825 1356q298 0 496 -195q197 -194 197 -493q0 -300 -197 -494q-192 -192 -496 -192q-302 0 -497 192q-197 194 -197 494q0 299 197 493q198 195 497 195zM825 1311q-277 0 -460 -183t-183 -460q0 -278 183 -461q180 -180 460 -180q279 0 459 180q182 182 182 461
q0 278 -182 460q-183 183 -459 183zM942 565l-100 -98h237v-162h-489v117l225 242q48 53 57 67q27 36 27 72q0 94 -125 94q-95 0 -196 -55v168q121 47 229 47q124 0 197 -63t73 -169q0 -54 -24 -110.5t-49 -85.5z" />
    <glyph glyph-name="uni2782" unicode="&#x2782;" horiz-adv-x="1630" 
d="M817 1356q299 0 494 -195q196 -193 196 -493t-194 -494q-192 -192 -496 -192q-303 0 -498 192q-196 193 -196 494q0 300 196 493q198 195 498 195zM815 1311q-276 0 -459 -183q-182 -182 -182 -460q0 -281 180 -461t461 -180t461 180q182 182 182 461q0 278 -182 460
q-183 183 -461 183zM909 745q85 -12 135 -67t50 -139q0 -112 -86 -179t-228 -67q-119 0 -186 37v166q71 -39 170 -39q71 0 109 25t38 67q0 77 -100 80q-49 0 -94 -25l-76 113l182 164h-229v163h467v-159z" />
    <glyph glyph-name="uni2783" unicode="&#x2783;" horiz-adv-x="1619" 
d="M803 -18q-305 0 -500 192q-197 194 -197 494q0 299 197 493q198 195 500 195q295 0 493 -195q197 -194 197 -493q0 -300 -197 -494q-192 -192 -493 -192zM801 1311q-278 0 -461 -183q-182 -182 -182 -460q0 -279 182 -461q180 -180 461 -180q279 0 459 180
q182 182 182 461q0 278 -182 460q-183 183 -459 183zM483 426v149l240 469h264v-452h78v-166h-78v-121h-176v121h-328zM664 592h147v295z" />
    <glyph glyph-name="uni2784" unicode="&#x2784;" horiz-adv-x="1673" 
d="M819 1356q299 0 494 -195q196 -193 196 -493t-194 -494q-192 -192 -496 -192q-302 0 -497 192q-197 194 -197 494q0 299 197 493q198 195 497 195zM356 207q180 -180 461 -180q279 0 459 180q182 182 182 461q0 278 -182 460q-183 183 -459 183t-459 -183
q-182 -182 -182 -460q0 -281 180 -461zM799 295q-129 0 -205 43v158q118 -57 235 -45q119 15 119 108q0 41 -30.5 66.5t-79.5 25.5q-84 0 -125 -59l-127 29l55 423h438v-163h-293l-14 -90q46 18 111 18q108 0 176.5 -69t68.5 -175q0 -121 -90.5 -195.5t-238.5 -74.5z" />
    <glyph glyph-name="uni2785" unicode="&#x2785;" horiz-adv-x="1619" 
d="M813 1356q298 0 496 -195q196 -193 196 -493q0 -301 -196 -494q-192 -192 -496 -192q-303 0 -498 192q-196 193 -196 494q0 300 196 493q198 195 498 195zM813 1311q-278 0 -461 -183q-182 -182 -182 -460q0 -279 182 -461q180 -180 461 -180q279 0 459 180
q182 182 182 461q0 278 -182 460q-183 183 -459 183zM530 565q0 129 78 248l148 231h202l-176 -251v-2q34 12 72 12q99 0 164 -69.5t65 -178.5q0 -117 -77.5 -188.5t-202.5 -71.5q-122 0 -197.5 74.5t-75.5 195.5zM707 555q0 -41 28.5 -69.5t69.5 -28.5q43 0 72.5 28.5
t29.5 69.5q5 62 -47.5 87.5t-105 -0.5t-47.5 -87z" />
    <glyph glyph-name="uni2786" unicode="&#x2786;" horiz-adv-x="1619" 
d="M797 1356q298 0 493 -195q197 -194 197 -493t-195 -494q-192 -192 -495 -192t-498 192q-197 194 -197 494q0 299 197 493q198 195 498 195zM795 1311q-276 0 -459 -183q-182 -182 -182 -460q0 -281 180 -461t461 -180q280 0 460 180q183 183 183 461q0 277 -183 460
t-460 183zM553 758v286h539v-145q-75 -108 -123 -182q-44 -73 -88 -187q-44 -113 -47 -225h-183q3 275 234 576h-183v-123h-149z" />
    <glyph glyph-name="uni2787" unicode="&#x2787;" horiz-adv-x="1619" 
d="M809 1356q299 0 494 -195q196 -193 196 -493q0 -301 -196 -494q-192 -192 -494 -192q-303 0 -498 192q-196 193 -196 494q0 300 196 493q198 195 498 195zM807 1311q-276 0 -459 -183q-182 -182 -182 -460q0 -281 180 -461t461 -180t461 180q182 182 182 461
q0 278 -182 460q-183 183 -461 183zM967 717q57 -20 93 -72.5t36 -118.5q0 -108 -77.5 -168.5t-211.5 -60.5q-132 0 -208.5 62.5t-76.5 166.5q0 68 34.5 119.5t94.5 71.5q-94 49 -94 149q0 88 69.5 139.5t186.5 51.5q115 0 181.5 -52t66.5 -139q0 -112 -94 -149zM811 901
q-82 0 -82 -55q0 -60 84 -60q32 0 54 17t22 43q0 55 -78 55zM813 457q47 0 74.5 23.5t27.5 60.5q0 38 -28.5 61t-73.5 23q-53 0 -82 -23t-29 -61t30 -61t81 -23z" />
    <glyph glyph-name="uni2788" unicode="&#x2788;" horiz-adv-x="1619" 
d="M807 1356q298 0 493 -195q197 -194 197 -493q0 -300 -194 -494q-192 -192 -496 -192q-303 0 -498 192q-196 193 -196 494q0 300 196 493q198 195 498 195zM805 1311q-276 0 -459 -183q-182 -182 -182 -460q0 -281 180 -461t461 -180t461 180q182 182 182 461
q0 278 -182 460q-183 183 -461 183zM670 307l178 250l-2 2q-27 -8 -70 -8q-103 0 -167 67.5t-64 176.5q0 117 77.5 189.5t202.5 72.5q90 3 157 -42.5t96 -118.5t15.5 -169.5t-75.5 -187.5l-146 -232h-202zM920 797q0 41 -28 68.5t-69 27.5q-43 0 -72 -30t-29.5 -68t28.5 -72
q34 -27 72 -26.5t68 29.5t30 71z" />
    <glyph glyph-name="uni27A1" unicode="&#x27a1;" horiz-adv-x="1554" 
d="M926 57v230h-826v512h826v233l528 -487z" />
    <glyph glyph-name="uni2B05" unicode="&#x2b05;" horiz-adv-x="1554" 
d="M625 57l-525 488l525 487v-233h829v-512h-829v-230z" />
    <glyph glyph-name="uni2B06" unicode="&#x2b06;" horiz-adv-x="1126" 
d="M1047 866h-234v-866h-496v866h-235l481 535z" />
    <glyph glyph-name="uni2B07" unicode="&#x2b07;" horiz-adv-x="1118" 
d="M1040 516l-481 -534l-483 534h237v832h496v-832h231z" />
    <glyph glyph-name="uni3020" unicode="&#x3020;" horiz-adv-x="1998" 
d="M1704 1337v-166h-1407v166h1407zM918 434v479h-621v164h1407v-164h-621v-479h-165zM440 684h66q3 22 26 49l-38 58l53 36l41 -59q2 0 17 2t20 2q19 0 43 -6l43 61l55 -36l-43 -62q15 -21 22 -45h70v-63h-70q-11 -38 -44.5 -63.5t-75.5 -25.5q-43 0 -75.5 25t-43.5 64h-66
v63zM1489 621q-11 -55 -66 -76.5t-110 0t-66 76.5h-61v63h61q10 30 29 49l-39 58l53 36l43 -59q32 4 35 4q22 0 43 -6l45 61l53 -36l-45 -62q20 -26 25 -45h70v-63h-70zM1655 803q106 0 165.5 -64.5t59.5 -165.5q0 -87 -56 -149.5t-141 -73.5q-82 -155 -270 -250
q-187 -94 -412 -94q-228 0 -415 94q-186 94 -269 250q-85 7 -141.5 71.5t-56.5 151.5q0 101 60.5 165.5t166.5 64.5v-68q-61 0 -102 -45.5t-41 -116.5q0 -69 48 -116t132 -47q65 -144 233 -232q172 -88 385 -88q212 0 381 88q170 89 234 232q87 0 133.5 46.5t46.5 116.5
q0 71 -40 116.5t-101 45.5v68zM682 653q0 37 -29 52t-58.5 0t-29.5 -52q-4 -39 27.5 -55.5t63 0t26.5 55.5zM1368 590q26 0 41.5 17t15.5 46q0 27 -15.5 43.5t-41.5 16.5q-35 4 -49.5 -28t0 -64.5t49.5 -30.5zM1423 356q-173 -153 -422 -153t-421 153l53 68
q162 -137 368 -137q210 0 365 137z" />
    <glyph glyph-name="uniF8FF" unicode="&#xf8ff;" horiz-adv-x="1339" 
d="M874 1161q-33 -40 -84 -68.5t-90 -35.5l-32 -6q0 1 -1 14t-1.5 25.5t2.5 34.5t8.5 42.5t18 46.5t30.5 50q38 52 92.5 83t93.5 33l35 4q0 -1 2 -14.5t-0.5 -40t-13.5 -61.5q-17 -54 -60 -107zM463 0q-121 0 -242 207q-117 209 -117 422q0 188 103 303t233 115
q53 0 129 -31q82 -29 107 -29q27 0 106 31q76 33 152 33q92 0 157.5 -40t96.5 -83l8 -15q-2 0 -16 -9.5t-36.5 -31t-43.5 -50.5t-36.5 -74.5t-16.5 -96.5q0 -179 165 -274l21 -8q-19 -58 -53 -127q-25 -60 -62 -113q-36 -52 -88 -89.5t-104 -37.5q-38 0 -111 27
q-76 28 -119 28q-46 0 -125 -28q-82 -29 -108 -29z" />
    <glyph glyph-name="NULL" 
 />
    <glyph glyph-name="CR" horiz-adv-x="681" 
 />
    <glyph glyph-name="R.001" horiz-adv-x="1308" 
d="M1018 485l246 -485h-349l-204 434h-281v-434h-313v1337h647q232 0 364 -123.5t132 -328.5q0 -132 -65.5 -238.5t-176.5 -161.5zM729 700q92 0 145.5 47t53.5 123q0 170 -197 170h-301v-340h299z" />
    <glyph glyph-name="G.ss02" horiz-adv-x="1495" 
d="M737 770h676v-770h-242l-22 147q-63 -78 -178 -121.5t-256 -43.5q-294 0 -475 184q-181 187 -181 483q0 318 220 514q220 193 585 193q244 0 418 -74v-297q-168 80 -387 80q-238 0 -372 -111.5t-134 -304.5q0 -173 107 -275t286 -102q149 0 250 64.5t121 175.5h-416v258z
" />
    <glyph glyph-name="i.loclTRK" horiz-adv-x="620" 
d="M455 1130q-52 -49 -144 -49q-91 0 -143 49q-51 48 -51 123q0 76 51 121q53 47 143 47q91 0 144 -47q51 -45 51 -121q0 -75 -51 -123zM162 0v979h297v-979h-297z" />
    <glyph glyph-name="g.ss02" horiz-adv-x="1040" 
d="M487 -387q-220 0 -336 67.5t-116 190.5t112 178q-61 55 -61 141q0 62 30.5 114t84.5 81q-146 90 -146 268q0 160 122 252t335 92q118 0 207 -30q133 21 291 133v-246q-70 -26 -142 -29q64 -70 64 -188q0 -154 -124 -239t-349 -85q-40 0 -115 11q-35 -15 -35 -50
q0 -53 92 -53h267q161 0 246 -72.5t85 -199.5q0 -157 -138.5 -246.5t-373.5 -89.5zM498 545q67 0 105 30.5t38 81.5q0 50 -39 79.5t-102 29.5q-67 0 -108.5 -30.5t-41.5 -80.5q0 -49 42 -79.5t106 -30.5zM487 -156q211 0 211 84q0 56 -73 56h-301q-43 -21 -43 -58
q0 -82 206 -82z" />
    <glyph glyph-name="j.ss02" horiz-adv-x="514" 
d="M256 1083q-92 0 -142.5 44t-50.5 118q0 69 51.5 112.5t141.5 43.5t142.5 -43.5t52.5 -112.5q0 -73 -52 -117.5t-143 -44.5zM104 -369v1348h295v-1348h-295z" />
    <glyph glyph-name="u.ss02" horiz-adv-x="1126" 
d="M96 418v561h297v-563q0 -85 45.5 -129.5t126.5 -44.5t125.5 46.5t44.5 127.5v563h297v-561q0 -203 -126 -319.5t-341 -116.5q-219 0 -344 118t-125 318z" />
    <glyph glyph-name="uacute.ss02" horiz-adv-x="1126" 
d="M563 1051l-104 172l559 366l117 -200zM96 418v561h297v-563q0 -85 45.5 -129.5t126.5 -44.5t125.5 46.5t44.5 127.5v563h297v-561q0 -203 -126 -319.5t-341 -116.5q-219 0 -344 118t-125 318z" />
    <glyph glyph-name="ucircumflex.ss02" horiz-adv-x="1126" 
d="M106 1202l375 383h170l375 -383l-156 -155l-305 335l-305 -335zM96 418v561h297v-563q0 -85 45.5 -129.5t126.5 -44.5t125.5 46.5t44.5 127.5v563h297v-561q0 -203 -126 -319.5t-341 -116.5q-219 0 -344 118t-125 318z" />
    <glyph glyph-name="udieresis.ss02" horiz-adv-x="1126" 
d="M336 1421q92 0 143 -46.5t51 -121.5q0 -76 -52 -124t-142 -48t-141.5 48t-51.5 124q0 75 51.5 121.5t141.5 46.5zM793 1081q-90 0 -140.5 48t-50.5 124q0 75 50.5 121.5t140.5 46.5q92 0 143 -46.5t51 -121.5q0 -76 -51.5 -124t-142.5 -48zM96 418v561h297v-563
q0 -85 45.5 -129.5t126.5 -44.5t125.5 46.5t44.5 127.5v563h297v-561q0 -203 -126 -319.5t-341 -116.5q-219 0 -344 118t-125 318z" />
    <glyph glyph-name="ugrave.ss02" horiz-adv-x="1126" 
d="M565 1051l-571 338l117 200l559 -366zM96 418v561h297v-563q0 -85 45.5 -129.5t126.5 -44.5t125.5 46.5t44.5 127.5v563h297v-561q0 -203 -126 -319.5t-341 -116.5q-219 0 -344 118t-125 318z" />
    <glyph glyph-name="uhungarumlaut.ss02" horiz-adv-x="1126" 
d="M342 1053l-133 151l485 469l150 -174zM788 1053l-126 153l507 449l140 -180zM96 418v561h297v-563q0 -85 45.5 -129.5t126.5 -44.5t125.5 46.5t44.5 127.5v563h297v-561q0 -203 -126 -319.5t-341 -116.5q-219 0 -344 118t-125 318z" />
    <glyph glyph-name="umacron.ss02" horiz-adv-x="1126" 
d="M186 1112v231h756v-231h-756zM96 418v561h297v-563q0 -85 45.5 -129.5t126.5 -44.5t125.5 46.5t44.5 127.5v563h297v-561q0 -203 -126 -319.5t-341 -116.5q-219 0 -344 118t-125 318z" />
    <glyph glyph-name="uogonek.ss02" horiz-adv-x="1126" 
d="M735 979h297v-561q0 -178 -98.5 -291t-271.5 -139q-95 -35 -95 -111q0 -72 80 -72q18 0 64 11v-158q-50 -16 -109 -16q-97 0 -153 49.5t-56 130.5q0 96 76 166q-178 26 -275.5 139t-97.5 291v561h297v-563q0 -85 45.5 -129.5t126.5 -44.5t125.5 46.5t44.5 127.5v563z" />
    <glyph glyph-name="uring.ss02" horiz-adv-x="1126" 
d="M381 1051q-74 71 -74 176t74 176q76 70 186 70q112 0 185 -70t73 -176t-73 -176t-185 -70q-110 0 -186 70zM492 1298q-29 -29 -29 -71.5t29 -73.5q31 -29 75.5 -29t73.5 29q29 31 29 73.5t-29 71.5q-29 31 -73.5 31t-75.5 -31zM96 418v561h297v-563q0 -85 45.5 -129.5
t126.5 -44.5t125.5 46.5t44.5 127.5v563h297v-561q0 -203 -126 -319.5t-341 -116.5q-219 0 -344 118t-125 318z" />
    <glyph glyph-name="f.ss03" horiz-adv-x="815" 
d="M795 1382v-252h-269v-151h269v-250h-269v-729h-299v729h-209v250h209v403h568z" />
    <glyph glyph-name="m.ss03" horiz-adv-x="1650" 
d="M1556 979v-979h-296v729h-283v-729h-297v729h-281v-729h-295v979h1452z" />
    <glyph glyph-name="n.ss03" horiz-adv-x="1136" 
d="M1040 979v-979h-297v729h-344v-729h-295v979h936z" />
    <glyph glyph-name="r.ss03" horiz-adv-x="759" 
d="M141 0v979h590v-250h-295v-729h-295z" />
    <glyph glyph-name="t.ss03" horiz-adv-x="841" 
d="M227 0v729h-209v250h209v293h297v-293h271v-250h-271v-477h271v-252h-568z" />
    <glyph glyph-name="u.ss03" horiz-adv-x="1126" 
d="M735 979h297v-979h-936v979h297v-727h342v727z" />
    <glyph glyph-name="y.ss03" horiz-adv-x="1114" 
d="M793 979h311l-408 -916v-432h-295v432l-391 916h316l227 -578z" />
    <glyph glyph-name="f_f.ss03" horiz-adv-x="1556" 
d="M1536 1130h-268v-151h268v-250h-268v-729h-299v729h-443v-729h-299v729h-209v250h209v403h568v-252h-269v-151h443v403h567v-252z" />
    <glyph glyph-name="f_t.ss03" horiz-adv-x="1566" 
d="M1536 729h-272v-477h272v-252h-569v729h-441v-729h-299v729h-209v250h209v403h568v-252h-269v-151h441v293h297v-293h272v-250z" />
    <glyph glyph-name="fi.ss03" horiz-adv-x="1419" 
d="M1313 1245q0 -73 -51 -117.5t-142 -44.5q-92 0 -142 44t-50 118q0 69 51 112.5t141 43.5t141.5 -43.5t51.5 -112.5zM1270 979v-979h-299v729h-434v-729h-299v729h-207v250h207v403h569v-252h-270v-151h733z" />
    <glyph glyph-name="zero.osf" horiz-adv-x="999" 
d="M500 -18q-211 0 -330 137q-121 139 -121 364q0 224 121 369q124 145 330 145q208 0 329 -145t121 -369q0 -225 -121 -364q-119 -137 -329 -137zM641 483q0 269 -141 269q-142 0 -142 -260q0 -265 142 -265q141 0 141 256z" />
    <glyph glyph-name="one.osf" horiz-adv-x="808" 
d="M102 786q213 27 312 193h231v-979h-291v659q-83 -114 -252 -149v276z" />
    <glyph glyph-name="two.osf" horiz-adv-x="872" 
d="M502 246h274v-246h-702v166l262 268l39 39l15 19q16 20 20 26q41 54 41 109q0 57 -40.5 91t-109.5 34q-109 0 -219 -72v256q122 61 293 61q184 0 286.5 -90t102.5 -254q0 -67 -34 -139.5t-73 -114.5l-84 -84z" />
    <glyph glyph-name="three.osf" horiz-adv-x="1032" 
d="M610 428q159 -17 253.5 -119t94.5 -256q0 -198 -151 -319t-406 -121q-201 0 -340 65v287q139 -71 312 -71q134 0 205 47.5t71 130.5q0 73 -51.5 113t-144.5 40q-93 3 -170 -39l-125 193l342 323h-437v277h838v-270z" />
    <glyph glyph-name="four.osf" horiz-adv-x="1150" 
d="M961 147h141v-280h-141v-238h-302v238h-602v260l449 854h455v-834zM365 147h294v580z" />
    <glyph glyph-name="five.osf" horiz-adv-x="1105" 
d="M598 537q194 0 320 -123q126 -120 126 -316q0 -220 -161 -350q-159 -135 -426 -135q-224 0 -367 76v274q151 -74 336 -74q146 0 226.5 53.5t80.5 147.5q0 82 -53.5 129t-149.5 47q-157 0 -245 -104l-209 47l100 770h785v-277h-537l-29 -210q71 45 203 45z" />
    <glyph glyph-name="six.osf" horiz-adv-x="1126" 
d="M53 467q0 65 15 127q18 76 34 113q27 64 45 94q5 10 10.5 19t8.5 14.5t4 7.5q0 2 23 39l20 30l258 426h352l-323 -458l2 -5q54 23 123 23q191 0 313 -125q123 -123 123 -319q0 -208 -141 -340q-141 -129 -371 -129q-220 0 -359 133q-137 131 -137 350zM369 451
q0 -83 51 -137t135 -54q85 0 140 54t55 139t-54 138.5t-139 53.5t-136.5 -53t-51.5 -141z" />
    <glyph glyph-name="seven.osf" horiz-adv-x="1083" 
d="M1026 979v-250q-90 -126 -160 -233q-60 -97 -139 -246q-161 -302 -170 -619h-317q12 522 444 1071h-367v-233h-258v510h967z" />
    <glyph glyph-name="eight.osf" horiz-adv-x="1124" 
d="M850 739q106 -38 168.5 -131.5t62.5 -214.5q0 -191 -139 -301t-375 -110q-237 0 -374.5 112t-137.5 299q0 125 63.5 219t172.5 129q-172 79 -172 271q0 160 122 252t330 92q209 0 329 -92.5t120 -249.5q0 -94 -45 -167t-125 -108zM418 977q0 -55 40.5 -86t110.5 -31
q73 0 112.5 31t39.5 86t-40.5 85t-113.5 30q-71 0 -110 -31.5t-39 -83.5zM569 258q92 0 146.5 44t54.5 118q0 75 -55 119.5t-146 44.5q-93 0 -146.5 -45t-53.5 -119q0 -75 54.5 -118.5t145.5 -43.5z" />
    <glyph glyph-name="nine.osf" horiz-adv-x="1126" 
d="M1067 512q0 -215 -149 -444l-277 -437h-350l332 471l-2 4q-55 -22 -125 -22q-191 0 -314 123t-123 321q0 208 142 338q143 131 370 131q223 0 359 -133q137 -131 137 -352zM756 530q0 82 -53.5 135.5t-137.5 53.5t-138 -54.5t-54 -136.5q0 -85 54 -139.5t140 -54.5
q82 0 135.5 55t53.5 141z" />
    <glyph glyph-name="zero.ss02" horiz-adv-x="1212" 
d="M98 670q0 330 131 508t375 178q246 0 379 -179t133 -507q0 -331 -133.5 -509.5t-378.5 -178.5q-244 0 -375 178t-131 510zM604 254q201 0 201 414q0 413 -201 413q-194 0 -194 -409q0 -418 194 -418zM606 555q-52 0 -85.5 33t-33.5 88q0 51 34 83t85 32q54 0 87.5 -32
t33.5 -83q0 -55 -33.5 -88t-87.5 -33z" />
    <glyph glyph-name="one.ss02" horiz-adv-x="856" 
d="M123 860v285l379 192h209v-1337h-308v1014z" />
    <glyph glyph-name="zero.tf" horiz-adv-x="1228" 
d="M618 1356q247 0 375.5 -181.5t128.5 -506.5q0 -337 -134.5 -511.5t-377.5 -174.5q-247 0 -376.5 183t-129.5 509q0 333 135.5 507.5t378.5 174.5zM618 1079q-101 0 -145.5 -92.5t-46.5 -281.5l358 202q-23 94 -62.5 133t-103.5 39zM610 258q103 0 148 93t47 282
l-359 -203q20 -93 60 -132.5t104 -39.5z" />
    <glyph glyph-name="one.tf" horiz-adv-x="1228" 
d="M793 279h311v-279h-983v279h368v720q-52 -69 -145.5 -115.5t-191.5 -47.5v292q281 6 401 209h240v-1058z" />
    <glyph glyph-name="two.tf" horiz-adv-x="1228" 
d="M788 473l-190 -197h420v-276h-848v201l375 415l55 60l25 29q15 16 41 57q14 21 28 61q13 33 13 72q0 91 -63 138.5t-175 47.5q-170 0 -313 -98v285q158 88 376 88q226 0 357 -116t131 -318q0 -122 -55.5 -223.5t-176.5 -225.5z" />
    <glyph glyph-name="three.tf" horiz-adv-x="1228" 
d="M717 797q156 -17 251 -119t95 -256q0 -200 -152 -322q-147 -118 -407 -118q-204 0 -340 65v287q141 -72 311 -72q133 0 204 47.5t71 130.5q0 73 -52 114.5t-143 43.5q-93 0 -170 -41l-125 195l336 309h-432v276h835v-272z" />
    <glyph glyph-name="four.tf" horiz-adv-x="1228" 
d="M993 504h142v-281h-142v-223h-301v223h-600v260l447 854h454v-833zM399 504h293v575z" />
    <glyph glyph-name="five.tf" horiz-adv-x="1228" 
d="M653 905q194 0 320 -123q125 -119 125 -313q0 -218 -162 -352q-160 -133 -426 -133q-226 0 -367 75v275q154 -74 336 -74q146 0 226.5 53.5t80.5 147.5q0 82 -53 129t-149 47q-152 0 -246 -105l-211 48l102 757h785v-276h-533l-32 -199q76 43 204 43z" />
    <glyph glyph-name="six.tf" horiz-adv-x="1228" 
d="M111 467q0 98 32 190q34 98 56 140l71 114l258 426h353l-324 -458v-5q57 23 123 23q193 0 315 -125q123 -123 123 -319q0 -208 -141 -340q-141 -129 -371 -129q-221 0 -360 133q-135 132 -135 350zM424 451q0 -83 52 -137t136 -54q85 0 139 54t54 139t-54 138.5
t-139 53.5t-136.5 -53t-51.5 -141z" />
    <glyph glyph-name="seven.tf" horiz-adv-x="1228" 
d="M1098 1337v-250q-19 -28 -63.5 -91t-61.5 -89q-50 -77 -119 -194q-80 -143 -113 -226q-103 -250 -112 -487h-316q12 513 443 1061h-367v-234h-258v510h967z" />
    <glyph glyph-name="eight.tf" horiz-adv-x="1228" 
d="M897 739q106 -38 167.5 -131t61.5 -215q0 -191 -139 -301t-375 -110q-237 0 -373.5 111.5t-136.5 299.5q0 124 64 218.5t170 129.5q-172 79 -172 271q0 160 123 252t331 92t328.5 -93t120.5 -249q0 -93 -45.5 -166t-124.5 -109zM614 1092q-73 0 -112 -30.5t-39 -84.5
q0 -55 40.5 -86t110.5 -31q73 0 113.5 31.5t40.5 85.5q0 55 -42 85t-112 30zM614 258q93 0 148 44t55 118q0 75 -56 119.5t-147 44.5q-92 0 -146 -45t-54 -119q0 -75 54.5 -118.5t145.5 -43.5z" />
    <glyph glyph-name="nine.tf" horiz-adv-x="1228" 
d="M1118 870q0 -143 -69 -288q-3 -7 -48 -86q-3 -5 -13.5 -22t-19.5 -31t-10 -17l-258 -426h-352l324 459v4q-58 -23 -125 -23q-191 0 -314 123q-122 125 -122 322q0 209 141 338q140 131 371 131q222 0 358 -133q137 -131 137 -351zM805 887q0 84 -53.5 137t-135.5 53
q-85 0 -138.5 -53.5t-53.5 -138.5q0 -84 53 -140q55 -55 139 -55q83 0 136 53q53 56 53 144z" />
    <glyph glyph-name="zero.tf.ss02" horiz-adv-x="1228" 
d="M612 1356q246 0 379 -179t133 -507q0 -331 -133.5 -509.5t-378.5 -178.5t-376.5 178.5t-131.5 509.5q0 330 132 508t376 178zM612 1081q-172 0 -190 -305h387q-21 305 -197 305zM612 254q176 0 197 309h-387q21 -309 190 -309z" />
    <glyph glyph-name="one.tf.ss02" horiz-adv-x="1181" 
d="M756 279h346v-279h-1022v279h371v593h-299v261h135q209 0 209 167v37h260v-1058z" />
    <glyph glyph-name="zero.dnom" horiz-adv-x="897" 
d="M446 -12q-169 0 -257.5 124t-88.5 343q0 227 93 345t258 118q169 0 257.5 -123.5t88.5 -341.5q0 -227 -93 -346t-258 -119zM446 184q123 0 123 258q0 155 -29 217t-89 62q-67 0 -95 -64t-28 -196q0 -156 28 -216.5t90 -60.5z" />
    <glyph glyph-name="one.dnom" horiz-adv-x="665" 
d="M72 555v209q195 3 276 139h172v-903h-215v666q-37 -48 -102.5 -79.5t-130.5 -31.5z" />
    <glyph glyph-name="two.dnom" horiz-adv-x="813" 
d="M424 199h291v-199h-600v141l278 295q55 55 75 87.5t26 86.5q0 113 -152 113q-119 0 -240 -68v203q138 60 279 60q153 0 241.5 -76.5t88.5 -206.5q0 -65 -29 -132.5t-61 -105.5q-32 -36 -74 -78z" />
    <glyph glyph-name="three.dnom" horiz-adv-x="813" 
d="M485 539q103 -12 165.5 -81t62.5 -171q0 -136 -104.5 -217.5t-278.5 -81.5q-140 0 -230 43v205q95 -50 209 -50q85 0 132.5 30.5t47.5 82.5q0 69 -75 91.5t-164 -21.5l-90 139l223 201h-283v194h570v-192z" />
    <glyph glyph-name="four.dnom" horiz-adv-x="913" 
d="M719 348h94v-201h-94v-147h-215v147h-404v185l293 571h326v-555zM319 348h185v369z" />
    <glyph glyph-name="five.dnom" horiz-adv-x="868" 
d="M362 -10q-156 0 -245 51v195q157 -78 282 -58q68 7 108 44t40 89q0 50 -38 82.5t-99 32.5q-102 0 -152 -74l-156 35l68 516h537v-194h-359l-20 -113q71 22 139 22q132 0 215 -83q86 -83 86 -218q0 -148 -111 -237.5t-295 -89.5z" />
    <glyph glyph-name="six.dnom" horiz-adv-x="880" 
d="M100 319q0 152 101 306l178 278h248l-217 -305v-2q46 14 88 14q123 0 202.5 -85t79.5 -218q0 -141 -95 -229t-249 -88q-150 0 -243 91t-93 238zM319 307q0 -51 34 -86t85 -35q54 0 89.5 35t35.5 86q0 54 -35.5 89.5t-89.5 35.5q-51 0 -85 -35.5t-34 -89.5z" />
    <glyph glyph-name="seven.dnom" horiz-adv-x="858" 
d="M760 903v-174q-100 -143 -148 -221q-42 -66 -108 -232q-57 -148 -60 -276h-223q3 336 293 709h-229v-156h-185v350h660z" />
    <glyph glyph-name="eight.dnom" horiz-adv-x="917" 
d="M653 500q72 -26 115 -89.5t43 -142.5q0 -130 -96 -205t-258 -75q-163 0 -257 76t-94 204q0 82 43.5 146t116.5 90q-116 52 -116 180q0 106 86 170t227 64q140 0 222.5 -64.5t82.5 -171.5q0 -62 -30.5 -110.5t-84.5 -71.5zM461 729q-46 0 -72.5 -19.5t-26.5 -50.5
q0 -34 28 -53.5t73 -19.5q59 -4 83 34.5t-1 76.5t-84 32zM463 184q59 0 93 28t34 73q0 49 -35 76.5t-92 27.5q-62 0 -97.5 -28t-35.5 -76q0 -47 35.5 -74t97.5 -27z" />
    <glyph glyph-name="nine.dnom" horiz-adv-x="882" 
d="M780 586q0 -143 -98 -305l-178 -281h-252l219 307v2q-35 -12 -86 -12q-124 0 -204.5 83.5t-80.5 217.5q0 136 97 227q96 90 247 90q150 0 243 -91t93 -238zM563 598q0 51 -35 85t-86 34q-54 0 -88.5 -34t-34.5 -85q0 -54 33.5 -89.5t87.5 -35.5t88.5 35.5t34.5 89.5z" />
    <glyph glyph-name="zero.numr" horiz-adv-x="897" 
d="M446 420q-169 0 -257.5 124t-88.5 343q0 225 93.5 344t257.5 119q169 0 257.5 -123.5t88.5 -341.5q0 -227 -93 -346t-258 -119zM446 616q123 0 123 258q0 155 -29 217t-89 62q-67 0 -95 -64t-28 -196q0 -156 28 -216.5t90 -60.5z" />
    <glyph glyph-name="one.numr" horiz-adv-x="681" 
d="M72 987v209q194 3 276 141h172v-905h-215v666q-37 -48 -102.5 -79.5t-130.5 -31.5z" />
    <glyph glyph-name="two.numr" horiz-adv-x="813" 
d="M424 631h291v-199h-600v141l278 295q39 39 55 59.5t29 49.5q17 34 17 63q0 115 -152 115q-125 0 -240 -68v203q138 60 279 60q153 0 241.5 -76.5t88.5 -206.5q0 -65 -29 -132.5t-61 -105.5q-24 -27 -74 -77z" />
    <glyph glyph-name="three.numr" horiz-adv-x="813" 
d="M485 971q103 -13 165.5 -82.5t62.5 -169.5q0 -136 -104.5 -217.5t-278.5 -81.5q-140 0 -230 43v205q89 -47 209 -47q180 0 180 110q0 47 -33 72.5t-89 25.5t-117 -28l-90 137l223 203h-283v196h570v-194z" />
    <glyph glyph-name="four.numr" horiz-adv-x="913" 
d="M719 780h94v-200h-94v-148h-215v148h-404v184l293 573h326v-557zM319 780h185v371z" />
    <glyph glyph-name="five.numr" horiz-adv-x="854" 
d="M362 422q-159 0 -245 51v195q143 -76 282 -58q68 7 108 44t40 89q0 50 -38 81.5t-99 31.5q-105 0 -152 -74l-156 37l68 518h537v-196h-359l-20 -113q71 23 139 23q131 0 216 -85.5t85 -215.5q0 -148 -111.5 -238t-294.5 -90z" />
    <glyph glyph-name="six.numr" horiz-adv-x="880" 
d="M100 752q0 151 101 305l178 280h248l-217 -307v-2q46 14 88 14q123 0 202.5 -85t79.5 -218q0 -141 -95 -229t-249 -88q-150 0 -243 91.5t-93 238.5zM319 737q0 -50 34 -84.5t85 -34.5q54 0 89.5 35t35.5 86q0 54 -35.5 89.5t-89.5 35.5q-51 0 -85 -36t-34 -91z" />
    <glyph glyph-name="seven.numr" horiz-adv-x="858" 
d="M760 1337v-176l-109 -164q-33 -51 -94 -161q-104 -195 -113 -404h-223q3 336 293 709h-229v-156h-185v352h660z" />
    <glyph glyph-name="eight.numr" horiz-adv-x="917" 
d="M653 932q72 -26 115 -89.5t43 -144.5q0 -130 -96 -204t-258 -74q-163 0 -257 76t-94 202q0 84 43 148t117 90q-116 52 -116 180q0 106 86 170t227 64q140 0 222.5 -64.5t82.5 -171.5q0 -62 -30.5 -110.5t-84.5 -71.5zM461 1161q-47 0 -73 -19t-26 -50q0 -35 28 -54.5
t73 -19.5q59 -4 83 34.5t-1 76.5t-84 32zM463 616q59 0 93 28t34 73q0 49 -35 76.5t-92 27.5q-62 0 -97.5 -28t-35.5 -76q0 -47 35.5 -74t97.5 -27z" />
    <glyph glyph-name="nine.numr" horiz-adv-x="882" 
d="M780 1020q0 -143 -98 -305l-178 -281h-252l219 305v2q-38 -10 -86 -10q-124 0 -204.5 83.5t-80.5 215.5q0 139 97 230q96 90 247 90q150 0 243 -91.5t93 -238.5zM563 1032q0 50 -35 84.5t-86 34.5q-40 4 -70.5 -18t-43.5 -55t-7.5 -71.5t31.5 -66.5q25 -28 63.5 -33.5
t72 8t56.5 45.5t19 72z" />
    <glyph glyph-name="question.ss01" horiz-adv-x="911" 
d="M248 457q-9 99 31 178q43 87 153 209q56 59 73 87.5t17 65.5q0 80 -123 80h-325v260h413q159 0 256 -76.5t97 -203.5q0 -50 -21 -119q-1 -9 -17.5 -37t-17.5 -31q-8 -13 -51 -67l-31 -39l-32 -39l-60 -70q-30 -32 -47 -55q-5 -6 -24 -41q-16 -24 -20.5 -45t-4.5 -57h-266
zM516 35q-53 -53 -135 -53q-81 0 -137 53q-56 56 -56 141q0 86 56 139q56 56 137 56q82 0 135 -56q55 -52 55 -139q0 -86 -55 -141z" />
    <glyph glyph-name="questiondown.ss01" horiz-adv-x="860" 
d="M508 1153q85 0 137.5 -54.5t52.5 -142.5q0 -86 -52.5 -139t-137.5 -53q-83 0 -138 53.5t-55 138.5q0 86 55.5 141.5t137.5 55.5zM639 676q9 -109 -29 -182q-45 -84 -151 -199q-54 -57 -73 -89.5t-19 -68.5q0 -46 28.5 -64t93.5 -18h326v-258h-418q-156 0 -252 77t-96 204
q0 55 9 92.5t38 81.5q25 38 47 65q9 13 74 91q7 7 57 65l48 55q17 22 26 39q24 40 27 109h264z" />
    <glyph glyph-name="slash.ss01" horiz-adv-x="3309" 
d="M0 217l3310 1139v-236l-3310 -1138v235z" />
    <glyph glyph-name="backslash.ss01" horiz-adv-x="3309" 
d="M3310 217v-235l-3310 1138v236z" />
    <glyph glyph-name="braceleft.case" horiz-adv-x="940" 
d="M86 492v305q105 0 153 39.5t48 126.5v329q0 150 70.5 231t234.5 81h246v-267h-160q-59 0 -85 -19t-26 -73v-332q0 -118 -36 -179t-125 -87v-6q88 -24 124.5 -87t36.5 -179v-328q0 -54 24 -74t87 -20h160v-266h-246q-158 0 -231.5 75t-73.5 236v328q0 90 -47.5 128
t-153.5 38z" />
    <glyph glyph-name="braceright.case" horiz-adv-x="942" 
d="M854 492q-105 0 -152 -38t-47 -128v-328q0 -155 -70.5 -233t-234.5 -78h-248v264h162q59 0 85 20.5t26 75.5v330q0 118 38 179.5t124 84.5v6q-87 25 -124.5 86t-37.5 182v328q0 54 -24.5 75t-86.5 21h-162v265h248q155 0 230 -77t75 -237v-325q0 -89 47.5 -127.5
t151.5 -38.5v-307z" />
    <glyph glyph-name="guillemotleft.case" horiz-adv-x="1081" 
d="M96 604l223 393h256l-206 -393l206 -393h-256zM537 604l223 393h256l-205 -393l205 -393h-256z" />
    <glyph glyph-name="guillemotright.case" horiz-adv-x="1083" 
d="M545 604l-223 -393h-256l204 393l-204 393h256zM985 604l-223 -393h-254l205 393l-205 393h254z" />
    <glyph glyph-name="guilsinglleft.case" horiz-adv-x="641" 
d="M111 604q142 195 225 393h254q-68 -192 -205 -393q137 -201 205 -393h-254q-83 198 -225 393z" />
    <glyph glyph-name="guilsinglright.case" horiz-adv-x="641" 
d="M530 604q-150 -211 -223 -393h-256q68 192 205 393q-137 201 -205 393h256q73 -182 223 -393z" />
    <glyph glyph-name="greater.case" horiz-adv-x="1032" 
d="M166 98v283q130 85 424 221q-287 135 -424 221v283q266 -187 702 -401v-207q-419 -202 -702 -400z" />
    <glyph glyph-name="less.case" horiz-adv-x="1032" 
d="M868 98q-307 211 -702 400v207q437 213 702 401v-283q-147 -93 -426 -221q279 -130 426 -221v-283z" />
    <glyph glyph-name="ampersand.ss01" horiz-adv-x="1527" 
d="M1460 741l-219 -436l209 -305h-360l-60 84q-137 -107 -362 -107q-239 0 -381 127q-140 128 -140 332q0 167 93.5 282t244.5 148l-131 189v282h830v-268h-465l348 -516l86 188h307zM459 469q0 -92 62 -148.5t171 -56.5q106 0 182 49l-251 355q-76 -17 -120 -69.5
t-44 -129.5z" />
    <glyph glyph-name="registered.ss03" horiz-adv-x="1284" 
d="M641 229q-251 0 -422 160q-166 159 -166 404q0 244 166 403q171 160 422 160q252 0 420 -160q168 -158 168 -403t-166 -404q-168 -160 -422 -160zM641 307q217 0 356 133q142 136 142 353q0 213 -140 350q-137 137 -358 137q-217 0 -358 -135q-140 -137 -140 -357
q0 -215 142 -348t356 -133zM776 729q28 -17 60 -72l96 -161h-156l-98 155q-19 30 -36.5 39.5t-55.5 9.5h-54v-204h-139v616h295q107 0 168.5 -55.5t61.5 -147.5q0 -142 -142 -180zM672 815q47 0 74.5 24.5t27.5 65.5q0 82 -100 82h-142v-172h140z" />
    </font>
</defs>
</svg>
