<?xml version="1.0" encoding="utf-8"?>
<!-- Generator: Adobe Illustrator 17.1.0, SVG Export Plug-In . SVG Version: 6.00 Build 0)  -->
<!DOCTYPE svg PUBLIC "-//W3C//DTD SVG 1.1//EN" "http://www.w3.org/Graphics/SVG/1.1/DTD/svg11.dtd">
<svg version="1.1" id="Layer_1" xmlns="http://www.w3.org/2000/svg" xmlns:xlink="http://www.w3.org/1999/xlink" x="0px" y="0px"
	 viewBox="75 75 150 150" enable-background="new 75 75 150 150" xml:space="preserve">
<g>
	<path d="M203.5,158.5c0.8-0.3,0.8-1.5,0.1-1.9c-0.4-0.3-0.9-0.4-1.3-0.3c-0.4,0.1-0.7,0.4-0.8,0.7l0,0c0,0.1-0.1,0.1-0.1,0.3
		C201.4,158.4,202.9,158.9,203.5,158.5z M202.5,157.1C202.5,157.1,202.6,157.1,202.5,157.1c0.1,0,0.3,0,0.3,0s0,0-0.1,0
		c0,0,0,0,0.1,0s0.1-0.1,0.3-0.1c0.1,0.3,0.1,0.7-0.1,1.1c-0.1,0.1-0.1,0.3-0.3,0.3c0-0.1-0.1-0.1-0.1-0.3c-0.1-0.1-0.1-0.4-0.1-0.5
		C202.5,157.3,202.5,157.2,202.5,157.1z"/>
	<path d="M201.9,155.6c0.5,0.1,1.3,0.3,1.6-0.4c0.4-1.2-1.7-1.9-2.3-0.9c0,0,0.1,0.1,0.3,0.1c-0.1,0.1-0.1,0.3-0.1,0.4
		C201.3,155.2,201.7,155.5,201.9,155.6z M201.8,154.5C201.8,154.5,201.9,154.5,201.8,154.5c0.3-0.1,0.4-0.1,0.5-0.3
		c0.1,0.3,0.1,0.4,0.1,0.7c0,0.1-0.1,0.3-0.1,0.3l-0.1,0.1c0,0,0,0-0.1,0s0,0,0,0C201.8,155.1,201.8,154.8,201.8,154.5z"/>
	<path d="M205.1,155.1c0.5-0.1,0.8-0.7,0.7-1.1c-0.1-0.4-0.7-0.7-1.1-0.7c-0.7-0.3-1.2,0.1-1.2,0.8
		C203.5,154.8,204.6,155.1,205.1,155.1z M204.6,154.7c-0.1-0.1-0.1-0.3-0.3-0.4s-0.1-0.7,0-0.9c0.1,0,0.3,0.1,0.4,0.1h0.1
		c0.1,0.1,0.1,0.3,0.1,0.4C205,154.1,204.9,154.4,204.6,154.7L204.6,154.7z"/>
	<path d="M173.5,162.8c0,0.1,0,0.1,0,0.3c-1.2,0-2.1,0.1-3.3,0.1c-0.7,0-1.2,0-1.9,0c0-0.4-0.5-0.5-0.8-0.5
		c-0.3-0.1-1.9-0.3-2.8-0.1c-0.3-0.5-0.5-1.2-1.1-1.6c0.3,0,0.5-0.1,0.1-0.3c-1.7-0.7-3.2-1.3-5.2-1.5c-1.7-0.1-3.9,0.3-5.5,1.1l0,0
		c0,0.1,0,0.3,0,0.4l0.1,0.1c-0.1,0.3-0.4,0.5-0.5,0.8c-0.1,0.1-0.3,0.4-0.4,0.7c-0.3,0-0.5,0-0.8,0s-0.5,0.1-0.9,0.1
		c-0.1,0-0.4,0-0.5,0.1c-0.3,0.1-0.3,0.3-0.3,0.4c-0.4,0-0.9,0-1.3,0c-1.2,0-2.5-0.1-3.7-0.3c-0.5,0-1.2-0.1-1.7,0.1h-0.1l0,0
		c0,0,0,0-0.1,0c0,0,0,0,0,0.1c-1.2,2.1-1.2,5.2-1.1,7.6c0.1,1.3,0.4,2.5,1.1,3.6c0.3,2.4-0.3,4.8-0.4,7.1c-0.1,1.5,0.1,3.1,1.6,3.9
		c1.3,0.8,3.2,0.5,4.7,0.4c2.8-0.1,5.6-0.1,8.4-0.1c2.8,0.1,5.7,0.1,8.5,0.1c2.3,0,4.8,0.5,6.9,0c2.1-0.5,2-2.8,1.9-4.4
		c-0.1-2.4-0.7-4.9-0.3-7.3c1.9-2.8,0.9-8,0.5-10.5C174.7,162.8,173.5,162.7,173.5,162.8z M153.7,162c0-0.1,0-0.4,0.1-0.5
		c0.1-0.3,0.1-0.4,0.1-0.7c1.1-0.1,2.1-0.5,3.3-0.8c2.3-0.5,4,0.1,6.1,0.9c0.1,0.3,0.1,0.5,0.3,0.8c0.1,0.4,0.3,0.8,0.5,1.1l0,0
		c0,0,0,0.1,0,0.3l0,0c-2,0-4.1-0.1-6.1-0.3c-1.5,0-2.9,0-4.3,0c0,0,0,0,0-0.1c-0.1,0-0.1-0.1-0.3-0.1
		C153.5,162.4,153.5,162.3,153.7,162z M172.9,184.4c-0.9,1.7-4.8,0.8-6.4,0.8c-2.3-0.1-4.4,0-6.7,0c-2.1,0-4.3-0.1-6.5-0.1
		c-2.5,0-5.1,0.3-7.6,0.1c-2.7-0.1-2.1-3.7-2-5.3c0.1-1.7,0.4-3.3,0-4.9c0.1,0,0.1,0.1,0.3,0.1c1.1,0.7,2.4,0.8,3.6,0.8
		c0,0.1,0.1,0.1,0.1,0.3l0.1,0.1c0,1.5,0,2.8,0.3,4.1c0,0.3,1.1,0.5,1.2,0.3c0.3-1.3,0-2.9-0.1-4.3l0,0l0,0c0.3,0,0.5,0,0.8-0.1l0,0
		c0-0.1,0-0.3,0-0.4c2.4,0,4.7-0.1,7.1-0.1c2.7,0,5.3-0.3,8.1-0.1c0.8,0,1.6,0.1,2.3,0.1v0.1c0,0.3,0.4,0.4,0.7,0.4
		c0,1.5,0.1,3.1-0.3,4.5l0,0c0,0.1,1.2,0.7,1.2,0.3c0.4-1.5,0.3-3.3,0.3-4.9c0.1,0,0.3,0,0.4,0c0,0,0.4,0,0.4-0.1s0-0.3,0-0.4
		c0.7,0,1.2-0.1,1.9-0.4c0.4-0.1,0.7-0.4,1.1-0.5c0,1.5,0,2.9,0.1,4.4C173.5,180.8,173.8,182.8,172.9,184.4z M172.3,174.1
		c-0.5,0.5-1.2,0.8-1.9,0.9l0,0c0-0.4-0.1-0.7-0.5-0.8h-0.1c0.1-1.5,0.3-3.1,0.3-4.5c0-0.3-1.2-0.5-1.2-0.3c0,1.7-0.3,3.3-0.3,5.1
		c-0.1,0-0.3-0.1-0.4,0c-0.3,0.1-0.3,0.5-0.3,0.9c-0.4,0-0.8-0.1-1.2-0.1c-2-0.1-4.1-0.1-6.1,0c-3.3,0.1-6.8,0.1-10.1,0.1
		c0-0.3,0-0.4,0-0.7s-0.5-0.4-0.9-0.4c0-0.7,0-1.2,0-1.9c0-0.8,0.3-2.1-0.1-2.8c-0.1-0.1-0.5-0.3-0.7-0.1c-0.9,0.5-0.5,3.6-0.4,4.9
		c-0.1,0-0.4,0-0.3,0c0,0.1-0.1,0.3,0,0.4c0,0.1,0.1,0.4,0.1,0.5v0.1c-0.1,0-0.3,0-0.5,0c-6.4,0.3-3.3-8.3-3.6-12c0.1,0,0.3,0,0.3,0
		c1.3-0.3,2.4,0,3.7,0.1c1.1,0,2.1,0,3.2,0c2.8,0.1,5.7-0.3,8.5-0.1c2.4,0.1,4.8,0.3,7.3,0.3c1.3,0,2.7,0,4,0.1
		c1.1,0,2.1-0.1,3.2-0.1C174.2,166.9,174.9,171.5,172.3,174.1z"/>
	<path d="M197.8,93.9c-0.3,0.5-1.3,0.4-1.9,0.9l-0.1,0.1h-0.1c0.4,0.7,0.4,1.7,0.7,2.5c0.3,0.9,0.7,1.9,0.9,2.8
		c0.7,2.1,1.3,4.1,1.7,6.4c0.4,1.7,0.7,3.5,1.1,5.2c0.3,1.2,0.5,2.4,1.6,3.2c0,0-0.1,0-0.1,0.1h0.1c0,0,0,0,0.1,0s0.5,0,0.4-0.1l0,0
		h0.1c0.1,0,0.3,0.1,0.3,0l0,0c0.5,0,1.1,0,1.3,0c0.9,0,1.7-0.1,2.7-0.3c1.2-0.3,2.8-0.5,3.7-1.5c0.1,0,0.4,0,0.4,0
		c0.1-0.5,0.1-1.1,0.1-1.7c0.1,0,0.4-0.1,0.3-0.1c-0.1-0.1-0.3-0.1-0.3-0.3c0-0.4,0-0.8-0.1-1.2c0.1,0,0.1-0.1,0.1-0.1
		c0-0.1-0.1-0.1-0.1-0.3c0-0.1,0-0.1,0-0.3c-0.1-2.1-0.3-4.3-0.3-6.3c-0.1-1.9-0.1-3.7-0.4-5.6c-0.1-1.1-0.3-2-0.3-3.1
		c0-0.5,0.1-0.9-0.1-1.5c0.1-0.1,0.1-0.3,0.1-0.4c-0.1-0.3-0.5-0.4-0.8-0.4s-0.5,0-0.7,0.1h-0.1c0,0,0,0-0.1,0.1v-0.1
		c0.1-1.1,0.7-2.9,0-3.9l0,0c-0.3-1.1,0.4-2.3-0.3-3.3c0,0,0.1,0,0.1-0.1c0-0.7,0-1.3-0.3-1.9l0,0c0,0,0,0-0.1,0l-0.1-0.1H207v0.1
		c0,0-0.1,0-0.1,0.1c-0.4,2.3-1.2,4.3-1.3,6.7c0,0.9-0.1,1.9-0.1,2.8c-0.1,0-0.3,0-0.5,0c0,0,0,0-0.1,0c-0.4-2.1-0.7-4.3-1.1-6.4
		c-0.3-1.3,0-2.9-0.5-4.3c-0.3-0.7-0.9-0.9-1.7-0.8c-1.9,0.3-3.6,0.8-5.3,1.2c0,0-0.1,0,0,0c-0.1,0-0.3,0-0.1,0
		c0.5,1.9,0.4,3.9,0.8,5.7c0.4,1.7,0.5,3.7,1.2,5.3c0,0.1,0,0.1,0,0.3C197.9,93.7,197.8,93.7,197.8,93.9z M200.6,110.8
		c-0.5-2-0.8-4-1.2-5.9c-0.5-2-1.2-3.9-1.9-5.9c-0.3-0.9-0.7-1.7-0.9-2.7c-0.1-0.4-0.1-0.8-0.3-1.2c0,0,0,0,0.1,0
		c0.7,0.1,1.5,0.1,2.1,0.1c0.8,0,1.6,0,2.4-0.1c0,0.5,0,1.1,0,1.6c-0.1,0-0.4,0-0.3,0.1c0.1,0.3,0.1,0.4,0.3,0.5c0,0.4,0,0.9,0,1.3
		c-0.4-0.3-0.7-0.5-0.9-0.8h-0.3c0.3,0.5,0.8,0.9,1.3,1.3c0,0.4,0,0.8,0,1.2c-0.4-0.4-0.9-0.7-1.3-1.1c-0.3-1.1-0.5-2.3-0.7-3.3H199
		c0,0.9,0.3,2,0.4,2.9l-0.1-0.1c-0.1,0-0.5-0.1-0.4,0c0.3,0.4,0.5,0.7,0.8,1.1c0.1,0.5,0.3,0.9,0.3,1.5c0,0.1,0,0.3,0.1,0.4
		c-0.1,0-0.3,0-0.1,0.1c0.1,0.1,0.1,0.3,0.3,0.3c0.3,1.5,0.7,2.9,1.2,4.3c0,0,0.1,0,0.1,0.1c0.1,2.7,0.3,5.2,0.7,7.9
		c0,0.1,0.1,0.1,0.3,0.3v0.1v0.1c0,0,0,0-0.1,0C201.1,114,200.9,112.3,200.6,110.8z M205,97.1c0,0,0.1,0.1,0.3,0.1
		c0,1.6-0.1,3.2-0.3,4.7c-0.3-0.3-0.5-0.5-0.9-0.8c0-0.3,0-0.7-0.1-0.9c0.1,0,0.3,0.1,0.4,0.1c0.1,0,0.3,0,0.4,0
		c0.1,0,0.1-0.1,0.1-0.1c0.1,0-0.7-0.7-0.7-0.7c-0.1-0.1-0.3-0.3-0.4-0.3c-0.1-1.2-0.3-2.5-0.3-3.7c0-0.1,0-0.3,0-0.4
		c0.5-0.1,1.2-0.1,1.7-0.3c0,0.3,0,0.7,0,0.9c0-0.1-0.1-0.3-0.1-0.5h-0.3C204.9,95.7,204.7,96.5,205,97.1z M204.7,110.5L204.7,110.5
		L204.7,110.5c0.3-0.1,0.5,0,0.8,0c0.1,0,0.4,0,0.5,0c0,0.1,0,0.3-0.1,0.5C205.7,110.9,205.1,110.9,204.7,110.5z M205.1,113.6
		c0,0-0.3,0-0.5,0c-0.4-0.7-0.3-1.9,0-2.7c0.4,0.1,0.8,0.3,1.1,0.5C206.1,112,205.8,113.7,205.1,113.6z M205.1,110.4
		c-0.1,0-0.3,0-0.4,0c0-0.1,0.1-0.3,0.1-0.4c0.1,0,0.3,0,0.4,0c0.3,0,0.4,0,0.7,0c0.1,0,0.3,0.1,0.3,0.1l0,0c0,0.1,0,0.3,0,0.4
		C205.8,110.5,205.5,110.4,205.1,110.4z M202.5,114c-0.3-3.2-0.7-6.5-0.7-9.7c0.3,0.3,0.5,0.5,0.8,0.5c0.1,0,0.8,0.1,0.9-0.1l0,0
		l0,0c-0.4-0.4-0.8-0.9-1.2-1.3c-0.1-0.1-0.4-0.4-0.5-0.5c0-0.1,0-0.3,0-0.4c0-0.1,0-0.3,0-0.4c0.7,0.5,1.2,1.2,1.9,1.7
		C203.8,107.2,203.5,110.8,202.5,114z M201.1,101.6c0,0.3,0,0.5,0,0.8c-0.3-0.1-0.4-0.4-0.7-0.5h-0.1c-0.1-0.4-0.3-0.9-0.3-1.3
		C200.3,100.8,200.7,101.2,201.1,101.6L201.1,101.6z M201.3,103.6L201.3,103.6c0,0.5,0,1.1,0.1,1.6c-0.3-0.8-0.5-1.6-0.7-2.3
		C200.9,103.2,201,103.5,201.3,103.6z M201.7,101.1c0-0.4,0-0.8,0-1.1c0.1,0,0.1,0.1,0.3,0.1c0.5,0.5,1.1,1.1,1.5,1.6
		c0,0.3,0,0.5,0.1,0.8C202.9,102,202.3,101.5,201.7,101.1z M201.7,98.3c0.4,0.4,0.8,0.7,1.1,1.1c0.1,0.1,0.3,0.3,0.4,0.4
		c0,0.3,0,0.5,0.1,0.8c-0.1-0.1-0.3-0.3-0.4-0.4c-0.4-0.4-0.8-0.7-1.2-0.9C201.7,98.9,201.7,98.5,201.7,98.3z M204.2,102.8
		c0-0.1,0-0.3,0-0.4c0.1,0.1,0.1,0.1,0.3,0.3s0.3,0.1,0.5,0.1c0,0.4,0,0.7,0,1.1c-0.1-0.1-0.4-0.4-0.7-0.5
		C204.2,103.1,204.2,102.9,204.2,102.8z M205,109.9c0-0.1,0-0.3,0.1-0.4c0.4,0.1,0.9,0.1,1.3,0.1v0.1
		C205.8,109.7,205.4,109.9,205,109.9z M203.1,98.5c-0.5-0.4-0.9-0.8-1.5-1.2c0-0.3,0-0.5,0-0.8c0-0.4,0-0.8,0-1.2
		c0.4,0,0.8-0.1,1.1-0.1C202.9,96.3,203,97.3,203.1,98.5z M208.2,92.4c0.1,0,0.1,0,0.3,0c0.3,0,0.5-0.1,0.8-0.1s0.3,0.3,0.1,0.4
		c-0.3,0.3-0.8,0.4-1.2,0.5C208.1,93.1,208.1,92.7,208.2,92.4z M208.7,93.6c0,0,0.7,0,0.4-0.1c-0.1,0-0.1-0.1-0.3-0.1
		c0.1,0,0.4-0.1,0.5-0.3c0,0.4-0.1,0.7-0.1,1.1c-0.1,0.9,0.1,2,0.3,3.1c0.3,1.9,0.4,3.7,0.5,5.6s0.1,3.9,0.3,5.7v0.1
		c-0.5-0.5-1.2-0.8-1.7-1.2c0,0-0.4,0-0.3,0c0.7,0.5,1.3,1.3,1.7,2.3c0,0.1,0.3,0.1,0.4,0.1c0,0.3,0,0.4,0,0.7
		c-0.3-0.3-0.7-0.7-0.9-0.9c-0.5-0.7-1.3-1.1-1.7-1.7h-0.3c0.1,0.7,0.7,1.2,1.1,1.6c0.5,0.7,0.9,1.3,1.5,1.9l0,0
		c0,0.1,0.3,0.1,0.4,0.1c0,0.4,0,0.8,0,1.2c-0.1,0-0.4,0-0.4,0c-1.5,1.6-4.7,2-6.7,2.1c-0.1,0-0.4,0-0.5,0c1.2-3.2,1.6-6.9,1.5-10.4
		l0.1,0.1l0,0c0,0.1,0.1,0.1,0.3,0.1c-0.1,1.9-0.3,3.9-0.5,5.6c0,0-0.1,0-0.1,0.1c-0.4,0.9-0.8,2.8,0.4,3.3c0.1,0,0.3,0,0.4,0l0,0
		l0,0c0,0,0,0,0-0.1c0.8,0.3,1.6-0.4,1.7-1.2c0-0.3,0-0.5,0-0.8c0.7-4.3,0.8-8.8,1.2-13.1c0.1-1.6,0.1-3.3,0.3-4.9
		C208.3,93.7,208.5,93.6,208.7,93.6z M206.2,90.3c0-1.2,0.1-2.4,0.4-3.5c0.1-0.4,0.3-0.9,0.4-1.3c0.3,0,0.8,0,0.7-0.1
		c0.1,0.5,0.1,1.1,0.1,1.5c0,0.1,0,0.7-0.1,1.1c-0.3,0-0.8,0-0.8,0.1l0,0l0,0c-0.1,0.1-0.1,0.1-0.1,0.3s0.4,0.1,0.7,0.1l0,0
		c-0.3,0-0.5,0.1-0.1,0.3c0.1,0,0.1,0,0.3,0h0.1c0,0,0.3,0,0.4,0c0,1.1-0.3,2.4-0.4,3.3c0,0.4,0,0.8-0.1,1.2
		c-0.3,0.1-0.5,0.3-0.8,0.3c-0.3,0.1-0.5,0.1-0.7,0.3C206.1,92.8,206.2,91.5,206.2,90.3z M205.4,104.4c0-0.7,0.1-1.2,0.1-1.9
		c0,0,0.1,0,0,0l0,0c0.1-1.6,0.1-3.3,0.1-4.9c0-1.1,0.1-2,0.1-3.1c0.3,0,0.4-0.1,0.7-0.1c0.3-0.1,0.5-0.3,0.9-0.4
		c0,1.6,0,3.1-0.1,4.7c-0.3,3.6-0.4,7.2-0.9,10.7c-0.4,0-0.9-0.1-1.3-0.1c0.3-1.2,0.1-2.7,0.3-3.9c0-0.1,0-0.4,0-0.5
		c0.1,0,0.3-0.1,0.3-0.1C205.7,104.7,205.5,104.5,205.4,104.4z M203.7,88.9c0.3,1.2,0.4,2.5,0.7,3.7c0,0,0,0.1,0.1,0.1
		c0,0.3,0.1,0.5,0.1,0.9c0,0.1,0.7,0.1,0.5,0c-0.1-0.3-0.1-0.7-0.3-0.9c0.1,0,0.1,0,0.1-0.1c0,0,0,0,0-0.1c0.1,0,0.3,0,0.5,0
		c0,0.5-0.1,0.9-0.1,1.5c-0.3,0-0.4,0.1-0.7,0.1s-0.4,0-0.7,0.1c-0.1,0-0.4,0-0.5,0.1c0-0.8,0-1.7-0.1-2.5c0-0.8-0.3-1.5-0.4-2.3
		l0,0C203.3,89.7,203.5,89.3,203.7,88.9z M198.7,93.9L198.7,93.9c-0.1-1.9-0.7-3.9-1.1-5.6c-0.4-1.7-0.1-4.3-1.2-5.7h0.1
		c1.2-0.3,2.4-0.4,3.6-0.8c0.5-0.1,1.7-0.7,2.1-0.1c0.4,0.5,0.3,1.5,0.4,2.1c0,0.8,0.3,1.7,0.4,2.5l0,0c-0.7-0.5-0.5-1.5-0.7-2.1
		c0-0.3,0-0.4-0.1-0.8l-0.1-0.1c-0.1,0.7-1.1,1.1-1.3,1.7c-0.4,0.7-0.5,1.3-0.5,2.1c-0.1,1.2,0.7,2.3,1.9,2.4c0.3,0-0.5-0.7-0.8-0.7
		c0.1,0,0-0.1-0.1-0.4c0-0.3,0-0.5,0-0.8c0-0.5,0.1-1.1,0.4-1.6c0.1-0.1,0.1-0.4,0.3-0.5c0.1,0.3,0.4,0.5,0.5,0.8
		c0.5,0.5,0.4,2.4-0.4,2.8c-0.1,0.1,0.3,0.4,0.5,0.7c0,0.4,0,0.7,0.1,1.1c0.1,1.1,0,2,0,3.1c0,0.3,0,0.5,0,0.8
		c-0.4,0.1-0.7,0.3-1.1,0.3c0.1-1.9,0.3-3.6,0-5.5c0-0.1-0.3-0.3-0.3-0.1c-0.3,1.9-0.3,3.7-0.4,5.6h-0.1c-0.7,0.1-1.5,0.1-2.1,0.3
		c-0.4,0-1.6,0.3-2-0.1s0.9-0.7,1.1-0.7s0.3-0.1,0.4-0.1c0,0.3,0,0.4,0,0.7c0,0.3,0.8,0.1,0.8,0C198.9,94.5,198.9,94.1,198.7,93.9z"
		/>
	<path d="M207.5,88.8L207.5,88.8C207.7,88.8,207.5,88.8,207.5,88.8z"/>
	<path d="M209.7,112.1c0,0,0.5,0,0.4-0.1c-0.7-0.7-1.3-1.3-2-2c0,0-0.4-0.1-0.4,0c0.3,0.8,0.8,1.5,1.3,2.1
		C209.3,112.1,209.5,112.1,209.7,112.1z"/>
	<path d="M218.6,84.4c-0.1,2.7,0,5.3-0.1,8c0,1.6-0.1,3.7,1.2,4.8c0.1,0.1,0.9,0.3,0.8,0l-0.1-0.1c1.6,0.1,3.1,0.7,4.5,1.2v-1.5
		c-1.1-0.3-2-0.8-2.9-1.1c-0.1-4.7,0.7-9.3,0.8-14c0.1-2.3,0.3-4.7,0.1-6.9h-1.3c0,0.8,0,1.5-0.1,2.3c-0.1,2.1-0.1,4.1-0.1,6.3
		c-0.1,4.1-0.3,8.1-0.4,12.3c0,0,0,0,0,0.1c-0.1,0-0.3,0-0.4,0c-0.3,0-0.5,0.3-0.8,0.5c-0.5-1.3-0.4-3.1-0.4-4.4
		c0.1-2.4,0-4.8,0.1-7.2c0.1-2.4-0.1-4.9-0.1-7.3c0-0.8,0-1.5,0.3-2.3h-1.1c-0.1,0.4-0.1,0.7-0.3,1.2
		C218.2,78.9,218.7,81.7,218.6,84.4z"/>
	<path d="M223.5,75.9c0.4,0.3,0.8,0.5,1.3,0.8v-0.3c-0.3-0.1-0.7-0.3-0.9-0.5C223.8,75.9,223.5,75.7,223.5,75.9z"/>
	<path d="M223.5,77.5c0.4,0.4,0.8,0.8,1.3,1.2v-0.5c-0.4-0.3-0.8-0.4-1.2-0.8C223.7,77.3,223.5,77.3,223.5,77.5z"/>
	<path d="M224.1,79.7c0,0-0.4-0.1-0.4,0c0.3,0.5,0.5,0.7,1.1,0.9c0,0,0,0,0.1,0v-0.4C224.6,80.1,224.3,79.9,224.1,79.7z"/>
	<path d="M224.1,82.4c0.3,0.1,0.5,0.3,0.8,0.4v-0.3C224.6,82.4,224.3,82.3,224.1,82.4C223.9,82.3,223.9,82.3,224.1,82.4z"/>
	<path d="M224.9,84.9v-0.3c-0.1-0.1-0.3-0.1-0.5-0.3c0,0-0.4,0-0.3,0C224.3,84.5,224.6,84.8,224.9,84.9z"/>
	<path d="M224.2,86.7c0.3,0.1,0.4,0.3,0.7,0.4v-0.4c-0.1,0-0.3-0.1-0.4-0.1C224.3,86.5,223.9,86.5,224.2,86.7z"/>
	<path d="M223.8,88.8c0.4,0.3,0.7,0.5,1.1,0.8v-0.3c-0.3-0.1-0.7-0.3-0.9-0.5C223.9,88.8,223.7,88.8,223.8,88.8z"/>
	<path d="M223.4,90.9c0.3,0.5,0.7,0.8,1.2,1.1c0.1,0,0.3,0.1,0.4,0.3V92c-0.4-0.3-0.9-0.7-1.2-0.9C223.7,90.9,223.3,90.9,223.4,90.9
		z"/>
	<path d="M224.9,94.8v-0.3c-0.5-0.3-1.1-0.4-1.6-0.7c0,0-0.3,0-0.1,0C223.7,94.1,224.3,94.4,224.9,94.8z"/>
	<path d="M174.7,109.6c-0.4,0.9-0.8,1.7-1.3,2.5c-0.5,0.8-1.6,2.5-0.3,3.2c1.6,0.7,3.5,0.4,5.2,0.5c0.5,0-0.5-0.4-0.7-0.4
		c-0.8,0-1.7-0.1-2.5-0.1c-1.5,0-2-0.4-1.5-1.6c0.5-1.3,1.6-2.5,2.1-3.9c0.1-0.3,0.3-0.5,0.4-0.8c0.1,0,0.3,0,0.3,0
		c0.8-0.8,1.6-0.5,2.5-0.4c0.4,0,1.2,0.3,1.6,0c0.1,0.3,0.4,0.7,0.5,0.9c0.7,1.2,3.5,5.1,1.1,5.7c-0.3,0.1,0.4,0.3,0.4,0.3
		c2,0.1,1.6-1.7,0.9-3.1c-1.1-2.3-2.8-4.4-3.9-6.7c0.1,0,0.1,0,0.1,0c0-1.5-0.3-2.8-0.1-4.3c0.1-0.7,0.7-1.2,0.8-1.9
		c0.1-0.1,0.3-0.4,0.1-0.7c-0.4-0.9-2.3-1.1-3.2-0.8c-0.7-0.1-1.3-0.1-1.5,0.5c0,0.1,0,0.3,0,0.4c0,1.1,0.4,2,0.5,3.1
		c0.1,1.3,0.3,2.7-0.1,3.9C175.9,107.3,175.1,108.4,174.7,109.6z M177.5,98.8L177.5,98.8c0.3,0,0.5,0,0.8,0s0.5,0,0.7-0.1l0,0
		c0.1,0,0.4,0,0.5,0.1c0.1,0.3,0,0.5-0.3,0.7c-0.4,0.3-1.2,0.3-1.6,0.1c-0.1,0-0.3,0-0.4-0.1C177.1,99.2,177.3,98.9,177.5,98.8z
		 M177.7,105.1c0.1,0,0.4,0.1,0.5,0c0.1,0,0.1,0,0.3,0l0,0c0.1,0,0.1,0,0.1,0c0-0.3-0.5-0.4-0.9-0.4v-0.1v-0.1c0.1,0,0.3,0,0.4,0
		h0.1h0.1h0.1c-0.1-0.1-0.3-0.1-0.4-0.1c0,0-0.3-0.1-0.4-0.1c0-0.1,0-0.3,0-0.3c0.3,0.1,0.5,0.1,0.7,0c0.1,0,0.1-0.1,0.1-0.1
		c0-0.1-0.1-0.1-0.3-0.1c-0.3,0-0.4-0.1-0.7-0.1c0-0.1,0-0.3,0-0.4c0.3,0,0.5,0.1,0.7,0c0.1,0-0.4-0.3-0.4-0.3c-0.1,0-0.3,0-0.4,0
		c0-0.1,0-0.1,0-0.3c0.1,0,0.5,0.1,0.7,0l0,0c0.1,0,0.1-0.1,0.3-0.1s0-0.1,0-0.1c-0.3-0.1-0.4-0.1-0.7-0.1c-0.1,0-0.1,0-0.3,0
		c0-0.1,0-0.1,0-0.3c0.3,0.1,0.5,0.1,0.8,0.1c0.1,0,0.3,0,0.1-0.1c-0.1-0.1-0.4-0.1-0.5-0.3c-0.1,0-0.3-0.1-0.5-0.1
		c-0.1-0.5-0.4-1.1-0.5-1.6c0.5,0.1,1.2,0.3,1.6,0.3c0.3,0,0.8,0,1.3,0c-0.3,0.4-0.8,0.9-0.9,1.3c-0.4,1.3,0.1,2.9,0.1,4.3
		c0,0.1,0.1,0.1,0.3,0.1c0.1,0.9,0.5,1.7,1.1,2.5c-0.1,0-0.4-0.1-0.4-0.1c-0.4,0-0.9,0.1-1.3,0c-0.4,0-0.8-0.1-1.2-0.1
		c-0.3,0-0.7,0-0.8,0.3C177,107.3,177.5,106.3,177.7,105.1z"/>
	<path d="M177.8,95.3c-0.4,0.1-0.7,0.4-0.8,0.7l0,0c0,0.1-0.1,0.1-0.1,0.3c-0.1,0.9,1.3,1.3,2,1.1c0.8-0.3,0.8-1.5,0.1-1.9
		C178.7,95.3,178.2,95.3,177.8,95.3z M178.3,95.7c0.1,0.3,0.1,0.7-0.1,1.1c-0.1,0.1-0.1,0.3-0.3,0.3c0-0.1-0.1-0.1-0.1-0.3
		c-0.1-0.1-0.1-0.4-0.1-0.5c0,0,0-0.1,0-0.3l0,0c0,0,0.3,0,0.1,0c0,0,0,0-0.1,0c0,0,0,0,0.1,0C178.2,95.9,178.3,95.9,178.3,95.7z"/>
	<path d="M176.6,93.2c0,0,0.1,0.1,0.3,0.1c-0.1,0.1-0.1,0.3-0.1,0.4c0,0.4,0.3,0.5,0.7,0.7c0.5,0.1,1.3,0.3,1.6-0.4
		C179.3,92.9,177.1,92.3,176.6,93.2z M177.9,93.9c0,0.1-0.1,0.3-0.1,0.3l-0.1,0.1c0,0,0,0-0.1,0s0,0,0,0c-0.3-0.3-0.3-0.5-0.3-0.8
		l0,0c0.1-0.1,0.4-0.1,0.5-0.3C177.9,93.5,177.9,93.6,177.9,93.9z"/>
	<path d="M180.6,94c0.5-0.1,0.8-0.7,0.7-1.1c-0.1-0.4-0.7-0.7-1.1-0.7c-0.7-0.3-1.2,0.1-1.2,0.8C178.9,93.7,179.9,94.1,180.6,94z
		 M179.9,93.6c-0.1-0.1-0.1-0.3-0.3-0.4s-0.1-0.7,0-0.9c0.1,0,0.3,0.1,0.4,0.1h0.1c0.1,0.1,0.1,0.3,0.1,0.4
		C180.3,93.1,180.2,93.3,179.9,93.6L179.9,93.6z"/>
	<path d="M187.1,139.7c0,0,0.7,0.1,0.7-0.1c-0.1-0.3-0.5-0.3-0.8-0.4c-0.4-0.1-0.8-0.1-1.2,0c-0.5,0-1.3,0.4-1.3,1.1
		c0,0.1,0.4,0.3,0.5,0.1C185.7,140.3,186.3,139.6,187.1,139.7z"/>
	<path d="M185.9,144.1c-0.5,0.1-0.9,0.5-0.8,0.9c0,0.1,0.5,0.3,0.5,0.1c0.4-0.4,1.1-0.8,1.5-0.7c0.3,0,0.5,0.3,0.8,0.3
		c0.5,0,0.1-0.3-0.1-0.4C187.3,144.1,186.6,144.1,185.9,144.1z"/>
	<path d="M181.4,136.4c-0.5,0.3-0.9,0.5-1.1,0.9l0,0c0,0.3-0.1,0.7-0.3,0.9c0,0.1,0,0.3,0,0.4c-0.1-0.1-0.4-0.3-0.7-0.4
		c-0.1,0-0.3-0.1-0.4-0.1l0,0c0,0,0,0-0.1-0.1s-0.3-0.1-0.5-0.3c0,0,0-0.1-0.3-0.1c-1.9-0.5-3.3,0-4.1,1.9c-0.5,1.3-0.9,2.7-1.3,4
		c-0.3,1.1-0.5,1.9-0.4,2.7c-0.1,0.8,0.1,1.6,0.8,2c0.8,0.5,1.9,0.5,2.8,0.4c0.1,0,0,0,0-0.1c1.3-0.4,0.8-2.9,2.7-3.3
		c0.9-0.1,0.9-0.1,1.5,0.7c0.4,0.7,0.7,1.3,1.3,1.9c0,0.1,0,0.4,0,0.5c0,0.4,1.1,0.5,1.3,0.4c2.4-0.4,6.1-0.7,7.9-2.5l0.1-0.1
		c1.1,0.7,2.4,1.1,3.6,1.1c1.6,0.1,3.5-1.2,3.7-2.8c0,0,0-0.1-0.1-0.1c0.1-0.5-0.1-1.2-0.7-1.6c-0.4-0.3-1.1-0.5-1.5-0.5
		c-0.4-0.1-0.8-0.1-1.2,0c-0.3,0-0.8,0.1-0.9,0.5c0,0-0.1,0-0.1-0.1c-0.4-0.3-0.5-0.8-0.5-1.3c0-0.5,0.3-1.1,0.7-1.3l0.1-0.1
		l0.1,0.1c0.3,0.1,0.5,0.3,0.8,0.4c0.5,0.1,1.2,0.1,1.7-0.3c0,0,0,0,0-0.1l0,0c0.1,0,0.4-0.1,0.5-0.3c0.5-0.3,1.2-0.8,0.5-1.2
		c0.1,0,0.1,0,0.1-0.1c-0.7-2-3.3-2.8-5.5-2.4c-1.1,0-2.5,0.3-3.2,1.1c-0.9-0.9-2.8-1.5-3.9-1.5C183.9,135.5,182.5,136,181.4,136.4z
		 M179,144.9c-0.7,0-1.6,0.1-2.3,0.5c-0.4,0.3-0.7,0.9-0.8,1.3c-0.1,0.4-0.3,1.5-0.7,1.9c-0.1,0-0.3-0.1-0.4-0.1
		c-3.3,0.5-0.4-5.6,0.1-6.8c0.5-1.1,0.9-2.4,1.7-3.2c0.3-0.3,0.8-0.3,1.3-0.1c0.1,0.1,0.3,0.3,0.5,0.4c0.4,0.3,0.8,0.8,1.1,1.2
		c0.1,0.3,0.3,0.4,0.4,0.5c0,0.3,0.1,0.5,0.1,0.8l0,0c0,1.1,0.3,2.4,0.3,3.5c0,0.3,0,0.7,0,1.1C180.2,145.3,179.8,144.9,179,144.9z
		 M189.7,138.5c1.9-2.3,5.1-3.2,6.9-0.3c-0.1,0-0.1,0-0.1,0.1c0,0.3,0.1,0.5-0.1,0.8s-0.7,0.4-0.9,0.4c-0.1,0-0.3,0-0.4,0
		c0.1,0,0,0-0.1-0.1l0,0c0.1,0-0.3-0.1-0.3-0.1c-0.9-0.3-1.7-0.3-2.4,0.4c-0.5,0.5-0.7,1.5-0.3,2.1c0.5,1.3,2.8,1.6,3.9,0.9
		c0,0,0,0,0-0.1l0,0c0.1,0,0.3,0,0.3,0c0.1,0.1,0.3,0.3,0.3,0.4c0.3,0.4,0.1,0.9,0.1,1.5l0,0c-0.3,0.8-0.9,1.3-1.6,1.9
		c-1.3,0.9-2.8,0.1-4.1-0.4c0.8-1.3-0.4-2.8-1.5-3.5C190.6,141.3,190.7,139.7,189.7,138.5z M187.8,142.3c-0.1,0.1,0.1,0.3,0.3,0.3
		c2,0.8,1.7,3.3,0,4.1c-1.6,0.8-3.6,1.2-5.3,1.5c-0.1-1.3,0-2.8-0.1-4.1c-0.1-1.7-0.5-3.5-0.4-5.3c0.3-0.1,0.7-0.3,1.1-0.4l0,0l0,0
		c1.6-0.5,4.1-1.1,5.1-0.4C189.8,139.2,188.9,141.3,187.8,142.3z M188.7,137.7c-0.1-0.1-0.3-0.1-0.4-0.1c-0.9-0.4-1.9-0.4-2.8-0.3
		c-1.1,0.1-2.7,0.4-3.7,0.9c-0.1,0-0.3-0.1-0.5-0.1c-0.1-0.3-0.4-0.7,0-0.9c0.4-0.5,1.3-0.7,1.9-0.9
		C185.1,135.6,187.9,135.9,188.7,137.7z"/>
	<path d="M176.3,142.5c0,0.1,0.4,0.1,0.5,0.1c0.3-0.1,0.7-0.3,0.9-0.4c0.1,0,0.4,0,0.5-0.1c0,0.1,0.1,0.1,0.1,0.3
		c0.1,0.1,0.3,0.3,0.5,0.3c0.3,0,0.8,0.1,0.7-0.4C179.1,141.6,175.9,141.5,176.3,142.5z"/>
	<path d="M178.5,136.8c0.3,0.1,0.5,0.3,0.8,0.3c0.1,0,0.5,0,0.3-0.3c-0.3-0.3-0.4-0.7-0.5-0.9c-0.3-0.5-0.7-1.1-0.8-1.6
		c0-0.1-0.5-0.3-0.5-0.1s-0.1,0.3-0.1,0.4s0,0.3,0,0.5c0,0.1,0.1,0.4,0.1,0.5C177.8,136,178.1,136.4,178.5,136.8z"/>
	<path d="M190.1,135.3c0.1-0.7,0.1-1.5-0.1-2.1c0-0.1-0.5-0.3-0.5-0.1c-0.3,0.4-0.4,1.1-0.4,1.6c0,0.4-0.3,0.8-0.3,1.2
		c0,0.3,0.7,0.4,0.9,0.4l0,0l0,0c0,0,0,0,0.1,0l0,0l0,0l0,0c0,0,0.1,0,0.1-0.1C189.9,135.9,189.9,135.6,190.1,135.3z"/>
	<path d="M180.6,151.6c0.3-0.1,0.4-0.8,0.5-1.1c0.1-0.5,0.1-0.9-0.1-1.3c0-0.1-0.5-0.3-0.4-0.1c0,0.1-0.1,0.4-0.1,0.4
		c-0.1,0.3-0.3,0.4-0.4,0.7c-0.1,0.1-0.3,0.4-0.3,0.5c-0.1,0.1-0.3,0.3-0.3,0.4C179.5,151.6,180.5,151.7,180.6,151.6z"/>
	<path d="M191.8,149.1c-0.3-0.4-0.7-0.8-0.9-1.3c0-0.1-0.5-0.3-0.5-0.1c-0.3,1.3,1.2,2.5,2.4,2.5c0.5,0,0.3-0.3-0.1-0.4
		C192.3,149.7,192.1,149.3,191.8,149.1z"/>
	<path d="M177.9,149.2c0.4,0.1,0.7,0.1,1.1-0.1c0.3-0.1,0.5-0.7,0.7-0.9c0.1-0.3-1.1-0.5-1.3-0.4l0,0c0,0,0,0-0.1,0
		c-0.1,0.1-0.1,0.3-0.1,0.4c-0.1,0.1-0.1,0.3-0.1,0.5c0,0.1,0,0.1-0.1,0.1c0,0.1-0.1,0.1,0,0.1C177.5,148.9,177.8,149.2,177.9,149.2
		z"/>
	<path d="M183.8,149.5c0,0.4-0.3,0.7-0.1,1.1c0.1,0.1,0.8,0.4,0.9,0.3c0.3-0.3,0-0.8-0.3-1.2C184.3,149.5,183.8,149.3,183.8,149.5z"
		/>
	<path d="M187.3,148.9c-0.1,0.5,0,0.9,0.5,1.2c0.1,0,0.9,0.3,0.8,0.1c-0.3-0.4-0.5-0.8-0.8-1.2C187.8,148.9,187.3,148.8,187.3,148.9
		z"/>
	<path d="M181.1,134.7c0,0.1,0.1,0.3,0.3,0.4s0.5,0.3,0.8,0.3c0.1,0,0.4,0,0.3-0.1c-0.1-0.3-0.3-0.5-0.4-0.7
		c-0.3-0.3-0.4-0.3-0.7-0.4c-0.1,0-0.1,0,0,0.1C181.1,134.1,181.1,134.5,181.1,134.7z"/>
	<path d="M186.3,134.9c0.3-0.1,0.1-0.3,0.3-0.5c0-0.1,0-0.5,0.1-0.7s-0.4-0.1-0.4-0.1c-0.3,0.1-0.4,0.1-0.7,0.4
		c-0.1,0.3-0.4,0.5-0.1,0.8C185.5,134.9,186.1,135.1,186.3,134.9z"/>
	<path d="M176.9,136.7c0.1,0,0-0.1-0.1-0.1c-0.3-0.1-0.5-0.5-0.7-0.8c0,0-0.5-0.3-0.5-0.1c0,0.3-0.1,0.5,0.1,0.7
		C175.9,136.7,176.5,136.8,176.9,136.7z"/>
	<path d="M191.7,135.5c0.4-0.1,0.8-0.7,0.7-1.1c0-0.1-0.5-0.3-0.7-0.1c-0.1,0.1-0.3,0.4-0.4,0.5c-0.1,0.1-0.4,0.3-0.5,0.4
		C190.6,135.5,191.5,135.6,191.7,135.5z"/>
	<path d="M214.1,129.6c-2.8,0.1-1.6,4-1.7,5.7c-0.1,1.7-0.1,3.5,0.1,5.2c0.1,0.9,0.3,2.3,1.1,2.8c1.3,0.9,3.1,0.7,3.9-0.9
		c0.5-1.1,0.3-2.5,0.3-3.7c0-1.7,0-3.5-0.3-5.2c0-0.3-0.9-0.4-0.9-0.3c0.1,1.9,0,3.7,0,5.6c0,1.6,0.1,3.3-1.3,4.4
		c-1.7,1.3-2.1-5.9-2.1-6.5c0-0.9,0.1-1.9,0.1-2.8c0-1.1-0.3-1.9,0-2.9c0.1-0.4,0.4-0.7,0.7-0.9c1.1-0.9,1.2,2,1.2,1.9
		c0,0.9-0.1,1.9,0,2.8c0,1.3,0.3,2.5,0.3,3.9c0,0.1-0.4,1.5-0.4,1.5c-0.4-0.4-0.3-1.3-0.4-1.9c0-1.3-0.3-2.8-0.3-4.1
		c0-0.1-0.8-0.4-0.8-0.3c-0.3,1.2,0.3,2.3,0.3,3.3c0,0.8,0,1.6,0.3,2.4c0.1,0.9,1.3,1.3,2,0.5c0.5-0.7,0.3-2,0.1-2.7
		c-0.1-1.2-0.3-2.3-0.3-3.5C215.9,132.4,216.3,129.5,214.1,129.6z"/>
	<path d="M193.5,128c-1.2-0.3-1.7,1.3-0.5,1.9c1.5,0.5,2.1,0,2.3-1.6c0.1-2.1-0.4-4.4-0.3-6.5c0.1,0,0.1,0,0.1,0
		c0.9-0.3,2.9,0.3,4-0.3c-0.3,1.6-0.3,3.2-0.4,4.8c0,0.5-0.1,1.1-0.1,1.7l0,0c-0.3-0.1-0.7-0.1-0.9-0.1c-1.1,0.3-0.5,1.2,0.3,1.5
		c1.2,0.4,1.9-0.4,2-1.6c0.3-2.1,0.1-4.5-0.3-6.7c0.1-0.1,0.3-0.4,0.3-0.5c0.1-0.3-1.1-0.5-1.2-0.4c-0.9,0.5-2.1,0-3.1-0.1
		c-0.4,0-0.9,0-1.3,0.3c-0.5,0.3-0.7,0.4-0.7,0.8c-0.1,0.5,0,1.2,0,1.7c0,1.1,0.1,2.1,0.3,3.2c0,0.7,0,1.3,0,2.1
		C193.9,128.1,193.8,128.1,193.5,128z"/>
	<path d="M167.3,93.9c-0.4,0.4-0.8,0.8-1.2,1.2c-0.3,0.4-0.8,0.8-0.7,1.3c0,0.1,0.4,0.1,0.4,0.1c0.4-0.4,0.7-0.9,1.1-1.2
		c0.3-0.3,0.7-0.5,0.9-0.8l0,0c0.1-0.1,0.1-0.1,0.3-0.3C168.2,94,167.4,93.7,167.3,93.9z"/>
	<path d="M168.2,103.7c0.7,0,1.3-0.1,2-0.1c0.4,0,2.4-0.4,2.7,0.1c0,0.1,0.4,0.3,0.5,0.1c0.3-0.5-1.7-0.7-1.9-0.8
		c-1.2,0-2.4,0-3.6,0.4C167.7,103.6,168.1,103.7,168.2,103.7z"/>
	<path d="M168.7,112.7c0.1,0.1,0.7,0.3,0.7,0.1c-0.3-0.5-0.8-0.9-1.3-1.3c-0.3-0.1-0.5-0.4-0.8-0.4c-0.4-0.1-0.8-0.3-0.9-0.7
		c0-0.1-0.4-0.1-0.4-0.1c0,0.4,0.5,0.7,0.8,0.8C167.7,111.3,168.2,112.1,168.7,112.7z"/>
	<path d="M163.4,94.3c0.3-0.1,0.4-0.4,0.5-0.7c0.1-0.3,0.4-0.5,0.5-0.8c0-0.1-0.5-0.3-0.5-0.1c-0.3,0.3-0.5,0.4-0.7,0.7
		c-0.3,0.1-0.5,0.4-0.5,0.7C162.7,94.3,163.3,94.4,163.4,94.3z"/>
	<path d="M168.7,99.9c0.4-0.1,0.5-0.4,0.8-0.7c0.1-0.1,0.7-0.7,0.8-0.5c0,0,0.3,0,0.1,0c-0.3-0.3-0.7,0-0.9,0.1
		c-0.3,0.1-0.5,0.3-0.8,0.5c-0.1,0.1-0.4,0.3-0.4,0.5C168.2,99.9,168.6,99.9,168.7,99.9z"/>
	<path d="M169.7,108.9c0.1-0.3-0.3-0.5-0.4-0.8c-0.3-0.3-0.7-0.4-1.1-0.5c-0.1,0-0.3-0.1-0.4-0.1c0,0-0.3,0-0.1,0.1
		c0.5,0.4,1.1,0.7,1.3,1.2C169.1,108.8,169.5,109.1,169.7,108.9z"/>
	<path d="M165.7,113.9l0.5,0.1c0-0.3-0.4-0.5-0.7-0.7c-0.3-0.3-0.5-0.4-0.9-0.7c0,0-0.4-0.1-0.4,0
		C164.7,113.1,165.1,113.6,165.7,113.9z"/>
	<path d="M221.5,206.1c0-0.8,0.4-1.2,0.4-2s-0.4-1.7-0.5-2.5c-0.4-2.3-1.7-4.7-3.2-6.5c-0.9-1.2-2.4-2-3.9-2.4
		c-0.9-0.3-1.7-0.4-2.8-0.4c-1.1,0-2.4,0.1-3.5,0v-0.1c0-0.1-0.1-0.3-0.4-0.3c-0.1-0.1-0.8-0.3-0.8-0.1v0.1l0,0
		c-0.1,1.3-1.2,3.2-1.3,4.8c-1.3,0.7-3.1,0-4.5,0c-1.1,0-2.1,0.3-3.1,0.8c-2,0.9-3.1,3.1-3.7,5.1c-1.3,4.3-0.3,9.5,2.8,12.8
		c1.3,1.5,3.2,2.3,5.2,2.5c0.7-0.1,1.3-0.1,2-0.1c-0.3,0.1-0.4,0.3-0.7,0.4c-0.1,0,0.7,0.4,0.8,0.3l0,0l0,0l0,0
		c0.1,0,0.3-0.1,0.4-0.1v0.1c0,0.3,0.9,0.5,1.1,0.3c0.1-0.3,0.3-0.5,0.4-0.7l0,0c0.4,0.4,1.2,0.5,1.5,0.5c0.5,0,0-0.3-0.1-0.4
		c-0.1,0-0.1-0.1-0.3-0.1c0-0.1,0-0.1-0.1-0.1c0,0,0,0,0-0.1l0,0c1.2,0,2.4,0,3.6-0.4c4.9-1.7,6.4-8.1,6.3-12.8
		c1.3,0.5,2.7,1.1,3.9,1.6C220.9,206.1,221.5,206.3,221.5,206.1z M207,195.7c0.3-0.8,0.5-1.5,0.8-2.1c0.1,0.8,0.3,1.6,0.4,2.3
		c0.1,0.3,0.1,0.4,0.3,0.7c-0.4,0-0.8,0-1.1,0c-0.1,0-0.4,0-0.7,0.1C206.9,196.3,207,196,207,195.7z M211.7,215.6
		c-2.3,2.1-5.1,1.9-8,1.9c-3.6,0-6-1.7-7.5-4.7c-1.9-3.6-1.9-8-0.3-11.7c0.9-2,2.5-3.5,4.5-4c1.5-0.4,3.6,0.4,5.2-0.1
		c0,0.3,0,0.7,0.1,0.9c-0.7,0.1-1.3,0.3-2,0c0,0-0.4,0-0.3,0c0.5,0.5,1.5,0.5,2.3,0.5c0.3,0,0.4,0,0.7,0c0,0,0,0,0.1,0s0.3,0,0.4,0
		c0.3,0,0.4-0.1,0.7-0.1c0.1,0,0.3,0,0.4,0c0,0-0.1,0-0.3-0.1c0.3,0.1,0.5,0.1,0.7,0s-0.9-0.4-0.9-0.4c-0.3,0-0.5,0-0.8,0
		c0-0.3,0.1-0.4,0.1-0.7l0,0c0.7-0.1,1.5-0.3,2.1-0.1c0.7,1.2,1.7,2.3,2.7,3.2c1.2,1.2,2.4,2.5,3.7,3.5c0.1,0.1,0.3,0.1,0.4,0.3
		C215.9,208.1,215,212.5,211.7,215.6z M216.9,204c0-0.1-0.3-0.3-0.5-0.3c-0.1-0.1-0.3-0.1-0.4-0.3c-1.5-0.8-2.5-2.1-3.7-3.3
		c-1.1-1.1-2-2-2.7-3.2v-0.1c-0.1-0.3-0.3-0.5-0.4-0.8c-0.3-0.7-0.4-1.5-0.4-2.3c0.5,0.7,1.2,1.2,2,1.6c0.3,0.5,0.4,1.1,0.4,1.6
		c0,0.7-0.1,1.5,0.5,1.7c0.1,0,0.5,0.1,0.5,0c0.1-0.1-0.1-0.7-0.1-0.9c0-0.4,0-0.8-0.1-1.2c-0.1-0.3-0.1-0.4-0.3-0.7
		c0.3,0.1,0.5,0.4,0.8,0.5s0.5,0.4,0.8,0.5c0.1,0.3,0.3,0.7,0.3,1.1c0.1,0.8-0.1,1.6,0.4,2.3c0,0.1,0.5,0.3,0.7,0.1
		c0.1-0.7-0.1-1.7-0.3-2.5c0.5,0.5,0.9,1.1,1.5,1.6c0,0.3,0,0.5,0,0.8c0,0.8-0.3,1.7,0.1,2.5c0,0.1,0.4,0.3,0.5,0.1
		c0.3-0.5,0.3-1.6,0.1-2.4c0.7,0.9,1.2,1.9,1.7,2.8c0.1,0.1,0.8,0.3,0.8,0.1c-0.4-1.2-1.1-2.4-1.7-3.3c0.5,0.3,0.9,0.7,1.3,1.1
		c0.4,0.4,0.8,0.9,1.1,1.5c0,0.1,0.5,0.3,0.5,0.1c0.1-0.7-0.8-1.5-1.3-1.9s-1.2-0.8-1.9-0.9c-0.3-0.4-0.7-0.8-1.1-1.2
		c-0.1-0.4-0.5-0.8-0.9-1.1H215c-0.1-0.1-0.1-0.1-0.3-0.3l-0.1-0.1c0.1,0,0.3,0.1,0.3,0.1c0.5,0.1,1.1,0.3,1.7,0.3
		c0.8,0.1,0.9,0.8,1.5,1.3c0,0.1,0.8,0.3,0.7,0.1c-0.1-0.8-0.7-1.2-1.5-1.5c-1.3-0.5-2.7-0.4-3.9-1.2c0,0,0,0-0.1,0
		c-0.1-0.1-0.4-0.3-0.5-0.4s-0.3-0.3-0.5-0.4h-0.1c-0.1-0.1-0.4-0.3-0.5-0.4c0.7,0,1.3,0,2.1-0.1c0.4,0,0.8-0.1,1.3,0
		c0.4,0,0.7,0.7,0.9,0.9c0.1,0.1,0.8,0.4,0.8,0.1c0.3-0.9-1.5-1.3-2.1-1.5c-1.2-0.1-2.1,0.3-3.2,0.4c-0.3-0.1-0.5-0.4-0.8-0.5
		s-0.4-0.4-0.7-0.5l0,0c-0.1-0.1-0.4-0.3-0.5-0.4c1.5,1.1,4,0.3,5.5-0.1c0.1,0-0.4-0.3-0.4-0.3c-1.6,0-3.9,1.2-5.3,0H209
		c-0.3-0.3-0.7-0.7-0.8-1.1l0,0c1.3,0.3,2.9,0.1,4.3,0.1c3.1,0.1,4.9,2.3,6.3,4.7c0.9,1.6,1.3,3.1,1.7,4.8c0.1,0.8,0.4,1.6,0.4,2.4
		c0,0.5-0.4,0.8-0.4,1.3C219.4,205.2,218.1,204.7,216.9,204z"/>
	<path d="M197.8,203.6c0.3-1.5,1.3-2.7,1.9-4.1c0-0.1-0.4-0.1-0.4-0.1c-1.1,1.3-2.3,2.5-2.7,4.3c-0.3,1.2,0,2.5,0.9,3.5
		c0.1,0.1,0.8,0.3,0.7,0.1C197.8,205.9,197.7,204.8,197.8,203.6z"/>
	<path d="M199.5,202.8c0-0.1-0.4-0.1-0.4-0.1c-0.9,0.8-0.5,2.3,0,3.1c0.1,0.1,0.7,0.3,0.7,0.1C199.4,204.8,199.1,203.9,199.5,202.8z
		"/>
	<path d="M212.2,207.5c0.4,3.1-1.1,4.9-2.9,6.9c-0.1,0.1,0.8,0.5,0.9,0.3c2.3-1.6,3.3-4.7,2.4-7.2
		C212.6,207.5,212.2,207.5,212.2,207.5z"/>
	<path d="M210.2,212.1c0.4-0.5,0.7-1.1,0.9-1.6c0-0.1-0.3-0.1-0.4-0.1c-0.3,0.5-0.8,1.1-1.2,1.5c-0.4,0.4-0.9,0.7-1.2,1.1
		c-0.1,0.1,0.5,0.3,0.7,0.1C209.5,213.1,209.9,212.5,210.2,212.1z"/>
	<path d="M219.8,224.7c0.3-0.8,1.2-1.2,1.9-1.5c0,0.4-0.1,1.1-0.1,1.1c0,0.3,0,0.5,0,0.8h1.3c0-0.1,0-0.3,0-0.3
		c0.3-0.7,0.4-1.5,0.5-2.1c0.1-0.8,0.1-0.4,0.8,0c0.3,0.1,0.5,0.3,0.8,0.5v-0.4c-0.1,0-0.1-0.1-0.3-0.1c-0.8-0.5-0.8-0.8-1.6-0.8
		H223c-0.3,0.4-0.3,0.7-0.4,1.1c-0.1-0.1-0.3-0.3-0.5-0.3c0,0-0.5-0.1-0.3,0.1l0,0c-1.6,0.4-2.7,0.9-3.1,2.3h1.1
		C219.7,224.9,219.7,224.8,219.8,224.7z"/>
	<path d="M224.3,224.5c0.1,0.1,0.4,0.3,0.5,0.4v-0.3c0,0-0.1,0-0.1-0.1C224.6,224.5,224.2,224.4,224.3,224.5z"/>
	<path d="M173.8,219.7c0.8-1.1,1.6-2,2.5-2.9c0.3-0.3,0.7-0.7,0.9-1.1c0.1,0,0.3-0.1,0.4-0.3c0.4-0.8,0-1.3-0.4-2
		c-0.8-1.1-1.6-2.3-2.4-3.3c-2-2.5-3.9-5.2-6-7.6c-1.7-2-3.2-4.1-5.1-6c-0.9-0.8-2,0.3-2.7,0.9c-0.1-0.1-0.4-0.3-0.5-0.4
		s-0.8,0.1-0.8,0.3c-0.8,1.9-1.3,4-2.9,5.2c-0.3-0.1-0.4-0.3-0.7-0.3c-1.3,0.1-2.8,1.5-2.4,2.8l0,0c0,0.4,0.1,0.7,0.4,0.9l0,0
		c-1.5,0.8-1.7,2-1.3,3.2c-1.3-0.4-2.9-0.3-4.5-0.1c-1.9,0.1-3.7,0.7-5.7,0.8c-0.9,0-1.2-0.1-1.9,0.3c0,0-0.1,0-0.1,0.1
		c0,0.4,0.1,0.8,0.3,1.1c-0.1,0-0.4,0-0.7,0c0,0-0.4,0.3-0.3,0.3l0,0c-1.5,1.6-2,2.8-0.8,4.7c1.3,2.4,3.3,4.3,4.8,6.7
		c0.4,0.7,0.8,1.3,1.2,1.9h1.1c-0.5-0.8-0.9-1.5-1.5-2.3c-1.2-2.1-2.9-4-4.3-6c-0.5-0.8-0.9-1.5-1.2-2.4c-0.1-0.8,0.3-1.6,0.8-2.3
		c0.3,0.4,0.5,0.9,0.5,0.9c0.5,0.8,1.1,1.6,1.6,2.5c1.1,1.7,2.3,3.5,3.3,5.3c0.8,1.3,1.7,2.8,2.7,4.1h1.3c-1.2-2.1-2.4-4.1-3.6-6.3
		c-1.2-2-2.5-4.1-3.9-6.1c-0.1-0.7-0.5-1.3-0.8-2c-0.3-0.8,0-0.4,0.7-0.4c0.8,0,1.6-0.1,2.4-0.1c1.7-0.3,3.5-0.5,5.3-0.7
		c2.1-0.1,3.2,0.9,4.3,2.4c0.3,0.5,0.7,0.9,0.9,1.5c2.8,4,6,7.7,8.8,11.7h0.9c-2.4-3.5-5.1-6.7-7.3-10c-0.5-0.8-1.5-1.9-2.1-2.9
		c0,0,0.1-0.1,0-0.1c-0.3-0.7-0.7-1.2-1.1-1.6c-0.7-1.3-0.8-2.8,0.1-3.9c0.3,0.4,0.5,0.7,0.9,0.9c1.1,1.1,2,2,3.2,3.1
		c0.1,0.1,0.8-0.1,0.8-0.3c0-0.4-0.1-0.7-0.3-1.1c-0.3-0.9,0.9-0.5,1.5-0.4c0.1,0,0.8-0.1,0.7-0.3c-1.2-1.2-2-2.7-2.9-4.1
		c-0.3-0.4-0.7-0.9-1.1-1.3c1.9-1.2,2.5-3.1,3.3-4.9c0.4,0.4,0.7,0.8,0.9,1.2c0.7,0.9,1.3,1.9,2.1,2.7c1.5,1.6,2.8,3.5,4.3,5.1
		c1.6,1.7,3.1,3.6,4.4,5.5c0.5,0.7,0.9,1.5,1.6,2.1c0.4,0.4,1.1,0.9,1.2,1.5c-0.1,0.3-0.4,0.5-0.5,0.8c-1.5,2.1-3.2,4.3-4.9,6.1
		c-0.3,0.3-1.3,1.2-2.1,2.1h2.4c0.3-0.4,0.7-0.8,0.9-1.2C171.4,222.4,172.6,221.2,173.8,219.7z M157,204.1c0.9,1.2,1.6,2.7,2.5,3.9
		c-0.4,0-0.9,0-1.3,0.3c-0.4,0.1-0.4,0.5-0.4,0.8c-0.5-0.5-1.1-1.2-1.7-1.7c-0.7-0.7-1.5-1.3-1.6-2.3c0-0.1-0.1,0-0.4,0
		c0-0.5,0.3-0.9,0.5-1.3C155.4,202.1,156.5,203.3,157,204.1z M173.3,212.5c-1.5-2.1-3.2-4-4.9-5.9c-1.6-1.7-3.1-3.7-4.7-5.5
		c-0.8-0.9-1.6-2.4-2.5-3.3c0.5-0.4,1.3-1.1,1.7-0.7c0.9,0.7,1.6,1.9,2.3,2.7c1.5,2,3.2,3.7,4.7,5.6c1.6,1.9,2.8,3.9,4.4,5.7
		c0.7,0.8,1.2,1.7,1.9,2.5c0.3,0.3,0.5,0.7,0.7,0.9c-0.5,0.1-0.9,0.4-1.3,0.7c-0.1-0.1-0.3-0.4-0.4-0.5
		C174.3,214,173.8,213.3,173.3,212.5z"/>
	<path d="M155.9,223.5c-1.7-0.1-3.5,0.3-5.1,0.4c0,0-0.3,0.1-0.1,0.1c1.5,0.1,2.9-0.1,4.3,0c1.6,0.1,3.3,0.1,4.9,0
		c0.1,0,0.9-0.4,0.7-0.4C159,223.3,157.5,223.6,155.9,223.5z"/>
	<path d="M224.9,188.4v-0.5c-0.3,0.1-0.5,0.1-0.8,0.1c0,0,0,0,0-0.1c0.1,0,0.1,0,0.1,0c0.1,0,0.4,0,0.5-0.1l0,0h0.1v-2.7
		c-0.4-0.4-0.7-0.8-1.1-1.2c-0.3-0.3-0.5-0.5-0.8-0.7c0.3-0.5,0.3-1.2,0.4-1.9c0.3-1.3,1.2-2.5,1.3-3.7c0,0,0.1,0,0.3,0v-8.1l0,0
		c-0.1-0.5-0.4-1.1-0.5-1.7c-0.1-0.5-0.1-1.2-0.5-1.6c0.3-0.1,0.5-0.1,0.8-0.3c0.1,0,0.3-0.1,0.4-0.1v-0.8c-0.3,0-0.4,0.1-0.7,0.3
		c-1.2,0.5-2.3,1.1-3.5,1.3c-0.1,0,0.1,0.1,0.1,0.1c-1.1,0.3-2.1,1.1-2.8,1.9c-0.8,0.9-1.2,2-1.5,2.9c-0.1,0-0.3-0.1-0.3,0
		s0,0.4,0.1,0.7c0,0.1,0,0.1-0.1,0.3c-0.1,0-0.1,0-0.1,0c-0.8,1.9-1.6,4.1-0.8,6c0,0.1,0.3,0.1,0.4,0.3c0,0,0,0.1,0.1,0.3
		c0.1,0.4,0.1,0.8,0.3,1.2c0.3,1.1,0.5,2.1,0.9,3.1c0.3,0.5,0.5,1.3,0.9,1.9c0.7,0.7,1.6,1.1,2.3,1.9c0,0,0.1,0,0.1,0.1
		c0.3,0.3,0.5,0.4,0.8,0.5c0.9,0.3,2,0.5,3.1,0.7C224.6,188.4,224.7,188.4,224.9,188.4z M217.1,171.6c0.3-0.7,0.7-1.3,0.9-1.9
		c0.7-1.2,2.1-2.5,3.6-2.8c0.1,0-0.1-0.1-0.3-0.1c0.7-0.1,1.3-0.3,2-0.4c0.3,0.4,0.3,1.1,0.3,1.5c0,0.7,0.3,1.2,0.4,1.9
		c-0.7,0.4-1.2,1.2-1.7,1.7c-0.7,0.7-1.2,1.2-1.5,2.1c-0.1,0-0.3-0.1-0.4-0.1c-0.4-0.1-0.7,0-1.1,0c-0.4,0-0.9,0.1-1.3,0.4
		c-0.3,0.1-0.8,0.5-1.1,0.5c0-0.5-0.1-0.9-0.3-1.5v-0.1c0,0,0,0,0-0.1s-0.1-0.3-0.1-0.4C217,172.1,217,171.9,217.1,171.6z
		 M217.8,183.5c-0.3-0.5-0.4-0.9-0.7-1.5c0.5,0.9,1.2,1.6,1.9,2.4c0,0,0.1,0.1,0.3,0.1c0.1,0.5,0.3,1.1,0.5,1.5
		C218.9,185.3,218.3,184.5,217.8,183.5z M222.2,183.1c-0.7,0-1.5,0.3-2.1,0.4c-0.1,0-0.1,0-0.3,0c-0.3,0-0.5,0-0.8,0
		c-0.5-0.5-1.1-1.1-1.5-1.7c-0.4-0.8-0.8-1.6-1.2-2.4c0-0.3-0.1-0.4-0.3-0.7l0,0c0.5-1.1,0.5-2.4,0.9-3.6c0-0.1,0.1-0.4,0.1-0.7
		c0.7,0.1,1.2-0.3,1.9-0.5c0.5-0.1,1.1-0.3,1.5-0.4c0,0,0.3,0.1,0.4,0.1l0,0c0,0.1,0.1,0.1,0.4,0.3c0.5,1.3,1.2,2.7,2.3,3.2
		c-0.5,1.1-0.9,2.4-1.3,3.5C222.2,181.6,222.2,182.4,222.2,183.1z"/>
	<path d="M201,167.2c-0.4,1.2-1.2,2.3-1.7,3.5c-0.4,0.9-0.8,1.7-1.3,2.5c-0.5,0.8-1.6,2.5-0.3,3.2c1.6,0.7,3.5,0.4,5.2,0.5
		c0.5,0-0.5-0.4-0.7-0.4c-0.8,0-1.7-0.1-2.5-0.1c-1.5,0-2-0.4-1.5-1.6c0.5-1.3,1.6-2.5,2.1-3.9c0.1-0.3,0.3-0.5,0.4-0.8
		c0.1,0,0.3,0,0.3,0c0.8-0.8,1.6-0.5,2.5-0.4c0.4,0,1.2,0.3,1.6,0c0.1,0.3,0.4,0.7,0.5,0.9c0.7,1.2,3.5,5.1,1.1,5.7
		c-0.3,0.1,0.4,0.3,0.4,0.3c2,0.1,1.6-1.7,0.9-3.1c-1.1-2.3-2.8-4.4-3.9-6.7c0.1,0,0.1,0,0.1,0c0-1.5-0.3-2.8-0.1-4.3
		c0.1-0.7,0.7-1.2,0.8-1.9c0.1-0.1,0.3-0.4,0.1-0.7c-0.4-0.9-2.3-1.1-3.2-0.8c-0.7-0.1-1.3-0.1-1.5,0.5c0,0.1,0,0.3,0,0.4
		c0,1.1,0.4,2,0.5,3.1C201.4,164.7,201.4,166,201,167.2z M202.2,159.9L202.2,159.9c0.3,0,0.5,0,0.8,0s0.5,0,0.7-0.1l0,0
		c0.1,0,0.4,0,0.5,0.1c0.1,0.3,0,0.5-0.3,0.7c-0.4,0.3-1.2,0.3-1.6,0.1c-0.1,0-0.3,0-0.4-0.1C201.8,160.3,201.9,160,202.2,159.9z
		 M203,164.5c-0.1-0.1-0.4-0.1-0.5-0.1c0-0.1,0-0.3,0-0.4c0.3,0,0.5,0.1,0.7,0c0.1,0-0.4-0.3-0.4-0.3c-0.1,0-0.3,0-0.4,0
		c0-0.1,0-0.1,0-0.3c0.1,0,0.5,0.1,0.7,0l0,0c0.1,0,0.1-0.1,0.3-0.1s0-0.1,0-0.1c-0.3-0.1-0.5-0.1-0.8-0.1c-0.1,0-0.1,0-0.3,0
		c0-0.1,0-0.1,0-0.3c0.3,0.1,0.5,0.1,0.8,0.1c0.1,0,0.3,0,0.1-0.1s-0.4-0.1-0.5-0.3c-0.1,0-0.3-0.1-0.5-0.1
		c-0.1-0.5-0.4-1.1-0.5-1.6c0.5,0.1,1.2,0.3,1.6,0.3c0.3,0,0.8,0,1.3,0c-0.3,0.4-0.8,0.9-0.9,1.3c-0.4,1.3,0.1,2.9,0.1,4.3
		c0,0.1,0.1,0.1,0.3,0.1c0.1,0.9,0.5,1.7,1.1,2.5c-0.1,0-0.4-0.1-0.4-0.1c-0.4,0-0.9,0.1-1.3,0c-0.4,0-0.8-0.1-1.2-0.1
		c-0.3,0-0.7,0-0.8,0.3c0.5-1.1,1.1-2,1.3-3.2c0.1,0,0.4,0.1,0.5,0c0.1,0,0.1,0,0.3,0l0,0c0.1,0,0.1,0,0.1,0c0-0.3-0.5-0.4-0.9-0.4
		v-0.1v-0.1c0.1,0,0.3,0,0.4,0h0.1h0.1h0.1c-0.1-0.1-0.3-0.1-0.4-0.1c0,0-0.3-0.1-0.4-0.1c0-0.1,0-0.3,0-0.3c0.3,0.1,0.5,0.1,0.7,0
		c0.1,0,0.1-0.1,0.1-0.1C203.3,164.5,203.1,164.5,203,164.5z"/>
	<path d="M183.5,198.3C183.5,198.3,183.5,198.4,183.5,198.3c-0.3-0.1-0.7-0.1-0.9-0.1c-1.1,0.3-0.5,1.2,0.3,1.5
		c1.2,0.4,1.9-0.4,2-1.6c0.3-2.1,0.1-4.5-0.3-6.7c0.1-0.1,0.3-0.4,0.3-0.5c0.1-0.3-1.1-0.5-1.2-0.4c-0.9,0.5-2.1,0-3.1-0.1
		c-0.4,0-0.9,0-1.3,0.3c-0.5,0.3-0.7,0.4-0.7,0.8c-0.1,0.5,0,1.2,0,1.7c0,1.1,0.1,2.1,0.3,3.2c0,0.7,0,1.3,0,2.1
		c-0.1-0.1-0.4-0.1-0.5-0.1c-1.2-0.3-1.7,1.3-0.5,1.9c1.5,0.5,2.1,0,2.3-1.6c0.1-2.1-0.4-4.4-0.3-6.5c0.1,0,0.1,0,0.1,0
		c0.9-0.3,2.9,0.3,4-0.3c-0.3,1.6-0.3,3.2-0.4,4.8C183.7,197.2,183.7,197.7,183.5,198.3z"/>
	<path d="M76.9,164.8c-0.8,0.1-1.3,0.1-2,0.3v0.8c0.3-0.1,0.5-0.1,0.8-0.3c0.5-0.3,1.2-0.3,1.7-0.7l0,0c1.2-0.3,2.1-0.1,3.2,0.3
		s1.7,0.9,2.3,2l0,0c0,0.7,0,1.3,0.1,2c0,0.1,0.1,0.3,0.1,0.4c-0.7-0.1-1.3,0-1.9,0.4c-0.7,0.3-1.5,1.2-2.4,1.1
		c-1.2-0.5-2.7-1.6-4-1.5v8.1c0.3,0,0.5,0,0.8,0c0.7-0.1,1.2-0.4,1.9-0.5c0.5-0.1,1.1-0.3,1.6-0.5c0.4,0.5,0.9,1.1,1.3,1.5
		c0.8,0.7,2.1,1.3,2.4,2.4c-0.1-0.1,0-0.1,0,0c0,0,0,0.1,0.1,0.1c-0.4,1.2-1.3,2.4-1.1,3.6c0,0.1,0.1,0.1,0.1,0.3l0,0
		c-0.5,0.3-1.1,0.5-1.5,0.8c-0.5,0.3-1.3,0.4-2,0.4c-0.8,0.1-1.5,0.3-2.1,0.5c0,0-0.1-0.1-0.1-0.3c-0.3-0.3-0.7-0.5-0.9-0.7
		c-0.1-0.1-0.3-0.1-0.4-0.3v2.7c0.1,0,0.1,0,0.3-0.1l0,0c-0.1,0.1-0.1,0.1-0.3,0.1v0.7c0,0,0,0,0.1,0c2.5,1.6,7.3,1.2,9.7-1.1
		c2.3-0.9,4.7-3.7,4.8-6.1l0,0c1.2-2.8,1.1-6.1-0.7-8.7c0.1,0,0.1-0.1,0.3-0.1c0,0,0,0,0-0.1c-0.8-1.3-1.6-2.5-2.5-3.6
		c-0.4-0.4-0.8-0.8-1.3-1.1c-0.4-0.3-1.3-0.4-1.5-0.9c0-0.1-0.1-0.1-0.3-0.3c-0.7-0.7-2.3-1.3-2.7-1.5
		C79.7,164.5,77.9,164,76.9,164.8z M77.1,170.8c-0.1-0.1-0.4-0.1-0.5-0.3l0,0c0-0.1-0.4-0.3-0.7-0.3l0,0c0.5,0.1,1.2,0.4,1.7,0.7
		C77.5,170.8,77.4,170.8,77.1,170.8z M81.9,188.3c-1.9,1.1-4.5,0.8-6.5,0.1c0.4-0.1,0.8-0.3,1.1-0.8c0.3-0.4,0.3-0.8,0.1-1.1
		c1.1-0.1,2-0.4,3.1-0.5c1.2-0.1,1.9-0.7,2.9-1.1c0.7,0.4,1.5,0.5,2,0.5c0.1,0,0.1,0,0.3,0C84.1,186.7,83.3,187.6,81.9,188.3z
		 M85.1,184.7c-0.1,0.1-0.3,0.3-0.4,0.3c0-0.1,0.1-0.3,0.1-0.3c0.1,0,0.3-0.1,0.4-0.3h0.1C85.3,184.5,85.3,184.7,85.1,184.7z
		 M87.1,184.7c-0.5,0.7-1.1,1.2-1.7,1.7c0.3-0.4,0.4-0.8,0.5-1.3c0.8-0.5,1.2-1.5,2-2.1l0,0h0.1C87.8,183.5,87.5,184,87.1,184.7z
		 M87.7,178.7c0.7-1.3,0.4-2.7,0.3-4.1c-0.1-0.7,0-1.3-0.3-1.9c0.3,0,0.4,0,0.7,0c0.7,1.5,1.1,3.2,1.1,4.8c0,0.9-0.3,1.9-0.4,2.7
		c-0.1,0.4-0.3,0.7-0.4,1.1C88.5,180.4,87.9,179.5,87.7,178.7L87.7,178.7z M83.5,169.9c0.5,0.5,1.2,0.9,1.7,1.2
		c0.5,0.4,1.3,1.2,2.1,1.5c0.3,0.5,0,1.5,0,2c0.1,1.3,0.1,2.5-0.3,3.7c-0.1,0-0.3,0-0.4,0c-0.7,0.1-1.3,0.5-2,0.8
		c-0.4,0.3-0.8,0.4-1.3,0.5v-0.1c0,0-0.1,0-0.1-0.1c-0.5-0.4-1.1-0.8-1.5-1.2c-0.7-0.8-1.6-1.3-2.3-2c0.9-0.9,0.5-3.5,0.5-4.7
		c0-0.1-0.3-0.3-0.4-0.3c0.3,0,0.5,0,0.8-0.1c0.5,0,1.1-0.3,1.5-0.5C82.5,170.1,83,170,83.5,169.9z"/>
	<path d="M128.6,164.8c0.1-0.3,0.3-0.5,0.5-0.7c0.1-0.1,0.5-0.3,0.7-0.3s0.4-0.4,0.4-0.5c0,0.3,0-0.1,0-0.1c0-0.1-0.1-0.1-0.3-0.1
		c-0.3,0.1-0.5,0.3-0.8,0.5c-0.3,0.1-1.2,1.1-0.9,1.5C128.5,165.1,128.6,164.8,128.6,164.8z"/>
	<path d="M130.3,164.8L130.3,164.8C130.3,164.7,130.3,164.7,130.3,164.8c-0.3,0-0.9,0.7-0.5,0.8c0.1,0,0.3-0.1,0.3-0.3l0,0
		C130.2,165.2,130.5,164.9,130.3,164.8z"/>
	<path d="M116.9,159.7c0-0.1-0.4-0.1-0.4-0.1c-0.3,0-0.5-0.1-0.8-0.1c0-0.5,0-0.9-0.1-1.5c0-0.1-0.4-0.1-0.4-0.1
		c0,0.5-0.1,1.1-0.3,1.6l0,0c-0.3,0-0.5,0.1-0.7,0.1c0-0.3,0-0.4,0-0.7c0-0.1,0-0.4,0-0.5c0-0.1,0-0.3,0-0.4s-0.3-0.1-0.3-0.1
		c-0.5,0.3-0.5,1.2-0.7,1.9c-0.1,0-0.4,0-0.5,0c0-0.5-0.1-1.2-0.1-1.9c0-0.1-0.4-0.3-0.5-0.1c-0.4,0.5-0.3,1.1-0.4,1.7
		c0,0.1,0,0.3-0.1,0.3c-0.3,0-0.4,0-0.7,0c0-0.7-0.1-1.2-0.3-1.9c0-0.1-0.4-0.1-0.4-0.1c0,0.7,0,1.3-0.1,1.9l0,0c-0.1,0-0.4,0-0.5,0
		c0-0.7,0-1.5-0.4-2c0-0.1-0.5-0.3-0.5-0.1c0,0.8-0.1,1.5-0.3,2.1c-0.1,0-0.3,0-0.5,0c0-0.8,0-1.5-0.4-2.1l-0.4-0.1
		c0.1,0.7-0.1,1.5-0.3,2.1c-0.3,0-0.5,0-0.8-0.1c0-0.5-0.1-1.1-0.3-1.6c0,0-0.3-0.1-0.4-0.1c-0.3,0.5-0.3,1.1-0.4,1.6
		c-0.3,0-0.4,0-0.7,0l0,0c0-0.5-0.1-1.1-0.5-1.6l-0.5-0.1c0.1,0.4-0.1,1.2-0.1,1.6l0,0c-0.1,0-0.4,0-0.5,0s0,0.1,0.1,0.1
		c-0.1,0-0.3,0-0.3,0c-0.1,0-0.3,0.1-0.4,0.1h-0.1c-0.4,3.5-0.1,6.8,0.1,10.3s0,7.1,0.4,10.5c0,0.1,0.3,0.1,0.4,0.3
		c0.1,0,0.4,0,0.5,0.1c0.3,0,0.3,0,0.1-0.1c0.3,0,0.4,0,0.7,0c1.5,0.1,3.1-0.3,4.5-0.3h0.1h0.1c1.3,0.1,5.9,0.5,7.5,0.1
		c0.3,0.1,0.7,0.1,0.7,0c0-3.7,0.4-7.5,0.4-11.2c0-1.9,0-3.7,0-5.6C117.3,162.8,117.3,161.1,116.9,159.7z M110.1,180.4
		c1.3-0.5,2.1-1.7,2.3-3.2c0-0.1-0.1-2,0-2c0.8-0.1,1.7-0.4,2.4-0.8c0.4-0.1,0.7-0.4,0.9-0.7C114.9,176.8,113.3,180.1,110.1,180.4
		C110.2,180.5,110.2,180.4,110.1,180.4z M116.1,180.3C116.1,180.3,115.9,180.3,116.1,180.3c-0.5,0.5-1.7,0.3-2.3,0.3
		c-0.8,0-1.5,0-2.3,0c2.3-0.7,4-2.8,4.8-5.2C116.2,176.9,116.1,178.5,116.1,180.3z M116.5,169.6c0,0.1,0,0.1,0,0.3
		c-0.5,1.5-0.5,2.8-1.7,4c-0.9,0.9-2.3,1.1-3.5,1.3c0,0-0.1,0,0,0.1c0.8,0.9,0.5,2.4,0,3.5c-0.1,0.4-1.1,1.3-1.9,1.7
		c-1.2,0-2.3,0-3.5,0.1c-0.7,0-2.3,0.7-2.9,0.1c-0.5-3.6-0.4-7.3-0.7-10.9c-0.1-1.9-0.1-3.9-0.1-5.7c0-1.2-0.3-3.2,0.5-4.1
		c0,0,0,0-0.1,0l0,0c0.1,0,0.3,0,0.3,0c0,0.4,0,0.9,0.3,1.2c0.1,0.1,0.4,0.3,0.7,0.3c0,0,0.7,0,0.5-0.1c-0.3-0.3-0.3-0.8-0.1-1.2
		c0.3,0,0.4,0,0.7,0.1c0,0.4-0.1,0.9,0,1.2c0.1,0.1,1.1,0.4,1.1,0.3l0,0c0.3-0.3,0.1-0.9,0.1-1.3c0,0,0,0,0-0.1c0.3,0,0.5,0,0.8,0.1
		c-0.1,0.4-0.1,0.9,0.1,1.2c0.1,0.1,0.7,0.3,0.8,0.1c0.3-0.1,0.3-0.8,0.1-1.2c0.1,0,0.3,0,0.4,0c0,0.3,0,0.4,0,0.7s0.5,0.3,0.7,0.4
		c0.1,0,0.4,0,0.4,0l0,0c0-0.3,0-0.7,0.1-0.9c0.1,0,0.4,0,0.5,0c0,0.3,0,0.7,0.1,0.9c0.1,0.1,0.7,0.3,0.7,0.1c0.1-0.3,0.1-0.7,0-1.1
		c0.1,0,0.4,0,0.5,0c0,0.3-0.1,0.7,0,0.9c0,0.3,1.2,0.4,1.1,0.3c0-0.4,0-0.9,0-1.3c0.1,0,0.1,0,0.3,0s0.3,0,0.3,0
		c0,0.5,0,1.1,0.7,1.2c0.1,0,0.3,0.1,0.4,0l0,0c-0.1-0.1,0.1,0.1,0.1,0c0-0.3-0.1-0.7-0.1-0.9c0-0.1,0-0.3,0-0.4
		c0.3,0,0.4-0.1,0.7-0.1c-0.1,0.5-0.4,1.1-0.1,1.5c0.1,0.1,0.7,0.3,0.8,0.3c0.4-0.3,0.3-1.2,0.3-1.7v-0.1c0.3,0,0.7,0,0.8,0l0,0
		c0.1,1.3,0,2.8,0.1,4.1C116.6,165.9,116.5,167.7,116.5,169.6z"/>
	<path d="M152.1,83.2c0.1,0,0.9-0.4,0.7-0.4c-0.1,0-0.1,0-0.3,0c2.7-1.3,6-1.9,8.8-2.7c1.1-0.3,2.3-0.5,3.3-0.9
		c0.7-0.3,0.9-0.7,1.3-1.1c0.5-0.1,0.9-0.3,0.9-0.4c0.5-0.5,1.2-0.9,1.6-1.6c0.3-0.4,0.5-0.8,0.9-1.2H167c-0.5,0.7-1.1,1.2-1.3,1.9
		c-0.4-0.7-0.8-1.2-1.2-1.9h-0.9c0.7,0.9,1.2,1.9,1.9,2.7c-0.1,0-0.1,0-0.3,0c0,0-0.1,0-0.3,0h-0.1c-2.8,0.3-5.7,1.2-8.4,2.1
		c-1.1,0.4-2.3,0.5-3.3,0.9c-1.2-1.6-2.4-3.6-3.5-5.6h-1.2c1.3,2,2.7,4.1,3.9,6.1l0,0c-0.1,0.1-0.3,0.1-0.3,0.3
		c-0.3,0.3-0.3,0.5-0.4,0.8c-1.2-0.8-2-2.3-2.8-3.5c-0.8-1.3-1.7-2.5-2.5-3.9h-1.1c1.1,1.6,2.1,3.2,3.1,4.8
		C149.1,81.2,150.3,83.1,152.1,83.2z M160.1,79.2C160.1,79.2,160.1,79.3,160.1,79.2c0.3,0,0.3,0,0.4,0l0,0c-0.4,0.1-0.8,0.1-1.2,0.3
		c-0.1,0-0.3,0.1-0.4,0.1s-0.3,0-0.4,0.1c0,0-0.1,0-0.3,0c-0.1,0-0.3,0-0.4,0.1l0,0C158.3,79.7,159.3,79.5,160.1,79.2z"/>
	<path d="M153.1,76.1c1.1-0.1,2.1,0.1,3.2,0.1c1.6,0,3.3-0.1,4.8-0.7h0.1l0,0h0.1l0,0c0.5-0.3,0.7-0.7-0.1-0.3
		c-1.6,0.7-3.7,0.5-5.5,0.5c-1.2,0-2.9,0.3-4,0c0,0-0.4,0.1-0.3,0.1C152.1,76.3,152.5,76.1,153.1,76.1z"/>
	<path d="M158.5,77.9c0.7,0,1.2-0.1,1.9-0.3c0.7-0.1,1.5-0.7,2-0.5c0.1,0,1.1-0.4,0.9-0.4c-1.1-0.4-2.5,0.5-3.6,0.7
		c-2.3,0.4-4.4,0.4-6.7,1.1c0,0-0.3,0.1-0.1,0.1C154.7,78.1,156.6,78,158.5,77.9z"/>
	<path d="M158.5,129.1c0.4,0.3,0.8,0.5,1.3,0.8c0.8,0.7,1.6,1.2,2.7,1.6c0.3,0.1,0.8-0.7,0.7-0.7c-1.3-0.8-2.7-1.6-4-2.4
		c-0.5-0.3-1.3-0.8-2-0.4c-1.9,1.2,1.2,2.4,2,3.1c1.6,1.1,3.7,3.2,5.7,3.5c1.2,0.1,1.6-1.6,1.5-2.4c-0.1-1.9-3.6-3.2-4.9-4.1
		c-1.3-0.8-2.8-1.2-4-2c-0.9-0.5-1.7-1.1-2.8-0.7c-1.5,0.5-1.9,2.3-1.3,3.6c0.4,0.9,2.1,1.7,3.1,2.3c1.6,1.1,3.3,1.7,4.9,2.8
		c0.1,0.1,0.8-0.5,0.7-0.7c-1.7-1.2-3.7-2-5.5-3.2c-0.7-0.4-1.2-0.8-1.9-1.3c-0.5-0.5-1.5-2.8,0.1-2.9c0.8-0.1,1.6,0.7,2.3,0.9
		c0.8,0.5,1.7,0.9,2.5,1.2c1.5,0.7,2.9,1.7,4.4,2.7c0.5,0.4,1.1,0.8,1.5,1.3c0.3,0.4,0.7,1.9-0.1,1.9c-1.2-0.1-2.9-1.3-3.9-1.9
		c-1.3-0.8-3.1-1.9-4-3.2C157.8,128.8,158.2,128.8,158.5,129.1z"/>
	<path d="M135,128.7c-0.8-0.4-1.7-0.5-2.7-0.5c-1.1,0-2.1-0.1-3.2,0.1c-0.5,0.1-0.7,0.7-0.7,1.2c0,0.3,0.1,0.7,0.1,0.9
		c0,0-0.3,0.9-0.1,0.9h-0.1v0.1l0,0c-1.2,0.1-2.3,0.3-3.3,0.7c-0.4-0.1-0.7,0-0.7,0.1c0.3,1.6-0.4,3.2-0.4,4.8
		c-0.4,0.9-1.1,1.6-1.2,2.7c-0.3,1.3,0,2.7,0,4c0,0.1,0.3,0.3,0.7,0.4c-0.1,0,0.4,0.3,0.5,0.3c0.5,0,1.7,0.7,2.3,0.9
		c0.5,0.3,1.2,0.3,1.9,0.4c0.4,0,0.7,0.1,1.1,0.1c1.5,0.3,1.1,0.7,0.9,1.5s-0.4,1.5-0.7,2.1c-0.5,1.2-1.9,1.5-3.1,1.3
		c0-0.9,0.1-1.9,0.1-2.7c0-0.4-1.2-0.5-1.2-0.3c0,0.9-0.1,1.9-0.1,2.7c-1.1-0.4-2-1.1-2.5-1.7c-0.9-1.3,0.1-3.3,0.4-4.8
		c0-0.1-0.5-0.3-0.7-0.1c-1.2,1.1-1.5,2.9-1.1,4.4c0.1,0.4,0.3,0.7,0.5,0.9c0.1,2-0.7,4.4,1.5,5.6c2,1.2,3.9,1.3,6.1,1.3
		c0.5,0,1.1,0.1,1.7,0.1c1.3,0.3,2.8,0.4,4.1,0.3l0,0c1.7,0.4,3.9,0,5.3-0.4c1.6-0.4,2.7-1.3,2.9-3.1c0.1-1.1,0.1-2.7-0.5-3.6
		c0.1,0,0.1-0.1,0.3-0.1c1.6-0.9,0.1-3.9-0.4-4.9c0-0.1-0.1-0.1-0.3-0.3c0.1-0.9-0.1-2.3-0.3-2.9c-0.4-2.1-1.6-4.1-2.7-6.1
		c0-1.2-0.3-2.5-0.4-3.5c0-0.3-0.8-0.4-1.1-0.4c-0.8,0-1.7,0.1-2.5,0.1C135.7,130.5,135.8,129.1,135,128.7z M129.7,129.5
		c0-1.1,1.6-0.8,2.3-0.8c0.5,0,1.1,0,1.7,0c1.1,0,0.7,2.1,0.7,2.8l0,0c-1.2,0-2.4,0-3.6,0.1c-0.4,0-0.8,0-1.2,0
		c0.1-0.3,0.1-0.5,0.3-0.8C129.9,130.4,129.7,129.9,129.7,129.5z M141.8,144.8L141.8,144.8c0.5,1.2,0.9,2.3,0.8,3.5
		c-0.3,1.2-2,1.3-3.1,1.5c0-0.3-0.1-0.7-0.1-0.9c0-0.5,0-0.4-0.3-0.8c-0.1-0.1-0.5-0.3-0.7-0.1c-0.1,0-0.1,0.1-0.3,0.1l0,0
		c0,0.7,0,1.3,0.1,2c-1.2,0.4-2.8,0.8-3.3-0.4c-0.5-1.1-0.4-2.5-0.8-3.7c0.9-0.1,1.6,0.1,2.5,0c0.9,0,1.7-0.3,2.7-0.5
		C139.8,145.2,141.5,145.3,141.8,144.8z M139.8,138c0.3,0.7,0.5,1.2,0.8,1.9c0.5,1.5,0.4,2.9,0.5,4.4c-0.1,0-0.3,0-0.3,0
		c-0.8,0.3-1.7,0.3-2.5,0.5c-1.1,0.4-2,0.5-3.1,0.5c-0.4,0-0.8,0-1.2,0.1c-0.1-0.1-0.4-0.1-0.4,0c0.1,1.1-0.1,2.5,0.1,3.7
		c-0.1,1.6-0.3,3.2-0.1,4.8c0,0.1,0.7,0.4,0.8,0.1c0.3-1.2,0.3-2.5,0-3.9c0.5,0.4,1.1,0.5,1.7,0.7c0.7,0.4,1.3,0.4,2,0.4
		c0.1,0,0.1,0,0.3,0c0,0.1,0,0.1,0,0.3c-0.1,0-0.4,0-0.4,0.3h-0.1c-0.1,0.7,0,1.3,0.1,1.9c0,0.1,0.1,0.1,0.4,0.1c0,0.1,0,0.1,0,0.3
		c0,0.4,1.3,0.5,1.3,0.3c0-1.1,0.1-2.1,0-3.2c0.9,0,2-0.1,2.5-0.5c0,1.3,0,2.5-0.7,3.7c-0.7,1.1-2.3,1.3-3.3,1.6
		c-1.5,0.4-3.1,0.5-4.1-0.5c-0.1-0.1-0.8-0.1-0.8-0.1c0.3,0.3,0.5,0.5,0.9,0.8c-1.1-0.1-2-0.1-3.1-0.3c-0.5,0-1.2,0-1.7,0
		c-0.1-0.1-0.4-0.1-0.5-0.1c-0.3,0-0.5,0-0.8,0c-0.1,0-0.1,0-0.3-0.1c-0.1,0-0.4,0-0.1,0l0,0c-1.9,0-4.1-0.3-4.8-2.3
		c-0.4-1.2-0.3-2.4-0.4-3.6c0.3,0.1,0.4,0.3,0.7,0.4c-0.1,0-0.1,0-0.1,0.1c0.1,0.4,0,0.3,0.4,0.7c0,0,0.5,0.3,0.8,0.3
		c0.1,0,0.1,0.1,0.3,0.1v0.1c0,0.5,0,1.5,0.4,1.9c0,0,0.3,0.1,0.4,0.1c0,0.1,0.1,0.4,0.1,0.5c0.1,0.3,1.3,0.4,1.2,0.3
		c-0.3-0.7-0.3-1.3-0.3-2.1c0.9,0.3,1.9,0.4,2.8,0.3c1.1-0.3,1.6-0.9,1.9-1.9c-0.1,1.3-0.5,2.5-0.3,3.9c0,0.1,0.4,0.3,0.4,0.1
		c0.5-1.9,0.7-4.1,0.1-6v-0.1l0,0c0.1-0.5,0.3-1.2,0.4-1.7c0-0.1-0.3-0.3-0.3-0.3c-1.1-0.4-2.3-0.7-3.5-0.8c-1.3-0.3-2.7-1.1-4-1.2
		h0.1c0-1.3-0.1-2.7,0-4c0-0.5,0.3-0.9,0.4-1.3c0.1,0.3,0.4,0.5,0.7,0.8c0.5,0.4,1.1,0.7,1.7,0.8c-0.1,0.1-0.4,0.4-0.3,0.7
		c0,0.1,0.4,0.1,0.5,0.1c-0.1,0.4-0.4,0.8-0.7,1.1c-0.1,0.1,0.8,0.5,1.1,0.4c0.4-0.3,0.5-0.5,0.7-1.1c0-0.1,0-0.3,0-0.3
		c0.3,0.1,0.9,0.1,0.9,0.1c0-0.1,0-0.1,0-0.3c0.4,0.1,0.8,0.1,1.2,0c0.3,0,0.4,0,0.7-0.1c-0.1,0.7-0.3,1.2-0.5,1.7
		c-0.3,0.5-0.8,0.8-1.3,1.1c-0.5,0.1-0.8-0.1-1.2-0.4c0,0-0.7-0.3-0.5,0c0.3,1.1,1.9,0.9,2.5,0.5c1.1-0.5,1.3-1.9,1.5-2.9l0,0
		c0.1,0.5,0.3,1.2,0.3,1.6v0.1l0,0c0,0.3-0.3,0.3-0.4,0.4s-0.1,0.5-0.1,0.7c0,0.5,0,1.1,0.3,1.5c0,0.1,0.3,0.1,0.4,0.3
		c0,0.4,0.1,0.7,0.3,0.8s1.2,0.5,1.3,0.3v-0.1c0,0,0-0.1-0.1-0.1c-0.1-0.4-0.1-1.3-0.1-1.6c-0.1-0.8-0.1-1.6-0.3-2.5
		c0-0.4,0-0.9-0.1-1.3c0.1,0.8,0.5,1.5,1.1,2.1c0.7,0.8,1.5,1.1,2.5,1.1c0.5,0,0-0.3-0.1-0.4l0,0c0-0.1-0.5-0.3-0.5-0.1
		c-0.1,0.4-0.9-0.3-0.9-0.4c-0.3-0.3-0.5-0.5-0.7-0.9c-0.3-0.4-0.5-1.1-0.7-1.6c0.1,0,0.1,0,0.3,0c0.9,0,1.7,0.3,2.7,0.1
		c0.1,0,0.3,0,0.4,0c0.3,0.4,0.5,0.8,0.9,1.1c0.3,0.1,0.5,0.3,0.8,0.3c0.1,0,0.5,0,0.3-0.1c-0.5-0.4-0.8-0.9-1.2-1.5
		c0.1,0,0.1-0.1,0.3-0.1c0.1,0.1,0.3,0.3,0.4,0.3c0.3,0.1,0.5,0.3,0.8,0.3c0.1,0,0.5,0,0.3-0.1c-0.3-0.3-0.5-0.5-0.9-0.8
		C138.9,139.5,139.7,138.8,139.8,138z M137.9,131.9c0.3,2,0.4,3.9-0.3,5.7c-0.7,2.3-3.3,2.3-5.2,2.3c-0.1-0.7-0.3-1.2-0.5-1.7
		c0-0.1-0.4-0.3-0.5-0.1c-0.4,0.5-0.4,1.2-0.3,2c-2.1,0.1-4.7,0.5-5.6-1.3s0.5-4,0.1-6c0-0.1-0.1-0.1-0.3-0.1
		c2.1-0.4,4.5-0.4,6.5-0.4C134.1,131.9,136.1,131.9,137.9,131.9z"/>
	<path d="M93,130.9L93,130.9C92.9,130.8,93,130.9,93,130.9z"/>
	<path d="M93.3,130.7c0,0-0.4-0.1-0.4,0c0.1,0.1,0.1,0.1,0.3,0.3c0,0,0,0-0.1,0c-0.1,0-0.1,0-0.3,0s-0.1,0.3-0.3,0.3
		c0,0.1-0.1,0.3-0.1,0.4c-0.1,0-0.3,0-0.4,0c-0.1,0-0.4,0-0.4,0c-0.1,0-0.3-0.1-0.3-0.1c-0.1,0-1.1-0.3-0.8,0
		c0.1,0.1,0.3,0.3,0.4,0.3c-0.3,0-0.8-0.1-0.7,0c-4.8-1.2-9.9,2.4-11.6,6.9c-1.9,4.9,1.2,10.7,5.6,12.9c-0.1,0.1-0.3,0.4-0.4,0.5
		l0,0c-0.3-0.1-0.5-0.1-0.5,0c-0.1,0.3-0.3,0.4-0.3,0.7l0,0c0,0-0.1,0,0,0.1l0,0c0,0.1,0,0.1,0,0.3c-0.1,0-0.1,0,0,0.1
		c-0.1,0-0.1,0-0.1,0.1c0,0,0,0,0.1,0c-0.1,0-0.3,0-0.1,0.1c0.3,0.1,0.5,0.3,0.8,0.4l0,0l0,0l0,0c0,0,0,0,0.1,0l0,0
		c0.1,0,0.8,0.1,0.5,0c-0.1-0.1-0.1-0.1-0.3-0.3c0.3,0,0.5,0,0.4-0.1c0,0-0.1,0-0.1-0.1c0.1,0,0.3,0,0.3-0.1c0,0,0,0,0-0.1
		c1.1,0.4,2.7,0.5,3.6,0.7l0,0c-0.1,0.1-0.3,0.4-0.3,0.7c-0.1,0-0.3-0.1-0.3,0c0,0.9-1.3,2.1-1.3,3.1c-0.5,0.1-1.2,0-1.7,0
		c-0.7,0.1-1.2,0.3-1.9,0.4c-0.4,0.1-2.3,0.7-1.9,1.3c0,0,0.1,0.1,0.3,0.1c-0.8,3.6,5.7,3.6,7.3,3.7c2.1,0.3,4.4,0.4,6.5-0.3
		c0.5-0.1,2.9-1.2,1.6-2c-0.1-0.1-1.3-0.3-0.9,0c0,0,0,0,0,0.1c-0.5,0-0.9,0.1-1.5,0.3c-1.6,0.5-2.7,1.1-4.4,0.9
		c-1.9-0.1-5.1,0.3-6.5-0.7H83c1.5,1.1,3.3,0.9,5.1,1.1c1.3,0,2.8,0.4,4.1,0.3c0.9-0.1,1.7-0.4,2.5-0.8c-0.4,0.3-0.9,0.4-1.1,0.5
		c-1.6,0.5-3.2,0.4-4.8,0.3c-2.4-0.1-6.5,0.3-7.6-2.7l0,0c0.3-0.3,0.5-0.5,0.9-0.8c0.5-0.3,1.2-0.5,1.7-0.7c0.5-0.1,0.9-0.3,1.5-0.3
		c0.1,0,0.4,0,0.5,0c0,0.1,0.1,0.3,0.3,0.4c0.8,0.9,2.8,1.1,3.7,0.8c0.9-0.1,1.2-0.7,1.1-1.3c0.7,0.1,1.3,0.5,2,0.7
		c0.5,0.1,0.9,0.3,1.3,0.4c0.4,0.3,0.5,0.7,0.8,1.1c0.1,0.1,0.7,0.3,0.8,0.1c0.7-1.1-3.1-2.1-4.9-2.5c-0.1-0.5-0.4-1.2-0.7-1.7
		c-0.3-0.4-0.5-0.7-0.8-0.9v-0.1l0,0c0-0.1,0-0.1,0-0.3s-0.1-0.1-0.3-0.3c-0.1,0-0.3-0.1-0.4-0.1c0,0-0.1-0.1-0.3-0.1
		s-0.3-0.1-0.4-0.1c1.6,0.1,3.1-0.1,4.7-0.7c2.8-1.1,5.2-3.3,6.5-6c1.5-2.9,1.5-6.3,0.4-9.3C99,134.8,96.2,132.7,93.3,130.7z
		 M90.5,132.3c1.1,0.3,1.9,0.7,2.7,1.2c0,0,0.1,0,0.1,0.1c0,0,0,0,0.1,0c2.5,1.7,4,4.8,4.3,7.9c-0.3-0.1-0.8-0.1-0.8,0
		c-0.1,0.3-0.3,0.5-0.5,0.7c-0.1,0.1-0.3,0.7-0.3,0.8s-0.1,0.1-0.3,0.3c0,0.1-0.1,0.3-0.1,0.3c0,0.1,0,0.3,0,0.4l0,0
		c-0.4-0.3-0.1-0.8-0.5-1.1c-0.1-0.1-0.4-0.3-0.5-0.3c-0.3-0.5-0.7-0.9-1.3-1.1c-0.8-0.1-1.2,0.1-1.6,0.7c0-0.4,0-0.8-0.1-1.2
		c-0.3-0.7-0.5-1.2-1.1-1.7c-0.5-0.5-1.3-1.6-2-2c-0.4-0.3-0.9-0.4-1.3-0.3s-0.3,0.5-0.3,0.8c0,0.1,0.3,0.4,0.3,0.4
		c0.4,0.4,0.5,0.5,0.7,1.1c-0.1,0-0.3,0-0.5-0.1c-1.5-0.1-0.3-2.7,0-3.2c0.3-0.5,0.4-0.9,0.9-1.3c0.1-0.1,0.4-0.4,0.4-0.5
		c-0.1-0.5-0.5-1.2-0.9-1.7C88.6,132.1,89.5,132.1,90.5,132.3z M82.7,134.9c0.3,0.4,0.8,0.7,1.2,0.8c0.5,0.3,0.9,0.4,0.7,0.9
		c-0.1,0.7-0.4,1.1-0.7,1.6c-0.3,0.8,0.3,1.5,0.8,1.9c1.9,1.7-1.3,0-1.9,0.9c-0.5,1.2,0,1.9-1.3,2.7c-0.3,0.1-0.4,0.5-0.5,0.9
		c-0.3-0.7-0.1-1.5,0.1-2.1c0.1-0.3,0-0.4,0-0.8c-0.1-0.8-0.1-0.8,0.1-1.5c0.3-0.8-0.3-1.7-0.8-2.3C81,136.9,81.8,135.9,82.7,134.9z
		 M79.7,140.5c0.1-0.7,0.4-1.3,0.7-2c0.1,0.4,0,1.1,0,1.3c-0.1,0.8-0.4,1.1,0,1.9c0.3,0.5-0.4,1.6-0.4,2.3c0,0.5,0.4,1.2,0.7,1.5
		c0.3,0.1,0.7,0.3,0.9,0.3c0.4-0.1,0.4-0.7,0.4-0.9c0.1-0.5,1.3-1.2,1.7-1.7c0.1-0.1,0-0.8,0-0.9c0.1-0.8,0.8-0.7,1.3-0.5
		c0.4,0.1,0.7,0.1,1.1,0s0-0.5-0.1-0.7c-0.5-0.7-1.2-0.9-1.2-2c0-0.9,0.7-1.7,0.5-2.7c0-0.3-0.8-0.4-0.8-0.5c0,0,0,0,0-0.1
		c-0.5-0.4-0.7-0.7-0.9-1.3c0,0,0,0-0.1-0.1c0.8-0.5,1.6-1.1,2.4-1.5c0.5-0.3,0.9-0.4,1.5-0.5c0.1,0.3,0.1,0.4,0.3,0.7
		c0.4,0.8,0,1.1-0.7,1.5c-0.8,0.5-1.3,1.7-1.6,2.7c0.1,0.8,0.3,1.9,0.8,2.1c0.5,0.4,1.5,0.3,1.9,0.7c0.1,0,1.1,0.4,1.1,0.1
		c0-0.5-0.1-0.9-0.5-1.3c-0.1-0.1-0.3-0.1-0.3-0.3c-0.1-0.3-0.3-0.5-0.3-0.8c0.3,0.3,0.5,0.5,0.7,0.8c0.5,0.7,1.2,1.1,1.6,1.7
		c0.7,0.9,0.3,2.3,0.8,3.2c0.1,0.1,0.9,0.4,1.1,0.3c0.5-0.5,1.2-2.1,1.7-0.8c0.1,0.3,0.5,0.3,0.8,0.3c-0.4,0-0.1,0.7,0,0.8
		c0.4,0.4,0.7,0.7,0.1,1.1c-0.1,0.1-0.1,0.4,0,0.5c0.3,0.8,0.1,1.3-0.1,2.1c-0.1,0.3,1.2,0.5,1.2,0.3c0-0.1,0.1-0.3,0.1-0.4
		c0.1-0.4,0.1-0.7,0-1.1c-0.1-0.5-0.8-1.3,0.1-1.5c0,0,0.1,0,0.1-0.1s-0.1-0.3-0.1-0.4c-0.1-0.4,0-0.7,0.3-0.9
		c0.3-0.1,0.4-0.1,0.7-0.4c0.1-0.3,0.3-0.5,0.5-0.7c0.1,0,0.1-0.1,0.1-0.1c0,0.5,0,1.1,0,1.6c-0.4,4.8-5.7,8.8-10.4,8.5
		c-0.9,0-1.9-0.3-2.7-0.8c0,0,0,0-0.1,0C81,149.6,79,144.3,79.7,140.5z M89.5,155.7C89.5,155.7,89.7,155.7,89.5,155.7
		c0.1,0,0.1,0,0.3,0c0.3,0.3,0.4,0.5,0.5,0.8c0.3,0.4,0.4,0.8,0.5,1.3h-0.1c-0.1,0,0,0.1,0.1,0.1c0,0.1,0,0.3,0,0.4
		c0,1.3-3.7,1.2-3.5-0.4c0.1-0.9,0.9-1.7,0.8-2.8c0,0,0,0,0.1,0.1C88.5,155.6,89.1,155.9,89.5,155.7z M99.8,145.2
		c-0.5,2.4-2.3,4.7-4.3,6.1c-0.9,0.8-2,1.3-3.2,1.9c-2.5,1.1-5.2,0.7-7.7-0.1c0-0.1,0.1-0.3,0.1-0.5c0-0.1,0.1-0.3,0.1-0.3v-0.1
		c0.4,0.1,0.8,0.4,1.2,0.4c5.5,1.7,11.6-2.5,12.8-7.9c1.1-4.4-1.3-8.7-4.8-11.1c0.1,0,0.3,0,0.1-0.1c0,0-0.1,0-0.1-0.1
		c0.1,0,0.3,0,0.1-0.1c0.1,0,0.1,0,0-0.1c-0.3-0.1-0.4-0.3-0.7-0.4c0.3,0,0.5,0,0.4-0.1c-0.1-0.1-0.3-0.1-0.3-0.3c0.1,0,0.3,0,0-0.1
		c-0.3-0.1-0.4-0.3-0.5-0.4c0.1-0.1,0.1-0.3,0.3-0.4c0,0,0,0,0.1-0.1c0.7,0.7,1.5,1.2,2.3,1.7c1.2,0.9,2.1,2.3,2.9,3.6
		C100.1,139.3,100.5,142.4,99.8,145.2z"/>
	<path d="M84.9,144.8L84.9,144.8C85,144.8,85,144.8,84.9,144.8L84.9,144.8L84.9,144.8L84.9,144.8L84.9,144.8
		c0.1-0.1-0.1-0.1-0.1-0.3c-0.5-0.1-0.9,0-1.2,0.5c-0.1,0.3-0.7,1.1-0.3,1.3c0.3,0.1,0.7,0.3,0.9,0.3c0.3,0,0.1-0.4,0.3-0.7
		C84.5,145.6,84.5,145.1,84.9,144.8z"/>
	<path d="M99.4,76.8c0.1,2.5,0.5,4.9,0.8,7.3s0.1,4.8,0.4,7.2c0.1,1.1,0,2.1,0.1,3.2c0,0.4,0,0.8,0,1.2c-0.5-0.1-1.1-0.1-1.5-0.1
		c0-0.3,0-0.4-0.1-0.7c-0.3-1.1-0.3-2-0.3-2.9c0-2.5-0.4-5.1-0.8-7.7c-0.4-2.4-0.4-4.8-0.8-7.1c-0.1-0.7,0-1.3,0-2.1h-0.9
		c0,0.8,0.1,1.6,0.3,2.5c0.3,2.1,0.4,4.4,0.7,6.5c0.3,2.3,0.5,4.7,0.7,7.1c0,0.9,0,1.7,0,2.7c0,0.5,0.4,1.3,0.1,2
		c-0.3,0.1-0.5,0.1-0.9,0.3c-2.4,0.9-5.1,1.7-7.6,2.3c-0.5,0.1-3.7,0.5-5.1,1.3c0.1-4.9-0.4-9.7-0.4-14.7c0-0.9-0.1-2.3-0.1-3.6
		c0,0,0.1,0,0.1-0.1c0.1-0.7,0.1-1.3,0.1-1.9c0.3-1.5,0.8-2.8,2.3-3.2c0,0.4,0.1,0.8,0.3,1.2c0.1,1.6,0.4,2.9,0.8,4.4
		c0,0.1,0.7,0.4,0.8,0.1c0.1-0.4,0.3-0.7,0.4-1.1c0.3-0.9,1.1,0.1,1.5,0.5c0,0,0.8,0.3,0.7,0c-0.4-1.6-0.1-3.3-0.1-5.1
		c0-0.4,0-0.9,0-1.5h-0.8c0,0.3,0.1,0.7,0.1,0.9c0,1.5-0.1,3.1,0,4.5c-0.4-0.3-0.7-0.5-1.2-0.5c-0.5,0.1-0.7,0.3-0.8,0.5
		c-0.1-0.7-0.4-1.5-0.5-2.3c-0.1-0.9-0.4-2,0-2.9c0,0,0-0.1-0.1-0.1h-0.8c-0.1,0.3-0.1,0.7-0.1,0.9l0,0c-1.7-0.1-2.7,0.8-3.1,1.9
		c-0.8-1.1-2.3-1.9-3.7-2.7c0,0-0.1-0.1-0.3-0.1h-0.8c0.8,0.4,1.5,0.8,2.3,1.2c1.9,0.9,2,2.5,2.3,4.3c0,0.7,0,1.2,0,1.7
		c0.1,6,0.9,12,0.7,18l-0.1-0.1c0,0-0.1-0.1-0.3-0.1h-0.1c-2.5-1.3-5.3-2.1-8.1-2.9c-0.1,0-0.1,0-0.3-0.1v1.5
		c1.5,0.5,2.9,1.1,4.3,1.5c1.1,0.4,2.1,0.8,3.3,1.1c0.7,0.1,1.2,0,1.7-0.1c0.3,0.1,0.7,0.3,0.8,0.3c0.8-0.1,1.5-0.1,2.3-0.4
		c0.9-0.3,1.9-0.7,2.8-0.9c1.7-0.5,3.5-0.9,5.2-1.5c1.3-0.4,2.5-0.8,3.7-1.1c0.4-0.1,0.9-0.1,1.3-0.4c0.1,0,0.4,0.1,0.4,0
		c0.8-0.4,0.8-1.1,0.8-1.9c0-1.3,0-2.7-0.1-4c-0.3-3.2-0.3-6.4-0.7-9.7c-0.3-2-0.3-4.1-0.5-6.3h-0.8C99.4,75.7,99.4,76.3,99.4,76.8z
		 M78.9,98.7c-0.4-0.1-0.8-0.3-1.2-0.5c-0.1,0-0.3,0-0.4,0S77,98,76.9,98c0,0-0.1-0.1-0.3-0.1c-0.3,0-0.4,0-0.4-0.1l0,0
		c0.8,0.3,1.6,0.5,2.4,0.8c0,0,0,0,0.1,0.1C78.7,98.7,78.7,98.7,78.9,98.7L78.9,98.7z"/>
	<path d="M79.3,77.1c-1.2-0.8-2.4-1.3-3.6-2H75c0.8,0.5,1.7,1.1,2.5,1.5c1.3,0.8,2.4,1.7,3.7,2.7c0.1,0,0.8,0.3,0.7,0
		C81.5,78.3,80.1,77.6,79.3,77.1z"/>
	<path d="M81.1,80.4c-1.1-0.7-1.9-1.3-2.8-2.1c-1.1-0.9-2.3-1.3-3.5-1.9v0.3c0.8,0.4,1.7,0.9,2.4,1.6c1.2,1.2,2.5,1.9,3.9,2.8
		c0.1,0.1,0.9,0.3,0.8,0.1C81.8,80.8,81.4,80.5,81.1,80.4z"/>
	<path d="M79.1,80.9c-0.8-0.5-1.6-1.2-2.4-1.7c-0.5-0.4-1.2-0.7-1.9-1.1v0.4c0.8,0.5,1.6,1.1,2.4,1.7c1.2,0.9,2.5,1.6,3.5,2.7
		c0.1,0.1,0.9,0.4,0.9,0.1C81.5,82.1,79.9,81.5,79.1,80.9z"/>
	<path d="M80.6,85.3c0.1,0,0.4,0.1,0.5,0.1s0.4,0,0.3-0.1c-1.1-1.1-2.4-1.7-3.6-2.7c-0.5-0.4-1.1-0.9-1.5-1.3
		c-0.4-0.5-0.9-0.8-1.5-1.1v0.4c0.7,0.5,1.2,1.2,1.9,1.9c0.5,0.5,1.2,0.9,1.9,1.3c0.5,0.3,0.9,0.7,1.3,1.1c0.1,0,0.3,0,0.3,0.1
		c0,0,0,0-0.1,0C80.1,85.2,80.6,85.3,80.6,85.3z"/>
	<path d="M81,87.2c0.1,0.1,0.9,0.3,0.9,0.1c-0.8-1.5-3.1-2.3-4.3-3.2c-0.9-0.7-1.7-1.2-2.8-1.6v0.1c0.9,0.5,1.7,1.3,2.5,2
		C78.6,85.5,79.8,86.3,81,87.2z"/>
	<path d="M78.7,86.9c-1.3-0.8-2.5-1.6-3.9-2.3v0.3c2.1,1.5,4.1,3.2,6.3,4.5c0.1,0,0.9,0.1,0.8,0.1C81.1,88.5,79.8,87.7,78.7,86.9z"
		/>
	<path d="M78.3,89.1c-1.1-0.8-2.3-1.9-3.5-2.4v0.4c0.3,0.3,0.5,0.5,0.8,0.8c0.5,0.4,1.2,0.8,1.7,1.2c1.3,0.9,2.7,1.9,4,2.8
		c0,0,0.7,0.1,0.7,0C81.4,90.7,79.5,89.7,78.3,89.1z"/>
	<path d="M78.3,91.3c-1.1-0.8-2.3-1.5-3.5-2v0.3c0.8,0.5,1.7,1.1,2.5,1.6c1.3,1.1,2.7,2,4.1,2.7c0.1,0,1.1,0.3,0.8,0
		C81,92.9,79.5,92.4,78.3,91.3z"/>
	<path d="M81.8,95.9c-1.7-0.4-3.3-1.6-4.8-2.5c-0.5-0.4-1.3-0.8-2.1-1.3v0.3c0.8,0.5,1.5,1.2,2.1,1.6c1.3,0.9,2.8,1.7,4.3,2.1h0.1
		l0,0h0.1l0,0C82.2,96.3,82.6,96,81.8,95.9z"/>
	<path d="M79.7,97.2c0.5,0.3,1.5,0.3,2,0.7c0.1,0.1,1.1,0.3,0.9,0.1c-0.7-0.9-2.4-0.9-3.3-1.5c-1.5-0.7-2.9-1.5-4.4-2.1v0.3
		c1.1,0.5,2.1,1.2,3.2,1.7C78.6,96.8,79.1,97.1,79.7,97.2z"/>
	<path d="M150.2,101.5c-0.3,2.9,1.2,5.9,2.1,8.5c0.4,1.2,0.9,2.7,1.7,3.6c-0.4,0.7,0,1.3,0.5,1.9c0,0.4,0,0.7,0.1,1.2
		c0,0.8-0.1,1.6,0,2.5c0,0.1,0.1,0.1,0.3,0.1c0.4,0.1,0.7,0.5,1.1,0.7c0.3,0.1,1.6,0.7,1.6,0.9c0,0.1,0.5,0.3,0.7,0.3l0,0h0.1
		c0.5-0.1,0.9-0.7,1.5-0.9c0.5-0.4,1.3-0.9,1.5-1.6c0.1-0.9-0.1-2,0-2.9s0.5-1.7,0.7-2.7c0,0,0-0.1-0.1-0.1c0.5-0.8,1.1-1.7,1.5-2.5
		c0.7-1.2,1.3-2.5,1.9-3.7c1.1-2.5,1.5-5.1,0.3-7.6c-0.9-1.9-2.8-3.6-4.8-4.3C156.2,93.6,150.7,96.7,150.2,101.5z M157.7,117.2
		c-0.5,0-1.3-0.3-2-0.1v-0.1c0-0.3,0-0.5-0.1-0.7c1.2,0.5,2.5,0.5,3.9,0.5l0,0C158.9,116.9,158.3,117.2,157.7,117.2z M160.5,117.1
		c0,0.1,0,0.4,0,0.5c-0.1,0-0.4-0.1-0.4-0.1l0,0l0,0c-0.5,0.1-1.1,0.4-1.7,0.5c-0.8,0.1-1.7,0.1-2.5-0.1c0-0.3,0-0.5,0-0.8
		c0.8,0,1.7,0.3,2.5,0.3C159.1,117.6,159.8,117.3,160.5,117.1z M158.3,120.8c-0.4-0.3-0.7-0.4-1.1-0.7c0.1,0,0.3,0,0.3,0
		c0.7-0.1,1.2,0,1.9,0h0.1C159.1,120.4,158.7,120.7,158.3,120.8z M160.3,119.1L160.3,119.1c-0.4,0.1-0.5,0.3-0.9,0.4
		s-0.8,0.3-1.2,0.3c-0.4,0-1.1-0.1-1.3,0.1c-0.4-0.3-0.8-0.4-1.1-0.7l0,0c1.1,0,2.3,0.3,3.3,0c0.4,0,0.9-0.3,1.3-0.4
		C160.5,119.1,160.5,119.1,160.3,119.1z M160.5,118.4c-0.5,0-1.1,0.3-1.6,0.4c-0.8,0.3-1.6,0.3-2.5,0.1c-0.3,0-0.5,0-0.8,0
		c0-0.3,0-0.5,0-0.8c0.7,0.3,1.3,0.4,1.9,0.4c1.1,0,1.9-0.3,2.9-0.5C160.5,118.1,160.5,118.3,160.5,118.4z M160.6,115.1
		c-0.1,0.4-0.1,0.9-0.1,1.5l0,0c-0.3,0-0.5,0.1-0.9,0.1c0.1-0.1-0.4-0.3-0.5-0.3c-1.1,0-2.1,0.1-3.1-0.4c-0.7-0.4-1.1-1.1-1.2-1.7
		c0.1,0.1,0.4,0.3,0.7,0.4c-0.3,0,0.1,0.3,0.4,0.3c2,0.3,3.7,0.5,5.2-0.8C160.9,114.4,160.7,114.8,160.6,115.1z M157.1,112
		c0-0.5,0.4-1.5,0.3-2l0,0c0-0.3,0.3-0.4,0.5-0.5c0.1,0,0.4-0.1,0.4-0.1c0.1,0.1,0.1,0.3,0.1,0.5l0,0c0,0.1,0.1,0.3,0.1,0.5
		c0,0.4,0,0.8,0,1.1l0,0c0,0-0.1-0.1-0.3-0.1v-0.1c0,0-0.1-0.1-0.3-0.1l0.1-0.1c0,0,0.1,0,0-0.1c0-0.1-0.3-0.1-0.4-0.1
		c0,0,0-0.1,0-0.3h-0.1c0,0.3-0.1,0.7-0.3,0.9c0,0.1,0.3,0.1,0.4,0.1c0,0,0,0.1,0.1,0.1c0.1,0.1,0.4,0.1,0.5,0c0.1,0,0.1,0,0.1,0
		c0,0.9,0,2.1-0.3,3.1c0,0.1,0.1,0.1,0.3,0.1c-0.5,0.1-1.1,0.1-1.7,0.1h0.1C156.9,114,157,112.9,157.1,112z M156.1,103.1
		C156.1,103.1,155.9,103.1,156.1,103.1c0.7-0.3,1.1,0.3,1.9,0.7c0.8,0.3,1.6,0,2.3,0c-0.9,1.7-1.3,3.7-1.7,5.6
		c-0.1,0-0.4-0.1-0.5-0.1c-0.3,0-0.5,0.1-0.7,0.4C156.7,107.5,156.5,105.2,156.1,103.1z M161.4,95.5c1.7,0.9,2.9,2.8,3.6,4.7
		c0.7,2.1,0.1,4.4-0.7,6.4c-0.8,1.9-1.7,3.9-2.8,5.6c-0.5,0.9-1.2,1.7-2,2.3c-0.3,0.1-0.5,0.3-0.8,0.4c-0.1-1.1,0-2.1,0.1-3.1
		c0-0.4-0.1-1.1,0-1.6l0,0c0-0.1,0-0.3,0-0.3c0-0.1,0-0.1,0-0.1c0.4-1.2,0.8-2.3,1.3-3.3c0.3-0.5,0.7-1.2,0.8-1.9
		c0.1,0.1,0.1,0.3,0.3,0.4s0.9,0.3,0.8,0.1c0-0.7-0.7-1.1-1.2-1.3c-0.1-0.1-0.3-0.1-0.4-0.1c-0.1,0-0.1,0-0.3,0
		c-0.3,0-1.9,0.3-1.9,0.3c-0.4-0.4-0.8-0.5-1.3-0.8c-1.1-0.3-2-0.4-2.8,0.4c-0.3,0.3,0.3,0.5,0.4,0.5c0.3,0,0.4-0.3,0.5-0.4
		c0,0.3,0.1,0.7,0.1,0.5c0.1,0.7,0.4,1.2,0.5,1.9c0.3,1.1,0.5,2.1,0.8,3.2c0.3,1.1,0.4,2,0.3,3.1c0,0.8-0.4,1.9-0.1,2.8l0.1,0.1
		c-0.4,0-0.7-0.1-1.1-0.1c-1.6-1.1-2.3-3.9-2.9-5.5c-0.8-2.3-1.7-4.5-1.9-7.1C151,97.3,157,93.2,161.4,95.5z"/>
	<path d="M159.4,92.7c0.3-0.9,0-2-0.1-2.9c-0.1-1.1-0.3-2-0.5-3.1c0,0-0.4-0.1-0.4,0c-0.3,0.9-0.1,2-0.1,2.9c0.1,0.9,0,2,0.3,3.1
		C158.6,92.7,159.3,92.8,159.4,92.7z"/>
	<path d="M145.9,102.4c-0.7-0.1-1.3-0.3-2-0.3c-0.1,0,0.1,0.1,0.1,0.1c1.1,0.1,2,0.5,2.9,0.5c0.8,0.1,1.6,0,2.3-0.1
		c0.1,0-0.3-0.3-0.4-0.3C147.9,102.4,146.9,102.7,145.9,102.4z"/>
	<path d="M151,94.4c-0.4-0.4-1.1-1.1-1.7-1.1c-0.3,0-0.1,0.1,0,0.1c-0.1-0.1,0,0,0,0c0.1,0.1,0.1,0.1,0.3,0.3
		c0.3,0.3,0.5,0.5,0.8,0.8c0.4,0.4,0.8,1.1,1.2,1.3c0.1,0.1,0.4,0.3,0.5,0.1l0,0l0,0c0-0.3-0.3-0.5-0.5-0.7
		C151.5,95.1,151.3,94.7,151,94.4z"/>
	<path d="M146.2,111.6c0,0.1,0.4,0.1,0.4,0.1c0.4-0.5,0.9-0.9,1.6-1.2c0.4-0.1,0.8-0.3,1.2-0.4c0.3,0,0.5,0,0.8-0.1
		c0.1,0-0.4-0.3-0.4-0.3C148.7,109.5,146.5,110.3,146.2,111.6z"/>
	<path d="M147.1,106.7c0.3-0.3,0.5-0.4,0.9-0.4c0.3,0,0.7,0,0.8,0s-0.3-0.1-0.3-0.1c-0.5-0.1-1.5,0-1.7,0.5
		C146.7,106.7,147,106.8,147.1,106.7z"/>
	<path d="M148.1,97.6c0,0-0.4-0.1-0.4,0c0.4,0.7,1.2,1.1,1.9,1.2c0,0,0.3,0,0.1-0.1c-0.1-0.1-0.5-0.3-0.8-0.4
		C148.7,98.1,148.3,98,148.1,97.6z"/>
	<path d="M154.5,93.5c0,0.1,0.5,0.3,0.5,0.1c0.1-0.3,0-0.8-0.3-1.1c-0.3-0.3-0.5-0.4-0.9-0.5c-0.3,0-0.1,0.1,0,0.1
		C154.3,92.3,154.3,93.1,154.5,93.5z"/>
	<path d="M151.4,112.8c-0.1,0.1-0.3,0.3-0.4,0.4s-0.3,0.4-0.3,0.7c0,0.1,0.4,0.1,0.4,0.1c0.4-0.3,0.4-0.7,0.7-1.1L151.4,112.8z"/>
	<path d="M125.8,96c-0.1,0-0.1,0-0.3,0c-0.4-0.1-0.8-0.1-0.8,0.1c-0.3,0.1-0.4,0.3-0.3,0.7s0.3,0.5,0.7,0.7c0.4,0.1,0.9,0.3,1.3,0
		c0.5-0.3,0.5-0.8,0.1-1.2C126.3,96.3,126.2,96.1,125.8,96C125.9,96,125.8,96,125.8,96z M125.4,97.1L125.4,97.1
		c-0.1-0.1-0.1-0.3-0.1-0.4s0-0.1,0-0.3l0,0h0.1C125.7,96.7,125.7,96.8,125.4,97.1z"/>
	<path d="M120.2,95.2c-1.1,0.5-2.9,1.3-2.8,2.8c0.1,1.2,2,1.7,2.8,1.9c0.3,0,0.5,0.1,0.8,0.1v0.1c-0.1,0-0.3,0-0.3,0
		c-0.3,1.5-0.4,3.1,1.1,3.7c1.2,0.7,2.5,0.3,3.5-0.5c0.4-0.3,0.8-0.7,1.1-1.1c0.4,0.3,0.8,0.4,1.2,0.5c0.9,0.4,2.3,0.7,3.1-0.1
		s0-2.7-0.3-3.6c-0.1-0.3-0.3-0.5-0.3-0.8c0.5-0.3,1.1-0.4,1.5-0.7c1.2-0.7,2.4-2,1.5-3.5c-0.5-0.8-1.9-1.1-2.8-1.2
		c0-0.3,0-0.5,0-0.9c-0.1-2.5-2.1-3.3-4.3-2.1c-0.4,0.3-0.8,0.5-1.2,0.9c-0.1-0.1-0.4-0.3-0.5-0.4c-1.1-0.7-2.5-1.2-3.9-0.9
		c-1.7,0.4-0.4,3.2,0.1,4.4c0.1,0.3,0.3,0.7,0.4,0.9c-0.1,0-0.3,0.1-0.3,0.1C120.3,95.2,120.2,95.2,120.2,95.2z M123.9,103.5
		c-2.7,2-2.4-1.7-2.4-3.1c0,0,0,0,0-0.1s0-0.1,0.1-0.3c0.7,0,1.3,0,2.1-0.1c0.5,0.7,1.2,1.3,1.9,1.9
		C125.1,102.5,124.6,103.1,123.9,103.5z M122.3,98.1c0.3,0.5,0.5,0.9,0.9,1.3c-0.3,0-0.7,0-0.9,0.1c-0.1,0-0.4,0-0.5,0
		C121.9,99.1,122.2,98.5,122.3,98.1z M122.1,96.3c-0.1-0.3-0.4-0.7-0.5-0.9c0.3-0.1,0.7-0.3,1.1-0.4
		C122.5,95.5,122.2,95.9,122.1,96.3z M128.1,96.9c-0.3,0.5-0.5,1.2-0.8,1.7c-1.1,0.3-2.1,0.5-3.2,0.7c-0.5-0.7-0.9-1.3-1.5-2.1
		c0.1-0.3,0.1-0.4,0.3-0.7c0.3-0.7,0.5-1.3,0.8-2c0.8-0.3,1.7-0.5,2.5-0.7C127,94.9,127.5,96,128.1,96.9z M127.3,93.7
		c0.5-0.1,1.2-0.1,1.7-0.1c-0.1,0.8-0.3,1.5-0.5,2.1C128.2,95.1,127.8,94.4,127.3,93.7z M125.9,101.3L125.9,101.3
		c-0.5-0.5-0.9-0.9-1.3-1.5c0.4,0,0.7-0.1,1.1-0.1c0.4,0,0.9-0.1,1.3-0.3l0,0C126.6,100.1,126.3,100.8,125.9,101.3z M129.7,102
		c-0.1,1.6-1.9,0.8-2.9,0c0.5-0.8,1.1-1.9,1.5-2.8c0.3-0.1,0.5-0.1,0.8-0.3c0,0.1,0,0.1,0.1,0.3C129.4,100,129.8,101.1,129.7,102z
		 M130.2,93.6c1.1,0.1,1.9,0.5,2,1.7c0,1.1-1.1,1.7-1.9,2.3c-0.3,0.1-0.4,0.3-0.7,0.4c-0.1-0.4-0.3-0.7-0.5-1.1
		C129.7,95.7,130.1,94.7,130.2,93.6z M127.1,90.3c1.7-0.9,1.9,0.9,2,2.1c0,0.3,0,0.5,0,0.8c-0.7,0-1.5,0-2.1,0.1
		c-0.4-0.5-0.9-1.1-1.5-1.6C125.9,91.1,126.5,90.5,127.1,90.3z M125,92.3c0.4,0.5,0.8,0.9,0.9,1.2c-0.7,0.1-1.2,0.3-1.9,0.4
		c0.1-0.3,0.1-0.4,0.3-0.7C124.6,92.8,124.7,92.5,125,92.3z M121,90.3c0.9-0.8,2.3,0.1,3.3,1.3c-0.7,0.8-1.1,1.7-1.5,2.7
		c-0.5,0.3-1.1,0.4-1.6,0.7c0-0.1-0.1-0.1-0.1-0.3c0.1,0,0.3,0,0.3,0C120.9,93.3,119.8,91.3,121,90.3z M121.1,95.6
		c0.3,0.5,0.5,1.1,0.8,1.6c0,0.1-0.1,0.3-0.1,0.4c-0.3,0.7-0.4,1.3-0.7,2c-1.5-0.1-3.2-0.8-2.1-2.4c0.3-0.5,0.8-0.8,1.2-1.2
		C120.5,95.9,120.7,95.7,121.1,95.6z"/>
	<path d="M141.1,117.2c-0.5,0-1.1,0.1-1.5,0.7c-0.3,0.3,0.3,0.5,0.7,0.7c0.1,3.1-0.1,6.1-0.3,9.2c-0.1,1.7-0.4,4.8,1.7,5.3
		c2.1,0.5,2.1-3.5,2-4.7c-0.3-3.2-0.7-6.4-0.7-9.7l0,0c0.4-0.1,0.8-0.3,0.9-0.8c0,0,0,0,0-0.1C143.4,117.2,142.1,117.1,141.1,117.2z
		 M142.5,131.9c-0.4,0-0.7,0-1.1,0.1c-0.1-0.4-0.3-0.9-0.3-1.3c-0.1-0.4,0-0.9-0.1-1.3c0-0.3,0-0.4,0-0.7l0,0c0.1,0,0.3,0.1,0.4,0.1
		s0.4,0.1,0.4,0c0.1-0.1-0.7-0.4-0.7-0.4c-0.1,0-0.1,0-0.1,0c0-0.4,0-0.7,0-1.1c0.1,0,0.1,0,0.3,0s0.4,0.1,0.5,0s-0.3-0.3-0.3-0.3
		c-0.1,0-0.3,0-0.4,0c0-0.3,0-0.5,0-0.8l0,0c0.1,0,0.5,0.3,0.7,0.1c0.1-0.3-0.4-0.4-0.7-0.4c0-0.3,0-0.7,0-0.9c0-0.1,0-0.1,0-0.3
		h0.1c0.1,0,0.4,0.1,0.5,0s-0.3-0.3-0.4-0.3s-0.1,0-0.3,0c0-0.4,0-0.7,0.1-1.1c0.1,0,0.5,0.1,0.5,0l0,0c0.1-0.1-0.1-0.1-0.3-0.1
		s-0.3-0.1-0.4-0.1c0-0.3,0-0.7,0-0.9c0.1,0,0.3,0,0.4,0s0.3,0,0.1-0.1c0.1-0.4-0.1-0.4-0.3-0.4c0-0.4,0-0.7,0-1.1l0,0
		c0,0,0,0,0.1,0l0,0c0,0,0.4,0.1,0.5,0l0,0c0-0.1-0.5-0.3-0.7-0.3l0,0l0,0c0-0.3,0-0.5-0.1-0.7l0.1,0.1c0,0,0.5,0.1,0.5,0l0,0
		l-0.1-0.1c-0.3-0.1-0.4-0.1-0.7-0.1c-0.1-0.4-0.1-0.8-0.4-1.2c0.4,0.1,0.8,0.3,1.3,0.3c0,2.4,0.1,4.8,0.4,7.2
		C142.9,127.9,143.3,130,142.5,131.9z M142.9,117.6c0.8,0.1-0.1,0.7-0.3,0.7c-0.5,0.1-1.2-0.1-1.7-0.3l0,0c0.3-0.3,0.7-0.3,0.9-0.4
		C142.1,117.6,142.5,117.6,142.9,117.6z"/>
	<path d="M140.6,116.4c0.4,0.1,0.8,0.1,1.2-0.3c0.3-0.3,0.3-0.7,0.1-0.9s-0.7-0.4-0.9-0.5c0,0-0.1,0-0.3,0c-0.4-0.3-0.8-0.1-0.9,0.4
		C139.3,115.9,139.9,116.3,140.6,116.4z M140.5,115.2c0.1,0,0.3,0,0.5-0.1l0,0c0,0,0.1,0.1,0.1,0.3c0,0.1,0,0.3-0.1,0.5
		c0,0.1-0.1,0.1-0.3,0.3h-0.1c-0.1-0.1-0.3-0.4-0.3-0.7c0,0,0-0.1,0-0.3C140.3,115.2,140.3,115.2,140.5,115.2z"/>
	<path d="M140.9,111.6c-0.8,0-0.8,1.1-0.5,1.6c0.3,0.7,1.3,0.8,1.9,0.4c0.4-0.4,0.7-1.1,0.4-1.6
		C142.5,111.6,141.4,111.3,140.9,111.6z M141.5,113.3c-0.1,0.1-0.1,0.1-0.3,0.3c0,0-0.1-0.1-0.1-0.3c-0.1-0.3-0.4-1.1-0.3-1.5
		c0.1,0,0.4,0.1,0.4,0.1c0.1,0,0.3,0,0.5-0.1c0.1,0.1,0.1,0.3,0.1,0.3C141.9,112.5,141.8,112.9,141.5,113.3z"/>
	<path d="M139.7,110.8c0.1,0.5,0.9,0.5,1.2,0.4c0.4-0.1,0.7-0.5,0.5-0.9c0-0.1-0.3-0.3-0.4-0.4c-0.3-0.1-0.7-0.3-0.9,0l0,0
		C139.8,109.9,139.5,110.4,139.7,110.8z M140.5,109.9C140.5,109.9,140.6,109.9,140.5,109.9c0.1,0,0.3,0,0.4,0l0,0l0,0
		c0,0.1,0,0.1,0,0.3c0,0.3-0.1,0.4-0.3,0.5c-0.1,0.1-0.1,0.1-0.3,0.1s0,0,0,0c0-0.1-0.1-0.1-0.1-0.3
		C140.1,110.4,140.2,110,140.5,109.9z"/>
	<path d="M128.7,76.7c-0.1,0.5-0.3,1.1-0.4,1.6s-0.3,1.2,0,1.7c0,0-0.1,0.1-0.1,0.3c-0.1,0.1-0.4,0.4-0.4,0.7
		c-0.1,0.5,0.1,1.1,0.5,1.3c0.8,0.7,2.1,0.5,2.8-0.4c0.3-0.4,0.4-0.9,0.3-1.3c0,0,0,0,0.1,0l0,0h0.1c0.1-0.1,0.4-0.3,0.5-0.4
		c0.4-0.3,0.8-0.5,1.2-0.8c0.1,0,0.4,0.1,0.5,0.1c0.8,0.1,2-0.3,1.7-1.2c0-0.5-0.5-0.7-0.8-0.9c-0.4-0.1-0.8-0.3-1.2-0.3h-0.1
		c-0.4-0.3-0.8-0.5-1.2-0.8c-0.5-0.3-0.9-0.7-1.5-0.8c0-0.1,0-0.4,0-0.5l0,0h-1.1l0,0c0,0.5-0.4,1.1-0.8,1.2l0,0l-0.1-0.1
		c-0.1-0.3-0.3-0.5-0.1-0.7c0-0.1,0-0.3,0.1-0.4h-0.8c0,0.1-0.1,0.1-0.1,0.3C127.7,76,128.1,76.5,128.7,76.7z M133.5,77.6
		c0.1,0,0.4,0,0.4-0.1l0,0c0.4,0,0.7,0.3,0.8,0.7c0,0.4-0.5,0.8-0.8,0.9l0,0c0,0-0.1-0.1-0.3-0.1l0,0c-0.1-0.1-0.1-0.4-0.1-0.5
		C133.4,78,133.4,77.7,133.5,77.6z M129.5,76.8c0.5,0,1.2-0.5,1.3-1.1c0.3,0.3,0.7,0.5,0.9,0.7c0.4,0.3,0.8,0.5,1.1,0.8
		c0,0,0,0,0.1,0c-0.1,0.1-0.3,0.3-0.4,0.5c-0.1,0.4,0,0.8,0.3,1.1c-0.7,0.3-1.2,0.7-1.9,1.1c-0.1-0.1-0.4-0.4-0.8-0.4
		c-0.3-0.1-0.7-0.1-0.9,0c0-0.4,0-0.7,0-1.1c0-0.5,0-1.2-0.1-1.7C129.3,76.8,129.4,76.8,129.5,76.8z M130.1,80L130.1,80
		c0.1,0.3,0.1,0.4,0.3,0.5c0,0.3,0,0.7-0.1,0.9c-0.1,0.3-0.4,0.5-0.5,0.7c-0.4,0.3-0.5,0.1-0.7-0.3s-0.3-0.7-0.1-1.1c0,0,0,0,0.1,0
		C129.1,80.4,129.5,80.1,130.1,80z"/>
	<path d="M112.3,76.4c-0.1,0.8-1.6,2.7-2.5,1.5c-0.5-0.5-0.4-1.7-0.4-2.4c0-0.1,0-0.3,0-0.4h-0.9c0,0.1,0,0.3,0,0.5
		c0,1.1,0,2,0.9,2.7c1.2,0.9,2.9,0.3,3.7-0.8c0.4-0.5,0.4-1.5,0.3-2.4h-1.1C112.5,75.5,112.3,75.9,112.3,76.4z"/>
	<path d="M108.5,124.1c2.7-0.4,4.3-2.5,4.4-4.9c0.4,0.3,0.9,0.3,1.3,0.3c0.7,0,1.3-0.3,1.5-0.9h0.1c0.3-0.7-0.1-1.2-0.5-1.7
		c-0.5-0.9-1.2-1.7-1.7-2.7c-1.2-1.9-2.3-3.7-3.6-5.5c-1.2-1.5-4.7-2.5-4.5,0.4c0,0.3,0.8,0.4,0.8,0.3c0.1-0.8,0.3-1.1,0.9-1.6
		c0.7-0.5,1.6,0.8,1.9,1.2c0.8,1.1,1.6,2.3,2.3,3.5c0.9,1.6,2,3.2,2.9,4.8c-0.1,0-0.1,0-0.3,0c-0.4-0.1-0.9,0-1.3,0.1l0,0
		c-0.1-0.8-0.5-1.5-1.1-2.1c-2.1-2.7-6.5-3.1-8.9-0.7c0,0,0,0,0,0.1c-1.1,0.8-1.7,1.9-2.1,3.1c-0.4-0.1-0.8-0.3-1.2-0.3
		c-0.5,0-1.2,0-1.7,0.1c-0.3,0,0.1,0.1,0.3,0.1c0.7,0.1,1.3,0,2,0.1l0.3,0.3c0.1,0.1,0.3,0.1,0.4,0.1c0,0.1,0,0.3,0,0.5l0,0
		l-0.1,0.1l0,0c-0.1-0.1-0.3-0.3-0.4-0.3c-0.3-0.1-0.5-0.3-0.8-0.4c-0.5-0.3-1.2-0.4-1.9-0.4s-1.7,0.1-2.5,0.7
		c0-0.4-0.1-0.8-0.3-1.1c-0.9-2.8-3.1-4.3-5.5-4c-1.5-0.3-2.8,0.3-3.9,1.3c-0.7,0.5-1.1,1.2-1.3,2c-0.3,0.5-0.4,1.1-0.5,1.6
		c0,0-0.1,0-0.1-0.1c-0.3-0.5-0.7-0.7-1.2-0.8c-0.1,0-0.3,0-0.4,0c1.2-1.6,2-3.6,2.9-5.5c0.5-1.1,3.7-6.3,4.5-2.7
		c0,0.1,0.9,0.4,0.9,0.3c0.4-1.1-0.8-1.6-1.6-1.9c-0.9-0.4-1.7-0.1-2.5,0.4c-1.2,0.8-1.9,2.4-2.5,3.6c-0.9,1.9-2,3.9-2.5,6
		c-0.3,0.1-0.5,0.4-0.7,0.7c-0.3,0.8,0.8,1.2,1.3,1.3c0.7,0.1,1.2,0,1.9-0.1c0.7,2.8,4.1,4.8,6.8,4.9c2.9,0.1,4.5-2.3,4.7-4.8
		c0,0,0,0,0.1-0.1l0,0c0,0,0,0,0.1,0c0,0,0.1,0,0.1-0.1c0,0,0,0-0.1,0c0.4-0.4,0.9-0.8,1.5-1.1c1.2-0.7,2.1-0.1,3.2,0.5
		c0.3,0.1,0.5,0.3,0.9,0.4c0,0.1,0,0.3,0.1,0.5C101.4,123.1,105.5,124.5,108.5,124.1z M113.9,117.7c0.1,0,0.1-0.1,0.3-0.1h0.1l0,0
		c0.1,0.1,0.1,0.4,0.1,0.5c0,0.7-1.1,1.3-1.5,0.8l0,0c0-0.1,0-0.3,0-0.4C113.3,118.3,113.5,117.9,113.9,117.7z M81.9,119.2
		c-0.1,0-0.3,0-0.3,0l0,0c0,0,0,0-0.1-0.1c-0.1-0.1-0.1-0.4,0-0.7c0.1-0.3,0.3-0.4,0.4-0.5c0.1,0,0.1-0.1,0.3-0.1l0.1,0.1
		c0.3,0.3,0.5,0.4,0.9,0.5c0,0.1,0,0.3,0,0.4C82.9,119.1,82.5,119.2,81.9,119.2z M91.7,123.3c-3.3,2.4-7.3-1.9-6.9-5.2
		c0.1-1.1,0.9-2.5,2-3.6c0.3,0.1,0.5,0.1,0.7,0.1c0.5-0.3,1.2-0.7,1.7-0.9c0.7,0,1.3,0.1,1.9,0.5c0.1,0,0.1,0.1,0.3,0.1
		c0.1,0,0.4,0.1,0.7,0.1c0.7,0.8,1.1,1.7,1.5,2.7C94.2,119.5,93.5,121.9,91.7,123.3z M101.7,119.1L101.7,119.1
		C101.7,119.1,101.7,118.9,101.7,119.1c0-2.5,2.8-5.6,5.3-5.2c0.3,0,0.1-0.1,0-0.1c-0.1,0-0.3,0-0.4-0.1c0.1,0,0.3-0.1,0.4-0.1
		c2.1-0.5,3.7,1.5,4.5,3.1c1.1,2.4-0.1,5.1-2.3,6.4c-2.9,2-7.1-0.4-7.5-3.7C101.7,119.2,101.7,119.2,101.7,119.1z"/>
	<path d="M110.5,120.3c0.1-0.1-1.1-0.7-1.2-0.3c-0.7,1.1-1.6,1.5-2.8,1.7c-1.5,0.3-2.5-0.3-3.3-1.5c-0.4-0.7-0.4-1.5-0.8-2.1
		c0,0-0.3-0.1-0.3,0c-0.3,2.1,0.9,3.6,2.9,4C106.9,122.4,109.4,122.1,110.5,120.3z"/>
	<path d="M91.8,120.4c-1.3,2.1-5.2,1.1-6.3-0.7c0,0-0.3-0.1-0.3,0c0.4,2.8,6.5,3.5,7.7,1.1C93.3,120.5,92.1,120.1,91.8,120.4z"/>
	<path d="M147,211.6c1.5-0.1,3.1,0.1,4.5,0.1c0.1,0,0.8-0.3,0.5-0.3c-0.9-0.5-2.4-0.4-3.5-0.4c-1.7,0-3.5,0.3-5.2,0.4
		c-0.1,0-0.5,0.3-0.4,0.3C144.3,211.9,145.7,211.7,147,211.6z"/>
	<path d="M147.7,213.2c1.6,0.3,3.2,0.1,4.8,0.3c0.1,0,0.9-0.3,0.8-0.4c-0.4-0.3-0.8-0.1-1.2-0.1c-1.2,0-2.3,0-3.5-0.1
		c-1.7-0.3-3.3,0.3-5.1,0.5c0,0-0.4,0.1-0.3,0.1C144.7,213.3,146.2,212.8,147.7,213.2z"/>
	<path d="M148.7,214.8c1.5,0.1,2.9,0,4.4,0.3c0.1,0,0.9-0.3,0.8-0.4c-0.7-0.7-2.4-0.4-3.3-0.4s-2-0.1-2.9-0.1
		c-1.2,0-2.4,0.4-3.6,0.3c0,0-0.3,0.1-0.1,0.1C145.5,214.9,147.3,214.7,148.7,214.8z"/>
	<path d="M147,216.5c0.9,0,1.7,0.4,2.7,0.4c0.8,0.1,1.5,0,2.3,0c0.5,0,1.1,0,1.7,0.1c0.1,0,0.3,0,0.3,0s0,0,0,0.1s0.4,0,0.5,0
		s0.3-0.1,0.5-0.3c0.1,0,0.4-0.3,0.1-0.3c-1.5-0.3-2.9-0.1-4.5-0.3c-0.7,0-1.3-0.1-2-0.3c-0.9-0.1-1.7,0.3-2.7,0
		c0,0-0.4,0.1-0.3,0.1C146.1,216.5,146.3,216.5,147,216.5z"/>
	<path d="M147.3,218.4c1.3-0.4,2.7,0,4.1,0s2.9,0,4.4,0.1c0.1,0,0.9-0.3,0.8-0.4c-1.5-0.8-3.7-0.1-5.2-0.3
		C149.9,217.9,148.6,217.7,147.3,218.4C147.1,218.4,147.1,218.4,147.3,218.4z"/>
	<path d="M157.1,220.3c0.1,0,0.8-0.4,0.7-0.4c-1.3-0.4-2.8-0.3-4.1-0.3c-1.6,0-3.3,0-4.9,0.3l-0.3,0.1
		C151.4,220.1,154.3,220.4,157.1,220.3z"/>
	<path d="M149.9,221.9c0.7-0.1,1.2,0.1,1.9,0.1c0.7,0,1.5,0,2.1,0c1.6,0,3.2,0.1,4.8,0.1c0.1,0,0.7-0.3,0.5-0.3
		c-1.3-0.7-3.3-0.4-4.7-0.4c-1.5,0.1-3.2-0.3-4.5,0.1C149.9,221.7,149.5,221.9,149.9,221.9z"/>
	<path d="M74.9,223.2c0.4,0.3,0.8,0.4,1.2,0.7c0.8,0.4,1.7,0.8,2.5,1.2h0.8c-1.5-0.8-3.1-1.3-4.5-2.3V223.2z"/>
	<path d="M97.1,222.8c0-0.3-0.1-0.5-0.3-0.7c-0.1-0.1-0.7-0.3-0.8-0.3c-1.7,1.1-3.3,2.5-5.5,2.7c-0.1-0.3-0.3-0.4-0.4-0.5
		c-1.1-0.7-3.1-0.3-3.5,1.1l0,0l0,0h0.8h-0.1c0.3-0.4,0.8-0.7,1.2-0.8c1.1-0.5,1.3,0.1,1.6,0.9H91c0-0.1,0-0.1,0-0.3
		c2.1,0.1,3.7-1.1,5.5-2.3c0.1,0.5,0.1,1.1,0.1,1.6c0,0.3,0,0.7,0,0.9h0.9c0-0.7,0-1.5-0.1-2.1c0.7,0,1.6-0.1,1.9,0.4
		c0.1,0.5,0.3,1.1,0.3,1.7h0.8c-0.1-0.5-0.1-1.1-0.3-1.6C99.5,222.4,98.1,222.7,97.1,222.8z"/>
	<path d="M74.9,224.9l0.1,0.1h0.7c-0.3-0.1-0.5-0.3-0.8-0.4V224.9z"/>
	<path d="M128.9,224.8h0.1c0.1,0,0.3,0,0.4,0h0.1l0,0c0,0,0,0.1,0.1,0.3h1.2c-0.1-0.4-0.8-0.5-1.2-0.7c-0.3,0-0.7-0.1-0.9,0
		c-0.3,0-0.7,0.3-0.8,0.5h0.8C128.7,224.9,128.9,224.9,128.9,224.8z"/>
	<path d="M116.6,195.2c0.3-1.6-0.7-3.2-1.5-4.4c-1.2-1.6-3.2-2.4-5.2-2.5c0,0,0,0,0.1-0.1l-0.3-0.1c-0.1,0-0.3,0.1-0.4,0.1
		s-0.4,0-0.5,0c-0.3,0-0.1,0.1,0.1,0.3c-1.1,0.7-1.2,1.9-0.9,2.9l0,0c-0.7,0-1.3,0.5-1.9,0.8s-0.9,0.7-1.5,0.9
		c-0.3,0.1-0.5,0.4-0.9,0.5c0,0-0.1,0-0.1-0.1c-1.1-0.1-1.9-0.9-2.9-1.1c-1.2-0.1-2.3,0.1-3.3,0.7c-2.4,1.5-1.6,4.8-0.5,7.1l0,0
		c-1.1,0.1-2,0.7-2.8,1.3c-1.2,0.8-2.4,1.3-3.6,2c-1.6,0.9-4.7,2.3-5.3,4.1c0,0.1,0.4,0.1,0.4,0.1l0,0c0.1,0,0.3,0.1,0.4,0
		c0.7-0.4,1.5-0.4,2.3-0.7c1.3-0.5,2.5-1.3,3.7-2.1c2-1.2,4.1-2.1,6.3-3.2c0.8,0.9,2,1.6,3.1,2.3c0.9,0.7,2.1,1.2,3.2,1.2
		c2.4-0.1,4.1-2.8,3.6-5.1l0,0c1.6-0.8,3.2-2.3,4.4-3.2l0,0c0.8,0.4,1.6,0.7,2.5,0.8C115.8,197.9,116.5,196.4,116.6,195.2z
		 M97,201.6c-2.1,1.2-4.4,2.1-6.7,3.5c-1.1,0.5-2,1.3-3.1,1.9c-0.3,0.1-0.7,0.3-0.9,0.4c0.3-0.3,0.5-0.5,0.9-0.7
		c1.1-0.7,2-1.3,3.1-2c2-1.2,4.3-2.8,6.5-3.6C96.9,201.1,97,201.3,97,201.6c0.1,0,0.1,0,0.1,0C97.1,201.5,97,201.5,97,201.6z
		 M111,196.9c-1.6,1.1-3.3,2.4-5.1,3.3c-1.7,0.9-2.8-1.1-3.1-2.3c-0.3-1.1-0.3-2.1-0.1-3.1l-0.3-0.1c-2,1.9-0.3,5.1,2,5.9
		c0.7,0.3,1.3,0.3,2,0c0.3,1.9-0.9,3.7-2.7,4.4c-1.3,0.4-3.5-1.3-4.4-2c-1.1-0.8-1.6-1.9-2.1-2.9c-0.8-2-1.1-4.4,0.5-6
		c1.1-1.1,2.8-1.2,4.1-0.5c0.5,0.3,0.9,0.4,1.5,0.4c-0.3,0.1-0.4,0.3-0.7,0.3c-0.1,0,0.3,0.1,0.3,0.1c0.5,0,0.8-0.1,1.2-0.4
		c0.5-0.3,1.2-0.5,1.7-0.8s1.2-0.4,1.7-0.7c0,0,0.1-0.1,0.3-0.1c0.3,0.8,0.7,1.6,1.1,2.3c0.7,1.1,1.5,1.9,2.4,2.5
		C111.4,196.9,111.1,196.8,111,196.9z M111.5,196.3c-1.7-1.6-3.7-5.3-2-7.5c2.9-0.1,4.8,1.5,5.9,4
		C116.3,195.3,114.6,199.2,111.5,196.3z"/>
	<path d="M99.7,194.5c-0.5-0.1-1.1-0.3-1.6,0c-0.1,0,0.1,0.1,0.1,0.1c0.1,0.1,0.4,0.1,0.5,0.1c0.4,0,0.8,0,1.1,0.3
		c0.3,0.1,0.4,0.4,0.7,0.4c0.1,0,0.7,0.1,0.5-0.1C101,194.9,100.1,194.7,99.7,194.5z"/>
	<path d="M100.3,196.1c-0.8-0.3-2.1-1.1-2.9-0.4c-0.1,0.1,0.5,0.3,0.7,0.3c0.9-0.1,1.6,0.7,2.5,0.5h0.1l0,0
		C100.7,196.3,100.5,196.1,100.3,196.1z"/>
	<path d="M107.1,193.1c-1.3,0.5-2.7,1.1-3.9,1.9c-0.1,0.1,0.5,0.3,0.5,0.3c0.7-0.1,1.3-0.5,2-0.8c0.8-0.3,1.5-0.5,2.3-0.9
		C108.3,193.3,107.4,192.9,107.1,193.1z"/>
	<path d="M106.7,194.7c-0.3-0.1-0.5-0.1-0.8-0.1c-0.4,0.1-0.9,0.3-1.3,0.5c-0.3,0.1-0.9,0.4-0.9,0.8c0,0.1,0.3,0.1,0.3,0.1
		c0.5-0.1,0.9-0.4,1.3-0.5c0.5-0.1,0.9-0.3,1.5-0.5C107.1,194.8,106.9,194.7,106.7,194.7z"/>
	<path d="M111.8,189.9c-0.3-0.1-1.9-0.8-2.1-0.1c0,0.1,0.4,0.1,0.4,0.1c0.4-0.1,0.7,0,1.1,0.3c0.3,0.1,0.7,0.4,0.7,0.5
		c0.1,0.3,0.7,0.3,0.8,0.3c-0.3,0.1,0.1,0,0.1,0c0.1-0.1,0-0.1,0-0.3C112.5,190.3,112.1,190.1,111.8,189.9z"/>
	<path d="M110.9,190.7c-0.3-0.1-0.9-0.3-1.3-0.1l0,0l0.1,0.1l0.3,0.1c0,0,0,0,0-0.1c0.1,0,0.3,0,0.4,0.1c-0.1,0,0.1,0.1,0.1,0.1
		c0.1,0.1,0.3,0.3,0.4,0.3c0.1,0.1,0.5,0.3,0.7,0.1C112.1,191.1,111.1,190.8,110.9,190.7z"/>
	<path d="M109.9,191.6c0,0.1,0.3,0.1,0.4,0.1l0,0c0.1,0,0.7,0.3,0.7,0.1l0,0c0,0,0,0,0-0.1C110.9,191.5,109.7,191.1,109.9,191.6z"/>
	<path d="M105.5,195.5c-0.3,0-0.4,0.1-0.5,0.3c-0.1,0.1-0.4,0.3-0.5,0.3c-0.1,0,0,0.1,0,0.1c0.1,0.1,0.4,0.1,0.5,0.1
		c0.4,0,0.8-0.3,1.2-0.7C106.3,195.6,105.7,195.5,105.5,195.5z"/>
	<path d="M98.9,196.5c-0.4-0.1-0.9-0.1-1.3,0.1c-0.1,0.1,0.7,0.3,0.7,0.3c0.5-0.1,0.9,0,1.5,0.1c0.1,0,0.5,0.1,0.7,0
		C100.5,196.9,99,196.5,98.9,196.5z"/>
	<path d="M136.1,164.4c0.5-1.1-0.4-2.1-1.2-2.7c-1.1-0.7-2.7-0.7-3.9-0.4c-1.6,0.4-2.8,1.6-3.6,3.1c0,0,0,0,0-0.1l-0.1,0.1
		c0,0.1,0,0.3,0,0.3c-0.1,0.1-0.1,0.3-0.1,0.4c-0.1,0.3,0.1,0.1,0.3,0c0.1,1.1,0.9,1.6,1.9,1.7l0,0c-0.3,0.4-0.1,1.2-0.1,1.6
		c0,0.5,0.1,0.9,0.1,1.5c0,0.3,0.1,0.5,0.1,0.8l-0.1,0.1c-0.5,0.7-1.3,1.1-1.9,1.9c-0.5,0.9-0.8,1.7-0.7,2.8
		c0.3,2.3,3.1,2.9,5.2,2.9l0,0c-0.3,0.9-0.1,1.7,0,2.7c0.1,1.2,0.1,2.3,0.3,3.5c0.1,1.6,0,4.3,1.2,5.5c0,0,0.3-0.3,0.1-0.3l0,0
		c-0.1,0.1,0,0,0,0c0-0.7,0.3-1.3,0.3-1.9c0-1.2-0.1-2.3-0.3-3.5c-0.3-1.9-0.1-3.9-0.1-5.9c1.1-0.3,1.9-0.9,2.8-1.5
		c0.8-0.4,1.6-1.2,2-2c0.8-1.9-0.7-4.1-2.5-4.5l0,0c0-1.5-0.5-3.2-0.8-4.4l0,0C135.3,165.6,135.8,165.1,136.1,164.4z M133.1,188.7
		c-0.1-0.3-0.1-0.7-0.3-0.9c-0.1-1.1-0.3-2-0.4-3.1c-0.1-2-0.5-4.1-0.4-6.1c0.1,0,0.4,0,0.5,0l0,0v0.1c0.1,2,0,4.1,0.3,6.1
		c0.1,0.9,0.3,2,0.3,2.9C133.3,188.1,133.1,188.4,133.1,188.7z M134.9,171.5c0,1.6-1.7,1.7-2.8,1.6c-0.8-0.1-1.6-0.5-2.4-1.1
		l-0.1,0.1c0.7,2.1,3.7,2,5.1,0.5c0.4-0.4,0.7-0.9,0.8-1.5c1.5,0.5,2.5,2,2.3,3.6c-0.1,1.1-2.3,2.1-3.1,2.7
		c-0.9,0.5-1.9,0.5-2.9,0.5c-1.7-0.1-3.7-0.8-4.3-2.5c-0.4-1.2,0.1-2.5,1.1-3.3c0.4-0.3,0.5-0.5,0.8-0.9c0,0.1,0,0.4,0,0.5
		s0.3-0.1,0.3-0.1c0.1-0.4,0.1-0.7,0.1-1.1c0-0.5,0-1.1,0-1.6c0-0.5,0.1-1.1,0-1.5c0,0,0-0.1,0-0.3c0.7,0.1,1.5,0,2.1,0
		c0.9-0.1,2-0.4,2.8-0.9c-0.1,0.1-0.3,0.3-0.3,0.4C134.5,168.1,134.9,169.9,134.9,171.5z M133.9,166c-1.9,0.8-5.3,0.9-6.4-1.2
		c0.9-2.3,2.8-3.1,5.1-2.9C135,162,137.1,164.7,133.9,166z"/>
	<path d="M128.5,174.3c-0.3,0.3-0.5,0.8-0.5,1.2c0,0.1,0.1,0,0.1,0c0.1-0.1,0.3-0.3,0.3-0.4c0.1-0.3,0.4-0.7,0.7-0.8
		c0.3-0.1,0.4-0.1,0.5-0.4c0-0.1,0.4-0.5,0.1-0.5C129.1,173.3,128.7,174,128.5,174.3z"/>
	<path d="M128.5,176.3c0,0.1,0.4-0.3,0.4-0.4c0.1-0.8,1.1-1.1,1.3-1.7V174l0,0c-0.1,0-0.3,0.1-0.4,0.3
		C129.3,174.8,128.3,175.5,128.5,176.3z"/>
	<path d="M129.9,168.1c-0.1,1.2-0.1,2.4,0,3.5c0,0.1,0.4-0.3,0.4-0.4c0.1-0.5,0.1-1.2,0.1-1.7c0-0.7,0.1-1.3,0.1-2
		C130.6,167.3,129.9,167.9,129.9,168.1z"/>
	<path d="M131,168.9c-0.1,0.1-0.3,0.3-0.4,0.5c-0.1,0.4-0.1,0.8-0.1,1.2c0,0.3,0,0.8,0.3,0.9l0.1-0.1c0-0.4,0-0.8,0.1-1.2
		c0-0.4,0.1-0.8,0.1-1.2C131.3,168.8,131.1,168.9,131,168.9z"/>
	<path d="M129.5,164.8C129.4,164.8,129.5,164.8,129.5,164.8c0.3-0.1,0.4-0.1,0.5-0.1s0.4-0.3,0.4-0.4c-0.1-0.4-0.7,0.1-0.8,0.3
		c-0.3,0.3-0.5,0.7-0.5,0.9l0,0h0.1c0,0,0.3-0.1,0.1-0.3c0,0,0,0,0-0.1C129.3,164.9,129.4,164.9,129.5,164.8z"/>
	<path d="M131.3,170.1c0,0.1,0,0.4,0,0.5s0.1,0.4,0,0.5c0,0.1,0.1,0,0.1,0c0.1-0.1,0.3-0.3,0.3-0.4c0.1-0.4,0.1-0.8,0-1.1
		C131.5,169.6,131.3,170,131.3,170.1z"/>
	<path d="M129.5,175.5c-0.1,0.3-0.4,0.7-0.3,1.1c0,0.1,0.4-0.4,0.4-0.4c0.1-0.4,0.4-0.7,0.7-1.1c0.1-0.1,0.3-0.3,0.3-0.4
		C130.5,174.4,129.7,175.5,129.5,175.5z"/>
	<path d="M113.1,218c0-0.3-0.8-0.4-0.8-0.3c0,2.1,0.3,4.3,0.3,6.3c0,0.3,0,0.7,0,0.9h1.1c0-0.5,0-1.1,0-1.5
		C113.4,221.7,113.1,219.9,113.1,218z"/>
	<path d="M111.5,214.7c-0.5-1.1-2.1-0.4-2.8,0c-1.5,1.2-0.8,4.8-0.8,6.4c0,1.3,0.4,2.7,0.4,4h0.9c0-0.8-0.1-1.7-0.3-2.5
		c-0.3-1.6-0.1-3.5-0.1-5.1c0-0.7,0.1-1.3,0.4-1.9c0.1-0.4,1.2-1.6,1.6-0.8c0.5,1.1,0.4,3.2,0.4,4.3c0,1.6,0.1,3.6-0.5,5.1
		c-0.4-0.3-0.7-0.5-0.5-1.1c0-0.5,0-1.1,0-1.6c0-1.1,0.1-2,0-3.1c0-0.3-0.9-0.4-0.9-0.3c0.1,1.6,0.1,3.1,0.1,4.7
		c0,0.5,0,1.6,0.7,1.9c2.1,0.9,1.5-2.3,1.5-3.3C111.8,219.5,112.5,216.5,111.5,214.7z"/>
	<path d="M123.7,205.2c0.5-0.1,1.1-0.3,1.5-0.3c1.1-0.1,2-0.4,3.1-0.8c0.3-0.1,0.1-1.1,0-0.9c-1.5,0.4-2.9,0.9-4.5,1.3
		c-0.5,0.1-1.5,0.4-1.6,1.1c-0.4,2.3,2.5,0.8,3.6,0.7c2-0.4,4.9-0.5,6.5-1.7c0.9-0.8-0.1-2.3-0.7-2.7c-1.5-1.2-4.8,0.4-6.4,0.8
		c-1.5,0.4-2.8,1.1-4.3,1.5c-1.1,0.3-2,0.5-2.4,1.6c-0.7,1.3,0.4,2.9,1.7,3.3c1.1,0.4,2.8-0.4,3.7-0.7c1.9-0.4,3.6-1.2,5.5-1.6
		c0.3,0,0.1-0.9,0-0.9c-2,0.5-4,1.3-6.1,1.7c-0.8,0.1-1.5,0.3-2.3,0.4c-0.8,0-2.9-0.8-2-2.1c0.5-0.7,1.6-0.8,2.3-0.9
		c0.9-0.3,1.9-0.7,2.7-1.1c1.5-0.7,3.3-0.9,4.9-1.3c0.7-0.1,1.3-0.3,1.9-0.1c0.4,0,1.9,0.8,1.2,1.3c-0.9,0.8-2.9,1.2-4,1.5
		c-1.5,0.4-3.5,0.9-5.1,0.7C122.9,205.5,123.1,205.2,123.7,205.2z"/>
</g>
</svg>
