<svg xmlns="http://www.w3.org/2000/svg" xmlns:xlink="http://www.w3.org/1999/xlink" viewBox="0 0 199.22 49.62"><defs><style>.cls-1{fill:url(#linear-gradient);}.cls-2{fill:#fff;}</style><linearGradient id="linear-gradient" x1="99.61" y1="-14.48" x2="99.61" y2="50.33" gradientUnits="userSpaceOnUse"><stop offset="0" stop-color="#ea1818"/><stop offset="1" stop-color="#b50e0e"/></linearGradient></defs><title>Asset 1</title><g id="Layer_2" data-name="Layer 2"><g id="OBJECT"><path class="cls-1" d="M187.94,49.62H11.28C5.05,49.62,0,45.19,0,39.72V9.89C0,4.43,5.05,0,11.28,0H187.94c6.23,0,11.28,4.43,11.28,9.89V39.72C199.22,45.19,194.17,49.62,187.94,49.62Z"/><path class="cls-2" d="M11.33,46.71h-.05a8.6,8.6,0,0,1-1.85-.19l-.17.63a9.61,9.61,0,0,0,2,.21h.05v-.65Zm3.92,0h-2v.65h2Zm3.91,0h-2v.65h2Zm3.92,0h-2v.65h2Zm3.91,0H25v.65h2Zm3.92,0H29v.65h2Zm3.91,0h-2v.65h2Zm3.92,0h-2v.65h2Zm3.91,0h-2v.65h2Zm3.92,0h-2v.65h2Zm3.91,0h-2v.65h2Zm3.91,0h-2v.65h2Zm3.92,0h-2v.65h2Zm3.91,0H60.27v.65h1.95Zm3.92,0h-2v.65h2Zm3.91,0h-2v.65h2Zm3.92,0H72v.65h2Zm3.91,0H75.93v.65h1.95Zm3.92,0h-2v.65h2Zm3.91,0H83.76v.65h1.95Zm3.92,0h-2v.65h2Zm3.91,0h-2v.65h2Zm3.92,0h-2v.65h2Zm3.91,0h-2v.65h2Zm3.92,0h-2v.65h2Zm3.91,0h-2v.65h2Zm3.92,0h-2v.65h2Zm3.91,0h-2v.65h2Zm3.92,0h-2v.65h2Zm3.91,0h-2v.65h2Zm3.91,0h-2v.65h2Zm3.92,0h-2v.65h2Zm3.91,0h-1.95v.65h1.95Zm3.92,0h-2v.65h2Zm3.91,0h-2v.65h2Zm3.92,0h-2v.65h2Zm3.91,0h-1.95v.65h1.95Zm3.92,0h-2v.65h2Zm3.91,0h-2v.65h2Zm3.92,0h-2v.65h2Zm3.91,0h-2v.65h2Zm3.92,0h-2v.65h2Zm3.91,0h-2v.65h2Zm3.92,0h-2v.65h2Zm3.91,0h-2v.65h2Zm3.92,0h-2v.65h2Zm3.66-.59a9.32,9.32,0,0,1-1.78.48l.13.63a10.36,10.36,0,0,0,2-.52l-.3-.59Zm3-2a7.7,7.7,0,0,1-1.34,1.14l.44.51a8.39,8.39,0,0,0,1.47-1.24Zm1.61-2.92a6,6,0,0,1-.61,1.54l.67.29a6.89,6.89,0,0,0,.66-1.7l-.72-.13Zm.19-3.35v1.71h.73V37.87Zm0-3.44v1.72h.73V34.43Zm0-3.43v1.72h.73V31Zm0-3.43v1.71h.73V27.57Zm0-3.44v1.72h.73V24.13Zm0-3.43v1.72h.73V20.7Zm0-3.43V19h.73V17.27Zm0-3.44v1.72h.73V13.83Zm0-3.43v1.72h.73V10.4Zm-.63-3.23a6.16,6.16,0,0,1,.52,1.57l.73-.1A6.84,6.84,0,0,0,196,6.92l-.67.25Zm-2.2-2.62a8,8,0,0,1,1.27,1.2l.59-.38a8.25,8.25,0,0,0-1.39-1.31Zm-3.31-1.46a9.17,9.17,0,0,1,1.75.56l.33-.58a9.91,9.91,0,0,0-1.91-.61ZM186,2.9h2V2.26h-2ZM182,2.9h2V2.26h-2Zm-3.92,0h2V2.26h-2Zm-3.91,0h2V2.26h-2Zm-3.91,0h1.95V2.26H170.3Zm-3.92,0h2V2.26h-2Zm-3.91,0h1.95V2.26h-1.95Zm-3.92,0h2V2.26h-2Zm-3.91,0h2V2.26h-2Zm-3.92,0h2V2.26h-2Zm-3.91,0h1.95V2.26h-1.95Zm-3.92,0h2V2.26h-2ZM139,2.9h2V2.26h-2Zm-3.92,0h2V2.26h-2Zm-3.91,0h2V2.26h-2Zm-3.92,0h2V2.26h-2Zm-3.91,0h2V2.26h-2Zm-3.92,0h2V2.26h-2Zm-3.91,0h2V2.26h-2Zm-3.92,0h2V2.26h-2Zm-3.91,0h2V2.26h-2Zm-3.92,0h2V2.26h-2Zm-3.91,0h2V2.26h-2Zm-3.91,0h2V2.26h-2ZM92,2.9h2V2.26H92Zm-3.91,0h2V2.26h-2Zm-3.92,0h2V2.26h-2Zm-3.91,0h1.95V2.26H80.26Zm-3.92,0h2V2.26h-2Zm-3.91,0h1.95V2.26H72.43Zm-3.92,0h2V2.26h-2Zm-3.91,0h2V2.26h-2Zm-3.92,0h2V2.26h-2Zm-3.91,0h2V2.26h-2Zm-3.92,0h2V2.26h-2Zm-3.91,0h2V2.26h-2ZM45,2.9h2V2.26H45Zm-3.91,0h2V2.26h-2Zm-3.92,0h2V2.26h-2Zm-3.91,0h2V2.26h-2Zm-3.92,0h2V2.26h-2Zm-3.91,0h2V2.26h-2Zm-3.91,0h1.95V2.26H21.54Zm-3.92,0h2V2.26h-2Zm-3.91,0h1.95V2.26H13.71ZM9.86,3a9.49,9.49,0,0,1,1.42-.11h.47V2.26h-.47a9.92,9.92,0,0,0-1.55.12L9.86,3ZM6.47,4.32a8.45,8.45,0,0,1,1.61-.83l-.3-.59A9.07,9.07,0,0,0,6,3.81l.44.51ZM4.12,6.83a6.63,6.63,0,0,1,1-1.37l-.57-.41a7.61,7.61,0,0,0-1.1,1.5ZM3.31,10V9.89A6.31,6.31,0,0,1,3.5,8.38l-.72-.14a7,7,0,0,0-.2,1.65V10Zm0,3.44V11.73H2.58v1.72Zm0,3.43V15.16H2.58v1.72Zm0,3.43V18.6H2.58v1.71Zm0,3.44V22H2.58v1.72Zm0,3.43V25.46H2.58v1.72Zm0,3.43V28.9H2.58v1.71Zm0,3.44V32.33H2.58v1.72Zm0,3.43V35.76H2.58v1.72Zm.11,3.37a5.93,5.93,0,0,1-.11-1.13V39.2H2.58v.52A6.36,6.36,0,0,0,2.69,41l.73-.11Zm1.43,3a7.66,7.66,0,0,1-.92-1.42l-.68.25a7.78,7.78,0,0,0,1,1.55l.59-.38ZM7.68,46a8.61,8.61,0,0,1-1.56-.91l-.47.49a8.33,8.33,0,0,0,1.69,1Z"/></g></g></svg>