<?xml version="1.0" encoding="utf-8"?>
<!-- Generator: Adobe Illustrator 17.0.0, SVG Export Plug-In . SVG Version: 6.00 Build 0)  -->
<!DOCTYPE svg PUBLIC "-//W3C//DTD SVG 1.1//EN" "http://www.w3.org/Graphics/SVG/1.1/DTD/svg11.dtd">
<svg version="1.1" id="Layer_1" xmlns="http://www.w3.org/2000/svg" xmlns:xlink="http://www.w3.org/1999/xlink" x="0px" y="0px"
	 width="880.578px" height="800px" viewBox="0 0 880.578 800" enable-background="new 0 0 880.578 800" xml:space="preserve">
<path fill="#E62714" d="M182.992,128.544c0.038,0.295,0.077,0.589,0.115,0.884C182.935,129.151,182.831,128.865,182.992,128.544z"/>
<ellipse fill="#FBEE19" cx="440.289" cy="649.995" rx="433.388" ry="148.005"/>
<g>
	<path fill="#FDF010" d="M508.567,77.904c0.993,0.987,1.985,1.974,2.978,2.961c0.334,0.496,0.582,1.088,1.014,1.473
		c27.243,24.306,70.911,13.993,84.307-20.001c1.223-3.102,2.629-4.124,6.072-4.452c6.905-0.658,11.932,1.591,16.096,6.951
		c2.14,2.755,4.833,5.103,7.418,7.48c1.697,1.56,2.184,3.105,1.768,5.468c-2.396,13.642,8.639,24.92,22.107,22.511
		c2.796-0.5,4.432,0.279,6.238,2.149c5.216,5.401,10.514,10.728,15.93,15.928c2.037,1.956,3.478,4.059,3.867,6.854
		c0.021,1.915-0.012,3.833,0.073,5.746c0.924,20.765,0.659,41.523-1.247,62.212c-4.901,53.196-20.035,103.529-42.495,151.872
		c-21.524,46.326-50.026,87.816-84.234,125.656c-25.91,28.662-54.983,53.279-87.757,73.749c-7.1,4.434-12.049,4.408-19.086-0.008
		c-23.78-14.921-45.803-31.993-66.328-51.076c-3.207-3.22-6.414-6.44-9.621-9.66c-14.744-16.587-29.95-32.793-43.169-50.665
		c-54.558-73.766-88.205-155.677-96.112-247.566c-0.981-19.943-1.575-39.883-0.15-59.838c0.194-2.714,0.934-4.752,2.942-6.67
		c5.545-5.294,10.974-10.718,16.255-16.275c2.075-2.183,3.997-2.914,7.097-2.344c11.425,2.1,22.663-7.229,21.696-18.855
		c-0.506-6.088,1.352-9.845,5.674-13.265c1.369-1.083,2.695-2.322,3.715-3.727c3.934-5.422,9.109-7.119,15.718-6.614
		c3.459,0.264,4.846,1.344,6.076,4.439c8.076,20.315,28.205,33.706,49.795,33.415c21.634-0.292,40.984-13.786,48.901-34.05
		c2.616-6.695,4.99-13.456,6.733-20.442c2.143-8.589,6.952-12.414,15.782-12.214c2.613,0.059,3.065-0.759,3.432-3.079
		c1.888-11.914,10.201-19.168,21.471-19.033c10.974,0.131,18.923,7.444,20.693,19.282c0.323,2.158,0.83,3.144,3.21,2.797
		c5.168-0.754,9.301,1.485,12.953,4.884c1.135,2.089,2.384,4.105,2.926,6.487c1.625,7.149,3.978,14.079,6.742,20.857
		C500.558,67.401,503.445,73.37,508.567,77.904z M546.124,221.025c2.588-3.916,0.58-8.259,0.904-12.367
		c0.387-4.914-0.447-10.046-3.086-14.555l0.106,0.069c-0.079-0.945,0.013-1.944-0.262-2.828
		c-4.202-13.515-12.852-24.094-22.536-33.98c-0.428-0.437-0.809-0.177-1.14,0.189l0.046,0.052c0.717-2.185-1.33-2.875-2.341-3.948
		c-16.853-17.9-37.559-30.424-58.93-42.001c-0.181-0.098-0.552,0.156-0.96,0.286c0,7.303-0.04,14.637,0.013,21.969
		c0.038,5.242-1.458,11.399,0.785,15.459c2.134,3.863,8.215,5.566,12.592,8.164c15.976,9.484,29.835,21.243,40.172,36.89
		c7.569,11.457,8.972,23.28,2.644,35.72c-7.213,10.668-17.19,15.632-30.113,15.059c-7.165-0.318-14.369,0.211-21.529-0.162
		c-4.028-0.21-4.792,1.254-4.645,4.863c0.266,6.53,0.302,13.089-0.015,19.615c-0.179,3.683,1.012,4.491,4.548,4.456
		c18.663-0.183,37.329-0.084,55.994-0.087c17.63-0.002,27.302,6.589,33.534,22.863c1.917,9.328,0.686,18.061-4.929,25.957
		c-1.755,2.467-3.54,4.913-5.31,7.369c-9.678,13.425-20.986,25.465-32.036,37.725c-0.731,0.918-1.461,1.836-2.192,2.754
		c-0.457,0.117-1.056,0.086-1.352,0.371c-14.446,13.859-29.834,26.56-46.373,37.851c-0.939,0.641-1.797,1.285-1.795,2.615
		c0.017,12.207,0.01,24.414,0.01,37.237c10.643-5.839,20.121-11.997,29.242-18.674c11.575-8.473,23.099-17.039,32.921-27.615
		l0.015-0.014c6.826-5.043,12.378-11.411,17.983-17.672c15.885-17.745,31.056-35.962,40.362-58.337
		c6.785-16.314,7.519-32.678,0.749-48.884c-6.124-14.66-17.698-23.364-33.233-26.741c-0.196-0.254-0.415-0.288-0.657-0.102
		c-1.064-0.189-2.127-0.378-3.191-0.567c-8.558-1.727-8.558-1.727-3.841-8.975c0.26-0.4,0.529-0.795,0.77-1.206
		C542.485,233.974,546.52,228.332,546.124,221.025z M392.857,169.724c4.987,1.636,10.118,0.644,15.168,0.661
		c4.178,0.014,5.524,1.569,5.518,5.695c-0.091,68.002-0.067,136.004-0.052,204.006c0,1.949,0.095,3.868-1.79,5.13
		c-3.076,0.586-4.622-1.756-6.418-3.467c-30.187-28.765-52.888-62.548-67.776-101.518c-1.062-2.78-2.33-4.003-5.47-3.864
		c-6.219,0.275-12.459,0.079-18.69,0.083c-7.934,0.005-9.434,2.128-6.699,9.599c18.039,49.287,46.732,91.33,86.099,126.013
		c15.84,13.955,32.776,26.446,51.55,36.279c3.307-0.991,1.82-3.744,1.821-5.656c0.079-92.799,0.069-185.599,0.069-278.398
		c0-16.292,0.032-32.584-0.048-48.875c-0.008-1.678,1.106-4.032-1.757-4.762c-0.356,0.251-0.712,0.503-1.068,0.754
		c-2.182,1.324-4.365,2.646-6.545,3.973c-15.962,9.718-31.512,20.011-45.41,32.603c-2.066,6.398-0.858,12.918-0.629,19.389
		C390.765,168.404,391.795,169.249,392.857,169.724z M642.11,169.171c-0.013,0.314-0.026,0.628-0.039,0.942
		c-0.683,8.831-1.366,17.661-2.091,27.029c6.613-2.765,12.585-5.399,18.67-7.742c2.619-1.009,3.464-2.476,3.677-5.282
		c0.908-11.962,1.069-23.936,1.265-35.918c0.052-3.181-1.105-5.345-3.291-7.499c-10.814-10.659-21.603-21.347-32.166-32.253
		c-2.732-2.821-4.082-3.356-7.302-0.273c-14.976,14.335-33.124,21.414-53.815,21.472c-20.559,0.058-38.266-7.589-53.646-20.983
		c-7.283-7.501-12.734-16.108-17.592-25.436c-9.634-18.5-25.614-27.893-46.522-27.129c-20.497,0.749-35.135,11.268-44.165,29.598
		c-13.994,28.406-37.426,42.553-68.445,43.826c-21.559,0.885-40.32-7.097-56.04-21.967c-1.463-1.384-2.395-3.209-4.82-0.728
		c-11.617,11.891-23.42,23.6-35.202,35.33c-1.237,1.232-1.679,2.532-1.697,4.243c-0.139,12.951,0.141,25.886,1.131,38.804
		c0.1,1.304,0.058,2.573,1.537,3.195c6.796,2.857,13.587,5.729,20.945,8.833c-1.441-14.116-2.285-27.326-2.472-40.575
		c-0.032-2.297,0.144-4.276,2.014-6.059c5.09-4.851,10.065-9.831,14.909-14.927c1.692-1.78,2.817-1.648,4.795-0.406
		c20.674,12.984,43.199,18.403,67.357,14.562c34.126-5.425,59.713-23.171,74.982-54.652c5.562-11.467,14.42-17.929,27.126-17.903
		c12.703,0.025,21.896,6.354,26.99,18.035c4.821,11.055,11.926,20.441,20.686,28.504c34.16,31.445,81.883,35.994,121.352,11.641
		c2.431-1.5,3.666-1.322,5.564,0.65c5.202,5.404,10.645,10.576,15.992,15.84c0.117,5.081,0.233,10.163,0.35,15.244
		C642.134,167.848,642.122,168.51,642.11,169.171z M661.003,198.292c-7.189,3.011-13.782,5.818-20.418,8.523
		c-1.959,0.799-2.283,2.269-2.589,4.125c-1.327,8.036-2.527,16.111-4.316,24.049c-17.127,75.979-51.01,143.47-102.156,202.342
		c-22.658,26.08-47.255,49.852-76.088,69.088c-3.385,2.258-5.575,1.997-8.735-0.141c-26.245-17.76-49.156-39.102-70.358-62.635
		c-37.233-41.326-65.828-87.804-86.505-139.329c-11.951-29.781-20.663-60.417-25.361-92.181c-0.259-1.75,0.166-3.973-2.152-4.952
		c-6.71-2.833-13.404-5.702-20.827-8.865c0.225,2.921,0.289,4.973,0.553,6.998c1.776,13.631,3.948,27.206,7.197,40.565
		c18.322,75.341,52.068,142.801,102.546,201.885c27.815,32.556,58.565,61.581,95.276,83.972c2.987,1.822,5.09,1.887,8.096,0.032
		c33.205-20.489,61.832-46.119,87.732-75.261c57.46-64.655,95.146-139.092,112.918-223.666
		C658.17,221.637,659.784,210.299,661.003,198.292z"/>
	<path fill="#E52110" d="M375.286,493.378c20.525,19.083,42.548,36.155,66.328,51.076c7.038,4.416,11.987,4.442,19.086,0.008
		c32.774-20.47,61.846-45.088,87.757-73.749c34.208-37.84,62.71-79.33,84.234-125.656c22.461-48.343,37.594-98.676,42.495-151.872
		c1.906-20.689,2.171-41.447,1.247-62.212c-0.085-1.913-0.051-3.83-0.073-5.747c0.269-1.362-0.401-2.962,1.023-4.03
		c1.915,17.325,1.817,34.712,0.95,52.065c-2.482,49.671-12.923,97.606-31.576,143.78c-22.252,55.084-52.48,105.067-92.08,149.567
		c-29.438,33.081-62.159,61.826-100.723,83.746c-1.514,0.861-2.626,1.859-4.677,0.67c-27.312-15.823-52.591-34.322-75.059-56.562
		C374.575,494.101,374.93,493.739,375.286,493.378z"/>
	<path fill="#E62714" d="M488.378,33.897c-3.652-3.398-7.785-5.638-12.953-4.884c-2.38,0.347-2.887-0.639-3.21-2.797
		c-1.77-11.838-9.719-19.151-20.693-19.282c-11.27-0.135-19.582,7.119-21.471,19.033c-0.368,2.319-0.819,3.138-3.432,3.079
		c-8.829-0.2-13.639,3.625-15.782,12.214c-1.743,6.986-4.117,13.747-6.733,20.442c-7.917,20.264-27.267,33.758-48.901,34.05
		c-21.59,0.291-41.719-13.1-49.795-33.415c-1.23-3.095-2.617-4.175-6.076-4.439c-6.61-0.504-11.784,1.192-15.718,6.614
		c-1.019,1.405-2.346,2.644-3.715,3.727c-4.322,3.419-6.181,7.177-5.674,13.265c0.967,11.626-10.271,20.954-21.696,18.855
		c-3.1-0.57-5.022,0.161-7.097,2.344c-5.282,5.556-10.71,10.981-16.255,16.275c-2.008,1.917-2.748,3.956-2.942,6.67
		c-1.424,19.955-0.831,39.895,0.15,59.838c-0.517,0.303-1.034,0.606-1.552,0.909c-1.847-21.219-1.696-42.447-0.347-63.686
		c0.103-1.624,0.936-2.6,1.975-3.634c6.575-6.538,13.173-13.054,19.634-19.703c1.545-1.59,2.887-1.785,4.978-1.261
		c12.835,3.214,24.169-7.818,21.088-20.75c-0.649-2.723-0.082-4.134,1.67-5.773c2.45-2.292,5.126-4.451,7.111-7.11
		c5.15-6.898,11.699-9.555,20.247-8.47c2.939,0.373,4.264,0.974,5.323,3.928c9.679,26.989,39.3,40.61,66.141,30.538
		c16.979-6.372,26.857-19.196,32.203-36.004c1.537-4.832,2.974-9.697,4.378-14.569c2.307-8.003,7.488-12.623,15.754-12.775
		c3.975-0.073,3.252-2.837,3.784-4.73c4.203-14.955,20.338-21.921,33.816-14.424c6.234,3.467,10.073,8.896,11.251,15.813
		c0.488,2.866,1.634,3.224,3.99,3.297c5.237,0.162,9.485,2.318,12.37,6.837C489.592,33.911,488.985,33.904,488.378,33.897z"/>
	<path fill="#E52110" d="M224.833,186.395c0.517-0.303,1.034-0.606,1.552-0.909c7.907,91.89,41.553,173.801,96.112,247.566
		c13.218,17.872,28.424,34.078,43.169,50.665c-0.359,0.362-0.718,0.725-1.077,1.087c-16.822-17.254-32.425-35.556-46.707-54.955
		c-37.991-51.602-64.852-108.528-81.121-170.478c-5.382-20.493-8.756-41.348-11.079-62.385c-0.209-1.894-0.116-3.821-0.162-5.733
		c-0.119-0.914-0.238-1.829-0.357-2.743C225.052,187.805,224.942,187.1,224.833,186.395z"/>
	<path fill="#E62714" d="M677.384,121.196c-1.424,1.068-0.754,2.668-1.023,4.03c-0.389-2.794-1.83-4.897-3.867-6.853
		c-5.416-5.2-10.714-10.527-15.93-15.928c-1.806-1.87-3.442-2.649-6.238-2.149c-13.467,2.409-24.503-8.869-22.107-22.511
		c0.415-2.364-0.072-3.908-1.768-5.468c-2.585-2.377-5.278-4.725-7.418-7.48c-4.163-5.36-9.191-7.609-16.096-6.951
		c-3.442,0.328-4.849,1.35-6.072,4.452c-13.395,33.994-57.064,44.307-84.307,20.001c-0.432-0.386-0.681-0.978-1.014-1.473
		c2.043-0.46,3.202,1.01,4.575,2.061c27.545,21.085,66.283,10.527,79.115-21.789c1.634-4.115,3.629-4.824,7.724-5.208
		c7.46-0.7,12.882,1.689,17.268,7.471c1.338,1.763,3.123,3.189,4.725,4.749c3.478,3.387,6.104,6.168,4.933,12.392
		c-2.063,10.962,9.794,20.478,20.59,17.759c2.501-0.63,4.353-0.421,6.286,1.666C663.465,107.202,671.001,113.638,677.384,121.196z"
		/>
	<path fill="#E52110" d="M488.378,33.897c0.607,0.007,1.215,0.014,1.822,0.021c2.463,2.517,2.901,5.911,3.747,9.068
		c2.989,11.156,6.508,22.064,13.632,31.406c0.842,1.105,1.128,2.21,0.989,3.513c-5.122-4.534-8.009-10.504-10.521-16.664
		c-2.764-6.777-5.117-13.707-6.742-20.857C490.762,38.001,489.513,35.986,488.378,33.897z"/>
	<path fill="#E62714" d="M364.588,484.805c0.359-0.362,0.718-0.725,1.077-1.087c3.207,3.22,6.414,6.44,9.621,9.66
		c-0.355,0.361-0.711,0.723-1.066,1.085C370.682,491.569,367.463,488.358,364.588,484.805z"/>
	<path fill="#EE0F01" d="M507.441,370.555c0.731-0.918,1.461-1.836,2.192-2.754c1.85,0.287,2.906-0.923,4.028-2.08
		c12.868-13.266,24.722-27.382,35.16-42.635c5.459-7.977,7.423-16.783,4.669-26.32c-3.739-14.715-16.441-24.73-31.821-24.815
		c-19.152-0.106-38.305-0.126-57.455,0.063c-3.661,0.036-4.688-1.039-4.484-4.582c0.293-5.09,0.309-10.224-0.001-15.313
		c-0.235-3.862,0.79-5.339,4.941-5.155c7.646,0.338,15.32,0.218,22.978,0.065c11.903-0.238,21.079-5.445,27.407-15.577
		c1.334-2.088,2.622-4.197,3.076-6.69c0.687-0.812,0.917-1.761,0.841-2.801c0.178-0.276,0.234-0.575,0.168-0.896
		c0.114-0.604,0.228-1.209,0.342-1.813c0.11-0.73,0.219-1.46,0.329-2.189c0.4-2.97,0.596-5.925-0.629-8.778
		c-1.917-10.886-8.646-19.03-15.582-26.989c-11.178-12.827-25.091-22.107-39.838-30.279c-1.688-0.935-4.007-1.358-3.992-4.158
		c0.058-10.634,0.023-21.269,0.023-32.65c14.327,7.912,27.896,15.576,40.007,25.487c6.99,5.721,13.586,11.924,20.359,17.91
		l-0.046-0.052c-0.227,1.562,1.09,2.213,1.915,3.097c8.67,9.294,16.504,19.116,20.098,31.625c0.311,1.081,0.992,1.561,1.925,1.897
		l-0.106-0.069c-0.643,1.164-0.68,2.301-0.351,3.642c1.873,7.636,2.669,15.367,1.596,23.215
		c-1.599,8.361-5.867,15.451-10.554,22.366c-3.218,4.748-2.352,6.77,3.216,7.823c1.404,0.266,2.852,0.3,4.28,0.441
		c27.416,4.892,39.768,25.021,39.78,49.488c0.008,16.746-6.977,31.104-15.483,44.58c-12.208,19.343-27.282,36.512-43.736,52.437
		c-1.128,1.091-3.496,1.763-2.583,4.229l-0.015,0.014c-2.372-0.971-3.221,1.208-4.437,2.312
		c-15.994,14.516-33.243,27.324-51.72,38.511c-3.066,1.856-4.322,2.103-4.212-2.184c0.216-8.449,0.234-16.914-0.022-25.361
		c-0.104-3.42,0.958-5.492,3.8-7.421c14.678-9.96,28.291-21.264,41.091-33.537C505.781,373.521,507.666,372.728,507.441,370.555z"/>
	<path fill="#E31611" d="M661.003,198.292c-1.219,12.007-2.832,23.345-5.187,34.548c-17.772,84.574-55.458,159.011-112.918,223.666
		c-25.9,29.143-54.527,54.772-87.732,75.261c-3.006,1.855-5.11,1.789-8.096-0.032c-36.712-22.391-67.462-51.415-95.276-83.972
		c-50.478-59.083-84.224-126.544-102.546-201.885c-3.249-13.36-5.421-26.934-7.197-40.565c-0.264-2.026-0.329-4.078-0.553-6.998
		c7.424,3.163,14.118,6.032,20.827,8.865c2.318,0.979,1.893,3.201,2.152,4.952c4.698,31.765,13.409,62.4,25.361,92.181
		c20.677,51.526,49.272,98.003,86.505,139.329c21.202,23.533,44.113,44.875,70.358,62.635c3.16,2.138,5.35,2.399,8.735,0.141
		c28.833-19.235,53.43-43.007,76.088-69.088c51.146-58.872,85.029-126.363,102.156-202.342c1.789-7.938,2.99-16.013,4.316-24.049
		c0.306-1.856,0.63-3.326,2.589-4.125C647.221,204.11,653.814,201.303,661.003,198.292z M658.587,201.536
		c-3.755,1.547-6.835,2.804-9.905,4.086c-2.063,0.861-4.072,1.871-6.177,2.605c-1.776,0.62-2.315,1.755-2.584,3.535
		c-9.816,65.051-34.199,124.554-70.438,179.047c-29.296,44.052-64.147,83.271-107.94,113.785
		c-10.322,7.192-10.378,7.266-20.498,0.161c-47.592-33.41-85.009-76.427-115.546-125.36
		c-31.925-51.157-53.775-106.455-62.978-166.38c-0.271-1.767,0.046-3.776-2.415-4.716c-5.349-2.043-10.584-4.383-15.868-6.603
		c-0.783,1.46-0.201,2.701-0.053,3.91c6.687,54.586,24.859,105.46,50.036,154.027c18.638,35.953,42.401,68.265,69.314,98.481
		c24.638,27.661,52.174,51.673,83.602,71.279c3.004,1.874,4.966,1.946,7.989,0.066c32.853-20.432,61.051-46.042,86.81-74.851
		c46.993-52.557,80.079-112.724,101.271-179.678C650.692,251.282,655.609,227.053,658.587,201.536z"/>
	<path fill="#E51510" d="M641.796,151.943c-5.347-5.264-10.79-10.436-15.992-15.84c-1.898-1.972-3.133-2.15-5.564-0.65
		c-39.468,24.353-87.192,19.804-121.352-11.641c-8.76-8.063-15.865-17.449-20.686-28.504c-5.094-11.681-14.286-18.01-26.99-18.035
		c-12.706-0.025-21.564,6.436-27.126,17.903c-15.269,31.481-40.856,49.227-74.982,54.652c-24.158,3.84-46.683-1.578-67.357-14.562
		c-1.978-1.242-3.103-1.374-4.795,0.406c-4.844,5.096-9.819,10.077-14.909,14.927c-1.871,1.783-2.047,3.762-2.014,6.059
		c0.187,13.249,1.031,26.46,2.472,40.575c-7.358-3.105-14.149-5.976-20.945-8.833c-1.479-0.622-1.437-1.89-1.537-3.195
		c-0.99-12.918-1.27-25.853-1.131-38.804c0.018-1.71,0.46-3.011,1.697-4.243c11.781-11.73,23.584-23.439,35.202-35.33
		c2.425-2.482,3.357-0.657,4.82,0.728c15.72,14.871,34.481,22.852,56.04,21.967c31.019-1.273,54.451-15.42,68.445-43.826
		c9.03-18.33,23.668-28.849,44.165-29.598c20.908-0.764,36.888,8.629,46.522,27.129c4.858,9.328,10.308,17.935,17.592,25.436
		c-0.391,0.342-0.782,0.684-1.173,1.025c-7.3-6.41-12.679-14.142-16.828-22.949c-8.794-18.672-23.844-28.757-44.391-28.666
		c-20.521,0.091-35.418,10.276-44.219,28.959c-1.636,3.473-3.295,6.899-5.504,10.054c-28.157,40.194-84.243,46.408-120.522,13.226
		c-2.254-2.062-3.308-2.305-5.525-0.035c-10.607,10.861-21.383,21.558-32.176,32.236c-1.602,1.585-2.246,3.207-2.262,5.454
		c-0.083,11.829,0.498,23.632,1.132,35.435c0.086,1.609,0.151,3.117,2.067,3.883c5.243,2.096,10.431,4.331,15.859,6.603
		c-0.587-10.27-0.786-20.014-1.804-29.671c-0.907-8.61,1.171-15.412,8.332-20.737c3.553-2.642,6.602-6.063,9.496-9.457
		c2.264-2.656,3.916-2.529,6.728-0.671c14.444,9.545,30.481,15.114,47.717,15.329c42.173,0.525,73.673-17.323,92.704-55.735
		c5.757-11.621,15.433-17.794,28.432-17.717c13.044,0.078,22.816,6.47,28.116,18.208c8.863,19.631,22.945,34.259,41.789,43.897
		c33.564,17.168,66.733,15.405,98.924-4.2c1.832-1.116,3.116-2.329,5.209-0.079c5.649,6.072,11.576,11.887,17.392,17.803
		c-0.007,0.354-0.015,0.708-0.022,1.062C642.494,151.929,642.145,151.936,641.796,151.943z"/>
	<path fill="#353639" d="M444.297,448.342c-18.774-9.832-35.71-22.324-51.55-36.279c-39.367-34.683-68.061-76.726-86.099-126.013
		c-2.735-7.472-1.235-9.594,6.699-9.599c6.231-0.004,12.471,0.192,18.69-0.083c3.14-0.139,4.408,1.084,5.47,3.864
		c14.888,38.97,37.589,72.753,67.776,101.518c1.796,1.711,3.342,4.053,6.418,3.467c0.372,0.29,0.744,0.58,1.116,0.869
		c-2.686,2.178-4.673,0.598-6.675-1.191c-11.355-10.15-21.403-21.512-30.708-33.521c-16.438-21.215-29.602-44.321-39.193-69.407
		c-1.09-2.851-2.553-3.897-5.598-3.763c-5.582,0.244-11.182,0.065-16.774,0.071c-7.341,0.009-7.877,0.745-5.278,7.79
		c20.604,55.839,54.547,101.881,101.756,138.093c10.119,7.761,20.428,15.317,32.035,20.83c0.595,0.48,1.19,0.96,1.784,1.441
		C444.209,447.066,444.253,447.704,444.297,448.342z"/>
	<path fill="#3C3237" d="M444.165,446.427c-0.595-0.48-1.19-0.96-1.784-1.442c0-109.975,0-219.949,0-330.684
		c-18.212,10.152-34.409,21.906-49.945,34.627c-0.359-0.316-0.719-0.632-1.078-0.948c13.899-12.592,29.448-22.885,45.41-32.603
		c2.18-1.327,4.363-2.649,6.545-3.973c0.33,0.038,0.661,0.077,0.991,0.115c0.015,110.682,0.031,221.364,0.038,332.046
		C444.342,444.519,444.227,445.473,444.165,446.427z"/>
	<path fill="#FEFE0D" d="M444.165,446.427c0.062-0.954,0.177-1.908,0.177-2.862c-0.007-110.682-0.023-221.364-0.038-332.046
		c0.04-0.288,0.066-0.578,0.078-0.869c2.862,0.73,1.749,3.085,1.757,4.762c0.08,16.291,0.048,32.583,0.048,48.875
		c0,92.799,0.01,185.599-0.069,278.398c-0.002,1.912,1.485,4.665-1.821,5.656C444.253,447.704,444.209,447.066,444.165,446.427z"/>
	<path fill="#DF1417" d="M642.843,151.922c0.007-0.354,0.015-0.708,0.022-1.062c2.14,1.083,1.271,3.073,1.3,4.694
		c0.204,11.517-0.596,22.993-1.478,34.467c-0.09,1.174-1.053,3.766,1.192,3.055c5.301-1.677,10.367-4.122,15.469-6.389
		c1.16-0.515,0.892-1.969,0.97-3.042c0.863-11.797,1.137-23.614,1.162-35.441c0.005-2.39-0.682-4.187-2.423-5.908
		c-10.801-10.675-21.543-21.411-32.186-32.243c-1.85-1.883-2.917-2.038-4.876-0.111c-5.266,5.181-11.357,9.274-17.899,12.728
		c-29.924,15.798-69.585,10.215-91.897-12.982c0.391-0.342,0.782-0.684,1.173-1.025c15.38,13.394,33.087,21.041,53.646,20.983
		c20.691-0.058,38.839-7.137,53.815-21.472c3.22-3.082,4.57-2.547,7.302,0.273c10.563,10.906,21.352,21.594,32.166,32.253
		c2.185,2.154,3.343,4.318,3.291,7.499c-0.196,11.982-0.357,23.956-1.265,35.918c-0.213,2.806-1.057,4.273-3.677,5.282
		c-6.084,2.344-12.057,4.977-18.67,7.742c0.725-9.368,1.408-18.199,2.091-27.029c0.108-0.089,0.318-0.199,0.305-0.263
		c-0.048-0.235-0.171-0.454-0.265-0.679c0.012-0.662,0.024-1.323,0.036-1.985C643.705,162.159,642.53,157.006,642.843,151.922z"/>
	<path fill="#353639" d="M519.138,221.064c0.066,0.322,0.01,0.62-0.168,0.896c-1.001,0.717-0.813,1.792-0.841,2.801
		c-0.454,2.493-1.742,4.602-3.076,6.69c-0.307-0.436-0.613-0.872-0.92-1.308c6.327-12.441,4.925-24.263-2.644-35.72
		c-10.337-15.647-24.196-27.406-40.172-36.89c-4.377-2.599-10.458-4.302-12.592-8.164c-2.243-4.061-0.747-10.218-0.785-15.459
		c-0.053-7.333-0.013-14.666-0.013-21.969c0.408-0.13,0.78-0.384,0.96-0.286c21.371,11.577,42.077,24.101,58.93,42.001
		c1.01,1.073,3.058,1.763,2.341,3.949c-6.773-5.986-13.369-12.189-20.359-17.91c-12.111-9.911-25.68-17.575-40.007-25.487
		c0,11.381,0.035,22.016-0.023,32.65c-0.015,2.8,2.303,3.223,3.992,4.158c14.747,8.172,28.66,17.452,39.838,30.279
		c6.936,7.959,13.665,16.103,15.582,26.99c0.174,2.929-0.8,5.939,0.63,8.777c-0.11,0.73-0.219,1.46-0.328,2.188
		C519.367,219.855,519.253,220.459,519.138,221.064z"/>
	<path fill="#18303F" d="M412.816,386.086c-0.372-0.29-0.744-0.58-1.116-0.869c1.886-1.262,1.791-3.181,1.79-5.13
		c-0.015-68.002-0.038-136.004,0.052-204.006c0.005-4.126-1.341-5.681-5.518-5.695c-5.05-0.017-10.181,0.975-15.167-0.661
		c0.278-0.298,0.557-0.595,0.835-0.893c5.21,0.041,10.421,0.134,15.631,0.102c2.414-0.015,4.363,0.577,5.396,2.962
		c0.125,0.416,0.25,0.833,0.376,1.249c0.018,16.287,0.057,32.573,0.051,48.86c-0.02,53.65-0.057,107.301-0.087,160.951
		c-0.127,0.409-0.254,0.818-0.381,1.226C414.057,384.816,413.436,385.451,412.816,386.086z"/>
	<path fill="#353639" d="M520.108,402.325c-0.912-2.467,1.456-3.138,2.583-4.229c16.453-15.925,31.527-33.094,43.736-52.437
		c8.506-13.477,15.491-27.834,15.483-44.58c-0.012-24.467-12.364-44.596-39.78-49.488c-0.003-0.523-0.006-1.045-0.009-1.568
		c1.064,0.189,2.127,0.378,3.191,0.567c0.214,0.067,0.433,0.101,0.658,0.102c15.535,3.377,27.108,12.081,33.233,26.741
		c6.77,16.206,6.036,32.57-0.749,48.884c-9.306,22.374-24.478,40.592-40.362,58.337
		C532.487,390.914,526.934,397.282,520.108,402.325z"/>
	<path fill="#3C3237" d="M514.133,230.144c0.307,0.436,0.613,0.872,0.92,1.308c-6.329,10.132-15.505,15.338-27.408,15.577
		c-7.658,0.153-15.332,0.273-22.978-0.065c-4.151-0.183-5.176,1.293-4.941,5.155c0.31,5.088,0.294,10.222,0.001,15.313
		c-0.204,3.543,0.823,4.618,4.484,4.582c19.15-0.189,38.304-0.169,57.455-0.063c15.381,0.085,28.083,10.1,31.821,24.815
		c-0.527-0.005-1.055-0.01-1.582-0.015c-6.232-16.274-15.904-22.866-33.534-22.863c-18.665,0.003-37.331-0.096-55.994,0.087
		c-3.536,0.035-4.728-0.773-4.548-4.456c0.317-6.525,0.282-13.085,0.015-19.615c-0.147-3.609,0.617-5.073,4.645-4.863
		c7.159,0.374,14.364-0.155,21.529,0.162C496.943,245.776,506.92,240.813,514.133,230.144z"/>
	<path fill="#353639" d="M507.441,370.555c0.226,2.173-1.66,2.966-2.846,4.103c-12.801,12.273-26.413,23.576-41.091,33.537
		c-2.843,1.929-3.904,4.001-3.8,7.421c0.256,8.447,0.239,16.911,0.022,25.361c-0.11,4.288,1.146,4.04,4.212,2.184
		c18.477-11.187,35.726-23.995,51.72-38.511c1.216-1.103,2.065-3.283,4.437-2.312c-9.823,10.577-21.346,19.143-32.921,27.615
		c-9.121,6.676-18.599,12.834-29.242,18.674c0-12.822,0.007-25.03-0.01-37.237c-0.002-1.33,0.856-1.974,1.795-2.615
		c16.54-11.291,31.928-23.992,46.373-37.851C506.385,370.641,506.983,370.672,507.441,370.555z"/>
	<path fill="#353639" d="M551.907,296.751c0.527,0.005,1.055,0.01,1.582,0.015c2.754,9.538,0.79,18.343-4.669,26.32
		c-10.438,15.253-22.292,29.369-35.16,42.635c-1.122,1.157-2.178,2.367-4.028,2.08c11.05-12.26,22.358-24.3,32.036-37.725
		c1.77-2.456,3.555-4.901,5.31-7.369C552.593,314.812,553.824,306.079,551.907,296.751z"/>
	<path fill="#353639" d="M544.049,194.171c-0.932-0.336-1.614-0.816-1.925-1.897c-3.594-12.509-11.428-22.331-20.098-31.625
		c-0.825-0.884-2.142-1.534-1.915-3.097c0.33-0.366,0.712-0.626,1.14-0.189c9.684,9.886,18.334,20.465,22.536,33.98
		C544.062,192.228,543.97,193.226,544.049,194.171z"/>
	<path fill="#3C3237" d="M542.122,250.023c0.003,0.523,0.006,1.045,0.009,1.568c-1.428-0.141-2.876-0.176-4.28-0.441
		c-5.569-1.053-6.434-3.075-3.216-7.823c4.687-6.915,8.954-14.005,10.554-22.366c0.313,0.013,0.625,0.035,0.936,0.065
		c0.396,7.307-3.639,12.949-7.074,18.816c-0.241,0.411-0.51,0.806-0.77,1.206C533.563,248.296,533.563,248.296,542.122,250.023z"/>
	<path fill="#353639" d="M546.124,221.025c-0.311-0.03-0.623-0.052-0.936-0.065c1.073-7.848,0.278-15.579-1.596-23.215
		c-0.329-1.341-0.292-2.477,0.351-3.642c2.638,4.509,3.472,9.641,3.085,14.555C546.704,212.766,548.712,217.109,546.124,221.025z"/>
	<path fill="#18303F" d="M391.358,147.981c0.359,0.316,0.719,0.632,1.078,0.948c-1.101,4.544-0.039,9.144-0.352,13.711
		c-0.151,2.213-0.27,4.478,1.607,6.192c-0.278,0.298-0.556,0.595-0.835,0.893c-1.062-0.475-2.092-1.32-2.128-2.354
		C390.5,160.899,389.292,154.379,391.358,147.981z"/>
	<path fill="#E62714" d="M642.843,151.922c-0.313,5.085,0.862,10.237-0.697,15.265c-0.117-5.081-0.233-10.163-0.35-15.244
		C642.145,151.936,642.494,151.929,642.843,151.922z"/>
	<path fill="#E62714" d="M642.11,169.171c0.095,0.225,0.217,0.445,0.265,0.679c0.013,0.064-0.197,0.174-0.305,0.263
		C642.083,169.799,642.096,169.485,642.11,169.171z"/>
	<path fill="#3C3237" d="M545.97,250.692c-0.224-0.001-0.443-0.035-0.658-0.102C545.555,250.404,545.774,250.438,545.97,250.692z"/>
	<path fill="#EADE13" d="M444.382,110.65c-0.011,0.291-0.037,0.581-0.078,0.869c-0.33-0.038-0.66-0.077-0.991-0.115
		C443.669,111.153,444.026,110.902,444.382,110.65z"/>
	<path fill="#3C3237" d="M519.809,217.062c-1.429-2.838-0.456-5.848-0.63-8.777C520.405,211.137,520.209,214.092,519.809,217.062z"
		/>
	<path fill="#3C3237" d="M518.129,224.762c0.028-1.01-0.16-2.084,0.841-2.801C519.046,223.002,518.816,223.95,518.129,224.762z"/>
	<path fill="#3C3237" d="M519.138,221.064c0.115-0.605,0.229-1.21,0.343-1.814C519.366,219.856,519.252,220.46,519.138,221.064z"/>
	<path fill="#0F3BF6" d="M658.587,201.536c-2.978,25.518-7.895,49.746-15.38,73.395c-21.192,66.953-54.278,127.12-101.271,179.678
		c-25.759,28.809-53.957,54.419-86.81,74.851c-3.023,1.88-4.985,1.808-7.989-0.066c-31.428-19.606-58.964-43.618-83.602-71.279
		c-26.913-30.216-50.676-62.528-69.314-98.481c-25.177-48.567-43.348-99.441-50.036-154.027c-0.148-1.209-0.73-2.45,0.053-3.91
		c5.284,2.22,10.519,4.56,15.868,6.603c2.461,0.94,2.144,2.949,2.415,4.716c9.203,59.925,31.053,115.223,62.978,166.38
		c30.537,48.932,67.954,91.949,115.546,125.36c10.12,7.105,10.176,7.03,20.498-0.161c43.793-30.513,78.644-69.732,107.94-113.785
		c36.239-54.492,60.622-113.995,70.438-179.047c0.269-1.78,0.808-2.915,2.584-3.535c2.106-0.735,4.114-1.744,6.177-2.605
		C651.752,204.34,654.832,203.083,658.587,201.536z"/>
	<path fill="#0F3BF6" d="M512.199,109.689c22.311,23.197,61.973,28.78,91.897,12.982c6.542-3.454,12.633-7.547,17.899-12.728
		c1.959-1.927,3.026-1.773,4.876,0.111c10.644,10.831,21.386,21.567,32.186,32.243c1.741,1.721,2.429,3.518,2.423,5.908
		c-0.025,11.827-0.299,23.643-1.162,35.441c-0.078,1.073,0.189,2.527-0.97,3.042c-5.102,2.267-10.168,4.711-15.469,6.389
		c-2.246,0.71-1.282-1.881-1.192-3.055c0.882-11.473,1.682-22.95,1.478-34.467c-0.029-1.621,0.84-3.611-1.3-4.694
		c-5.817-5.917-11.743-11.731-17.392-17.803c-2.093-2.25-3.377-1.036-5.209,0.079c-32.191,19.605-65.36,21.368-98.924,4.2
		c-18.844-9.639-32.926-24.267-41.789-43.897c-5.3-11.738-15.072-18.13-28.116-18.208c-13-0.078-22.675,6.096-28.432,17.717
		c-19.031,38.412-50.531,56.26-92.704,55.735c-17.236-0.215-33.274-5.784-47.717-15.329c-2.812-1.858-4.464-1.985-6.728,0.671
		c-2.894,3.395-5.943,6.815-9.496,9.457c-7.161,5.325-9.239,12.127-8.332,20.737c1.017,9.658,1.216,19.402,1.804,29.671
		c-5.429-2.272-10.617-4.506-15.859-6.603c-1.915-0.766-1.98-2.274-2.067-3.883c-0.634-11.803-1.215-23.606-1.132-35.435
		c0.016-2.247,0.66-3.869,2.262-5.454c10.792-10.678,21.569-21.375,32.176-32.236c2.217-2.27,3.271-2.027,5.525,0.035
		c36.279,33.182,92.365,26.968,120.522-13.226c2.21-3.155,3.868-6.581,5.504-10.054c8.802-18.683,23.698-28.868,44.219-28.959
		c20.546-0.091,35.596,9.994,44.391,28.666C499.519,95.548,504.898,103.279,512.199,109.689z"/>
	<path fill="#EF0E01" d="M393.692,168.831c-1.878-1.714-1.759-3.979-1.607-6.192c0.312-4.567-0.75-9.167,0.352-13.711
		c15.536-12.722,31.734-24.476,49.945-34.628c0,110.735,0,220.709,0,330.684c-11.607-5.512-21.916-13.067-32.035-20.829
		c-47.209-36.212-81.152-82.254-101.756-138.093c-2.599-7.044-2.063-7.781,5.278-7.79c5.592-0.007,11.192,0.173,16.774-0.071
		c3.045-0.133,4.508,0.913,5.598,3.763c9.59,25.086,22.754,48.192,39.193,69.407c9.305,12.009,19.354,23.371,30.708,33.521
		c2.001,1.789,3.989,3.37,6.675,1.191c0.62-0.635,1.241-1.27,1.861-1.905c0.127-0.409,0.254-0.817,0.381-1.226
		c0.03-53.65,0.067-107.301,0.087-160.951c0.006-16.287-0.033-32.573-0.05-48.86c-0.125-0.416-0.251-0.833-0.376-1.249
		c-1.033-2.385-2.982-2.977-5.396-2.962C404.113,168.965,398.902,168.873,393.692,168.831z"/>
	<path fill="#7E2528" d="M414.718,171.895c0.126,0.416,0.251,0.833,0.376,1.249C414.968,172.728,414.843,172.312,414.718,171.895z"
		/>
	<path fill="#7E2528" d="M415.058,382.955c-0.127,0.409-0.254,0.817-0.381,1.226C414.804,383.772,414.931,383.363,415.058,382.955z"
		/>
</g>
<g>
	<path fill="#EE0F01" stroke="#353639" stroke-width="1.2094" stroke-miterlimit="10" d="M284.782,643.9l13.393,28.699
		c1.276,2.646,2.339,4.382,3.189,5.208c0.851,0.827,2.15,1.382,3.897,1.665c3.402,0.52,5.102,2.244,5.102,5.173
		c0,3.449-2.08,5.929-6.236,7.441c-4.158,1.511-10.961,2.268-20.409,2.268c-10.677,0-18.59-0.449-23.739-1.346
		c-2.363-0.425-4.24-1.287-5.633-2.587c-1.394-1.299-2.091-2.87-2.091-4.713c0-1.417,0.365-2.516,1.099-3.295
		c0.732-0.78,2.091-1.499,4.074-2.162c2.22-0.755,3.331-2.031,3.331-3.827c0-3.164-1.913-5.031-5.74-5.598
		c-4.11-0.567-9.898-0.851-17.361-0.851c-6.284,0-10.039,0.378-11.267,1.134c-0.756,0.473-1.417,1.323-1.984,2.551
		c-0.567,1.229-0.851,2.41-0.851,3.543c0,1.04,0.2,1.713,0.602,2.02c0.401,0.307,1.712,0.815,3.933,1.523
		c2.881,0.851,4.322,2.551,4.322,5.102c0,5.622-6.732,8.433-20.196,8.433c-7.653,0-13.275-0.52-16.865-1.559
		c-3.308-0.992-4.961-3.164-4.961-6.519c0-1.464,0.365-2.598,1.099-3.401c0.732-0.802,2.043-1.535,3.933-2.197
		c3.07-1.086,5.397-2.609,6.98-4.57c1.582-1.96,3.838-6.152,6.767-12.578l9.992-21.897c3.685-8.031,6.152-14.042,7.405-18.035
		c1.251-3.992,1.901-7.901,1.949-11.728c0.047-4.062,0.295-6.885,0.744-8.468c0.448-1.582,1.453-3.129,3.011-4.642
		c3.26-3.306,7.417-4.961,12.472-4.961c4.771,0,9.33,1.867,13.676,5.598C264.467,604.43,273.255,619.288,284.782,643.9z
		 M235.461,652.829h13.889c2.551,0,3.827-0.567,3.827-1.7c0-1.559-1.771-5.385-5.315-11.48c-1.607-2.787-2.834-4.653-3.685-5.598
		c-0.851-0.944-1.749-1.417-2.693-1.417c-1.7,0-3.118,1.583-4.252,4.748c-0.19,0.425-0.875,2.103-2.055,5.031
		c-1.984,4.819-2.976,7.701-2.976,8.645C232.202,652.239,233.288,652.829,235.461,652.829z"/>
	<path fill="#EE0F01" stroke="#353639" stroke-width="1.2094" stroke-miterlimit="10" d="M353.518,636.672v22.747
		c0,10.063,0.152,15.921,0.46,17.574c0.307,1.654,1.476,2.929,3.508,3.827c1.747,0.756,2.916,1.465,3.508,2.126
		c0.591,0.662,0.886,1.607,0.886,2.834c0,1.559-0.556,2.976-1.665,4.252c-1.11,1.276-2.587,2.174-4.429,2.693
		c-3.402,1.039-9.141,1.559-17.219,1.559c-9.118,0-15.519-0.686-19.204-2.055c-1.7-0.613-3.094-1.57-4.181-2.87
		c-1.088-1.299-1.63-2.657-1.63-4.075c0-1.134,0.294-2.007,0.886-2.622c0.591-0.613,1.878-1.346,3.862-2.197
		c1.842-0.802,2.976-2.999,3.402-6.59c0.755-6.141,1.134-14.881,1.134-26.219c0-11.527-0.331-18.943-0.992-22.251
		c-0.662-3.306-2.315-5.763-4.961-7.37c-1.984-1.134-3.342-2.208-4.074-3.224c-0.733-1.015-1.099-2.255-1.099-3.72
		c0-2.315,1.109-4.334,3.331-6.059c2.22-1.724,5.764-3.318,10.629-4.784c3.26-0.992,7.487-1.936,12.685-2.834
		c5.196-0.897,8.975-1.346,11.338-1.346c3.731,0,5.598,2.315,5.598,6.944c0,1.512-0.237,4.985-0.709,10.417
		C353.967,621.886,353.613,629.634,353.518,636.672z"/>
	<path fill="#EE0F01" stroke="#353639" stroke-width="1.2094" stroke-miterlimit="10" d="M404.61,600.39l-0.922,27.636
		c0,0.662,0,1.181,0,1.559c0,0.946,0.307,1.417,0.922,1.417c0.329,0,1.276-0.638,2.834-1.913c5.527-4.535,11.622-6.803,18.283-6.803
		c6.614,0,12.447,2.386,17.503,7.157c6.33,6,9.495,13.818,9.495,23.456c0,13.747-5.127,24.731-15.377,32.951
		c-7.37,5.953-16.015,8.929-25.936,8.929c-4.915,0-9.343-0.627-13.287-1.878c-3.945-1.251-8.255-3.389-12.933-6.413
		c-0.709-0.425-1.276-0.638-1.7-0.638c-0.521,0-1.984,0.449-4.393,1.346c-1.23,0.473-2.669,0.709-4.322,0.709
		c-2.93,0-4.393-0.944-4.393-2.834c0-0.613,0.117-1.322,0.354-2.126c0.945-3.07,1.583-6.873,1.913-11.409
		c0.329-4.535,0.496-11.715,0.496-21.542v-19.558c0-4.866-0.189-7.912-0.567-9.141c-0.379-1.228-1.442-2.197-3.189-2.905
		c-2.457-1.039-4.157-2.066-5.102-3.082c-0.945-1.015-1.417-2.303-1.417-3.862c0-3.164,3.377-6.259,10.134-9.283
		c3.685-1.606,8.279-3.011,13.783-4.216c5.502-1.205,10.215-1.807,14.137-1.807C403.43,596.139,404.657,597.556,404.61,600.39z
		 M410.705,643.617c-2.551,0-4.393,0.875-5.527,2.622c-0.897,1.323-1.346,4.016-1.346,8.078c0,11.102,0.378,18.59,1.134,22.463
		c0.662,3.591,2.668,5.385,6.024,5.385c3.448,0,6.07-1.464,7.866-4.393c1.795-2.929,2.693-7.18,2.693-12.756
		c0-8.22-1.513-14.219-4.535-17.999C415.264,644.845,413.16,643.711,410.705,643.617z"/>
	<path fill="#EE0F01" stroke="#353639" stroke-width="1.2094" stroke-miterlimit="10" d="M497.228,627.176v41.171
		c0,3.26,0.294,5.646,0.886,7.157c0.591,1.512,1.782,2.905,3.579,4.181c1.463,1.04,2.445,1.926,2.941,2.657
		c0.496,0.733,0.744,1.665,0.744,2.799c0,6.094-7.724,9.141-23.172,9.141c-8.315,0-14.906-0.662-19.771-1.984
		c-1.654-0.472-2.988-1.299-4.004-2.48c-1.017-1.181-1.523-2.527-1.523-4.039c0-1.276,0.258-2.268,0.78-2.976
		c0.52-0.709,1.842-1.842,3.968-3.401c1.463-1.086,2.504-2.858,3.118-5.315c0.613-2.456,0.921-6.117,0.921-10.983
		c0-1.559-0.106-4.475-0.319-8.752c-0.212-4.275-0.366-6.767-0.46-7.476c-0.283-1.936-1.606-3.424-3.968-4.464
		c-2.93-1.276-4.393-3.164-4.393-5.669c0-2.976,1.913-5.196,5.74-6.661c5.29-2.031,10.959-3.756,17.007-5.173
		c6.047-1.417,10.724-2.126,14.031-2.126C495.927,622.783,497.228,624.248,497.228,627.176z M483.197,596.139
		c4.11,0,7.37,0.769,9.779,2.303c2.41,1.536,3.614,3.603,3.614,6.201c0,3.638-1.819,6.519-5.456,8.645
		c-5.764,3.355-12.731,5.031-20.905,5.031c-3.448,0-6.19-0.661-8.22-1.984c-2.74-1.7-4.11-4.063-4.11-7.086
		c0-4.063,2.905-7.251,8.716-9.566C472.52,597.32,478.048,596.139,483.197,596.139z"/>
	<path fill="#EE0F01" stroke="#353639" stroke-width="1.2094" stroke-miterlimit="10" d="M553.422,622.216
		c8.645,0,16.227,2.244,22.747,6.732c4.677,3.213,8.432,7.394,11.267,12.543c2.929,5.385,4.393,11.008,4.393,16.865
		c0,10.252-4.702,18.968-14.102,26.148c-8.976,6.851-19.251,10.275-30.825,10.275c-11.292,0-20.433-3.212-27.424-9.637
		c-6.803-6.236-10.204-14.361-10.204-24.377c0-11.148,4.156-20.267,12.472-27.353C530.437,625.949,540.996,622.216,553.422,622.216z
		 M547.753,638.585c-2.08,0-3.745,0.769-4.996,2.303c-1.252,1.536-1.878,3.579-1.878,6.13c0,2.834,0.531,6.696,1.594,11.586
		s2.327,9.224,3.791,13.003c1.463,3.874,3.85,5.811,7.157,5.811c4.205,0,6.307-2.669,6.307-8.007c0-3.968-0.531-8.479-1.594-13.534
		c-1.063-5.054-2.35-9.164-3.862-12.33C552.713,640.334,550.54,638.68,547.753,638.585z"/>
	<path fill="#EE0F01" stroke="#353639" stroke-width="1.2094" stroke-miterlimit="10" d="M682.888,648.435l0.992,24.944
		c0.094,1.89,0.389,3.284,0.886,4.181c0.496,0.898,1.948,2.622,4.358,5.173c0.709,0.756,1.063,1.82,1.063,3.189
		c0,3.118-1.867,5.292-5.598,6.519c-3.732,1.228-10.393,1.842-19.983,1.842c-6.519,0-11.125-0.567-13.818-1.7
		c-2.788-1.181-4.181-3.094-4.181-5.74c0-0.944,0.142-1.641,0.425-2.091c0.283-0.448,1.228-1.547,2.834-3.295
		c1.889-1.984,2.834-8.597,2.834-19.841c0-6.519-0.756-11.338-2.268-14.456c-1.23-2.503-3.497-3.756-6.803-3.756
		c-3.165,0-5.339,1.016-6.519,3.047c-1.181,2.032-1.771,5.717-1.771,11.055v14.031c0,2.788,0.177,4.701,0.531,5.74
		c0.354,1.04,1.523,3.047,3.508,6.023c0.52,0.851,0.78,1.82,0.78,2.905c0,2.788-1.938,4.843-5.811,6.165
		c-3.874,1.322-9.921,1.984-18.141,1.984c-13.134,0-19.7-2.716-19.7-8.149c0-1.134,0.201-1.995,0.602-2.587
		c0.4-0.59,1.357-1.429,2.87-2.516c1.228-0.897,2.008-1.924,2.339-3.082c0.329-1.157,0.638-4.004,0.921-8.539
		c0.329-5.385,0.496-11.03,0.496-16.936c0-3.26-0.248-5.397-0.744-6.413c-0.496-1.015-1.925-2.255-4.287-3.72
		c-2.031-1.276-3.047-2.834-3.047-4.677c0-1.889,0.826-3.437,2.48-4.641c1.654-1.205,5.055-2.728,10.204-4.571
		c4.535-1.605,8.904-2.964,13.11-4.074c4.205-1.11,7.086-1.665,8.645-1.665c1.417,0,2.61,0.52,3.579,1.559
		c0.967,1.04,1.453,2.268,1.453,3.685c0,0.142-0.025,0.733-0.071,1.771c-0.048,0.378-0.071,0.709-0.071,0.992
		c0,2.268,0.945,3.402,2.834,3.402c1.134,0,2.339-0.897,3.614-2.693c4.063-5.857,9.967-8.787,17.716-8.787
		c5.953,0,11.054,1.559,15.307,4.677c2.976,2.221,5.055,4.831,6.236,7.83C681.871,638.22,682.604,642.624,682.888,648.435z"/>
</g>
<g display="none">
	<path display="inline" fill="#EF0E01" stroke="#3C3237" stroke-width="1.2163" stroke-miterlimit="10" d="M140.881,595.097
		c5.321,0,10.737,0.475,16.25,1.425c4.513,0.76,7.744,1.805,9.693,3.136c1.947,1.33,2.922,3.16,2.922,5.488
		c0,1.473-0.356,2.625-1.069,3.457c-0.713,0.831-2.257,1.841-4.633,3.029c-2.756,1.425-4.336,3.1-4.739,5.025
		c-0.404,1.924-0.773,9.396-1.105,22.415c-0.143,12.591-0.274,20.146-0.392,22.664c-0.119,2.518-0.416,4.965-0.891,7.341
		c-1.378,6.937-4.158,12.377-8.339,16.321c-3.421,3.232-7.817,5.773-13.185,7.626c-5.37,1.853-11.024,2.78-16.962,2.78
		c-5.274,0-10.56-0.689-15.858-2.067c-5.298-1.378-9.895-3.278-13.791-5.702c-3.232-1.996-5.797-4.692-7.697-8.089
		s-2.851-7.02-2.851-10.869c0-4.751,1.497-8.683,4.49-11.795c2.993-3.112,6.746-4.668,11.261-4.668c4.419,0,8.172,1.307,11.261,3.92
		c3.088,2.661,4.633,5.939,4.633,9.835c0,0.998-0.285,2.661-0.855,4.989c-0.096,0.475-0.143,0.998-0.143,1.568
		c0,1.52,0.546,2.756,1.639,3.706c1.092,0.95,2.541,1.425,4.347,1.425c3.183,0,5.749-1.425,7.697-4.276
		c1.947-2.851,2.922-6.604,2.922-11.261l-0.071-6.486l-0.143-17.461c-0.428-10.596-0.748-16.832-0.962-18.708
		c-0.214-1.877-0.748-3.409-1.604-4.597c-0.713-0.95-1.343-1.568-1.889-1.853c-0.547-0.285-2.031-0.736-4.454-1.354
		c-1.14-0.238-2.115-0.903-2.922-1.996c-0.808-1.093-1.212-2.257-1.212-3.492c0-2.566,1.009-4.621,3.029-6.165
		c2.019-1.544,5.31-2.791,9.871-3.742C130.214,595.619,135.465,595.097,140.881,595.097z"/>
	<path display="inline" fill="#EF0E01" stroke="#3C3237" stroke-width="1.2163" stroke-miterlimit="10" d="M212.223,693.806
		l-9.55,0.071c-6.699,0.095-11.594,0.238-14.682,0.428c-2.756,0.238-4.728,0.356-5.915,0.356c-2.899,0-5.203-0.738-6.913-2.209
		c-1.664-1.472-2.494-3.231-2.494-5.274c0-1.329,0.308-2.376,0.927-3.136c0.617-0.759,2.114-1.948,4.49-3.564
		c1.377-0.95,2.328-2.435,2.851-4.454c0.522-2.019,1.092-6.355,1.71-13.007c0.902-10.358,1.354-23.115,1.354-38.272
		c0-5.559-0.369-9.253-1.105-11.083c-0.737-1.829-2.459-3.338-5.167-4.526c-3.136-1.33-4.704-3.278-4.704-5.844
		c0-2.091,0.938-3.801,2.815-5.131c1.876-1.33,4.288-1.996,7.234-1.996c1.615,0,3.682,0.071,6.201,0.214
		c4.181,0.19,8.695,0.285,13.541,0.285c3.564,0,10.571-0.143,21.025-0.428c3.278-0.095,6.247-0.143,8.909-0.143
		c6.319,0,11.415,0.511,15.287,1.532c3.872,1.022,7.234,2.744,10.085,5.167c4.656,3.944,6.984,9.218,6.984,15.822
		c0,3.278-0.69,6.474-2.067,9.586c-1.378,3.112-3.232,5.595-5.559,7.448c-1.664,1.33-2.494,2.542-2.494,3.635
		c0,1.188,0.998,2.186,2.993,2.993c3.896,1.568,7.435,4.205,10.619,7.911c3.278,3.849,4.918,8.671,4.918,14.468
		c0,6.842-2.494,13.09-7.483,18.744c-6.605,7.46-16.369,11.189-29.292,11.189c-1.759,0-6.082-0.119-12.971-0.356
		C217.497,693.995,213.648,693.854,212.223,693.806z M217.141,616.478v14.682c0,2.328,0.296,3.967,0.891,4.918
		c0.593,0.95,1.627,1.425,3.1,1.425c3.515,0,6.105-1.081,7.768-3.243c1.662-2.162,2.494-5.547,2.494-10.156
		c0-4.466-0.855-7.923-2.566-10.37c-1.71-2.447-4.134-3.67-7.27-3.67c-1.664,0-2.815,0.463-3.457,1.39
		S217.141,614.055,217.141,616.478z M217.141,657.53v6.771c0,6.224,0.451,10.358,1.354,12.401c0.902,2.043,2.731,3.065,5.488,3.065
		c7.221,0,10.833-4.229,10.833-12.686c0-10.548-4.039-15.822-12.116-15.822c-2.091,0-3.54,0.451-4.348,1.354
		C217.544,653.515,217.141,655.154,217.141,657.53z"/>
</g>
</svg>
