<svg xmlns="http://www.w3.org/2000/svg" xmlns:xlink="http://www.w3.org/1999/xlink" viewBox="0 0 350.12 55.76"><defs><style>.cls-1{fill:url(#linear-gradient);}.cls-2{fill:#fff;}</style><linearGradient id="linear-gradient" x1="175.06" y1="-16.28" x2="175.06" y2="56.57" gradientUnits="userSpaceOnUse"><stop offset="0" stop-color="#ea1818"/><stop offset="1" stop-color="#b50e0e"/></linearGradient></defs><title>Asset 2</title><g id="Layer_2" data-name="Layer 2"><g id="OBJECT"><rect class="cls-1" width="350.12" height="55.76" rx="17"/><path class="cls-2" d="M22.56,49.79h-.09a27.66,27.66,0,0,1-3.2-.19l-.3.62a28.49,28.49,0,0,0,3.5.21h.09v-.64Zm6.76,0H25.94v.64h3.38Zm6.76,0H32.7v.64h3.38Zm6.77,0H39.47v.64h3.38Zm6.76,0H46.23v.64h3.38Zm6.76,0H53v.64h3.38Zm6.77,0H59.75v.64h3.39Zm6.76,0H66.52v.64H69.9Zm6.76,0H73.28v.64h3.38Zm6.76,0H80v.64h3.38Zm6.77,0H86.81v.64h3.38Zm6.76,0H93.57v.64H97Zm6.76,0h-3.38v.64h3.38Zm6.77,0h-3.39v.64h3.39Zm6.76,0h-3.38v.64h3.38Zm6.76,0h-3.38v.64H124Zm6.76,0h-3.38v.64h3.38Zm6.77,0h-3.39v.64h3.39Zm6.76,0h-3.38v.64h3.38Zm6.76,0h-3.38v.64h3.38Zm6.76,0h-3.38v.64h3.38Zm6.77,0H161.2v.64h3.38Zm6.76,0H168v.64h3.38Zm6.76,0h-3.38v.64h3.38Zm6.77,0h-3.39v.64h3.39Zm6.76,0h-3.38v.64h3.38Zm6.76,0H195v.64h3.38Zm6.76,0h-3.38v.64h3.38Zm6.77,0h-3.38v.64h3.38Zm6.76,0H215.3v.64h3.38Zm6.76,0h-3.38v.64h3.38Zm6.77,0h-3.39v.64h3.39Zm6.76,0h-3.38v.64H239Zm6.76,0h-3.38v.64h3.38Zm6.76,0h-3.38v.64h3.38Zm6.77,0h-3.39v.64h3.39Zm6.76,0h-3.38v.64H266Zm6.76,0H269.4v.64h3.38Zm6.76,0h-3.38v.64h3.38Zm6.77,0h-3.38v.64h3.38Zm6.76,0h-3.38v.64h3.38Zm6.76,0h-3.38v.64h3.38Zm6.77,0h-3.39v.64h3.39Zm6.76,0H310v.64h3.38Zm6.76,0h-3.38v.64h3.38Zm6.76,0H323.5v.64h3.38Zm6.33-.6a24,24,0,0,1-3.07.48l.23.64a26.52,26.52,0,0,0,3.36-.53l-.51-.59Zm5.1-2A14.72,14.72,0,0,1,336,48.35l.77.52a16.55,16.55,0,0,0,2.53-1.24Zm2.79-2.93A5.23,5.23,0,0,1,340,45.84l1.15.28a5.64,5.64,0,0,0,1.15-1.69l-1.24-.14Zm.32-3.35v1.72h1.27V40.94Zm0-3.43v1.71h1.27V37.51Zm0-3.44v1.72h1.27V34.07Zm0-3.43v1.72h1.27V30.64Zm0-3.43v1.71h1.27V27.21Zm0-3.44v1.72h1.27V23.77Zm0-3.43v1.72h1.27V20.34Zm0-3.43v1.71h1.27V16.91Zm0-3.44v1.72h1.27V13.47Zm-1.09-3.23a5,5,0,0,1,.9,1.58l1.25-.11a5.25,5.25,0,0,0-1-1.72l-1.17.25Zm-3.81-2.61a12.42,12.42,0,0,1,2.21,1.19l1-.38a13.68,13.68,0,0,0-2.41-1.3Zm-5.71-1.47a25.06,25.06,0,0,1,3,.56l.57-.57a23.7,23.7,0,0,0-3.31-.61ZM324.22,6h3.38V5.33h-3.38Zm-6.76,0h3.38V5.33h-3.38Zm-6.77,0h3.39V5.33h-3.39Zm-6.76,0h3.38V5.33h-3.38Zm-6.76,0h3.38V5.33h-3.38Zm-6.76,0h3.38V5.33h-3.38Zm-6.77,0H287V5.33h-3.39Zm-6.76,0h3.38V5.33h-3.38Zm-6.76,0h3.38V5.33h-3.38Zm-6.76,0h3.38V5.33h-3.38Zm-6.77,0H260V5.33h-3.38Zm-6.76,0h3.38V5.33h-3.38Zm-6.76,0h3.38V5.33h-3.38ZM236.3,6h3.39V5.33H236.3Zm-6.76,0h3.38V5.33h-3.38Zm-6.76,0h3.38V5.33h-3.38ZM216,6h3.38V5.33H216Zm-6.77,0h3.38V5.33h-3.38Zm-6.76,0h3.38V5.33h-3.38Zm-6.76,0h3.38V5.33h-3.38ZM189,6h3.38V5.33H189ZM182.2,6h3.38V5.33H182.2Zm-6.76,0h3.38V5.33h-3.38Zm-6.76,0h3.38V5.33h-3.38Zm-6.77,0h3.39V5.33h-3.39Zm-6.76,0h3.38V5.33h-3.38Zm-6.76,0h3.38V5.33h-3.38Zm-6.76,0H145V5.33h-3.38Zm-6.77,0h3.38V5.33h-3.38ZM128.1,6h3.38V5.33H128.1Zm-6.76,0h3.38V5.33h-3.38Zm-6.77,0H118V5.33h-3.39Zm-6.76,0h3.38V5.33h-3.38Zm-6.76,0h3.38V5.33h-3.38ZM94.29,6h3.38V5.33H94.29ZM87.52,6H90.9V5.33H87.52ZM80.76,6h3.38V5.33H80.76ZM74,6h3.38V5.33H74ZM67.23,6h3.39V5.33H67.23ZM60.47,6h3.38V5.33H60.47ZM53.71,6h3.38V5.33H53.71ZM47,6h3.38V5.33H47ZM40.18,6h3.39V5.33H40.18ZM33.42,6H36.8V5.33H33.42ZM26.66,6H30V5.33H26.66ZM20,6.09C20.82,6,21.64,6,22.47,6h.81V5.33h-.81q-1.37,0-2.67.12l.22.64ZM14.16,7.4a19.69,19.69,0,0,1,2.78-.83L16.43,6a21.27,21.27,0,0,0-3,.9l.77.52ZM10.09,9.91a8.89,8.89,0,0,1,1.75-1.38l-1-.41A9.61,9.61,0,0,0,9,9.62ZM8.7,13.09V13A3.68,3.68,0,0,1,9,11.45l-1.24-.14A4,4,0,0,0,7.43,13v.12Zm0,3.43V14.8H7.43v1.72ZM8.7,20V18.24H7.43V20Zm0,3.44V21.67H7.43v1.72Zm0,3.43V25.1H7.43v1.72Zm0,3.43V28.54H7.43v1.71Zm0,3.44V32H7.43v1.72Zm0,3.43V35.4H7.43v1.72Zm0,3.43V38.84H7.43v1.71Zm.18,3.38A3.66,3.66,0,0,1,8.7,42.8v-.53H7.43v.53A4,4,0,0,0,7.63,44l1.25-.1Zm2.48,3A7.62,7.62,0,0,1,9.77,45.5l-1.17.25a8.57,8.57,0,0,0,1.74,1.56l1-.39ZM16.25,49a17.67,17.67,0,0,1-2.69-.91l-.82.49a20.1,20.1,0,0,0,2.93,1Z"/></g></g></svg>