<svg id="Layer_1" height="512" viewBox="0 0 512 512" width="512" xmlns="http://www.w3.org/2000/svg" data-name="Layer 1"><path d="m190.418 380.155h20.643a6 6 0 1 0 0-12h-20.643a6 6 0 0 0 0 12z"/><path d="m228.614 380.155h102.137a6 6 0 0 0 0-12h-102.137a6 6 0 0 0 0 12z"/><path d="m181.249 408.43h119.961a6 6 0 0 0 0-12h-119.961a6 6 0 1 0 0 12z"/><path d="m312.763 402.43a6 6 0 0 0 6 6h18.406a6 6 0 0 0 0-12h-18.406a6 6 0 0 0 -6 6z"/><path d="m162.912 441.721h139.836a6 6 0 1 0 0-12h-139.836a6 6 0 0 0 0 12z"/><path d="m314.3 435.721a6 6 0 0 0 6 6h28.787a6 6 0 0 0 0-12h-28.787a6 6 0 0 0 -6 6z"/><path d="m237.03 458h-83.286a6 6 0 0 0 0 12h83.286a6 6 0 0 0 0-12z"/><path d="m248.583 464a6 6 0 0 0 6 6h103.673a6 6 0 0 0 0-12h-103.673a6 6 0 0 0 -6 6z"/><path d="m64.11 391.841h69.066l-19.576 102.941a5.982 5.982 0 0 0 5.875 7.218h273.05a5.982 5.982 0 0 0 5.876-7.218l-19.577-102.941h69.066a25.825 25.825 0 0 0 25.8-25.8v-125.274a25.767 25.767 0 0 0 -10.2-20.532l-41.625-73.294a25.8 25.8 0 0 0 -22.431-13.057h-12.141l-11.071-74.759a24.288 24.288 0 0 0 -24-21.611l-3.422-22.414a6 6 0 0 0 -5.931-5.1h-173.737a6 6 0 0 0 -5.931 5.1l-3.419 22.419a24.288 24.288 0 0 0 -24 21.612l-11.071 74.758h-13.68a25.827 25.827 0 0 0 -22.5 13.174l-41.988 74.837a25.723 25.723 0 0 0 -8.233 18.869v125.276a25.825 25.825 0 0 0 25.8 25.796zm321.167 98.159h-258.554l29.3-154.065h131.187a6 6 0 0 0 0-12h-136.153a6 6 0 0 0 -5.894 4.878l-4.053 21.31h-24.61v-34.585h279v34.585h-24.61l-4.053-21.31a6 6 0 0 0 -5.894-4.878h-33.733a6 6 0 0 0 0 12h28.767zm-20.977-429.469c.008.08.019.16.031.24l10.827 73.113h-8.247l-12.841-84.2a12.308 12.308 0 0 1 10.23 10.847zm-216.639.24c.012-.08.023-.16.031-.24a12.308 12.308 0 0 1 10.23-10.849l-12.841 84.2h-8.248zm-48.661 92.159a13.813 13.813 0 0 1 12.033-7.046h69.707a6 6 0 0 0 0-12h-23.516l17.062-111.884h163.428l17.062 111.884h-134.036a6 6 0 0 0 0 12h178.689a13.8 13.8 0 0 1 12 6.983l35.269 62.1h-382.51zm-48.687 87.837a13.812 13.812 0 0 1 13.8-13.8h383.777a13.812 13.812 0 0 1 13.8 13.8v125.278a13.812 13.812 0 0 1 -13.8 13.8h-71.348l-3.37-17.718h28.328a6 6 0 0 0 6-6v-46.589a6 6 0 0 0 -6-6h-291a6 6 0 0 0 -6 6v46.585a6 6 0 0 0 6 6h28.328l-3.37 17.718h-71.348a13.812 13.812 0 0 1 -13.8-13.8z"/><path d="m390.957 275.047a16.544 16.544 0 1 0 -16.543-16.547 16.562 16.562 0 0 0 16.543 16.547zm0-21.087a4.544 4.544 0 1 1 -4.543 4.544 4.549 4.549 0 0 1 4.543-4.544z"/><path d="m344.078 275.047a16.544 16.544 0 1 0 -16.543-16.547 16.562 16.562 0 0 0 16.543 16.547zm0-21.087a4.544 4.544 0 1 1 -4.543 4.544 4.55 4.55 0 0 1 4.543-4.544z"/><path d="m81.96 259.178h5.306a6 6 0 0 0 0-12h-5.306a6 6 0 0 0 0 12z"/><path d="m104.8 286.683h153.789a6 6 0 0 0 6-6v-27.506a6 6 0 0 0 -6-6h-153.789a6 6 0 0 0 -6 6v27.506a6 6 0 0 0 6 6zm6-27.5h141.789v15.5h-141.789z"/></svg>