<?xml version="1.0" encoding="utf-8"?>
<!-- Generator: Adobe Illustrator 17.0.0, SVG Export Plug-In . SVG Version: 6.00 Build 0)  -->
<!DOCTYPE svg PUBLIC "-//W3C//DTD SVG 1.1//EN" "http://www.w3.org/Graphics/SVG/1.1/DTD/svg11.dtd">
<svg version="1.1" id="Layer_1" xmlns="http://www.w3.org/2000/svg" xmlns:xlink="http://www.w3.org/1999/xlink" x="0px" y="0px"
	 width="608.5px" height="165px" viewBox="-66.5 0 608.5 165" enable-background="new -66.5 0 608.5 165" xml:space="preserve">
<path fill="#F47C2A" d="M-9.238,160.73c-0.098-0.072-0.207-0.162-0.32-0.264c-1.845-2.286-13.248-16.568-24.866-34.89
	c-3.485-5.84-5.748-10.393-5.313-11.57c1.136-3.061,21.393-4.737,27.63-1.961c1.896,0.843,1.849,1.957,1.849,2.605
	c0,2.805-0.139,10.324-0.139,10.324c0.002,1.555,1.265,2.815,2.821,2.813c1.558,0,2.816-1.267,2.811-2.823l-0.032-18.739h-0.005
	c0-1.627-1.775-2.033-2.109-2.098c-3.256-0.015-9.868-0.037-16.968-0.037c-15.665,0-19.166,0.646-21.828-1.098
	c-5.766-3.77-15.194-29.182-15.414-43.48c-0.314-20.17,11.638-37.633,28.468-46.286c7.031-3.54,14.972-5.535,23.359-5.535
	c26.636,0,48.572,20.104,51.491,45.971c0.003,0.022,0.003,0.047,0.009,0.069c0.535,6.253-33.931,7.583-40.748,5.763
	c-1.045-0.279-1.313-1.35-1.313-1.81c-0.008-4.756-0.04-18.137-0.04-18.137C0.1,37.991-1.164,36.73-2.72,36.734h-0.002
	c-1.554,0.002-2.814,1.267-2.814,2.824l0.056,24.65c0.047,1.553,1.351,1.973,1.708,2.043c3.877,0,12.943-0.008,21.388-0.008
	c11.414,0,16.207,1.322,19.397,3.749c2.121,1.618,2.942,4.715,2.225,8.738C32.838,114.531-7.714,158.88-9.238,160.73z"/>
<path fill="#F47C2A" d="M104.955,69.939c12.138,5.202,19.658,10.975,19.658,23.643c0,12.939-9.804,21.3-24.972,21.3
	c-12.29,0-22.157-5.569-27.069-15.277l-0.796-1.567l14.452-8.373l0.948,1.547c3.254,5.319,6.891,7.584,12.168,7.584
	c4.548,0,7.605-2.014,7.605-5.016c0-3.326-2.212-4.572-9.05-7.569l-3.475-1.488c-9.273-3.953-17.865-9.445-17.865-22.749
	c0-11.954,9.163-20.303,22.284-20.303c9.94,0,16.753,3.847,21.444,12.106l0.87,1.534l-14.002,8.998l-0.964-1.727
	c-2.341-4.188-4.545-5.029-7.347-5.029c-2.928,0-4.815,1.616-4.815,4.122c0,2.877,1.39,4.14,7.448,6.764L104.955,69.939z"/>
<path fill="#F47C2A" d="M207.244,72.388l10.201-28.447h17.51l-25.951,72.115h-3.889l-15.74-33.775
	c-0.733-1.546-1.486-3.468-2.138-5.228c-0.666,1.765-1.439,3.691-2.172,5.238l-16.356,33.766h-3.863l-26.367-72.115h18.705
	l10.314,28.447c0.658,1.815,1.333,4.029,1.924,6.08c0.701-2.12,1.543-4.406,2.425-6.249l13.546-28.87h3.748l13.755,28.871
	c0.879,1.844,1.724,4.131,2.42,6.248C205.912,76.417,206.591,74.203,207.244,72.388z"/>
<rect x="255.377" y="42.469" fill="#F47C2A" width="17.672" height="71.517"/>
<path fill="#F47C2A" d="M330.993,89.957V73.975h32.817v32.051l-0.68,0.561c-3.752,3.083-13.708,8.297-27.189,8.297
	c-22.746,0-38.625-15.071-38.625-36.653c0-21.18,15.32-36.554,36.434-36.554c11.61,0,20.119,3.272,26.009,10.007l1.153,1.316
	l-12.046,11.925l-1.309-1.348c-3.367-3.469-6.852-5.617-13.807-5.617c-10.813,0-18.368,8.335-18.368,20.273
	c0,12.434,8.067,20.472,20.559,20.472c4.144,0,8.456-0.712,11.391-1.855v-6.89h-16.339V89.957z"/>
<path fill="#F47C2A" d="M420.552,89.957V73.975h32.817v32.051l-0.68,0.561c-3.756,3.083-13.707,8.297-27.187,8.297
	c-22.745,0-38.628-15.071-38.628-36.653c0-21.18,15.326-36.554,36.432-36.554c11.615,0,20.127,3.272,26.016,10.007l1.152,1.316
	l-12.042,11.925l-1.313-1.348c-3.363-3.469-6.851-5.617-13.811-5.617c-10.811,0-18.363,8.335-18.363,20.273
	c0,12.434,8.069,20.472,20.56,20.472c4.144,0,8.456-0.712,11.391-1.855v-6.89h-16.344V89.957z"/>
<path fill="#F47C2A" d="M518.121,42.469h18.472l-25.354,47.59v23.927h-17.769v-22.91l-27.009-48.607h19.709l12.482,22.802
	c1.343,2.479,2.744,5.76,3.803,8.42c1.014-2.64,2.354-5.889,3.686-8.399L518.121,42.469z"/>
</svg>
