<svg enable-background="new 0 0 24 24" height="512" viewBox="0 0 24 24" width="512" xmlns="http://www.w3.org/2000/svg"><path d="m20.5 22h-18c-1.379 0-2.5-1.122-2.5-2.5v-14c0-.276.224-.5.5-.5s.5.224.5.5v14c0 .827.673 1.5 1.5 1.5h18c.275 0 .5-.224.5-.5v-3c0-.276.224-.5.5-.5s.5.224.5.5v3c0 .827-.673 1.5-1.5 1.5z"/><path d="m21.5 12c-.276 0-.5-.224-.5-.5v-3c0-.276-.225-.5-.5-.5h-18c-.675 0-1.303-.263-1.769-.741-.468-.456-.731-1.084-.731-1.759 0-1.378 1.121-2.5 2.5-2.5h8.55c.276 0 .5.224.5.5s-.224.5-.5.5h-8.55c-.827 0-1.5.673-1.5 1.5 0 .403.156.776.438 1.052.286.292.66.448 1.062.448h18c.827 0 1.5.673 1.5 1.5v3c0 .276-.224.5-.5.5z"/><path d="m18.5 8c-.276 0-.5-.224-.5-.5v-3c0-.276-.225-.5-.5-.5h-1.83c-.276 0-.5-.224-.5-.5s.224-.5.5-.5h1.83c.827 0 1.5.673 1.5 1.5v3c0 .276-.224.5-.5.5z"/><path d="m18 8c-.172 0-.339-.089-.432-.248l-3.245-5.563-9.566 5.74c-.234.142-.543.066-.686-.172-.142-.236-.065-.544.172-.686l10-6c.114-.069.252-.087.381-.056.13.033.24.117.308.232l3.5 6c.14.239.059.545-.18.684-.079.047-.166.069-.252.069z"/><path d="m23.5 18h-5c-1.93 0-3.5-1.57-3.5-3.5s1.57-3.5 3.5-3.5h5c.276 0 .5.224.5.5v6c0 .276-.224.5-.5.5zm-5-6c-1.379 0-2.5 1.122-2.5 2.5s1.121 2.5 2.5 2.5h4.5v-5z"/><path d="m18.5 16c-.827 0-1.5-.673-1.5-1.5s.673-1.5 1.5-1.5 1.5.673 1.5 1.5-.673 1.5-1.5 1.5zm0-2c-.275 0-.5.224-.5.5s.225.5.5.5.5-.224.5-.5-.225-.5-.5-.5z"/></svg>