<?xml version="1.0" encoding="utf-8"?>
<!-- Generator: Adobe Illustrator 17.0.0, SVG Export Plug-In . SVG Version: 6.00 Build 0)  -->
<!DOCTYPE svg PUBLIC "-//W3C//DTD SVG 1.1//EN" "http://www.w3.org/Graphics/SVG/1.1/DTD/svg11.dtd">
<svg version="1.1" id="layer" xmlns="http://www.w3.org/2000/svg" xmlns:xlink="http://www.w3.org/1999/xlink" x="0px" y="0px"
	 width="701px" height="156px" viewBox="152.5 554.5 701 156" enable-background="new 152.5 554.5 701 156" xml:space="preserve">
<g id="Group" transform="translate(31.000000, 221.000000)">
	<path id="zomato-copy-10" fill="#E23744" d="M232.225,372.512l-0.628,19.946l-51.985,56.54c21.674,0,35.494-0.157,43.347-0.628
		c-2.356,10.68-4.24,19.475-6.125,32.668c-10.366-0.942-26.699-1.099-43.033-1.099c-18.218,0-34.081,0.157-46.802,1.099
		l0.471-20.103l51.985-56.226c-22.773,0-31.097,0.157-40.52,0.471c2.042-10.052,3.612-21.202,5.026-32.353
		c16.648,0.314,23.244,0.628,44.604,0.628C208.509,373.454,219.66,373.14,232.225,372.512z M269.133,435.02
		c0,13.35,4.398,20.103,11.936,20.103c10.052,0,17.904-16.177,17.904-35.966c0-13.507-4.398-20.103-11.622-20.103
		C277.299,399.054,269.133,415.074,269.133,435.02z M337.452,417.586c0,36.28-25.6,66.591-59.681,66.591
		c-30.469,0-46.174-20.731-46.174-47.902c0-36.123,25.914-66.277,59.681-66.277C322.217,369.999,337.452,390.73,337.452,417.586z
		 M746.266,435.02c0,13.35,4.398,20.103,11.936,20.103c10.052,0,17.904-16.177,17.904-35.966c0-13.507-4.398-20.103-11.622-20.103
		C754.433,399.054,746.266,415.074,746.266,435.02z M815.842,416.958c0,36.751-26.071,67.377-60.466,67.377
		c-30.94,0-46.645-21.045-46.645-48.53c0-36.594,26.228-67.22,60.466-67.22C800.45,368.585,815.842,389.631,815.842,416.958z
		 M512.882,405.179c2.67-18.69,1.256-35.494-19.475-35.494c-15.077,0-31.254,12.721-42.719,33.924
		c2.513-17.59,1.099-33.924-19.475-33.924c-15.391,0-32.196,13.35-43.661,35.494c2.984-14.449,2.356-30.94,1.413-34.395
		c-11.936,2.042-22.302,3.141-36.908,3.455c0.471,10.052-0.157,23.244-2.042,35.652l-4.869,32.825
		c-1.885,12.879-3.926,27.799-6.125,37.222h38.793c0.157-5.654,1.728-14.606,2.67-22.616l3.298-22.616
		c2.67-14.606,14.449-32.039,23.401-32.039c5.183,0,5.026,5.026,3.612,14.449l-3.769,25.443
		c-1.885,12.879-3.926,27.799-6.125,37.222h39.264c0.157-5.654,1.414-14.606,2.513-22.616l3.298-22.616
		c2.67-14.606,14.449-32.039,23.401-32.039c5.183,0,5.026,4.869,4.241,11.308l-9.423,65.649h35.809L512.882,405.179z
		 M700.249,449.155l-4.241,25.914c-6.439,3.455-18.532,8.481-32.51,8.481c-23.715,0-28.584-12.721-24.815-39.578l6.125-43.347
		h-11.779l3.298-28.113l12.721-0.628l4.869-20.417l36.123-13.507l-4.555,33.924h24.815c-0.785,3.455-3.769,22.773-4.555,28.741
		H681.56l-5.497,40.049c-1.413,10.366-0.628,13.978,6.439,13.978C687.842,454.652,695.537,451.51,700.249,449.155z"/>
	<path id="a-copy-7" fill="#E23744" d="M563.454,461.405c13.193-1.571,22.145-14.292,24.344-26.856l0.314-3.455
		c-5.654-1.256-13.821-2.199-21.674-1.256c-7.539,0.942-13.821,4.083-17.119,8.638c-2.513,3.298-3.769,7.225-3.298,11.779
		C546.806,457.164,554.502,462.504,563.454,461.405z M552.146,481.508c-18.533,2.356-30.783-5.026-34.395-21.831
		c-2.356-10.523,0.942-22.459,6.439-29.683c7.539-9.423,19.632-15.391,34.552-17.276c11.936-1.414,21.988-0.785,31.411,1.099
		l0.471-1.571c0.314-2.513,0.471-5.183,0.157-8.324c-0.942-7.853-7.225-12.721-22.616-10.837
		c-10.366,1.256-20.417,5.026-28.113,9.266l-7.539-22.616c10.366-5.968,23.558-10.523,38.636-12.407
		c28.741-3.612,49.001,5.654,51.514,26.699c0.628,5.654,0.785,11.622,0,16.962c-3.769,26.071-6.125,45.703-7.068,58.896
		c-0.157,2.042-0.157,5.497,0,10.523h-35.652c0.785-2.042,1.414-4.869,2.042-8.324c0.471-2.356,0.628-5.183,0.942-8.795
		C575.547,473.655,565.182,479.937,552.146,481.508z"/>
</g>
</svg>
